<svg width="383" height="193" viewBox="0 0 383 193" fill="none" xmlns="http://www.w3.org/2000/svg">
<g filter="url(#filter0_d_2716_16143)">
<rect x="7" y="6.42188" width="173" height="80" rx="4" fill="white"/>
<rect x="7.25" y="6.67188" width="172.5" height="79.5" rx="3.75" stroke="#F24E1E" stroke-width="0.5"/>
</g>
<g filter="url(#filter1_d_2716_16143)">
<rect x="7" y="102.422" width="173" height="80" rx="4" fill="white"/>
<rect x="7.25" y="102.672" width="172.5" height="79.5" rx="3.75" stroke="#F24E1E" stroke-width="0.5"/>
</g>
<g filter="url(#filter2_d_2716_16143)">
<rect x="201" y="6.42188" width="173" height="80" rx="4" fill="white"/>
<rect x="201.25" y="6.67188" width="172.5" height="79.5" rx="3.75" stroke="#F24E1E" stroke-width="0.5"/>
</g>
<g filter="url(#filter3_d_2716_16143)">
<rect x="201" y="102.422" width="173" height="80" rx="4" fill="white"/>
<rect x="201.25" y="102.672" width="172.5" height="79.5" rx="3.75" stroke="#F24E1E" stroke-width="0.5"/>
</g>
<path d="M40.8659 40.5899C39.8952 40.5899 39.0552 40.3799 38.3459 39.9599C37.6459 39.5305 37.1046 38.9379 36.7219 38.1819C36.3392 37.4165 36.1479 36.5345 36.1479 35.5359C36.1479 34.5279 36.3392 33.6459 36.7219 32.8899C37.1046 32.1245 37.6459 31.5272 38.3459 31.0979C39.0552 30.6685 39.8952 30.4539 40.8659 30.4539C42.0139 30.4539 42.9519 30.7339 43.6799 31.2939C44.4079 31.8539 44.8699 32.6379 45.0659 33.6459H43.4139C43.2832 33.0765 43.0032 32.6239 42.5739 32.2879C42.1446 31.9519 41.5706 31.7839 40.8519 31.7839C39.8719 31.7839 39.0972 32.1199 38.5279 32.7919C37.9586 33.4545 37.6739 34.3692 37.6739 35.5359C37.6739 36.6932 37.9586 37.6032 38.5279 38.2659C39.0972 38.9285 39.8719 39.2599 40.8519 39.2599C41.5706 39.2599 42.1446 39.1012 42.5739 38.7839C43.0032 38.4665 43.2832 38.0325 43.4139 37.4819H45.0659C44.8699 38.4525 44.4079 39.2132 43.6799 39.7639C42.9519 40.3145 42.0139 40.5899 40.8659 40.5899ZM47.2894 40.4219L50.9014 30.6219H52.5254L56.1094 40.4219H54.5414L53.7014 38.0279H49.6974L48.8574 40.4219H47.2894ZM50.1174 36.8519H53.2814L51.6994 32.3859L50.1174 36.8519ZM58.876 40.4219V30.6219H60.626L63.944 37.1459L67.248 30.6219H68.998V40.4219H67.514V33.1839L64.518 39.0219H63.37L60.36 33.1979V40.4219H58.876ZM72.3893 40.4219V30.6219H76.0853C77.1026 30.6219 77.8726 30.8599 78.3953 31.3359C78.918 31.8119 79.1793 32.4092 79.1793 33.1279C79.1793 33.7532 79.0113 34.2525 78.6753 34.6259C78.3393 34.9899 77.9333 35.2372 77.4573 35.3679C77.8306 35.4425 78.162 35.5919 78.4513 35.8159C78.75 36.0399 78.9833 36.3199 79.1513 36.6559C79.3193 36.9919 79.4033 37.3559 79.4033 37.7479C79.4033 38.2519 79.2773 38.7092 79.0253 39.1199C78.7826 39.5212 78.4233 39.8385 77.9473 40.0719C77.4713 40.3052 76.888 40.4219 76.1973 40.4219H72.3893ZM73.8733 34.8219H75.9033C76.4726 34.8219 76.9066 34.6912 77.2053 34.4299C77.504 34.1592 77.6533 33.7905 77.6533 33.3239C77.6533 32.8665 77.504 32.5025 77.2053 32.2319C76.916 31.9612 76.4726 31.8259 75.8753 31.8259H73.8733V34.8219ZM73.8733 39.2039H76.0013C76.5986 39.2039 77.0606 39.0639 77.3873 38.7839C77.7233 38.5039 77.8913 38.1119 77.8913 37.6079C77.8913 37.1039 77.7186 36.7072 77.3733 36.4179C77.028 36.1192 76.5613 35.9699 75.9733 35.9699H73.8733V39.2039ZM82.4299 40.4219V30.6219H83.9139V40.4219H82.4299ZM86.6726 40.4219L90.2846 30.6219H91.9086L95.4926 40.4219H93.9246L93.0846 38.0279H89.0806L88.2406 40.4219H86.6726ZM89.5006 36.8519H92.6646L91.0826 32.3859L89.5006 36.8519ZM98.2592 40.4219V30.6219H100.009L103.327 37.1459L106.631 30.6219H108.381V40.4219H106.897V33.1839L103.901 39.0219H102.753L99.7432 33.1979V40.4219H98.2592ZM111.773 40.4219V30.6219H118.003V31.8259H113.257V34.8779H117.583V36.0539H113.257V39.2179H118.003V40.4219H111.773ZM121.171 40.4219V30.6219H122.655L127.569 37.9999V30.6219H129.053V40.4219H127.569L122.655 33.0439V40.4219H121.171ZM134.738 40.4219V31.8259H131.84V30.6219H139.106V31.8259H136.222V40.4219H134.738ZM145.979 40.5899C145.008 40.5899 144.159 40.3752 143.431 39.9459C142.703 39.5165 142.134 38.9239 141.723 38.1679C141.312 37.4025 141.107 36.5205 141.107 35.5219C141.107 34.5232 141.312 33.6459 141.723 32.8899C142.134 32.1245 142.703 31.5272 143.431 31.0979C144.159 30.6685 145.008 30.4539 145.979 30.4539C146.95 30.4539 147.799 30.6685 148.527 31.0979C149.255 31.5272 149.82 32.1245 150.221 32.8899C150.632 33.6459 150.837 34.5232 150.837 35.5219C150.837 36.5205 150.632 37.4025 150.221 38.1679C149.82 38.9239 149.255 39.5165 148.527 39.9459C147.799 40.3752 146.95 40.5899 145.979 40.5899ZM145.979 39.2599C146.651 39.2599 147.234 39.1105 147.729 38.8119C148.233 38.5132 148.625 38.0839 148.905 37.5239C149.185 36.9639 149.325 36.2965 149.325 35.5219C149.325 34.7472 149.185 34.0799 148.905 33.5199C148.625 32.9599 148.233 32.5305 147.729 32.2319C147.234 31.9332 146.651 31.7839 145.979 31.7839C145.307 31.7839 144.719 31.9332 144.215 32.2319C143.711 32.5305 143.319 32.9599 143.039 33.5199C142.768 34.0799 142.633 34.7472 142.633 35.5219C142.633 36.2965 142.768 36.9639 143.039 37.5239C143.319 38.0839 143.711 38.5132 144.215 38.8119C144.719 39.1105 145.307 39.2599 145.979 39.2599ZM55.9788 61.5899C55.0081 61.5899 54.1681 61.3799 53.4588 60.9599C52.7588 60.5305 52.2175 59.9379 51.8348 59.1819C51.4521 58.4165 51.2608 57.5345 51.2608 56.5359C51.2608 55.5279 51.4521 54.6459 51.8348 53.8899C52.2175 53.1245 52.7588 52.5272 53.4588 52.0979C54.1681 51.6685 55.0081 51.4539 55.9788 51.4539C57.1268 51.4539 58.0648 51.7339 58.7928 52.2939C59.5208 52.8539 59.9828 53.6379 60.1788 54.6459H58.5268C58.3961 54.0765 58.1161 53.6239 57.6868 53.2879C57.2575 52.9519 56.6835 52.7839 55.9648 52.7839C54.9848 52.7839 54.2101 53.1199 53.6408 53.7919C53.0715 54.4545 52.7868 55.3692 52.7868 56.5359C52.7868 57.6932 53.0715 58.6032 53.6408 59.2659C54.2101 59.9285 54.9848 60.2599 55.9648 60.2599C56.6835 60.2599 57.2575 60.1012 57.6868 59.7839C58.1161 59.4665 58.3961 59.0325 58.5268 58.4819H60.1788C59.9828 59.4525 59.5208 60.2132 58.7928 60.7639C58.0648 61.3145 57.1268 61.5899 55.9788 61.5899ZM63.21 61.4219V51.6219H64.694V60.2459H69.146V61.4219H63.21ZM72.1432 61.4219V51.6219H73.6272V61.4219H72.1432ZM77.0159 61.4219V51.6219H78.7659L82.0839 58.1459L85.3879 51.6219H87.1379V61.4219H85.6539V54.1839L82.6579 60.0219H81.5099L78.4999 54.1979V61.4219H77.0159ZM89.8992 61.4219L93.5112 51.6219H95.1352L98.7192 61.4219H97.1512L96.3112 59.0279H92.3072L91.4672 61.4219H89.8992ZM92.7272 57.8519H95.8912L94.3092 53.3859L92.7272 57.8519ZM102.715 61.4219V52.8259H99.8174V51.6219H107.083V52.8259H104.199V61.4219H102.715ZM109.872 61.4219V51.6219H111.356V61.4219H109.872ZM119.113 61.5899C118.142 61.5899 117.302 61.3799 116.593 60.9599C115.893 60.5305 115.351 59.9379 114.969 59.1819C114.586 58.4165 114.395 57.5345 114.395 56.5359C114.395 55.5279 114.586 54.6459 114.969 53.8899C115.351 53.1245 115.893 52.5272 116.593 52.0979C117.302 51.6685 118.142 51.4539 119.113 51.4539C120.261 51.4539 121.199 51.7339 121.927 52.2939C122.655 52.8539 123.117 53.6379 123.313 54.6459H121.661C121.53 54.0765 121.25 53.6239 120.821 53.2879C120.391 52.9519 119.817 52.7839 119.099 52.7839C118.119 52.7839 117.344 53.1199 116.775 53.7919C116.205 54.4545 115.921 55.3692 115.921 56.5359C115.921 57.6932 116.205 58.6032 116.775 59.2659C117.344 59.9285 118.119 60.2599 119.099 60.2599C119.817 60.2599 120.391 60.1012 120.821 59.7839C121.25 59.4665 121.53 59.0325 121.661 58.4819H123.313C123.117 59.4525 122.655 60.2132 121.927 60.7639C121.199 61.3145 120.261 61.5899 119.113 61.5899ZM130.866 61.5899C129.895 61.5899 129.046 61.3752 128.318 60.9459C127.59 60.5165 127.021 59.9239 126.61 59.1679C126.199 58.4025 125.994 57.5205 125.994 56.5219C125.994 55.5232 126.199 54.6459 126.61 53.8899C127.021 53.1245 127.59 52.5272 128.318 52.0979C129.046 51.6685 129.895 51.4539 130.866 51.4539C131.837 51.4539 132.686 51.6685 133.414 52.0979C134.142 52.5272 134.707 53.1245 135.108 53.8899C135.519 54.6459 135.724 55.5232 135.724 56.5219C135.724 57.5205 135.519 58.4025 135.108 59.1679C134.707 59.9239 134.142 60.5165 133.414 60.9459C132.686 61.3752 131.837 61.5899 130.866 61.5899ZM130.866 60.2599C131.538 60.2599 132.121 60.1105 132.616 59.8119C133.12 59.5132 133.512 59.0839 133.792 58.5239C134.072 57.9639 134.212 57.2965 134.212 56.5219C134.212 55.7472 134.072 55.0799 133.792 54.5199C133.512 53.9599 133.12 53.5305 132.616 53.2319C132.121 52.9332 131.538 52.7839 130.866 52.7839C130.194 52.7839 129.606 52.9332 129.102 53.2319C128.598 53.5305 128.206 53.9599 127.926 54.5199C127.655 55.0799 127.52 55.7472 127.52 56.5219C127.52 57.2965 127.655 57.9639 127.926 58.5239C128.206 59.0839 128.598 59.5132 129.102 59.8119C129.606 60.1105 130.194 60.2599 130.866 60.2599Z" fill="#F24E1E"/>
<path d="M59.4913 136.422V126.622H62.9213C63.6866 126.622 64.3213 126.753 64.8253 127.014C65.3293 127.266 65.7026 127.616 65.9453 128.064C66.1973 128.503 66.3233 129.002 66.3233 129.562C66.3233 130.094 66.2019 130.584 65.9593 131.032C65.7259 131.471 65.3573 131.821 64.8533 132.082C64.3493 132.343 63.7053 132.474 62.9213 132.474H60.9753V136.422H59.4913ZM60.9753 131.256H62.8513C63.5513 131.256 64.0506 131.107 64.3493 130.808C64.6573 130.5 64.8113 130.085 64.8113 129.562C64.8113 129.021 64.6573 128.601 64.3493 128.302C64.0506 127.994 63.5513 127.84 62.8513 127.84H60.9753V131.256ZM73.7121 136.59C72.7414 136.59 71.8921 136.375 71.1641 135.946C70.4361 135.517 69.8668 134.924 69.4561 134.168C69.0454 133.403 68.8401 132.521 68.8401 131.522C68.8401 130.523 69.0454 129.646 69.4561 128.89C69.8668 128.125 70.4361 127.527 71.1641 127.098C71.8921 126.669 72.7414 126.454 73.7121 126.454C74.6828 126.454 75.5321 126.669 76.2601 127.098C76.9881 127.527 77.5528 128.125 77.9541 128.89C78.3648 129.646 78.5701 130.523 78.5701 131.522C78.5701 132.521 78.3648 133.403 77.9541 134.168C77.5528 134.924 76.9881 135.517 76.2601 135.946C75.5321 136.375 74.6828 136.59 73.7121 136.59ZM73.7121 135.26C74.3841 135.26 74.9674 135.111 75.4621 134.812C75.9661 134.513 76.3581 134.084 76.6381 133.524C76.9181 132.964 77.0581 132.297 77.0581 131.522C77.0581 130.747 76.9181 130.08 76.6381 129.52C76.3581 128.96 75.9661 128.531 75.4621 128.232C74.9674 127.933 74.3841 127.784 73.7121 127.784C73.0401 127.784 72.4521 127.933 71.9481 128.232C71.4441 128.531 71.0521 128.96 70.7721 129.52C70.5014 130.08 70.3661 130.747 70.3661 131.522C70.3661 132.297 70.5014 132.964 70.7721 133.524C71.0521 134.084 71.4441 134.513 71.9481 134.812C72.4521 135.111 73.0401 135.26 73.7121 135.26ZM84.1658 136.422L80.5398 126.622H82.1218L85.0618 134.882L88.0158 126.622H89.5838L85.9578 136.422H84.1658ZM92.2381 136.422V126.622H98.4681V127.826H93.7221V130.878H98.0481V132.054H93.7221V135.218H98.4681V136.422H92.2381ZM101.636 136.422V126.622H105.01C105.785 126.622 106.42 126.753 106.914 127.014C107.418 127.275 107.792 127.63 108.034 128.078C108.277 128.517 108.398 129.007 108.398 129.548C108.398 130.155 108.235 130.705 107.908 131.2C107.591 131.695 107.092 132.049 106.41 132.264L108.496 136.422H106.774L104.87 132.474H103.12V136.422H101.636ZM103.12 131.354H104.926C105.598 131.354 106.088 131.191 106.396 130.864C106.714 130.537 106.872 130.113 106.872 129.59C106.872 129.067 106.718 128.652 106.41 128.344C106.102 128.027 105.603 127.868 104.912 127.868H103.12V131.354ZM113.85 136.422V127.826H110.952V126.622H118.218V127.826H115.334V136.422H113.85ZM119.31 136.422L122.922 126.622H124.546L128.13 136.422H126.562L125.722 134.028H121.718L120.878 136.422H119.31ZM122.138 132.852H125.302L123.72 128.386L122.138 132.852ZM124.392 126.048L121.34 124.48V123.248L124.392 124.984V126.048ZM46.0983 157.422V147.622H52.3283V148.826H47.5823V151.878H51.9083V153.054H47.5823V156.218H52.3283V157.422H46.0983ZM55.4963 157.422V147.622H56.9803L61.8943 155V147.622H63.3783V157.422H61.8943L56.9803 150.044V157.422H55.4963ZM66.7674 157.422V147.622H72.9974V148.826H68.2514V151.878H72.5774V153.054H68.2514V156.218H72.9974V157.422H66.7674ZM76.1655 157.422V147.622H79.5395C80.3142 147.622 80.9488 147.753 81.4435 148.014C81.9475 148.275 82.3208 148.63 82.5635 149.078C82.8062 149.517 82.9275 150.007 82.9275 150.548C82.9275 151.155 82.7642 151.705 82.4375 152.2C82.1202 152.695 81.6208 153.049 80.9395 153.264L83.0255 157.422H81.3035L79.3995 153.474H77.6495V157.422H76.1655ZM77.6495 152.354H79.4555C80.1275 152.354 80.6175 152.191 80.9255 151.864C81.2428 151.537 81.4015 151.113 81.4015 150.59C81.4015 150.067 81.2475 149.652 80.9395 149.344C80.6315 149.027 80.1322 148.868 79.4415 148.868H77.6495V152.354ZM90.3391 157.59C89.4151 157.59 88.6077 157.38 87.9171 156.96C87.2264 156.54 86.6897 155.952 86.3071 155.196C85.9244 154.44 85.7331 153.558 85.7331 152.55C85.7331 151.551 85.9291 150.669 86.3211 149.904C86.7131 149.139 87.2684 148.541 87.9871 148.112C88.7151 147.673 89.5737 147.454 90.5631 147.454C91.6831 147.454 92.6164 147.725 93.3631 148.266C94.1097 148.807 94.5951 149.554 94.8191 150.506H93.1391C92.9897 149.983 92.6957 149.573 92.2571 149.274C91.8184 148.975 91.2537 148.826 90.5631 148.826C89.5364 148.826 88.7291 149.157 88.1411 149.82C87.5531 150.483 87.2591 151.397 87.2591 152.564C87.2591 153.731 87.5484 154.641 88.1271 155.294C88.7057 155.947 89.4757 156.274 90.4371 156.274C91.4077 156.274 92.1357 155.999 92.6211 155.448C93.1157 154.897 93.4051 154.165 93.4891 153.25H90.8291V152.102H94.9871V157.422H93.6291L93.5031 155.98C93.1764 156.493 92.7657 156.89 92.2711 157.17C91.7764 157.45 91.1324 157.59 90.3391 157.59ZM98.1881 157.422V147.622H104.418V148.826H99.6721V151.878H103.998V153.054H99.6721V156.218H104.418V157.422H98.1881ZM109.882 157.422V148.826H106.984V147.622H114.25V148.826H111.366V157.422H109.882ZM117.039 157.422V147.622H118.523V157.422H117.039ZM126.28 157.59C125.309 157.59 124.469 157.38 123.76 156.96C123.06 156.531 122.518 155.938 122.136 155.182C121.753 154.417 121.562 153.535 121.562 152.536C121.562 151.528 121.753 150.646 122.136 149.89C122.518 149.125 123.06 148.527 123.76 148.098C124.469 147.669 125.309 147.454 126.28 147.454C127.428 147.454 128.366 147.734 129.094 148.294C129.822 148.854 130.284 149.638 130.48 150.646H128.828C128.697 150.077 128.417 149.624 127.988 149.288C127.558 148.952 126.984 148.784 126.266 148.784C125.286 148.784 124.511 149.12 123.942 149.792C123.372 150.455 123.088 151.369 123.088 152.536C123.088 153.693 123.372 154.603 123.942 155.266C124.511 155.929 125.286 156.26 126.266 156.26C126.984 156.26 127.558 156.101 127.988 155.784C128.417 155.467 128.697 155.033 128.828 154.482H130.48C130.284 155.453 129.822 156.213 129.094 156.764C128.366 157.315 127.428 157.59 126.28 157.59ZM132.703 157.422L136.315 147.622H137.939L141.523 157.422H139.955L139.115 155.028H135.111L134.271 157.422H132.703ZM135.531 153.852H138.695L137.113 149.386L135.531 153.852Z" fill="#F24E1E"/>
<path d="M228.563 40.5899C227.844 40.5899 227.214 40.4639 226.673 40.2119C226.131 39.9599 225.707 39.6005 225.399 39.1339C225.1 38.6672 224.946 38.1119 224.937 37.4679H226.505C226.514 37.9905 226.696 38.4339 227.051 38.7979C227.405 39.1619 227.905 39.3439 228.549 39.3439C229.118 39.3439 229.561 39.2085 229.879 38.9379C230.205 38.6579 230.369 38.3032 230.369 37.8739C230.369 37.5285 230.289 37.2485 230.131 37.0339C229.981 36.8192 229.771 36.6419 229.501 36.5019C229.239 36.3619 228.936 36.2359 228.591 36.1239C228.245 36.0119 227.881 35.8905 227.499 35.7599C226.743 35.5079 226.173 35.1812 225.791 34.7799C225.417 34.3785 225.231 33.8512 225.231 33.1979C225.221 32.6472 225.347 32.1665 225.609 31.7559C225.879 31.3452 226.253 31.0279 226.729 30.8039C227.214 30.5705 227.779 30.4539 228.423 30.4539C229.057 30.4539 229.613 30.5705 230.089 30.8039C230.574 31.0372 230.952 31.3639 231.223 31.7839C231.493 32.1945 231.633 32.6752 231.643 33.2259H230.075C230.075 32.9739 230.009 32.7359 229.879 32.5119C229.748 32.2785 229.557 32.0872 229.305 31.9379C229.053 31.7885 228.745 31.7139 228.381 31.7139C227.914 31.7045 227.527 31.8212 227.219 32.0639C226.92 32.3065 226.771 32.6425 226.771 33.0719C226.771 33.4545 226.883 33.7485 227.107 33.9539C227.331 34.1592 227.639 34.3319 228.031 34.4719C228.423 34.6025 228.871 34.7565 229.375 34.9339C229.86 35.0925 230.294 35.2839 230.677 35.5079C231.059 35.7319 231.363 36.0259 231.587 36.3899C231.82 36.7539 231.937 37.2159 231.937 37.7759C231.937 38.2705 231.811 38.7325 231.559 39.1619C231.307 39.5819 230.929 39.9272 230.425 40.1979C229.921 40.4592 229.3 40.5899 228.563 40.5899ZM239.327 40.5899C238.356 40.5899 237.516 40.3799 236.807 39.9599C236.107 39.5305 235.566 38.9379 235.183 38.1819C234.8 37.4165 234.609 36.5345 234.609 35.5359C234.609 34.5279 234.8 33.6459 235.183 32.8899C235.566 32.1245 236.107 31.5272 236.807 31.0979C237.516 30.6685 238.356 30.4539 239.327 30.4539C240.475 30.4539 241.413 30.7339 242.141 31.2939C242.869 31.8539 243.331 32.6379 243.527 33.6459H241.875C241.744 33.0765 241.464 32.6239 241.035 32.2879C240.606 31.9519 240.032 31.7839 239.313 31.7839C238.333 31.7839 237.558 32.1199 236.989 32.7919C236.42 33.4545 236.135 34.3692 236.135 35.5359C236.135 36.6932 236.42 37.6032 236.989 38.2659C237.558 38.9285 238.333 39.2599 239.313 39.2599C240.032 39.2599 240.606 39.1012 241.035 38.7839C241.464 38.4665 241.744 38.0325 241.875 37.4819H243.527C243.331 38.4525 242.869 39.2132 242.141 39.7639C241.413 40.3145 240.475 40.5899 239.327 40.5899ZM245.751 40.4219L249.363 30.6219H250.987L254.571 40.4219H253.003L252.163 38.0279H248.159L247.319 40.4219H245.751ZM248.579 36.8519H251.743L250.161 32.3859L248.579 36.8519ZM257.337 40.4219V30.6219H260.711C261.486 30.6219 262.12 30.7525 262.615 31.0139C263.119 31.2752 263.492 31.6299 263.735 32.0779C263.978 32.5165 264.099 33.0065 264.099 33.5479C264.099 34.1545 263.936 34.7052 263.609 35.1999C263.292 35.6945 262.792 36.0492 262.111 36.2639L264.197 40.4219H262.475L260.571 36.4739H258.821V40.4219H257.337ZM258.821 35.3539H260.627C261.299 35.3539 261.789 35.1905 262.097 34.8639C262.414 34.5372 262.573 34.1125 262.573 33.5899C262.573 33.0672 262.419 32.6519 262.111 32.3439C261.803 32.0265 261.304 31.8679 260.613 31.8679H258.821V35.3539ZM270.489 40.5899C269.77 40.5899 269.14 40.4639 268.599 40.2119C268.057 39.9599 267.633 39.6005 267.325 39.1339C267.026 38.6672 266.872 38.1119 266.863 37.4679H268.431C268.44 37.9905 268.622 38.4339 268.977 38.7979C269.331 39.1619 269.831 39.3439 270.475 39.3439C271.044 39.3439 271.487 39.2085 271.805 38.9379C272.131 38.6579 272.295 38.3032 272.295 37.8739C272.295 37.5285 272.215 37.2485 272.057 37.0339C271.907 36.8192 271.697 36.6419 271.427 36.5019C271.165 36.3619 270.862 36.2359 270.517 36.1239C270.171 36.0119 269.807 35.8905 269.425 35.7599C268.669 35.5079 268.099 35.1812 267.717 34.7799C267.343 34.3785 267.157 33.8512 267.157 33.1979C267.147 32.6472 267.273 32.1665 267.535 31.7559C267.805 31.3452 268.179 31.0279 268.655 30.8039C269.14 30.5705 269.705 30.4539 270.349 30.4539C270.983 30.4539 271.539 30.5705 272.015 30.8039C272.5 31.0372 272.878 31.3639 273.149 31.7839C273.419 32.1945 273.559 32.6752 273.569 33.2259H272.001C272.001 32.9739 271.935 32.7359 271.805 32.5119C271.674 32.2785 271.483 32.0872 271.231 31.9379C270.979 31.7885 270.671 31.7139 270.307 31.7139C269.84 31.7045 269.453 31.8212 269.145 32.0639C268.846 32.3065 268.697 32.6425 268.697 33.0719C268.697 33.4545 268.809 33.7485 269.033 33.9539C269.257 34.1592 269.565 34.3319 269.957 34.4719C270.349 34.6025 270.797 34.7565 271.301 34.9339C271.786 35.0925 272.22 35.2839 272.603 35.5079C272.985 35.7319 273.289 36.0259 273.513 36.3899C273.746 36.7539 273.863 37.2159 273.863 37.7759C273.863 38.2705 273.737 38.7325 273.485 39.1619C273.233 39.5819 272.855 39.9272 272.351 40.1979C271.847 40.4592 271.226 40.5899 270.489 40.5899ZM276.885 40.4219V30.6219H278.369V40.4219H276.885ZM284.054 40.4219V31.8259H281.156V30.6219H288.422V31.8259H285.538V40.4219H284.054ZM289.514 40.4219L293.126 30.6219H294.75L298.334 40.4219H296.766L295.926 38.0279H291.922L291.082 40.4219H289.514ZM292.342 36.8519H295.506L293.924 32.3859L292.342 36.8519ZM294.596 30.0479L291.544 28.4799V27.2479L294.596 28.9839V30.0479ZM306.028 40.4219V30.6219H312.174V31.8259H307.512V34.9199H311.376V36.1099H307.512V40.4219H306.028ZM319.552 40.5899C318.581 40.5899 317.732 40.3752 317.004 39.9459C316.276 39.5165 315.706 38.9239 315.296 38.1679C314.885 37.4025 314.68 36.5205 314.68 35.5219C314.68 34.5232 314.885 33.6459 315.296 32.8899C315.706 32.1245 316.276 31.5272 317.004 31.0979C317.732 30.6685 318.581 30.4539 319.552 30.4539C320.522 30.4539 321.372 30.6685 322.1 31.0979C322.828 31.5272 323.392 32.1245 323.794 32.8899C324.204 33.6459 324.41 34.5232 324.41 35.5219C324.41 36.5205 324.204 37.4025 323.794 38.1679C323.392 38.9239 322.828 39.5165 322.1 39.9459C321.372 40.3752 320.522 40.5899 319.552 40.5899ZM319.552 39.2599C320.224 39.2599 320.807 39.1105 321.302 38.8119C321.806 38.5132 322.198 38.0839 322.478 37.5239C322.758 36.9639 322.898 36.2965 322.898 35.5219C322.898 34.7472 322.758 34.0799 322.478 33.5199C322.198 32.9599 321.806 32.5305 321.302 32.2319C320.807 31.9332 320.224 31.7839 319.552 31.7839C318.88 31.7839 318.292 31.9332 317.788 32.2319C317.284 32.5305 316.892 32.9599 316.612 33.5199C316.341 34.0799 316.206 34.7472 316.206 35.5219C316.206 36.2965 316.341 36.9639 316.612 37.5239C316.892 38.0839 317.284 38.5132 317.788 38.8119C318.292 39.1105 318.88 39.2599 319.552 39.2599ZM327.463 40.4219V30.6219H328.947L333.861 37.9999V30.6219H335.345V40.4219H333.861L328.947 33.0439V40.4219H327.463ZM341.03 40.4219V31.8259H338.132V30.6219H345.398V31.8259H342.514V40.4219H341.03ZM348.187 40.4219V30.6219H349.671V40.4219H348.187ZM235.235 61.4219V51.6219H241.465V52.8259H236.719V55.8779H241.045V57.0539H236.719V60.2179H241.465V61.4219H235.235ZM244.633 61.4219V51.6219H246.117L251.031 58.9999V51.6219H252.515V61.4219H251.031L246.117 54.0439V61.4219H244.633ZM255.904 61.4219V51.6219H262.134V52.8259H257.388V55.8779H261.714V57.0539H257.388V60.2179H262.134V61.4219H255.904ZM265.302 61.4219V51.6219H268.676C269.451 51.6219 270.086 51.7525 270.58 52.0139C271.084 52.2752 271.458 52.6299 271.7 53.0779C271.943 53.5165 272.064 54.0065 272.064 54.5479C272.064 55.1545 271.901 55.7052 271.574 56.1999C271.257 56.6945 270.758 57.0492 270.076 57.2639L272.162 61.4219H270.44L268.536 57.4739H266.786V61.4219H265.302ZM266.786 56.3539H268.592C269.264 56.3539 269.754 56.1905 270.062 55.8639C270.38 55.5372 270.538 55.1125 270.538 54.5899C270.538 54.0672 270.384 53.6519 270.076 53.3439C269.768 53.0265 269.269 52.8679 268.578 52.8679H266.786V56.3539ZM279.476 61.5899C278.552 61.5899 277.745 61.3799 277.054 60.9599C276.363 60.5399 275.827 59.9519 275.444 59.1959C275.061 58.4399 274.87 57.5579 274.87 56.5499C274.87 55.5512 275.066 54.6692 275.458 53.9039C275.85 53.1385 276.405 52.5412 277.124 52.1119C277.852 51.6732 278.711 51.4539 279.7 51.4539C280.82 51.4539 281.753 51.7245 282.5 52.2659C283.247 52.8072 283.732 53.5539 283.956 54.5059H282.276C282.127 53.9832 281.833 53.5725 281.394 53.2739C280.955 52.9752 280.391 52.8259 279.7 52.8259C278.673 52.8259 277.866 53.1572 277.278 53.8199C276.69 54.4825 276.396 55.3972 276.396 56.5639C276.396 57.7305 276.685 58.6405 277.264 59.2939C277.843 59.9472 278.613 60.2739 279.574 60.2739C280.545 60.2739 281.273 59.9985 281.758 59.4479C282.253 58.8972 282.542 58.1645 282.626 57.2499H279.966V56.1019H284.124V61.4219H282.766L282.64 59.9799C282.313 60.4932 281.903 60.8899 281.408 61.1699C280.913 61.4499 280.269 61.5899 279.476 61.5899ZM287.325 61.4219V51.6219H293.555V52.8259H288.809V55.8779H293.135V57.0539H288.809V60.2179H293.555V61.4219H287.325ZM299.019 61.4219V52.8259H296.121V51.6219H303.387V52.8259H300.503V61.4219H299.019ZM306.176 61.4219V51.6219H307.66V61.4219H306.176ZM315.416 61.5899C314.446 61.5899 313.606 61.3799 312.896 60.9599C312.196 60.5305 311.655 59.9379 311.272 59.1819C310.89 58.4165 310.698 57.5345 310.698 56.5359C310.698 55.5279 310.89 54.6459 311.272 53.8899C311.655 53.1245 312.196 52.5272 312.896 52.0979C313.606 51.6685 314.446 51.4539 315.416 51.4539C316.564 51.4539 317.502 51.7339 318.23 52.2939C318.958 52.8539 319.42 53.6379 319.616 54.6459H317.964C317.834 54.0765 317.554 53.6239 317.124 53.2879C316.695 52.9519 316.121 52.7839 315.402 52.7839C314.422 52.7839 313.648 53.1199 313.078 53.7919C312.509 54.4545 312.224 55.3692 312.224 56.5359C312.224 57.6932 312.509 58.6032 313.078 59.2659C313.648 59.9285 314.422 60.2599 315.402 60.2599C316.121 60.2599 316.695 60.1012 317.124 59.7839C317.554 59.4665 317.834 59.0325 317.964 58.4819H319.616C319.42 59.4525 318.958 60.2132 318.23 60.7639C317.502 61.3145 316.564 61.5899 315.416 61.5899ZM322.648 61.4219V51.6219H324.132V55.8219H328.878V51.6219H330.362V61.4219H328.878V57.0399H324.132V61.4219H322.648ZM333.755 61.4219V51.6219H339.985V52.8259H335.239V55.8779H339.565V57.0539H335.239V60.2179H339.985V61.4219H333.755Z" fill="#F24E1E"/>
<path d="M243.868 136.422V127.826H240.97V126.622H248.236V127.826H245.352V136.422H243.868ZM249.328 136.422L252.94 126.622H254.564L258.148 136.422H256.58L255.74 134.028H251.736L250.896 136.422H249.328ZM252.156 132.852H255.32L253.738 128.386L252.156 132.852ZM264.149 136.59C263.43 136.59 262.8 136.464 262.259 136.212C261.717 135.96 261.293 135.601 260.985 135.134C260.686 134.667 260.532 134.112 260.523 133.468H262.091C262.1 133.991 262.282 134.434 262.637 134.798C262.991 135.162 263.491 135.344 264.135 135.344C264.704 135.344 265.147 135.209 265.465 134.938C265.791 134.658 265.955 134.303 265.955 133.874C265.955 133.529 265.875 133.249 265.717 133.034C265.567 132.819 265.357 132.642 265.087 132.502C264.825 132.362 264.522 132.236 264.177 132.124C263.831 132.012 263.467 131.891 263.085 131.76C262.329 131.508 261.759 131.181 261.377 130.78C261.003 130.379 260.817 129.851 260.817 129.198C260.807 128.647 260.933 128.167 261.195 127.756C261.465 127.345 261.839 127.028 262.315 126.804C262.8 126.571 263.365 126.454 264.009 126.454C264.643 126.454 265.199 126.571 265.675 126.804C266.16 127.037 266.538 127.364 266.809 127.784C267.079 128.195 267.219 128.675 267.229 129.226H265.661C265.661 128.974 265.595 128.736 265.465 128.512C265.334 128.279 265.143 128.087 264.891 127.938C264.639 127.789 264.331 127.714 263.967 127.714C263.5 127.705 263.113 127.821 262.805 128.064C262.506 128.307 262.357 128.643 262.357 129.072C262.357 129.455 262.469 129.749 262.693 129.954C262.917 130.159 263.225 130.332 263.617 130.472C264.009 130.603 264.457 130.757 264.961 130.934C265.446 131.093 265.88 131.284 266.263 131.508C266.645 131.732 266.949 132.026 267.173 132.39C267.406 132.754 267.523 133.216 267.523 133.776C267.523 134.271 267.397 134.733 267.145 135.162C266.893 135.582 266.515 135.927 266.011 136.198C265.507 136.459 264.886 136.59 264.149 136.59ZM273.779 136.59C273.061 136.59 272.431 136.464 271.889 136.212C271.348 135.96 270.923 135.601 270.615 135.134C270.317 134.667 270.163 134.112 270.153 133.468H271.721C271.731 133.991 271.913 134.434 272.267 134.798C272.622 135.162 273.121 135.344 273.765 135.344C274.335 135.344 274.778 135.209 275.095 134.938C275.422 134.658 275.585 134.303 275.585 133.874C275.585 133.529 275.506 133.249 275.347 133.034C275.198 132.819 274.988 132.642 274.717 132.502C274.456 132.362 274.153 132.236 273.807 132.124C273.462 132.012 273.098 131.891 272.715 131.76C271.959 131.508 271.39 131.181 271.007 130.78C270.634 130.379 270.447 129.851 270.447 129.198C270.438 128.647 270.564 128.167 270.825 127.756C271.096 127.345 271.469 127.028 271.945 126.804C272.431 126.571 272.995 126.454 273.639 126.454C274.274 126.454 274.829 126.571 275.305 126.804C275.791 127.037 276.169 127.364 276.439 127.784C276.71 128.195 276.85 128.675 276.859 129.226H275.291C275.291 128.974 275.226 128.736 275.095 128.512C274.965 128.279 274.773 128.087 274.521 127.938C274.269 127.789 273.961 127.714 273.597 127.714C273.131 127.705 272.743 127.821 272.435 128.064C272.137 128.307 271.987 128.643 271.987 129.072C271.987 129.455 272.099 129.749 272.323 129.954C272.547 130.159 272.855 130.332 273.247 130.472C273.639 130.603 274.087 130.757 274.591 130.934C275.077 131.093 275.511 131.284 275.893 131.508C276.276 131.732 276.579 132.026 276.803 132.39C277.037 132.754 277.153 133.216 277.153 133.776C277.153 134.271 277.027 134.733 276.775 135.162C276.523 135.582 276.145 135.927 275.641 136.198C275.137 136.459 274.517 136.59 273.779 136.59ZM280.176 136.422V126.622H286.406V127.826H281.66V130.878H285.986V132.054H281.66V135.218H286.406V136.422H280.176ZM297.735 136.59C297.016 136.59 296.386 136.464 295.845 136.212C295.304 135.96 294.879 135.601 294.571 135.134C294.272 134.667 294.118 134.112 294.109 133.468H295.677C295.686 133.991 295.868 134.434 296.223 134.798C296.578 135.162 297.077 135.344 297.721 135.344C298.29 135.344 298.734 135.209 299.051 134.938C299.378 134.658 299.541 134.303 299.541 133.874C299.541 133.529 299.462 133.249 299.303 133.034C299.154 132.819 298.944 132.642 298.673 132.502C298.412 132.362 298.108 132.236 297.763 132.124C297.418 132.012 297.054 131.891 296.671 131.76C295.915 131.508 295.346 131.181 294.963 130.78C294.59 130.379 294.403 129.851 294.403 129.198C294.394 128.647 294.52 128.167 294.781 127.756C295.052 127.345 295.425 127.028 295.901 126.804C296.386 126.571 296.951 126.454 297.595 126.454C298.23 126.454 298.785 126.571 299.261 126.804C299.746 127.037 300.124 127.364 300.395 127.784C300.666 128.195 300.806 128.675 300.815 129.226H299.247C299.247 128.974 299.182 128.736 299.051 128.512C298.92 128.279 298.729 128.087 298.477 127.938C298.225 127.789 297.917 127.714 297.553 127.714C297.086 127.705 296.699 127.821 296.391 128.064C296.092 128.307 295.943 128.643 295.943 129.072C295.943 129.455 296.055 129.749 296.279 129.954C296.503 130.159 296.811 130.332 297.203 130.472C297.595 130.603 298.043 130.757 298.547 130.934C299.032 131.093 299.466 131.284 299.849 131.508C300.232 131.732 300.535 132.026 300.759 132.39C300.992 132.754 301.109 133.216 301.109 133.776C301.109 134.271 300.983 134.733 300.731 135.162C300.479 135.582 300.101 135.927 299.597 136.198C299.093 136.459 298.472 136.59 297.735 136.59ZM307.8 136.59C307.1 136.59 306.465 136.455 305.896 136.184C305.336 135.904 304.888 135.479 304.552 134.91C304.225 134.341 304.062 133.617 304.062 132.74V126.622H305.546V132.754C305.546 133.613 305.751 134.243 306.162 134.644C306.572 135.045 307.128 135.246 307.828 135.246C308.518 135.246 309.069 135.045 309.48 134.644C309.89 134.243 310.096 133.613 310.096 132.754V126.622H311.58V132.74C311.58 133.617 311.407 134.341 311.062 134.91C310.726 135.479 310.268 135.904 309.69 136.184C309.12 136.455 308.49 136.59 307.8 136.59ZM314.883 136.422V126.622H316.367V135.246H320.819V136.422H314.883ZM249.944 157.422V147.622H253.374C254.14 147.622 254.774 147.753 255.278 148.014C255.782 148.266 256.156 148.616 256.398 149.064C256.65 149.503 256.776 150.002 256.776 150.562C256.776 151.094 256.655 151.584 256.412 152.032C256.179 152.471 255.81 152.821 255.306 153.082C254.802 153.343 254.158 153.474 253.374 153.474H251.428V157.422H249.944ZM251.428 152.256H253.304C254.004 152.256 254.504 152.107 254.802 151.808C255.11 151.5 255.264 151.085 255.264 150.562C255.264 150.021 255.11 149.601 254.802 149.302C254.504 148.994 254.004 148.84 253.304 148.84H251.428V152.256ZM259.643 157.422V147.622H263.017C263.792 147.622 264.427 147.753 264.921 148.014C265.425 148.275 265.799 148.63 266.041 149.078C266.284 149.517 266.405 150.007 266.405 150.548C266.405 151.155 266.242 151.705 265.915 152.2C265.598 152.695 265.099 153.049 264.417 153.264L266.503 157.422H264.781L262.877 153.474H261.127V157.422H259.643ZM261.127 152.354H262.933C263.605 152.354 264.095 152.191 264.403 151.864C264.721 151.537 264.879 151.113 264.879 150.59C264.879 150.067 264.725 149.652 264.417 149.344C264.109 149.027 263.61 148.868 262.919 148.868H261.127V152.354ZM269.561 157.422V147.622H271.045V157.422H269.561ZM277.331 157.422L273.705 147.622H275.287L278.227 155.882L281.181 147.622H282.749L279.123 157.422H277.331ZM283.475 157.422L287.087 147.622H288.711L292.295 157.422H290.727L289.887 155.028H285.883L285.043 157.422H283.475ZM286.303 153.852H289.467L287.885 149.386L286.303 153.852ZM296.291 157.422V148.826H293.393V147.622H300.659V148.826H297.775V157.422H296.291ZM307.532 157.59C306.562 157.59 305.712 157.375 304.984 156.946C304.256 156.517 303.687 155.924 303.276 155.168C302.866 154.403 302.66 153.521 302.66 152.522C302.66 151.523 302.866 150.646 303.276 149.89C303.687 149.125 304.256 148.527 304.984 148.098C305.712 147.669 306.562 147.454 307.532 147.454C308.503 147.454 309.352 147.669 310.08 148.098C310.808 148.527 311.373 149.125 311.774 149.89C312.185 150.646 312.39 151.523 312.39 152.522C312.39 153.521 312.185 154.403 311.774 155.168C311.373 155.924 310.808 156.517 310.08 156.946C309.352 157.375 308.503 157.59 307.532 157.59ZM307.532 156.26C308.204 156.26 308.788 156.111 309.282 155.812C309.786 155.513 310.178 155.084 310.458 154.524C310.738 153.964 310.878 153.297 310.878 152.522C310.878 151.747 310.738 151.08 310.458 150.52C310.178 149.96 309.786 149.531 309.282 149.232C308.788 148.933 308.204 148.784 307.532 148.784C306.86 148.784 306.272 148.933 305.768 149.232C305.264 149.531 304.872 149.96 304.592 150.52C304.322 151.08 304.186 151.747 304.186 152.522C304.186 153.297 304.322 153.964 304.592 154.524C304.872 155.084 305.264 155.513 305.768 155.812C306.272 156.111 306.86 156.26 307.532 156.26Z" fill="#F24E1E"/>
<defs>
<filter id="filter0_d_2716_16143" x="0" y="0.421875" width="189" height="96" filterUnits="userSpaceOnUse" color-interpolation-filters="sRGB">
<feFlood flood-opacity="0" result="BackgroundImageFix"/>
<feColorMatrix in="SourceAlpha" type="matrix" values="0 0 0 0 0 0 0 0 0 0 0 0 0 0 0 0 0 0 127 0" result="hardAlpha"/>
<feMorphology radius="1" operator="dilate" in="SourceAlpha" result="effect1_dropShadow_2716_16143"/>
<feOffset dx="1" dy="2"/>
<feGaussianBlur stdDeviation="3.5"/>
<feColorMatrix type="matrix" values="0 0 0 0 0.733218 0 0 0 0 0.733218 0 0 0 0 0.733218 0 0 0 0.45 0"/>
<feBlend mode="normal" in2="BackgroundImageFix" result="effect1_dropShadow_2716_16143"/>
<feBlend mode="normal" in="SourceGraphic" in2="effect1_dropShadow_2716_16143" result="shape"/>
</filter>
<filter id="filter1_d_2716_16143" x="0" y="96.4219" width="189" height="96" filterUnits="userSpaceOnUse" color-interpolation-filters="sRGB">
<feFlood flood-opacity="0" result="BackgroundImageFix"/>
<feColorMatrix in="SourceAlpha" type="matrix" values="0 0 0 0 0 0 0 0 0 0 0 0 0 0 0 0 0 0 127 0" result="hardAlpha"/>
<feMorphology radius="1" operator="dilate" in="SourceAlpha" result="effect1_dropShadow_2716_16143"/>
<feOffset dx="1" dy="2"/>
<feGaussianBlur stdDeviation="3.5"/>
<feColorMatrix type="matrix" values="0 0 0 0 0.733218 0 0 0 0 0.733218 0 0 0 0 0.733218 0 0 0 0.45 0"/>
<feBlend mode="normal" in2="BackgroundImageFix" result="effect1_dropShadow_2716_16143"/>
<feBlend mode="normal" in="SourceGraphic" in2="effect1_dropShadow_2716_16143" result="shape"/>
</filter>
<filter id="filter2_d_2716_16143" x="194" y="0.421875" width="189" height="96" filterUnits="userSpaceOnUse" color-interpolation-filters="sRGB">
<feFlood flood-opacity="0" result="BackgroundImageFix"/>
<feColorMatrix in="SourceAlpha" type="matrix" values="0 0 0 0 0 0 0 0 0 0 0 0 0 0 0 0 0 0 127 0" result="hardAlpha"/>
<feMorphology radius="1" operator="dilate" in="SourceAlpha" result="effect1_dropShadow_2716_16143"/>
<feOffset dx="1" dy="2"/>
<feGaussianBlur stdDeviation="3.5"/>
<feColorMatrix type="matrix" values="0 0 0 0 0.733218 0 0 0 0 0.733218 0 0 0 0 0.733218 0 0 0 0.45 0"/>
<feBlend mode="normal" in2="BackgroundImageFix" result="effect1_dropShadow_2716_16143"/>
<feBlend mode="normal" in="SourceGraphic" in2="effect1_dropShadow_2716_16143" result="shape"/>
</filter>
<filter id="filter3_d_2716_16143" x="194" y="96.4219" width="189" height="96" filterUnits="userSpaceOnUse" color-interpolation-filters="sRGB">
<feFlood flood-opacity="0" result="BackgroundImageFix"/>
<feColorMatrix in="SourceAlpha" type="matrix" values="0 0 0 0 0 0 0 0 0 0 0 0 0 0 0 0 0 0 127 0" result="hardAlpha"/>
<feMorphology radius="1" operator="dilate" in="SourceAlpha" result="effect1_dropShadow_2716_16143"/>
<feOffset dx="1" dy="2"/>
<feGaussianBlur stdDeviation="3.5"/>
<feColorMatrix type="matrix" values="0 0 0 0 0.733218 0 0 0 0 0.733218 0 0 0 0 0.733218 0 0 0 0.45 0"/>
<feBlend mode="normal" in2="BackgroundImageFix" result="effect1_dropShadow_2716_16143"/>
<feBlend mode="normal" in="SourceGraphic" in2="effect1_dropShadow_2716_16143" result="shape"/>
</filter>
</defs>
</svg>
