<svg width="946" height="768" viewBox="0 0 946 768" fill="none" xmlns="http://www.w3.org/2000/svg">
<path d="M43.5 5C43.5 2.51472 45.5147 0.5 48 0.5H315C325.77 0.5 334.5 9.23045 334.5 20V67C334.5 69.4853 332.485 71.5 330 71.5H48C45.5147 71.5 43.5 69.4853 43.5 67V5Z" fill="white" stroke="black" stroke-linejoin="round"/>
<path d="M68.136 19.128C68.2747 19.128 68.344 19.208 68.344 19.368V30.696C68.344 30.8133 68.3173 30.8933 68.264 30.936C68.2213 30.9787 68.136 31 68.008 31H66.696C66.5787 31 66.4987 30.984 66.456 30.952C66.424 30.9093 66.408 30.84 66.408 30.744V19.368C66.408 19.208 66.4827 19.128 66.632 19.128H68.136ZM72.5976 30.696C72.5976 30.8133 72.571 30.8933 72.5176 30.936C72.475 30.9787 72.3896 31 72.2616 31H71.1736C70.9816 31 70.8856 30.9147 70.8856 30.744L70.9176 19.368C70.9176 19.208 70.987 19.128 71.1256 19.128H72.3896C72.5283 19.128 72.5976 19.208 72.5976 19.368V30.696ZM79.669 22.52C79.8503 22.52 79.941 22.6053 79.941 22.776V23.4C79.941 23.4747 79.957 23.5173 79.989 23.528C80.0317 23.528 80.085 23.5013 80.149 23.448C80.2877 23.3093 80.4583 23.16 80.661 23C80.8637 22.8293 81.1197 22.68 81.429 22.552C81.749 22.424 82.1383 22.36 82.597 22.36C83.2477 22.36 83.829 22.52 84.341 22.84C84.8637 23.1493 85.2743 23.6187 85.573 24.248C85.8823 24.8773 86.037 25.6773 86.037 26.648C86.037 27.6293 85.8823 28.456 85.573 29.128C85.2743 29.7893 84.853 30.296 84.309 30.648C83.7757 30.9893 83.1517 31.16 82.437 31.16C81.9677 31.16 81.5463 31.0907 81.173 30.952C80.8103 30.8027 80.4903 30.6053 80.213 30.36C80.117 30.264 80.0477 30.2267 80.005 30.248C79.9623 30.2587 79.941 30.328 79.941 30.456V33.416C79.941 33.5653 79.877 33.64 79.749 33.64H78.453C78.3143 33.64 78.245 33.5653 78.245 33.416V22.808C78.245 22.7013 78.2663 22.6267 78.309 22.584C78.3517 22.5413 78.4317 22.52 78.549 22.52H79.669ZM79.941 29.032C80.229 29.3307 80.5277 29.5707 80.837 29.752C81.157 29.9227 81.5143 30.008 81.909 30.008C82.389 30.008 82.805 29.8853 83.157 29.64C83.5197 29.3947 83.8023 29.0267 84.005 28.536C84.2077 28.0347 84.309 27.4053 84.309 26.648C84.309 25.8907 84.2023 25.2827 83.989 24.824C83.7863 24.3653 83.509 24.0347 83.157 23.832C82.805 23.6187 82.4157 23.512 81.989 23.512C81.5943 23.512 81.2423 23.5973 80.933 23.768C80.6237 23.9387 80.3783 24.152 80.197 24.408C80.0263 24.664 79.941 24.92 79.941 25.176V29.032ZM89.5504 30.696C89.5504 30.8133 89.5237 30.8933 89.4704 30.936C89.4277 30.9787 89.3477 31 89.2304 31H88.1424C88.025 31 87.945 30.984 87.9024 30.952C87.8704 30.9093 87.8544 30.84 87.8544 30.744V22.76C87.8544 22.6 87.929 22.52 88.0784 22.52H89.3584C89.4864 22.52 89.5504 22.5947 89.5504 22.744V30.696ZM89.5984 20.824C89.5984 21.048 89.4917 21.16 89.2784 21.16H88.0944C87.977 21.16 87.897 21.1333 87.8544 21.08C87.8224 21.0267 87.8064 20.952 87.8064 20.856V19.4C87.8064 19.2187 87.8864 19.128 88.0464 19.128H89.3744C89.5237 19.128 89.5984 19.2133 89.5984 19.384V20.824ZM96.5915 30.04C96.2182 30.4027 95.8075 30.68 95.3595 30.872C94.9115 31.064 94.4048 31.16 93.8395 31.16C93.0182 31.16 92.3728 30.9467 91.9035 30.52C91.4342 30.0933 91.1995 29.5333 91.1995 28.84C91.1995 28.2533 91.3648 27.752 91.6955 27.336C92.0368 26.92 92.5275 26.5893 93.1675 26.344C93.8182 26.0987 94.6075 25.9547 95.5355 25.912L96.5755 25.832C96.6395 25.8213 96.6982 25.8 96.7515 25.768C96.8048 25.736 96.8315 25.6773 96.8315 25.592V25.192C96.8315 24.6693 96.6715 24.2587 96.3515 23.96C96.0315 23.6507 95.5942 23.496 95.0395 23.496C94.6235 23.496 94.2395 23.592 93.8875 23.784C93.5355 23.976 93.2208 24.2747 92.9435 24.68C92.9115 24.7333 92.8795 24.7707 92.8475 24.792C92.8155 24.8133 92.7568 24.8133 92.6715 24.792L91.5835 24.472C91.5408 24.4507 91.5088 24.424 91.4875 24.392C91.4768 24.3493 91.4928 24.2747 91.5355 24.168C91.8448 23.592 92.2982 23.1493 92.8955 22.84C93.5035 22.52 94.2448 22.36 95.1195 22.36C95.8875 22.36 96.5168 22.472 97.0075 22.696C97.4982 22.9093 97.8608 23.224 98.0955 23.64C98.3408 24.0453 98.4635 24.5253 98.4635 25.08V30.728C98.4635 30.8347 98.4422 30.9093 98.3995 30.952C98.3675 30.984 98.3088 31 98.2235 31H97.1355C97.0608 31 97.0022 30.9733 96.9595 30.92C96.9168 30.856 96.8902 30.776 96.8795 30.68L96.8635 30.072C96.8315 29.9013 96.7408 29.8907 96.5915 30.04ZM96.8315 27.016C96.8315 26.8347 96.7568 26.7547 96.6075 26.776L95.7435 26.84C95.3168 26.8613 94.9275 26.92 94.5755 27.016C94.2235 27.1013 93.9195 27.2187 93.6635 27.368C93.4182 27.5173 93.2208 27.6987 93.0715 27.912C92.9328 28.1147 92.8635 28.3547 92.8635 28.632C92.8635 29.048 93.0075 29.3787 93.2955 29.624C93.5942 29.8587 93.9942 29.976 94.4955 29.976C94.8155 29.976 95.1142 29.9227 95.3915 29.816C95.6795 29.6987 95.9302 29.5547 96.1435 29.384C96.3568 29.2027 96.5222 29.016 96.6395 28.824C96.7675 28.632 96.8315 28.4453 96.8315 28.264V27.016ZM100.892 31C100.721 31 100.636 30.9147 100.636 30.744V22.76C100.636 22.6 100.705 22.52 100.844 22.52H102.108C102.236 22.52 102.3 22.5893 102.3 22.728V23.608C102.3 23.6613 102.31 23.6987 102.332 23.72C102.364 23.7307 102.406 23.7093 102.46 23.656C102.79 23.3893 103.105 23.16 103.404 22.968C103.702 22.7653 104.006 22.616 104.316 22.52C104.625 22.4133 104.961 22.36 105.324 22.36C106.134 22.36 106.764 22.584 107.212 23.032C107.66 23.48 107.884 24.072 107.884 24.808V30.712C107.884 30.904 107.793 31 107.612 31H106.428C106.342 31 106.278 30.984 106.236 30.952C106.204 30.9093 106.188 30.84 106.188 30.744V25.144C106.188 24.6747 106.065 24.3067 105.82 24.04C105.574 23.7733 105.196 23.64 104.684 23.64C104.396 23.64 104.129 23.688 103.884 23.784C103.638 23.8693 103.393 24.0027 103.148 24.184C102.902 24.3547 102.63 24.5733 102.332 24.84V30.728C102.332 30.9093 102.23 31 102.028 31H100.892ZM111.338 27.352C111.338 27.832 111.45 28.2693 111.674 28.664C111.909 29.048 112.218 29.3573 112.602 29.592C112.997 29.816 113.434 29.928 113.914 29.928C114.405 29.928 114.842 29.8267 115.226 29.624C115.61 29.4213 115.962 29.1067 116.282 28.68C116.314 28.6373 116.346 28.616 116.378 28.616C116.41 28.6053 116.458 28.616 116.522 28.648L117.338 29.032C117.455 29.0853 117.466 29.1707 117.37 29.288C117.071 29.7253 116.741 30.0827 116.378 30.36C116.026 30.6373 115.631 30.84 115.194 30.968C114.757 31.096 114.271 31.16 113.738 31.16C112.927 31.16 112.213 30.9787 111.594 30.616C110.975 30.2533 110.485 29.7467 110.122 29.096C109.77 28.4453 109.594 27.6987 109.594 26.856C109.594 25.928 109.775 25.1333 110.138 24.472C110.501 23.8 110.991 23.2827 111.61 22.92C112.239 22.5467 112.938 22.36 113.706 22.36C114.495 22.36 115.183 22.536 115.77 22.888C116.367 23.2293 116.831 23.7253 117.162 24.376C117.493 25.0267 117.658 25.816 117.658 26.744C117.658 26.84 117.647 26.9253 117.626 27C117.605 27.064 117.535 27.096 117.418 27.096H111.498C111.445 27.096 111.402 27.1227 111.37 27.176C111.349 27.2187 111.338 27.2773 111.338 27.352ZM115.706 26.088C115.823 26.088 115.898 26.072 115.93 26.04C115.962 26.008 115.978 25.9493 115.978 25.864C115.978 25.4587 115.887 25.0747 115.706 24.712C115.535 24.3493 115.285 24.056 114.954 23.832C114.634 23.608 114.234 23.496 113.754 23.496C113.253 23.496 112.821 23.6187 112.458 23.864C112.106 24.0987 111.834 24.4133 111.642 24.808C111.461 25.2027 111.37 25.624 111.37 26.072L115.706 26.088ZM121.807 23.736C121.711 23.736 121.663 23.7893 121.663 23.896V28.584C121.663 29.0427 121.749 29.3573 121.919 29.528C122.09 29.688 122.351 29.768 122.703 29.768H123.727C123.791 29.768 123.839 29.7893 123.871 29.832C123.903 29.864 123.919 29.9067 123.919 29.96V30.648C123.919 30.7867 123.839 30.8773 123.679 30.92C123.541 30.9413 123.37 30.9573 123.167 30.968C122.965 30.9787 122.762 30.9893 122.559 31C122.367 31 122.197 31 122.047 31C121.354 31 120.831 30.84 120.479 30.52C120.138 30.1893 119.967 29.6827 119.967 29V23.928C119.967 23.8 119.914 23.736 119.807 23.736H118.607C118.469 23.736 118.399 23.672 118.399 23.544V22.696C118.399 22.5787 118.463 22.52 118.591 22.52H119.871C119.957 22.52 119.999 22.472 119.999 22.376L120.191 19.864C120.202 19.7147 120.266 19.64 120.383 19.64H121.487C121.626 19.64 121.695 19.7253 121.695 19.896V22.376C121.695 22.472 121.743 22.52 121.839 22.52H123.759C123.887 22.52 123.951 22.5787 123.951 22.696V23.544C123.951 23.672 123.877 23.736 123.727 23.736H121.807ZM130.357 30.04C129.984 30.4027 129.573 30.68 129.125 30.872C128.677 31.064 128.17 31.16 127.605 31.16C126.784 31.16 126.138 30.9467 125.669 30.52C125.2 30.0933 124.965 29.5333 124.965 28.84C124.965 28.2533 125.13 27.752 125.461 27.336C125.802 26.92 126.293 26.5893 126.933 26.344C127.584 26.0987 128.373 25.9547 129.301 25.912L130.341 25.832C130.405 25.8213 130.464 25.8 130.517 25.768C130.57 25.736 130.597 25.6773 130.597 25.592V25.192C130.597 24.6693 130.437 24.2587 130.117 23.96C129.797 23.6507 129.36 23.496 128.805 23.496C128.389 23.496 128.005 23.592 127.653 23.784C127.301 23.976 126.986 24.2747 126.709 24.68C126.677 24.7333 126.645 24.7707 126.613 24.792C126.581 24.8133 126.522 24.8133 126.437 24.792L125.349 24.472C125.306 24.4507 125.274 24.424 125.253 24.392C125.242 24.3493 125.258 24.2747 125.301 24.168C125.61 23.592 126.064 23.1493 126.661 22.84C127.269 22.52 128.01 22.36 128.885 22.36C129.653 22.36 130.282 22.472 130.773 22.696C131.264 22.9093 131.626 23.224 131.861 23.64C132.106 24.0453 132.229 24.5253 132.229 25.08V30.728C132.229 30.8347 132.208 30.9093 132.165 30.952C132.133 30.984 132.074 31 131.989 31H130.901C130.826 31 130.768 30.9733 130.725 30.92C130.682 30.856 130.656 30.776 130.645 30.68L130.629 30.072C130.597 29.9013 130.506 29.8907 130.357 30.04ZM130.597 27.016C130.597 26.8347 130.522 26.7547 130.373 26.776L129.509 26.84C129.082 26.8613 128.693 26.92 128.341 27.016C127.989 27.1013 127.685 27.2187 127.429 27.368C127.184 27.5173 126.986 27.6987 126.837 27.912C126.698 28.1147 126.629 28.3547 126.629 28.632C126.629 29.048 126.773 29.3787 127.061 29.624C127.36 29.8587 127.76 29.976 128.261 29.976C128.581 29.976 128.88 29.9227 129.157 29.816C129.445 29.6987 129.696 29.5547 129.909 29.384C130.122 29.2027 130.288 29.016 130.405 28.824C130.533 28.632 130.597 28.4453 130.597 28.264V27.016ZM142.928 24.504C142.725 24.2053 142.443 23.96 142.08 23.768C141.717 23.576 141.285 23.48 140.784 23.48C140.261 23.48 139.824 23.5867 139.472 23.8C139.131 24.0133 138.96 24.312 138.96 24.696C138.96 24.8773 139.035 25.0587 139.184 25.24C139.333 25.4213 139.653 25.5813 140.144 25.72L142.112 26.28C142.891 26.4827 143.451 26.7867 143.792 27.192C144.133 27.5973 144.304 28.0613 144.304 28.584C144.304 29.1173 144.149 29.576 143.84 29.96C143.541 30.3333 143.12 30.6267 142.576 30.84C142.043 31.0533 141.429 31.16 140.736 31.16C139.861 31.16 139.099 30.9947 138.448 30.664C137.808 30.3227 137.355 29.9013 137.088 29.4C137.067 29.336 137.056 29.2827 137.056 29.24C137.056 29.1867 137.077 29.144 137.12 29.112L137.904 28.696C137.979 28.6533 138.037 28.6373 138.08 28.648C138.133 28.648 138.171 28.6693 138.192 28.712C138.363 28.9573 138.56 29.176 138.784 29.368C139.008 29.56 139.28 29.7147 139.6 29.832C139.92 29.9387 140.304 29.992 140.752 29.992C141.125 29.992 141.461 29.944 141.76 29.848C142.069 29.7413 142.309 29.5973 142.48 29.416C142.651 29.2347 142.736 29.0213 142.736 28.776C142.736 28.52 142.629 28.3013 142.416 28.12C142.213 27.928 141.851 27.7627 141.328 27.624L139.696 27.208C138.885 26.9947 138.304 26.7013 137.952 26.328C137.6 25.9547 137.424 25.5067 137.424 24.984C137.424 24.4613 137.563 24.008 137.84 23.624C138.117 23.2293 138.507 22.92 139.008 22.696C139.52 22.472 140.117 22.36 140.8 22.36C141.547 22.36 142.203 22.504 142.768 22.792C143.333 23.0693 143.76 23.4267 144.048 23.864C144.08 23.9067 144.101 23.9547 144.112 24.008C144.123 24.0507 144.096 24.0933 144.032 24.136L143.2 24.568C143.157 24.5893 143.109 24.5947 143.056 24.584C143.013 24.5733 142.971 24.5467 142.928 24.504ZM147.754 30.696C147.754 30.8133 147.727 30.8933 147.674 30.936C147.631 30.9787 147.551 31 147.434 31H146.346C146.228 31 146.148 30.984 146.106 30.952C146.074 30.9093 146.058 30.84 146.058 30.744V22.76C146.058 22.6 146.132 22.52 146.282 22.52H147.562C147.69 22.52 147.754 22.5947 147.754 22.744V30.696ZM147.802 20.824C147.802 21.048 147.695 21.16 147.482 21.16H146.298C146.18 21.16 146.1 21.1333 146.058 21.08C146.026 21.0267 146.01 20.952 146.01 20.856V19.4C146.01 19.2187 146.09 19.128 146.25 19.128H147.578C147.727 19.128 147.802 19.2133 147.802 19.384V20.824ZM158.537 24.504C158.335 24.2053 158.052 23.96 157.689 23.768C157.327 23.576 156.895 23.48 156.393 23.48C155.871 23.48 155.433 23.5867 155.081 23.8C154.74 24.0133 154.569 24.312 154.569 24.696C154.569 24.8773 154.644 25.0587 154.793 25.24C154.943 25.4213 155.263 25.5813 155.753 25.72L157.721 26.28C158.5 26.4827 159.06 26.7867 159.401 27.192C159.743 27.5973 159.913 28.0613 159.913 28.584C159.913 29.1173 159.759 29.576 159.449 29.96C159.151 30.3333 158.729 30.6267 158.185 30.84C157.652 31.0533 157.039 31.16 156.345 31.16C155.471 31.16 154.708 30.9947 154.057 30.664C153.417 30.3227 152.964 29.9013 152.697 29.4C152.676 29.336 152.665 29.2827 152.665 29.24C152.665 29.1867 152.687 29.144 152.729 29.112L153.513 28.696C153.588 28.6533 153.647 28.6373 153.689 28.648C153.743 28.648 153.78 28.6693 153.801 28.712C153.972 28.9573 154.169 29.176 154.393 29.368C154.617 29.56 154.889 29.7147 155.209 29.832C155.529 29.9387 155.913 29.992 156.361 29.992C156.735 29.992 157.071 29.944 157.369 29.848C157.679 29.7413 157.919 29.5973 158.089 29.416C158.26 29.2347 158.345 29.0213 158.345 28.776C158.345 28.52 158.239 28.3013 158.025 28.12C157.823 27.928 157.46 27.7627 156.937 27.624L155.305 27.208C154.495 26.9947 153.913 26.7013 153.561 26.328C153.209 25.9547 153.033 25.5067 153.033 24.984C153.033 24.4613 153.172 24.008 153.449 23.624C153.727 23.2293 154.116 22.92 154.617 22.696C155.129 22.472 155.727 22.36 156.409 22.36C157.156 22.36 157.812 22.504 158.377 22.792C158.943 23.0693 159.369 23.4267 159.657 23.864C159.689 23.9067 159.711 23.9547 159.721 24.008C159.732 24.0507 159.705 24.0933 159.641 24.136L158.809 24.568C158.767 24.5893 158.719 24.5947 158.665 24.584C158.623 24.5733 158.58 24.5467 158.537 24.504ZM164.104 23.736C164.008 23.736 163.96 23.7893 163.96 23.896V28.584C163.96 29.0427 164.045 29.3573 164.216 29.528C164.387 29.688 164.648 29.768 165 29.768H166.024C166.088 29.768 166.136 29.7893 166.168 29.832C166.2 29.864 166.216 29.9067 166.216 29.96V30.648C166.216 30.7867 166.136 30.8773 165.976 30.92C165.837 30.9413 165.667 30.9573 165.464 30.968C165.261 30.9787 165.059 30.9893 164.856 31C164.664 31 164.493 31 164.344 31C163.651 31 163.128 30.84 162.776 30.52C162.435 30.1893 162.264 29.6827 162.264 29V23.928C162.264 23.8 162.211 23.736 162.104 23.736H160.904C160.765 23.736 160.696 23.672 160.696 23.544V22.696C160.696 22.5787 160.76 22.52 160.888 22.52H162.168C162.253 22.52 162.296 22.472 162.296 22.376L162.488 19.864C162.499 19.7147 162.563 19.64 162.68 19.64H163.784C163.923 19.64 163.992 19.7253 163.992 19.896V22.376C163.992 22.472 164.04 22.52 164.136 22.52H166.056C166.184 22.52 166.248 22.5787 166.248 22.696V23.544C166.248 23.672 166.173 23.736 166.024 23.736H164.104ZM172.654 30.04C172.281 30.4027 171.87 30.68 171.422 30.872C170.974 31.064 170.467 31.16 169.902 31.16C169.081 31.16 168.435 30.9467 167.966 30.52C167.497 30.0933 167.262 29.5333 167.262 28.84C167.262 28.2533 167.427 27.752 167.758 27.336C168.099 26.92 168.59 26.5893 169.23 26.344C169.881 26.0987 170.67 25.9547 171.598 25.912L172.638 25.832C172.702 25.8213 172.761 25.8 172.814 25.768C172.867 25.736 172.894 25.6773 172.894 25.592V25.192C172.894 24.6693 172.734 24.2587 172.414 23.96C172.094 23.6507 171.657 23.496 171.102 23.496C170.686 23.496 170.302 23.592 169.95 23.784C169.598 23.976 169.283 24.2747 169.006 24.68C168.974 24.7333 168.942 24.7707 168.91 24.792C168.878 24.8133 168.819 24.8133 168.734 24.792L167.646 24.472C167.603 24.4507 167.571 24.424 167.55 24.392C167.539 24.3493 167.555 24.2747 167.598 24.168C167.907 23.592 168.361 23.1493 168.958 22.84C169.566 22.52 170.307 22.36 171.182 22.36C171.95 22.36 172.579 22.472 173.07 22.696C173.561 22.9093 173.923 23.224 174.158 23.64C174.403 24.0453 174.526 24.5253 174.526 25.08V30.728C174.526 30.8347 174.505 30.9093 174.462 30.952C174.43 30.984 174.371 31 174.286 31H173.198C173.123 31 173.065 30.9733 173.022 30.92C172.979 30.856 172.953 30.776 172.942 30.68L172.926 30.072C172.894 29.9013 172.803 29.8907 172.654 30.04ZM172.894 27.016C172.894 26.8347 172.819 26.7547 172.67 26.776L171.806 26.84C171.379 26.8613 170.99 26.92 170.638 27.016C170.286 27.1013 169.982 27.2187 169.726 27.368C169.481 27.5173 169.283 27.6987 169.134 27.912C168.995 28.1147 168.926 28.3547 168.926 28.632C168.926 29.048 169.07 29.3787 169.358 29.624C169.657 29.8587 170.057 29.976 170.558 29.976C170.878 29.976 171.177 29.9227 171.454 29.816C171.742 29.6987 171.993 29.5547 172.206 29.384C172.419 29.2027 172.585 29.016 172.702 28.824C172.83 28.632 172.894 28.4453 172.894 28.264V27.016ZM185.225 24.504C185.022 24.2053 184.739 23.96 184.377 23.768C184.014 23.576 183.582 23.48 183.081 23.48C182.558 23.48 182.121 23.5867 181.769 23.8C181.427 24.0133 181.257 24.312 181.257 24.696C181.257 24.8773 181.331 25.0587 181.481 25.24C181.63 25.4213 181.95 25.5813 182.441 25.72L184.409 26.28C185.187 26.4827 185.747 26.7867 186.089 27.192C186.43 27.5973 186.601 28.0613 186.601 28.584C186.601 29.1173 186.446 29.576 186.137 29.96C185.838 30.3333 185.417 30.6267 184.873 30.84C184.339 31.0533 183.726 31.16 183.033 31.16C182.158 31.16 181.395 30.9947 180.745 30.664C180.105 30.3227 179.651 29.9013 179.385 29.4C179.363 29.336 179.353 29.2827 179.353 29.24C179.353 29.1867 179.374 29.144 179.417 29.112L180.201 28.696C180.275 28.6533 180.334 28.6373 180.377 28.648C180.43 28.648 180.467 28.6693 180.489 28.712C180.659 28.9573 180.857 29.176 181.081 29.368C181.305 29.56 181.577 29.7147 181.897 29.832C182.217 29.9387 182.601 29.992 183.049 29.992C183.422 29.992 183.758 29.944 184.057 29.848C184.366 29.7413 184.606 29.5973 184.777 29.416C184.947 29.2347 185.033 29.0213 185.033 28.776C185.033 28.52 184.926 28.3013 184.713 28.12C184.51 27.928 184.147 27.7627 183.625 27.624L181.993 27.208C181.182 26.9947 180.601 26.7013 180.249 26.328C179.897 25.9547 179.721 25.5067 179.721 24.984C179.721 24.4613 179.859 24.008 180.137 23.624C180.414 23.2293 180.803 22.92 181.305 22.696C181.817 22.472 182.414 22.36 183.097 22.36C183.843 22.36 184.499 22.504 185.065 22.792C185.63 23.0693 186.057 23.4267 186.345 23.864C186.377 23.9067 186.398 23.9547 186.409 24.008C186.419 24.0507 186.393 24.0933 186.329 24.136L185.497 24.568C185.454 24.5893 185.406 24.5947 185.353 24.584C185.31 24.5733 185.267 24.5467 185.225 24.504ZM191.986 22.36C192.584 22.36 193.101 22.4613 193.538 22.664C193.986 22.856 194.36 23.1173 194.658 23.448C194.968 23.768 195.213 24.1147 195.394 24.488C195.458 24.6373 195.421 24.728 195.282 24.76L194.146 24.952C194.05 24.9733 193.981 24.9307 193.938 24.824C193.757 24.5467 193.576 24.3173 193.394 24.136C193.213 23.9547 193.016 23.8107 192.802 23.704C192.589 23.5973 192.344 23.544 192.066 23.544C191.576 23.544 191.144 23.672 190.77 23.928C190.408 24.1733 190.125 24.536 189.922 25.016C189.73 25.496 189.634 26.0773 189.634 26.76C189.634 27.4427 189.736 28.0293 189.938 28.52C190.141 29 190.429 29.368 190.802 29.624C191.176 29.8693 191.618 29.992 192.13 29.992C192.632 29.992 193.053 29.864 193.394 29.608C193.736 29.352 194.05 28.9893 194.338 28.52C194.37 28.4773 194.397 28.4507 194.418 28.44C194.45 28.4293 194.498 28.4347 194.562 28.456L195.41 28.712C195.496 28.744 195.517 28.824 195.474 28.952C195.346 29.2187 195.176 29.4853 194.962 29.752C194.76 30.0187 194.514 30.2587 194.226 30.472C193.949 30.6747 193.624 30.84 193.25 30.968C192.877 31.096 192.456 31.16 191.986 31.16C191.186 31.16 190.477 30.9787 189.858 30.616C189.25 30.2427 188.77 29.7307 188.418 29.08C188.077 28.4187 187.906 27.656 187.906 26.792C187.906 25.9173 188.082 25.1493 188.434 24.488C188.786 23.8267 189.266 23.3093 189.874 22.936C190.493 22.552 191.197 22.36 191.986 22.36ZM201.857 30.04C201.484 30.4027 201.073 30.68 200.625 30.872C200.177 31.064 199.67 31.16 199.105 31.16C198.284 31.16 197.638 30.9467 197.169 30.52C196.7 30.0933 196.465 29.5333 196.465 28.84C196.465 28.2533 196.63 27.752 196.961 27.336C197.302 26.92 197.793 26.5893 198.433 26.344C199.084 26.0987 199.873 25.9547 200.801 25.912L201.841 25.832C201.905 25.8213 201.964 25.8 202.017 25.768C202.07 25.736 202.097 25.6773 202.097 25.592V25.192C202.097 24.6693 201.937 24.2587 201.617 23.96C201.297 23.6507 200.86 23.496 200.305 23.496C199.889 23.496 199.505 23.592 199.153 23.784C198.801 23.976 198.486 24.2747 198.209 24.68C198.177 24.7333 198.145 24.7707 198.113 24.792C198.081 24.8133 198.022 24.8133 197.937 24.792L196.849 24.472C196.806 24.4507 196.774 24.424 196.753 24.392C196.742 24.3493 196.758 24.2747 196.801 24.168C197.11 23.592 197.564 23.1493 198.161 22.84C198.769 22.52 199.51 22.36 200.385 22.36C201.153 22.36 201.782 22.472 202.273 22.696C202.764 22.9093 203.126 23.224 203.361 23.64C203.606 24.0453 203.729 24.5253 203.729 25.08V30.728C203.729 30.8347 203.708 30.9093 203.665 30.952C203.633 30.984 203.574 31 203.489 31H202.401C202.326 31 202.268 30.9733 202.225 30.92C202.182 30.856 202.156 30.776 202.145 30.68L202.129 30.072C202.097 29.9013 202.006 29.8907 201.857 30.04ZM202.097 27.016C202.097 26.8347 202.022 26.7547 201.873 26.776L201.009 26.84C200.582 26.8613 200.193 26.92 199.841 27.016C199.489 27.1013 199.185 27.2187 198.929 27.368C198.684 27.5173 198.486 27.6987 198.337 27.912C198.198 28.1147 198.129 28.3547 198.129 28.632C198.129 29.048 198.273 29.3787 198.561 29.624C198.86 29.8587 199.26 29.976 199.761 29.976C200.081 29.976 200.38 29.9227 200.657 29.816C200.945 29.6987 201.196 29.5547 201.409 29.384C201.622 29.2027 201.788 29.016 201.905 28.824C202.033 28.632 202.097 28.4453 202.097 28.264V27.016ZM207.613 30.696C207.613 30.8133 207.587 30.8933 207.533 30.936C207.491 30.9787 207.405 31 207.277 31H206.189C205.997 31 205.901 30.9147 205.901 30.744L205.933 19.368C205.933 19.208 206.003 19.128 206.141 19.128H207.405C207.544 19.128 207.613 19.208 207.613 19.368V30.696ZM215.854 31C215.779 31 215.715 30.9787 215.662 30.936C215.619 30.8933 215.598 30.8293 215.598 30.744V30.136C215.598 30.0613 215.577 30.0187 215.534 30.008C215.491 29.9973 215.443 30.0187 215.39 30.072C215.251 30.2 215.075 30.3493 214.862 30.52C214.649 30.6907 214.382 30.84 214.062 30.968C213.742 31.096 213.363 31.16 212.926 31.16C212.265 31.16 211.667 31 211.134 30.68C210.611 30.36 210.195 29.8853 209.886 29.256C209.587 28.616 209.438 27.8213 209.438 26.872C209.438 25.9653 209.598 25.176 209.918 24.504C210.238 23.832 210.675 23.3093 211.23 22.936C211.785 22.552 212.409 22.36 213.102 22.36C213.603 22.36 214.025 22.44 214.366 22.6C214.718 22.76 215.033 22.9627 215.31 23.208C215.395 23.2827 215.459 23.3147 215.502 23.304C215.545 23.2827 215.566 23.2133 215.566 23.096V19.368C215.566 19.208 215.635 19.128 215.774 19.128H217.054C217.193 19.128 217.262 19.208 217.262 19.368V30.728C217.262 30.824 217.241 30.8933 217.198 30.936C217.155 30.9787 217.075 31 216.958 31H215.854ZM215.566 24.504C215.257 24.1947 214.947 23.9547 214.638 23.784C214.329 23.6133 213.982 23.528 213.598 23.528C213.129 23.528 212.707 23.6507 212.334 23.896C211.971 24.1413 211.683 24.5093 211.47 25C211.267 25.48 211.166 26.088 211.166 26.824C211.166 27.5707 211.273 28.1787 211.486 28.648C211.699 29.1173 211.982 29.464 212.334 29.688C212.697 29.9013 213.091 30.008 213.518 30.008C213.902 30.008 214.249 29.9173 214.558 29.736C214.867 29.5547 215.113 29.3307 215.294 29.064C215.475 28.7867 215.566 28.5147 215.566 28.248V24.504ZM224.279 30.04C223.906 30.4027 223.495 30.68 223.047 30.872C222.599 31.064 222.092 31.16 221.527 31.16C220.706 31.16 220.06 30.9467 219.591 30.52C219.122 30.0933 218.887 29.5333 218.887 28.84C218.887 28.2533 219.052 27.752 219.383 27.336C219.724 26.92 220.215 26.5893 220.855 26.344C221.506 26.0987 222.295 25.9547 223.223 25.912L224.263 25.832C224.327 25.8213 224.386 25.8 224.439 25.768C224.492 25.736 224.519 25.6773 224.519 25.592V25.192C224.519 24.6693 224.359 24.2587 224.039 23.96C223.719 23.6507 223.282 23.496 222.727 23.496C222.311 23.496 221.927 23.592 221.575 23.784C221.223 23.976 220.908 24.2747 220.631 24.68C220.599 24.7333 220.567 24.7707 220.535 24.792C220.503 24.8133 220.444 24.8133 220.359 24.792L219.271 24.472C219.228 24.4507 219.196 24.424 219.175 24.392C219.164 24.3493 219.18 24.2747 219.223 24.168C219.532 23.592 219.986 23.1493 220.583 22.84C221.191 22.52 221.932 22.36 222.807 22.36C223.575 22.36 224.204 22.472 224.695 22.696C225.186 22.9093 225.548 23.224 225.783 23.64C226.028 24.0453 226.151 24.5253 226.151 25.08V30.728C226.151 30.8347 226.13 30.9093 226.087 30.952C226.055 30.984 225.996 31 225.911 31H224.823C224.748 31 224.69 30.9733 224.647 30.92C224.604 30.856 224.578 30.776 224.567 30.68L224.551 30.072C224.519 29.9013 224.428 29.8907 224.279 30.04ZM224.519 27.016C224.519 26.8347 224.444 26.7547 224.295 26.776L223.431 26.84C223.004 26.8613 222.615 26.92 222.263 27.016C221.911 27.1013 221.607 27.2187 221.351 27.368C221.106 27.5173 220.908 27.6987 220.759 27.912C220.62 28.1147 220.551 28.3547 220.551 28.632C220.551 29.048 220.695 29.3787 220.983 29.624C221.282 29.8587 221.682 29.976 222.183 29.976C222.503 29.976 222.802 29.9227 223.079 29.816C223.367 29.6987 223.618 29.5547 223.831 29.384C224.044 29.2027 224.21 29.016 224.327 28.824C224.455 28.632 224.519 28.4453 224.519 28.264V27.016ZM228.579 31C228.408 31 228.323 30.9147 228.323 30.744V22.76C228.323 22.6 228.392 22.52 228.531 22.52H229.795C229.923 22.52 229.987 22.5893 229.987 22.728V23.608C229.987 23.6613 229.998 23.6987 230.019 23.72C230.051 23.7307 230.094 23.7093 230.147 23.656C230.478 23.3893 230.792 23.16 231.091 22.968C231.39 22.7653 231.694 22.616 232.003 22.52C232.312 22.4133 232.648 22.36 233.011 22.36C233.822 22.36 234.451 22.584 234.899 23.032C235.347 23.48 235.571 24.072 235.571 24.808V30.712C235.571 30.904 235.48 31 235.299 31H234.115C234.03 31 233.966 30.984 233.923 30.952C233.891 30.9093 233.875 30.84 233.875 30.744V25.144C233.875 24.6747 233.752 24.3067 233.507 24.04C233.262 23.7733 232.883 23.64 232.371 23.64C232.083 23.64 231.816 23.688 231.571 23.784C231.326 23.8693 231.08 24.0027 230.835 24.184C230.59 24.3547 230.318 24.5733 230.019 24.84V30.728C230.019 30.9093 229.918 31 229.715 31H228.579ZM243.713 31C243.639 31 243.575 30.9787 243.521 30.936C243.479 30.8933 243.457 30.8293 243.457 30.744V30.136C243.457 30.0613 243.436 30.0187 243.393 30.008C243.351 29.9973 243.303 30.0187 243.249 30.072C243.111 30.2 242.935 30.3493 242.721 30.52C242.508 30.6907 242.241 30.84 241.921 30.968C241.601 31.096 241.223 31.16 240.785 31.16C240.124 31.16 239.527 31 238.993 30.68C238.471 30.36 238.055 29.8853 237.745 29.256C237.447 28.616 237.297 27.8213 237.297 26.872C237.297 25.9653 237.457 25.176 237.777 24.504C238.097 23.832 238.535 23.3093 239.089 22.936C239.644 22.552 240.268 22.36 240.961 22.36C241.463 22.36 241.884 22.44 242.225 22.6C242.577 22.76 242.892 22.9627 243.169 23.208C243.255 23.2827 243.319 23.3147 243.361 23.304C243.404 23.2827 243.425 23.2133 243.425 23.096V19.368C243.425 19.208 243.495 19.128 243.633 19.128H244.913C245.052 19.128 245.121 19.208 245.121 19.368V30.728C245.121 30.824 245.1 30.8933 245.057 30.936C245.015 30.9787 244.935 31 244.817 31H243.713ZM243.425 24.504C243.116 24.1947 242.807 23.9547 242.497 23.784C242.188 23.6133 241.841 23.528 241.457 23.528C240.988 23.528 240.567 23.6507 240.193 23.896C239.831 24.1413 239.543 24.5093 239.329 25C239.127 25.48 239.025 26.088 239.025 26.824C239.025 27.5707 239.132 28.1787 239.345 28.648C239.559 29.1173 239.841 29.464 240.193 29.688C240.556 29.9013 240.951 30.008 241.377 30.008C241.761 30.008 242.108 29.9173 242.417 29.736C242.727 29.5547 242.972 29.3307 243.153 29.064C243.335 28.7867 243.425 28.5147 243.425 28.248V24.504ZM251.018 31.16C250.197 31.16 249.477 30.9787 248.858 30.616C248.24 30.2427 247.76 29.7307 247.418 29.08C247.077 28.4187 246.906 27.6613 246.906 26.808C246.906 25.9227 247.082 25.1493 247.434 24.488C247.786 23.816 248.272 23.2933 248.89 22.92C249.52 22.5467 250.234 22.36 251.034 22.36C251.866 22.36 252.586 22.552 253.194 22.936C253.813 23.3093 254.293 23.832 254.634 24.504C254.976 25.1653 255.146 25.928 255.146 26.792C255.146 27.6453 254.97 28.4027 254.618 29.064C254.277 29.7147 253.797 30.2267 253.178 30.6C252.56 30.9733 251.84 31.16 251.018 31.16ZM251.05 29.96C251.552 29.96 251.978 29.832 252.33 29.576C252.682 29.32 252.949 28.9573 253.13 28.488C253.322 28.008 253.418 27.432 253.418 26.76C253.418 26.088 253.322 25.512 253.13 25.032C252.949 24.552 252.677 24.184 252.314 23.928C251.962 23.6613 251.536 23.528 251.034 23.528C250.533 23.528 250.101 23.6613 249.738 23.928C249.386 24.184 249.114 24.552 248.922 25.032C248.73 25.512 248.634 26.088 248.634 26.76C248.634 27.432 248.73 28.008 248.922 28.488C249.114 28.9573 249.386 29.32 249.738 29.576C250.101 29.832 250.538 29.96 251.05 29.96ZM71.256 45.504C71.0533 45.2053 70.7707 44.96 70.408 44.768C70.0453 44.576 69.6133 44.48 69.112 44.48C68.5893 44.48 68.152 44.5867 67.8 44.8C67.4587 45.0133 67.288 45.312 67.288 45.696C67.288 45.8773 67.3627 46.0587 67.512 46.24C67.6613 46.4213 67.9813 46.5813 68.472 46.72L70.44 47.28C71.2187 47.4827 71.7787 47.7867 72.12 48.192C72.4613 48.5973 72.632 49.0613 72.632 49.584C72.632 50.1173 72.4773 50.576 72.168 50.96C71.8693 51.3333 71.448 51.6267 70.904 51.84C70.3707 52.0533 69.7573 52.16 69.064 52.16C68.1893 52.16 67.4267 51.9947 66.776 51.664C66.136 51.3227 65.6827 50.9013 65.416 50.4C65.3947 50.336 65.384 50.2827 65.384 50.24C65.384 50.1867 65.4053 50.144 65.448 50.112L66.232 49.696C66.3067 49.6533 66.3653 49.6373 66.408 49.648C66.4613 49.648 66.4987 49.6693 66.52 49.712C66.6907 49.9573 66.888 50.176 67.112 50.368C67.336 50.56 67.608 50.7147 67.928 50.832C68.248 50.9387 68.632 50.992 69.08 50.992C69.4533 50.992 69.7893 50.944 70.088 50.848C70.3973 50.7413 70.6373 50.5973 70.808 50.416C70.9787 50.2347 71.064 50.0213 71.064 49.776C71.064 49.52 70.9573 49.3013 70.744 49.12C70.5413 48.928 70.1787 48.7627 69.656 48.624L68.024 48.208C67.2133 47.9947 66.632 47.7013 66.28 47.328C65.928 46.9547 65.752 46.5067 65.752 45.984C65.752 45.4613 65.8907 45.008 66.168 44.624C66.4453 44.2293 66.8347 43.92 67.336 43.696C67.848 43.472 68.4453 43.36 69.128 43.36C69.8747 43.36 70.5307 43.504 71.096 43.792C71.6613 44.0693 72.088 44.4267 72.376 44.864C72.408 44.9067 72.4293 44.9547 72.44 45.008C72.4507 45.0507 72.424 45.0933 72.36 45.136L71.528 45.568C71.4853 45.5893 71.4373 45.5947 71.384 45.584C71.3413 45.5733 71.2987 45.5467 71.256 45.504ZM75.6816 48.352C75.6816 48.832 75.7936 49.2693 76.0176 49.664C76.2523 50.048 76.5616 50.3573 76.9456 50.592C77.3403 50.816 77.7776 50.928 78.2576 50.928C78.7483 50.928 79.1856 50.8267 79.5696 50.624C79.9536 50.4213 80.3056 50.1067 80.6256 49.68C80.6576 49.6373 80.6896 49.616 80.7216 49.616C80.7536 49.6053 80.8016 49.616 80.8656 49.648L81.6816 50.032C81.799 50.0853 81.8096 50.1707 81.7136 50.288C81.415 50.7253 81.0843 51.0827 80.7216 51.36C80.3696 51.6373 79.975 51.84 79.5376 51.968C79.1003 52.096 78.615 52.16 78.0816 52.16C77.271 52.16 76.5563 51.9787 75.9376 51.616C75.319 51.2533 74.8283 50.7467 74.4656 50.096C74.1136 49.4453 73.9376 48.6987 73.9376 47.856C73.9376 46.928 74.119 46.1333 74.4816 45.472C74.8443 44.8 75.335 44.2827 75.9536 43.92C76.583 43.5467 77.2816 43.36 78.0496 43.36C78.839 43.36 79.527 43.536 80.1136 43.888C80.711 44.2293 81.175 44.7253 81.5056 45.376C81.8363 46.0267 82.0016 46.816 82.0016 47.744C82.0016 47.84 81.991 47.9253 81.9696 48C81.9483 48.064 81.879 48.096 81.7616 48.096H75.8416C75.7883 48.096 75.7456 48.1227 75.7136 48.176C75.6923 48.2187 75.6816 48.2773 75.6816 48.352ZM80.0496 47.088C80.167 47.088 80.2416 47.072 80.2736 47.04C80.3056 47.008 80.3216 46.9493 80.3216 46.864C80.3216 46.4587 80.231 46.0747 80.0496 45.712C79.879 45.3493 79.6283 45.056 79.2976 44.832C78.9776 44.608 78.5776 44.496 78.0976 44.496C77.5963 44.496 77.1643 44.6187 76.8016 44.864C76.4496 45.0987 76.1776 45.4133 75.9856 45.808C75.8043 46.2027 75.7136 46.624 75.7136 47.072L80.0496 47.088ZM83.9541 52C83.7835 52 83.6981 51.9147 83.6981 51.744V43.76C83.6981 43.6 83.7675 43.52 83.9061 43.52H85.1541C85.2821 43.52 85.3461 43.5893 85.3461 43.728V44.608C85.3461 44.6613 85.3621 44.6987 85.3941 44.72C85.4261 44.7307 85.4635 44.7093 85.5061 44.656C85.8368 44.3893 86.1461 44.16 86.4341 43.968C86.7221 43.7653 87.0155 43.616 87.3141 43.52C87.6235 43.4133 87.9541 43.36 88.3061 43.36C88.9141 43.36 89.4101 43.504 89.7941 43.792C90.1781 44.0693 90.4395 44.4053 90.5781 44.8C90.5995 44.8427 90.6261 44.8587 90.6581 44.848C90.7008 44.8373 90.7435 44.8107 90.7861 44.768C91.0955 44.48 91.4048 44.2347 91.7141 44.032C92.0235 43.8187 92.3381 43.6533 92.6581 43.536C92.9781 43.4187 93.3141 43.36 93.6661 43.36C94.4341 43.36 95.0315 43.584 95.4581 44.032C95.8955 44.48 96.1141 45.0827 96.1141 45.84V51.712C96.1141 51.904 96.0181 52 95.8261 52H94.6421C94.5675 52 94.5088 51.984 94.4661 51.952C94.4341 51.9093 94.4181 51.84 94.4181 51.744V46.144C94.4181 45.6747 94.3008 45.3067 94.0661 45.04C93.8315 44.7733 93.4795 44.64 93.0101 44.64C92.7328 44.64 92.4661 44.6933 92.2101 44.8C91.9541 44.9067 91.7195 45.04 91.5061 45.2C91.3035 45.3493 91.1221 45.4987 90.9621 45.648C90.8875 45.7227 90.8341 45.792 90.8021 45.856C90.7701 45.92 90.7541 46.0053 90.7541 46.112V51.712C90.7541 51.904 90.6581 52 90.4661 52H89.2981C89.2235 52 89.1648 51.984 89.1221 51.952C89.0795 51.9093 89.0581 51.84 89.0581 51.744V46.144C89.0581 45.6747 88.9461 45.3067 88.7221 45.04C88.4981 44.7733 88.1408 44.64 87.6501 44.64C87.2448 44.64 86.8715 44.7413 86.5301 44.944C86.1995 45.136 85.8208 45.4347 85.3941 45.84V51.728C85.3941 51.9093 85.2928 52 85.0901 52H83.9541ZM99.6846 43.52C99.866 43.52 99.9566 43.6053 99.9566 43.776V44.4C99.9566 44.4747 99.9726 44.5173 100.005 44.528C100.047 44.528 100.101 44.5013 100.165 44.448C100.303 44.3093 100.474 44.16 100.677 44C100.879 43.8293 101.135 43.68 101.445 43.552C101.765 43.424 102.154 43.36 102.613 43.36C103.263 43.36 103.845 43.52 104.357 43.84C104.879 44.1493 105.29 44.6187 105.589 45.248C105.898 45.8773 106.053 46.6773 106.053 47.648C106.053 48.6293 105.898 49.456 105.589 50.128C105.29 50.7893 104.869 51.296 104.325 51.648C103.791 51.9893 103.167 52.16 102.453 52.16C101.983 52.16 101.562 52.0907 101.189 51.952C100.826 51.8027 100.506 51.6053 100.229 51.36C100.133 51.264 100.063 51.2267 100.021 51.248C99.978 51.2587 99.9566 51.328 99.9566 51.456V54.416C99.9566 54.5653 99.8926 54.64 99.7646 54.64H98.4686C98.33 54.64 98.2606 54.5653 98.2606 54.416V43.808C98.2606 43.7013 98.282 43.6267 98.3246 43.584C98.3673 43.5413 98.4473 43.52 98.5646 43.52H99.6846ZM99.9566 50.032C100.245 50.3307 100.543 50.5707 100.853 50.752C101.173 50.9227 101.53 51.008 101.925 51.008C102.405 51.008 102.821 50.8853 103.173 50.64C103.535 50.3947 103.818 50.0267 104.021 49.536C104.223 49.0347 104.325 48.4053 104.325 47.648C104.325 46.8907 104.218 46.2827 104.005 45.824C103.802 45.3653 103.525 45.0347 103.173 44.832C102.821 44.6187 102.431 44.512 102.005 44.512C101.61 44.512 101.258 44.5973 100.949 44.768C100.639 44.9387 100.394 45.152 100.213 45.408C100.042 45.664 99.9566 45.92 99.9566 46.176V50.032ZM108.126 52C108.041 52 107.977 51.9787 107.934 51.936C107.891 51.8933 107.87 51.8293 107.87 51.744V43.76C107.87 43.6 107.939 43.52 108.078 43.52H109.31C109.438 43.52 109.502 43.5893 109.502 43.728V44.736C109.502 44.8 109.518 44.8373 109.55 44.848C109.593 44.8587 109.635 44.8373 109.678 44.784C109.945 44.464 110.211 44.2027 110.478 44C110.755 43.7867 111.033 43.6267 111.31 43.52C111.587 43.4133 111.865 43.36 112.142 43.36C112.515 43.36 112.702 43.4347 112.702 43.584V44.832C112.702 44.96 112.643 45.0133 112.526 44.992C112.398 44.96 112.259 44.9387 112.11 44.928C111.971 44.9173 111.827 44.912 111.678 44.912C111.454 44.912 111.219 44.96 110.974 45.056C110.729 45.152 110.499 45.2853 110.286 45.456C110.083 45.616 109.913 45.7973 109.774 46C109.635 46.2027 109.566 46.4107 109.566 46.624V51.728C109.566 51.9093 109.465 52 109.262 52H108.126ZM115.291 48.352C115.291 48.832 115.403 49.2693 115.627 49.664C115.862 50.048 116.171 50.3573 116.555 50.592C116.95 50.816 117.387 50.928 117.867 50.928C118.358 50.928 118.795 50.8267 119.179 50.624C119.563 50.4213 119.915 50.1067 120.235 49.68C120.267 49.6373 120.299 49.616 120.331 49.616C120.363 49.6053 120.411 49.616 120.475 49.648L121.291 50.032C121.408 50.0853 121.419 50.1707 121.323 50.288C121.024 50.7253 120.694 51.0827 120.331 51.36C119.979 51.6373 119.584 51.84 119.147 51.968C118.71 52.096 118.224 52.16 117.691 52.16C116.88 52.16 116.166 51.9787 115.547 51.616C114.928 51.2533 114.438 50.7467 114.075 50.096C113.723 49.4453 113.547 48.6987 113.547 47.856C113.547 46.928 113.728 46.1333 114.091 45.472C114.454 44.8 114.944 44.2827 115.563 43.92C116.192 43.5467 116.891 43.36 117.659 43.36C118.448 43.36 119.136 43.536 119.723 43.888C120.32 44.2293 120.784 44.7253 121.115 45.376C121.446 46.0267 121.611 46.816 121.611 47.744C121.611 47.84 121.6 47.9253 121.579 48C121.558 48.064 121.488 48.096 121.371 48.096H115.451C115.398 48.096 115.355 48.1227 115.323 48.176C115.302 48.2187 115.291 48.2773 115.291 48.352ZM119.659 47.088C119.776 47.088 119.851 47.072 119.883 47.04C119.915 47.008 119.931 46.9493 119.931 46.864C119.931 46.4587 119.84 46.0747 119.659 45.712C119.488 45.3493 119.238 45.056 118.907 44.832C118.587 44.608 118.187 44.496 117.707 44.496C117.206 44.496 116.774 44.6187 116.411 44.864C116.059 45.0987 115.787 45.4133 115.595 45.808C115.414 46.2027 115.323 46.624 115.323 47.072L119.659 47.088ZM132.682 52C132.607 52 132.543 51.9787 132.49 51.936C132.447 51.8933 132.426 51.8293 132.426 51.744V51.136C132.426 51.0613 132.405 51.0187 132.362 51.008C132.319 50.9973 132.271 51.0187 132.218 51.072C132.079 51.2 131.903 51.3493 131.69 51.52C131.477 51.6907 131.21 51.84 130.89 51.968C130.57 52.096 130.191 52.16 129.754 52.16C129.093 52.16 128.495 52 127.962 51.68C127.439 51.36 127.023 50.8853 126.714 50.256C126.415 49.616 126.266 48.8213 126.266 47.872C126.266 46.9653 126.426 46.176 126.746 45.504C127.066 44.832 127.503 44.3093 128.058 43.936C128.613 43.552 129.237 43.36 129.93 43.36C130.431 43.36 130.853 43.44 131.194 43.6C131.546 43.76 131.861 43.9627 132.138 44.208C132.223 44.2827 132.287 44.3147 132.33 44.304C132.373 44.2827 132.394 44.2133 132.394 44.096V40.368C132.394 40.208 132.463 40.128 132.602 40.128H133.882C134.021 40.128 134.09 40.208 134.09 40.368V51.728C134.09 51.824 134.069 51.8933 134.026 51.936C133.983 51.9787 133.903 52 133.786 52H132.682ZM132.394 45.504C132.085 45.1947 131.775 44.9547 131.466 44.784C131.157 44.6133 130.81 44.528 130.426 44.528C129.957 44.528 129.535 44.6507 129.162 44.896C128.799 45.1413 128.511 45.5093 128.298 46C128.095 46.48 127.994 47.088 127.994 47.824C127.994 48.5707 128.101 49.1787 128.314 49.648C128.527 50.1173 128.81 50.464 129.162 50.688C129.525 50.9013 129.919 51.008 130.346 51.008C130.73 51.008 131.077 50.9173 131.386 50.736C131.695 50.5547 131.941 50.3307 132.122 50.064C132.303 49.7867 132.394 49.5147 132.394 49.248V45.504ZM138.019 51.696C138.019 51.8133 137.992 51.8933 137.939 51.936C137.896 51.9787 137.816 52 137.699 52H136.611C136.494 52 136.414 51.984 136.371 51.952C136.339 51.9093 136.323 51.84 136.323 51.744V43.76C136.323 43.6 136.398 43.52 136.547 43.52H137.827C137.955 43.52 138.019 43.5947 138.019 43.744V51.696ZM138.067 41.824C138.067 42.048 137.96 42.16 137.747 42.16H136.563C136.446 42.16 136.366 42.1333 136.323 42.08C136.291 42.0267 136.275 41.952 136.275 41.856V40.4C136.275 40.2187 136.355 40.128 136.515 40.128H137.843C137.992 40.128 138.067 40.2133 138.067 40.384V41.824ZM145.091 43.52C145.272 43.52 145.363 43.6053 145.363 43.776V44.4C145.363 44.4747 145.379 44.5173 145.411 44.528C145.454 44.528 145.507 44.5013 145.571 44.448C145.71 44.3093 145.88 44.16 146.083 44C146.286 43.8293 146.542 43.68 146.851 43.552C147.171 43.424 147.56 43.36 148.019 43.36C148.67 43.36 149.251 43.52 149.763 43.84C150.286 44.1493 150.696 44.6187 150.995 45.248C151.304 45.8773 151.459 46.6773 151.459 47.648C151.459 48.6293 151.304 49.456 150.995 50.128C150.696 50.7893 150.275 51.296 149.731 51.648C149.198 51.9893 148.574 52.16 147.859 52.16C147.39 52.16 146.968 52.0907 146.595 51.952C146.232 51.8027 145.912 51.6053 145.635 51.36C145.539 51.264 145.47 51.2267 145.427 51.248C145.384 51.2587 145.363 51.328 145.363 51.456V54.416C145.363 54.5653 145.299 54.64 145.171 54.64H143.875C143.736 54.64 143.667 54.5653 143.667 54.416V43.808C143.667 43.7013 143.688 43.6267 143.731 43.584C143.774 43.5413 143.854 43.52 143.971 43.52H145.091ZM145.363 50.032C145.651 50.3307 145.95 50.5707 146.259 50.752C146.579 50.9227 146.936 51.008 147.331 51.008C147.811 51.008 148.227 50.8853 148.579 50.64C148.942 50.3947 149.224 50.0267 149.427 49.536C149.63 49.0347 149.731 48.4053 149.731 47.648C149.731 46.8907 149.624 46.2827 149.411 45.824C149.208 45.3653 148.931 45.0347 148.579 44.832C148.227 44.6187 147.838 44.512 147.411 44.512C147.016 44.512 146.664 44.5973 146.355 44.768C146.046 44.9387 145.8 45.152 145.619 45.408C145.448 45.664 145.363 45.92 145.363 46.176V50.032ZM154.972 51.696C154.972 51.8133 154.946 51.8933 154.892 51.936C154.85 51.9787 154.77 52 154.652 52H153.564C153.447 52 153.367 51.984 153.324 51.952C153.292 51.9093 153.276 51.84 153.276 51.744V43.76C153.276 43.6 153.351 43.52 153.5 43.52H154.78C154.908 43.52 154.972 43.5947 154.972 43.744V51.696ZM155.02 41.824C155.02 42.048 154.914 42.16 154.7 42.16H153.516C153.399 42.16 153.319 42.1333 153.276 42.08C153.244 42.0267 153.228 41.952 153.228 41.856V40.4C153.228 40.2187 153.308 40.128 153.468 40.128H154.796C154.946 40.128 155.02 40.2133 155.02 40.384V41.824ZM160.301 50.88C160.728 50.88 161.128 50.768 161.501 50.544C161.885 50.3093 162.259 50 162.621 49.616V43.792C162.621 43.6107 162.723 43.52 162.925 43.52H164.077C164.248 43.52 164.333 43.6053 164.333 43.776L164.301 51.776C164.301 51.9253 164.237 52 164.109 52H162.861C162.733 52 162.669 51.9307 162.669 51.792V50.896C162.669 50.8427 162.653 50.8107 162.621 50.8C162.6 50.7787 162.563 50.7947 162.509 50.848C161.965 51.3387 161.469 51.68 161.021 51.872C160.573 52.064 160.115 52.16 159.645 52.16C159.165 52.16 158.733 52.0587 158.349 51.856C157.976 51.6533 157.677 51.3653 157.453 50.992C157.24 50.6187 157.133 50.1813 157.133 49.68V43.808C157.133 43.616 157.229 43.52 157.421 43.52H158.589C158.749 43.52 158.829 43.6053 158.829 43.776V49.328C158.829 49.7867 158.957 50.16 159.213 50.448C159.48 50.736 159.843 50.88 160.301 50.88ZM158.797 40.096C158.851 39.9787 158.925 39.9413 159.021 39.984L162.749 41.488C162.845 41.5307 162.872 41.616 162.829 41.744L162.685 42.16C162.664 42.2347 162.632 42.2827 162.589 42.304C162.547 42.3147 162.477 42.3147 162.381 42.304L158.717 41.232C158.536 41.1787 158.472 41.072 158.525 40.912L158.797 40.096Z" fill="#F24E1E"/>
<path d="M0.35 20.35H21C23.5681 20.35 25.65 22.4319 25.65 25V45.65H0.35V20.35Z" fill="white" stroke="black" stroke-width="0.7"/>
<rect x="8.35" y="41.35" width="9.3" height="9.3" fill="#F24E1E" stroke="black" stroke-width="0.7"/>
<rect x="0.5" y="100.5" width="945" height="667" fill="white" stroke="black"/>
<path d="M26 511L927 511" stroke="black"/>
<path d="M28 511L28 590" stroke="black" stroke-width="3"/>
<path d="M94 511L94 590" stroke="black" stroke-width="3"/>
<path d="M160 511L160 590" stroke="black" stroke-width="3"/>
<path d="M226 511L226 590" stroke="black" stroke-width="3"/>
<path d="M292 511L292 590" stroke="black" stroke-width="3"/>
<path d="M358 511L358 590" stroke="black" stroke-width="3"/>
<path d="M484 511L484 431" stroke="#F24E1E" stroke-width="3"/>
<path d="M592 511L592 431" stroke="#F24E1E" stroke-width="3"/>
<path d="M700 511L700 326" stroke="#F24E1E" stroke-width="3"/>
<path d="M808 511L808 326" stroke="#F24E1E" stroke-width="3"/>
<path d="M34 511L34 549" stroke="black" stroke-width="3"/>
<path d="M100 511L100 549" stroke="black" stroke-width="3"/>
<path d="M166 511L166 549" stroke="black" stroke-width="3"/>
<path d="M232 511L232 549" stroke="black" stroke-width="3"/>
<path d="M364 511L364 549" stroke="black" stroke-width="3"/>
<path d="M298 511L298 549" stroke="black" stroke-width="3"/>
<path d="M478 511L478 472" stroke="#F24E1E" stroke-width="3"/>
<path d="M586 511L586 472" stroke="#F24E1E" stroke-width="3"/>
<path d="M694 511L694 472" stroke="#F24E1E" stroke-width="3"/>
<path d="M802 511L802 472" stroke="#F24E1E" stroke-width="3"/>
<path d="M40 511L40 555" stroke="black" stroke-width="3"/>
<path d="M106 511L106 555" stroke="black" stroke-width="3"/>
<path d="M172 511L172 555" stroke="black" stroke-width="3"/>
<path d="M370 511L370 555" stroke="black" stroke-width="3"/>
<path d="M238 511L238 555" stroke="black" stroke-width="3"/>
<path d="M304 511L304 555" stroke="black" stroke-width="3"/>
<path d="M472 511L472 467" stroke="#F24E1E" stroke-width="3"/>
<path d="M580 511L580 467" stroke="#F24E1E" stroke-width="3"/>
<path d="M688 511L688 467" stroke="#F24E1E" stroke-width="3"/>
<path d="M796 511L796 467" stroke="#F24E1E" stroke-width="3"/>
<path d="M46 511L46 592" stroke="black" stroke-width="3"/>
<path d="M112 511L112 592" stroke="black" stroke-width="3"/>
<path d="M376 511L376 592" stroke="black" stroke-width="3"/>
<path d="M178 511L178 592" stroke="black" stroke-width="3"/>
<path d="M244 511L244 592" stroke="black" stroke-width="3"/>
<path d="M310 511L310 592" stroke="black" stroke-width="3"/>
<path d="M466 511L466 430" stroke="#F24E1E" stroke-width="3"/>
<path d="M574 511L574 430" stroke="#F24E1E" stroke-width="3"/>
<path d="M682 511L682 323" stroke="#F24E1E" stroke-width="3"/>
<path d="M790 511L790 323" stroke="#F24E1E" stroke-width="3"/>
<path d="M316 511L316 639" stroke="black" stroke-width="3"/>
<path d="M382 511L382 639" stroke="black" stroke-width="3"/>
<path d="M52 511L52 639" stroke="black" stroke-width="3"/>
<path d="M118 511L118 639" stroke="black" stroke-width="3"/>
<path d="M184 511L184 639" stroke="black" stroke-width="3"/>
<path d="M250 511L250 639" stroke="black" stroke-width="3"/>
<path d="M322 511L322 647" stroke="black" stroke-width="3"/>
<path d="M388 511L388 647" stroke="black" stroke-width="3"/>
<path d="M526 511L526 383" stroke="#F24E1E" stroke-width="3"/>
<path d="M634 511L634 214" stroke="#F24E1E" stroke-width="3"/>
<path d="M742 511L742 214" stroke="#F24E1E" stroke-width="3"/>
<path d="M850 511L850 214" stroke="#F24E1E" stroke-width="3"/>
<path d="M874 511L874 214" stroke="#F24E1E" stroke-width="3"/>
<path d="M898 511L898 214" stroke="#F24E1E" stroke-width="3"/>
<path d="M922 511L922 214" stroke="#F24E1E" stroke-width="3"/>
<path d="M460 511L460 383" stroke="#F24E1E" stroke-width="3"/>
<path d="M568 511L568 383" stroke="#F24E1E" stroke-width="3"/>
<path d="M676 511L676 214" stroke="#F24E1E" stroke-width="3"/>
<path d="M784 511L784 214" stroke="#F24E1E" stroke-width="3"/>
<path d="M58 511L58 647" stroke="black" stroke-width="3"/>
<path d="M124 511L124 647" stroke="black" stroke-width="3"/>
<path d="M328 511L328 653" stroke="black" stroke-width="3"/>
<path d="M394 511L394 653" stroke="black" stroke-width="3"/>
<path d="M190 511L190 647" stroke="black" stroke-width="3"/>
<path d="M256 511L256 647" stroke="black" stroke-width="3"/>
<path d="M520 511L520 374" stroke="#F24E1E" stroke-width="3"/>
<path d="M628 511L628 195" stroke="#F24E1E" stroke-width="3"/>
<path d="M736 511L736 195" stroke="#F24E1E" stroke-width="3"/>
<path d="M844 511L844 195" stroke="#F24E1E" stroke-width="3"/>
<path d="M868 511L868 195" stroke="#F24E1E" stroke-width="3"/>
<path d="M892 511L892 195" stroke="#F24E1E" stroke-width="3"/>
<path d="M916 511L916 195" stroke="#F24E1E" stroke-width="3"/>
<path d="M454 511L454 374" stroke="#F24E1E" stroke-width="3"/>
<path d="M562 511L562 374" stroke="#F24E1E" stroke-width="3"/>
<path d="M670 511L670 195" stroke="#F24E1E" stroke-width="3"/>
<path d="M778 511L778 195" stroke="#F24E1E" stroke-width="3"/>
<path d="M334 511L334 666" stroke="black" stroke-width="3"/>
<path d="M400 511L400 666" stroke="black" stroke-width="3"/>
<path d="M64 511L64 653" stroke="black" stroke-width="3"/>
<path d="M130 511L130 653" stroke="black" stroke-width="3"/>
<path d="M196 511L196 653" stroke="black" stroke-width="3"/>
<path d="M262 511L262 653" stroke="black" stroke-width="3"/>
<path d="M340 511L340 589" stroke="black" stroke-width="3"/>
<path d="M406 511L406 589" stroke="black" stroke-width="3"/>
<path d="M514 511L514 369" stroke="#F24E1E" stroke-width="3"/>
<path d="M622 511L622 184" stroke="#F24E1E" stroke-width="3"/>
<path d="M730 511L730 184" stroke="#F24E1E" stroke-width="3"/>
<path d="M838 511L838 184" stroke="#F24E1E" stroke-width="3"/>
<path d="M862 511L862 184" stroke="#F24E1E" stroke-width="3"/>
<path d="M886 511L886 184" stroke="#F24E1E" stroke-width="3"/>
<path d="M910 511L910 184" stroke="#F24E1E" stroke-width="3"/>
<path d="M448 511L448 369" stroke="#F24E1E" stroke-width="3"/>
<path d="M556 511L556 369" stroke="#F24E1E" stroke-width="3"/>
<path d="M664 511L664 184" stroke="#F24E1E" stroke-width="3"/>
<path d="M772 511L772 184" stroke="#F24E1E" stroke-width="3"/>
<path d="M70 511L70 666" stroke="black" stroke-width="3"/>
<path d="M136 511L136 666" stroke="black" stroke-width="3"/>
<path d="M346 511L346 558" stroke="black" stroke-width="3"/>
<path d="M412 511L412 558" stroke="black" stroke-width="3"/>
<path d="M202 511L202 666" stroke="black" stroke-width="3"/>
<path d="M268 511L268 666" stroke="black" stroke-width="3"/>
<path d="M508 511L508 356" stroke="#F24E1E" stroke-width="3"/>
<path d="M616 511L616 153" stroke="#F24E1E" stroke-width="3"/>
<path d="M724 511L724 153" stroke="#F24E1E" stroke-width="3"/>
<path d="M832 511L832 153" stroke="#F24E1E" stroke-width="3"/>
<path d="M856 511L856 153" stroke="#F24E1E" stroke-width="3"/>
<path d="M880 511L880 153" stroke="#F24E1E" stroke-width="3"/>
<path d="M904 511L904 153" stroke="#F24E1E" stroke-width="3"/>
<path d="M442 511L442 356" stroke="#F24E1E" stroke-width="3"/>
<path d="M550 511L550 356" stroke="#F24E1E" stroke-width="3"/>
<path d="M658 511L658 153" stroke="#F24E1E" stroke-width="3"/>
<path d="M766 511L766 153" stroke="#F24E1E" stroke-width="3"/>
<path d="M352 511L352 674" stroke="black" stroke-width="3"/>
<path d="M418 511L418 674" stroke="black" stroke-width="3"/>
<path d="M418 511L418 674" stroke="black" stroke-width="3"/>
<path d="M76 511L76 589" stroke="black" stroke-width="3"/>
<path d="M142 511L142 589" stroke="black" stroke-width="3"/>
<path d="M208 511L208 589" stroke="black" stroke-width="3"/>
<path d="M274 511L274 589" stroke="black" stroke-width="3"/>
<path d="M502 511L502 433" stroke="#F24E1E" stroke-width="3"/>
<path d="M610 511L610 332" stroke="#F24E1E" stroke-width="3"/>
<path d="M718 511L718 332" stroke="#F24E1E" stroke-width="3"/>
<path d="M826 511L826 332" stroke="#F24E1E" stroke-width="3"/>
<path d="M436 511L436 433" stroke="#F24E1E" stroke-width="3"/>
<path d="M544 511L544 433" stroke="#F24E1E" stroke-width="3"/>
<path d="M652 511L652 332" stroke="#F24E1E" stroke-width="3"/>
<path d="M760 511L760 332" stroke="#F24E1E" stroke-width="3"/>
<path d="M82 511L82 558" stroke="black" stroke-width="3"/>
<path d="M148 511L148 558" stroke="black" stroke-width="3"/>
<path d="M214 511L214 558" stroke="black" stroke-width="3"/>
<path d="M280 511L280 558" stroke="black" stroke-width="3"/>
<path d="M496 511L496 464" stroke="#F24E1E" stroke-width="3"/>
<path d="M604 511L604 464" stroke="#F24E1E" stroke-width="3"/>
<path d="M712 511L712 464" stroke="#F24E1E" stroke-width="3"/>
<path d="M820 511L820 464" stroke="#F24E1E" stroke-width="3"/>
<path d="M430 511L430 464" stroke="#F24E1E" stroke-width="3"/>
<path d="M538 511L538 464" stroke="#F24E1E" stroke-width="3"/>
<path d="M646 511L646 464" stroke="#F24E1E" stroke-width="3"/>
<path d="M754 511L754 464" stroke="#F24E1E" stroke-width="3"/>
<path d="M88 511L88 674" stroke="black" stroke-width="3"/>
<path d="M154 511L154 674" stroke="black" stroke-width="3"/>
<path d="M220 511L220 674" stroke="black" stroke-width="3"/>
<path d="M286 511L286 674" stroke="black" stroke-width="3"/>
<path d="M490 511L490 347" stroke="#F24E1E" stroke-width="3"/>
<path d="M598 511L598 347" stroke="#F24E1E" stroke-width="3"/>
<path d="M706 511L706 133" stroke="#F24E1E" stroke-width="3"/>
<path d="M814 511L814 133" stroke="#F24E1E" stroke-width="3"/>
<path d="M424 511L424 347" stroke="#F24E1E" stroke-width="3"/>
<path d="M532 511L532 347" stroke="#F24E1E" stroke-width="3"/>
<path d="M640 511L640 133" stroke="#F24E1E" stroke-width="3"/>
<path d="M748 511L748 133" stroke="#F24E1E" stroke-width="3"/>
<path d="M28 701V711" stroke="black"/>
<path d="M20.768 728.936C20.8707 728.936 20.922 728.983 20.922 729.076V729.86C20.922 729.888 20.908 729.921 20.88 729.958C20.8613 729.986 20.824 730 20.768 730H15.854C15.7513 730 15.7 729.953 15.7 729.86V729.076C15.7 728.983 15.7513 728.936 15.854 728.936H17.618C17.6927 728.936 17.73 728.913 17.73 728.866V721.166C17.73 721.073 17.688 721.035 17.604 721.054L15.868 721.698C15.7467 721.726 15.686 721.67 15.686 721.53V720.97C15.686 720.905 15.6953 720.863 15.714 720.844C15.7327 720.816 15.77 720.788 15.826 720.76L17.898 719.724C17.9913 719.677 18.066 719.649 18.122 719.64C18.178 719.621 18.2433 719.612 18.318 719.612H18.92C19.0227 719.612 19.074 719.668 19.074 719.78V728.838C19.074 728.903 19.102 728.936 19.158 728.936H20.768ZM26.1698 719.472C26.8511 719.472 27.4485 719.593 27.9618 719.836C28.4751 720.069 28.8765 720.401 29.1658 720.83C29.4551 721.259 29.5998 721.759 29.5998 722.328C29.5998 722.767 29.4878 723.159 29.2638 723.504C29.0398 723.849 28.6805 724.195 28.1858 724.54C28.0458 724.633 28.0411 724.708 28.1718 724.764C28.6011 724.932 28.9511 725.137 29.2218 725.38C29.5018 725.623 29.7118 725.903 29.8518 726.22C29.9918 726.528 30.0618 726.869 30.0618 727.242C30.0618 727.83 29.8938 728.343 29.5578 728.782C29.2311 729.221 28.7738 729.557 28.1858 729.79C27.5978 730.023 26.9118 730.14 26.1278 730.14C25.3625 730.14 24.6951 730.033 24.1258 729.818C23.5565 729.603 23.1178 729.295 22.8098 728.894C22.5111 728.483 22.3618 727.993 22.3618 727.424C22.3618 726.929 22.4831 726.486 22.7258 726.094C22.9778 725.693 23.3885 725.315 23.9578 724.96C24.0698 724.895 24.1258 724.843 24.1258 724.806C24.1351 724.759 24.0838 724.708 23.9718 724.652C23.7105 724.503 23.4771 724.325 23.2718 724.12C23.0758 723.915 22.9218 723.677 22.8098 723.406C22.6978 723.135 22.6418 722.827 22.6418 722.482C22.6418 721.913 22.7865 721.404 23.0758 720.956C23.3745 720.499 23.7898 720.139 24.3218 719.878C24.8538 719.607 25.4698 719.472 26.1698 719.472ZM26.1838 720.452C25.7638 720.452 25.3811 720.536 25.0358 720.704C24.6905 720.872 24.4151 721.101 24.2098 721.39C24.0138 721.67 23.9158 721.997 23.9158 722.37C23.9158 723.219 24.3965 723.751 25.3578 723.966L26.7998 724.302C26.9305 724.339 27.0845 724.307 27.2618 724.204C27.4485 724.101 27.6305 723.952 27.8078 723.756C27.9851 723.56 28.1298 723.336 28.2418 723.084C28.3538 722.832 28.4098 722.575 28.4098 722.314C28.4098 721.763 28.2091 721.315 27.8078 720.97C27.4065 720.625 26.8651 720.452 26.1838 720.452ZM26.1978 729.16C26.9725 729.16 27.5885 728.992 28.0458 728.656C28.5031 728.32 28.7318 727.867 28.7318 727.298C28.7318 726.869 28.6151 726.519 28.3818 726.248C28.1485 725.977 27.7705 725.781 27.2478 725.66L25.4278 725.212C25.2878 725.175 25.1151 725.203 24.9098 725.296C24.7045 725.38 24.4991 725.52 24.2938 725.716C24.0885 725.903 23.9111 726.131 23.7618 726.402C23.6218 726.663 23.5518 726.953 23.5518 727.27C23.5518 727.867 23.7758 728.334 24.2238 728.67C24.6811 728.997 25.3391 729.16 26.1978 729.16ZM35.5214 719.472C36.2027 719.472 36.8 719.593 37.3134 719.836C37.8267 720.069 38.228 720.401 38.5174 720.83C38.8067 721.259 38.9514 721.759 38.9514 722.328C38.9514 722.767 38.8394 723.159 38.6154 723.504C38.3914 723.849 38.032 724.195 37.5374 724.54C37.3974 724.633 37.3927 724.708 37.5234 724.764C37.9527 724.932 38.3027 725.137 38.5734 725.38C38.8534 725.623 39.0634 725.903 39.2034 726.22C39.3434 726.528 39.4134 726.869 39.4134 727.242C39.4134 727.83 39.2454 728.343 38.9094 728.782C38.5827 729.221 38.1254 729.557 37.5374 729.79C36.9494 730.023 36.2634 730.14 35.4794 730.14C34.714 730.14 34.0467 730.033 33.4774 729.818C32.908 729.603 32.4694 729.295 32.1614 728.894C31.8627 728.483 31.7134 727.993 31.7134 727.424C31.7134 726.929 31.8347 726.486 32.0774 726.094C32.3294 725.693 32.74 725.315 33.3094 724.96C33.4214 724.895 33.4774 724.843 33.4774 724.806C33.4867 724.759 33.4354 724.708 33.3234 724.652C33.062 724.503 32.8287 724.325 32.6234 724.12C32.4274 723.915 32.2734 723.677 32.1614 723.406C32.0494 723.135 31.9934 722.827 31.9934 722.482C31.9934 721.913 32.138 721.404 32.4274 720.956C32.726 720.499 33.1414 720.139 33.6734 719.878C34.2054 719.607 34.8214 719.472 35.5214 719.472ZM35.5354 720.452C35.1154 720.452 34.7327 720.536 34.3874 720.704C34.042 720.872 33.7667 721.101 33.5614 721.39C33.3654 721.67 33.2674 721.997 33.2674 722.37C33.2674 723.219 33.748 723.751 34.7094 723.966L36.1514 724.302C36.282 724.339 36.436 724.307 36.6134 724.204C36.8 724.101 36.982 723.952 37.1594 723.756C37.3367 723.56 37.4814 723.336 37.5934 723.084C37.7054 722.832 37.7614 722.575 37.7614 722.314C37.7614 721.763 37.5607 721.315 37.1594 720.97C36.758 720.625 36.2167 720.452 35.5354 720.452ZM35.5494 729.16C36.324 729.16 36.94 728.992 37.3974 728.656C37.8547 728.32 38.0834 727.867 38.0834 727.298C38.0834 726.869 37.9667 726.519 37.7334 726.248C37.5 725.977 37.122 725.781 36.5994 725.66L34.7794 725.212C34.6394 725.175 34.4667 725.203 34.2614 725.296C34.056 725.38 33.8507 725.52 33.6454 725.716C33.44 725.903 33.2627 726.131 33.1134 726.402C32.9734 726.663 32.9034 726.953 32.9034 727.27C32.9034 727.867 33.1274 728.334 33.5754 728.67C34.0327 728.997 34.6907 729.16 35.5494 729.16ZM45.0409 719.472C45.5916 719.472 46.1003 719.589 46.5669 719.822C47.0429 720.046 47.4536 720.387 47.7989 720.844C48.1536 721.301 48.4289 721.866 48.6249 722.538C48.8209 723.201 48.9189 723.966 48.9189 724.834C48.9189 725.991 48.7463 726.962 48.4009 727.746C48.0649 728.53 47.6029 729.123 47.0149 729.524C46.4269 729.925 45.7643 730.126 45.0269 730.126C44.2803 730.126 43.6129 729.925 43.0249 729.524C42.4369 729.123 41.9749 728.53 41.6389 727.746C41.3029 726.962 41.1349 725.996 41.1349 724.848C41.1349 723.98 41.2329 723.215 41.4289 722.552C41.6249 721.88 41.9003 721.315 42.2549 720.858C42.6096 720.391 43.0249 720.046 43.5009 719.822C43.9769 719.589 44.4903 719.472 45.0409 719.472ZM45.0409 729.104C45.5543 729.104 45.9976 728.959 46.3709 728.67C46.7443 728.381 47.0336 727.923 47.2389 727.298C47.4443 726.663 47.5469 725.842 47.5469 724.834C47.5469 723.807 47.4396 722.977 47.2249 722.342C47.0196 721.707 46.7256 721.241 46.3429 720.942C45.9696 720.643 45.5309 720.494 45.0269 720.494C44.5229 720.494 44.0796 720.643 43.6969 720.942C43.3236 721.241 43.0296 721.712 42.8149 722.356C42.6096 722.991 42.5069 723.817 42.5069 724.834C42.5069 725.842 42.6096 726.663 42.8149 727.298C43.0296 727.923 43.3283 728.381 43.7109 728.67C44.0936 728.959 44.5369 729.104 45.0409 729.104Z" fill="black"/>
<path d="M154 701V711" stroke="black"/>
<path d="M275 701V711" stroke="black"/>
<path d="M396 701V711" stroke="black"/>
<path d="M146.768 728.936C146.871 728.936 146.922 728.983 146.922 729.076V729.86C146.922 729.888 146.908 729.921 146.88 729.958C146.861 729.986 146.824 730 146.768 730H141.854C141.751 730 141.7 729.953 141.7 729.86V729.076C141.7 728.983 141.751 728.936 141.854 728.936H143.618C143.693 728.936 143.73 728.913 143.73 728.866V721.166C143.73 721.073 143.688 721.035 143.604 721.054L141.868 721.698C141.747 721.726 141.686 721.67 141.686 721.53V720.97C141.686 720.905 141.695 720.863 141.714 720.844C141.733 720.816 141.77 720.788 141.826 720.76L143.898 719.724C143.991 719.677 144.066 719.649 144.122 719.64C144.178 719.621 144.243 719.612 144.318 719.612H144.92C145.023 719.612 145.074 719.668 145.074 719.78V728.838C145.074 728.903 145.102 728.936 145.158 728.936H146.768ZM151.596 730.126C151.241 730.126 150.914 730.089 150.616 730.014C150.326 729.939 150.065 729.837 149.832 729.706C149.598 729.575 149.393 729.431 149.216 729.272C149.048 729.104 148.903 728.936 148.782 728.768C148.763 728.731 148.749 728.693 148.74 728.656C148.74 728.609 148.768 728.572 148.824 728.544L149.622 728.222C149.668 728.194 149.706 728.194 149.734 728.222C149.771 728.241 149.804 728.269 149.832 728.306C150.028 728.549 150.266 728.745 150.546 728.894C150.826 729.043 151.176 729.118 151.596 729.118C152.258 729.118 152.8 728.955 153.22 728.628C153.64 728.301 153.948 727.858 154.144 727.298C154.349 726.729 154.452 726.089 154.452 725.38C154.452 725.221 154.438 725.123 154.41 725.086C154.391 725.039 154.326 725.044 154.214 725.1C153.859 725.277 153.481 725.441 153.08 725.59C152.688 725.739 152.212 725.814 151.652 725.814C150.952 725.814 150.345 725.683 149.832 725.422C149.328 725.151 148.94 724.787 148.67 724.33C148.408 723.873 148.278 723.355 148.278 722.776C148.278 722.113 148.436 721.535 148.754 721.04C149.071 720.545 149.505 720.163 150.056 719.892C150.606 719.621 151.218 719.486 151.89 719.486C152.692 719.486 153.383 719.691 153.962 720.102C154.55 720.503 155.002 721.091 155.32 721.866C155.637 722.631 155.796 723.56 155.796 724.652C155.796 725.791 155.623 726.771 155.278 727.592C154.942 728.404 154.461 729.029 153.836 729.468C153.22 729.907 152.473 730.126 151.596 730.126ZM151.806 724.834C152.076 724.834 152.356 724.806 152.646 724.75C152.935 724.685 153.215 724.596 153.486 724.484C153.756 724.372 153.985 724.251 154.172 724.12C154.284 724.045 154.358 723.971 154.396 723.896C154.433 723.812 154.452 723.686 154.452 723.518C154.452 723.191 154.4 722.851 154.298 722.496C154.195 722.141 154.036 721.81 153.822 721.502C153.616 721.194 153.35 720.947 153.024 720.76C152.706 720.564 152.328 720.466 151.89 720.466C151.46 720.466 151.073 720.564 150.728 720.76C150.382 720.956 150.107 721.227 149.902 721.572C149.706 721.908 149.608 722.291 149.608 722.72C149.608 723.112 149.696 723.471 149.874 723.798C150.06 724.115 150.317 724.367 150.644 724.554C150.97 724.741 151.358 724.834 151.806 724.834ZM161.553 719.472C162.103 719.472 162.612 719.589 163.079 719.822C163.555 720.046 163.965 720.387 164.311 720.844C164.665 721.301 164.941 721.866 165.137 722.538C165.333 723.201 165.431 723.966 165.431 724.834C165.431 725.991 165.258 726.962 164.913 727.746C164.577 728.53 164.115 729.123 163.527 729.524C162.939 729.925 162.276 730.126 161.539 730.126C160.792 730.126 160.125 729.925 159.537 729.524C158.949 729.123 158.487 728.53 158.151 727.746C157.815 726.962 157.647 725.996 157.647 724.848C157.647 723.98 157.745 723.215 157.941 722.552C158.137 721.88 158.412 721.315 158.767 720.858C159.121 720.391 159.537 720.046 160.013 719.822C160.489 719.589 161.002 719.472 161.553 719.472ZM161.553 729.104C162.066 729.104 162.509 728.959 162.883 728.67C163.256 728.381 163.545 727.923 163.751 727.298C163.956 726.663 164.059 725.842 164.059 724.834C164.059 723.807 163.951 722.977 163.737 722.342C163.531 721.707 163.237 721.241 162.855 720.942C162.481 720.643 162.043 720.494 161.539 720.494C161.035 720.494 160.591 720.643 160.209 720.942C159.835 721.241 159.541 721.712 159.327 722.356C159.121 722.991 159.019 723.817 159.019 724.834C159.019 725.842 159.121 726.663 159.327 727.298C159.541 727.923 159.84 728.381 160.223 728.67C160.605 728.959 161.049 729.104 161.553 729.104ZM171.191 719.472C171.742 719.472 172.251 719.589 172.717 719.822C173.193 720.046 173.604 720.387 173.949 720.844C174.304 721.301 174.579 721.866 174.775 722.538C174.971 723.201 175.069 723.966 175.069 724.834C175.069 725.991 174.897 726.962 174.551 727.746C174.215 728.53 173.753 729.123 173.165 729.524C172.577 729.925 171.915 730.126 171.177 730.126C170.431 730.126 169.763 729.925 169.175 729.524C168.587 729.123 168.125 728.53 167.789 727.746C167.453 726.962 167.285 725.996 167.285 724.848C167.285 723.98 167.383 723.215 167.579 722.552C167.775 721.88 168.051 721.315 168.405 720.858C168.76 720.391 169.175 720.046 169.651 719.822C170.127 719.589 170.641 719.472 171.191 719.472ZM171.191 729.104C171.705 729.104 172.148 728.959 172.521 728.67C172.895 728.381 173.184 727.923 173.389 727.298C173.595 726.663 173.697 725.842 173.697 724.834C173.697 723.807 173.59 722.977 173.375 722.342C173.17 721.707 172.876 721.241 172.493 720.942C172.12 720.643 171.681 720.494 171.177 720.494C170.673 720.494 170.23 720.643 169.847 720.942C169.474 721.241 169.18 721.712 168.965 722.356C168.76 722.991 168.657 723.817 168.657 724.834C168.657 725.842 168.76 726.663 168.965 727.298C169.18 727.923 169.479 728.381 169.861 728.67C170.244 728.959 170.687 729.104 171.191 729.104Z" fill="black"/>
<path d="M267.768 728.936C267.871 728.936 267.922 728.983 267.922 729.076V729.86C267.922 729.888 267.908 729.921 267.88 729.958C267.861 729.986 267.824 730 267.768 730H262.854C262.751 730 262.7 729.953 262.7 729.86V729.076C262.7 728.983 262.751 728.936 262.854 728.936H264.618C264.693 728.936 264.73 728.913 264.73 728.866V721.166C264.73 721.073 264.688 721.035 264.604 721.054L262.868 721.698C262.747 721.726 262.686 721.67 262.686 721.53V720.97C262.686 720.905 262.695 720.863 262.714 720.844C262.733 720.816 262.77 720.788 262.826 720.76L264.898 719.724C264.991 719.677 265.066 719.649 265.122 719.64C265.178 719.621 265.243 719.612 265.318 719.612H265.92C266.023 719.612 266.074 719.668 266.074 719.78V728.838C266.074 728.903 266.102 728.936 266.158 728.936H267.768ZM272.596 730.126C272.241 730.126 271.914 730.089 271.616 730.014C271.326 729.939 271.065 729.837 270.832 729.706C270.598 729.575 270.393 729.431 270.216 729.272C270.048 729.104 269.903 728.936 269.782 728.768C269.763 728.731 269.749 728.693 269.74 728.656C269.74 728.609 269.768 728.572 269.824 728.544L270.622 728.222C270.668 728.194 270.706 728.194 270.734 728.222C270.771 728.241 270.804 728.269 270.832 728.306C271.028 728.549 271.266 728.745 271.546 728.894C271.826 729.043 272.176 729.118 272.596 729.118C273.258 729.118 273.8 728.955 274.22 728.628C274.64 728.301 274.948 727.858 275.144 727.298C275.349 726.729 275.452 726.089 275.452 725.38C275.452 725.221 275.438 725.123 275.41 725.086C275.391 725.039 275.326 725.044 275.214 725.1C274.859 725.277 274.481 725.441 274.08 725.59C273.688 725.739 273.212 725.814 272.652 725.814C271.952 725.814 271.345 725.683 270.832 725.422C270.328 725.151 269.94 724.787 269.67 724.33C269.408 723.873 269.278 723.355 269.278 722.776C269.278 722.113 269.436 721.535 269.754 721.04C270.071 720.545 270.505 720.163 271.056 719.892C271.606 719.621 272.218 719.486 272.89 719.486C273.692 719.486 274.383 719.691 274.962 720.102C275.55 720.503 276.002 721.091 276.32 721.866C276.637 722.631 276.796 723.56 276.796 724.652C276.796 725.791 276.623 726.771 276.278 727.592C275.942 728.404 275.461 729.029 274.836 729.468C274.22 729.907 273.473 730.126 272.596 730.126ZM272.806 724.834C273.076 724.834 273.356 724.806 273.646 724.75C273.935 724.685 274.215 724.596 274.486 724.484C274.756 724.372 274.985 724.251 275.172 724.12C275.284 724.045 275.358 723.971 275.396 723.896C275.433 723.812 275.452 723.686 275.452 723.518C275.452 723.191 275.4 722.851 275.298 722.496C275.195 722.141 275.036 721.81 274.822 721.502C274.616 721.194 274.35 720.947 274.024 720.76C273.706 720.564 273.328 720.466 272.89 720.466C272.46 720.466 272.073 720.564 271.728 720.76C271.382 720.956 271.107 721.227 270.902 721.572C270.706 721.908 270.608 722.291 270.608 722.72C270.608 723.112 270.696 723.471 270.874 723.798C271.06 724.115 271.317 724.367 271.644 724.554C271.97 724.741 272.358 724.834 272.806 724.834ZM281.769 725.646C282.161 725.273 282.492 724.941 282.763 724.652C283.033 724.353 283.248 724.078 283.407 723.826C283.575 723.565 283.696 723.317 283.771 723.084C283.855 722.841 283.897 722.594 283.897 722.342C283.897 721.941 283.794 721.605 283.589 721.334C283.383 721.063 283.122 720.863 282.805 720.732C282.497 720.592 282.17 720.522 281.825 720.522C281.554 720.522 281.274 720.569 280.985 720.662C280.695 720.746 280.415 720.891 280.145 721.096C279.883 721.301 279.645 721.572 279.431 721.908C279.412 721.945 279.375 721.969 279.319 721.978C279.272 721.987 279.216 721.973 279.151 721.936L278.535 721.572C278.469 721.525 278.432 721.479 278.423 721.432C278.423 721.376 278.441 721.32 278.479 721.264C278.908 720.639 279.426 720.186 280.033 719.906C280.649 719.617 281.283 719.472 281.937 719.472C282.525 719.472 283.066 719.579 283.561 719.794C284.055 720.009 284.452 720.331 284.751 720.76C285.049 721.189 285.199 721.731 285.199 722.384C285.199 722.795 285.124 723.182 284.975 723.546C284.835 723.91 284.597 724.288 284.261 724.68C283.934 725.072 283.495 725.529 282.945 726.052L280.131 728.698C280.075 728.735 280.051 728.773 280.061 728.81C280.079 728.847 280.131 728.866 280.215 728.866H285.129C285.25 728.866 285.311 728.917 285.311 729.02V729.832C285.311 729.888 285.297 729.93 285.269 729.958C285.25 729.986 285.203 730 285.129 730H278.633C278.549 730 278.488 729.986 278.451 729.958C278.423 729.93 278.409 729.869 278.409 729.776V729.202C278.409 729.137 278.413 729.081 278.423 729.034C278.441 728.978 278.479 728.917 278.535 728.852C278.591 728.787 278.675 728.707 278.787 728.614L281.769 725.646ZM290.934 719.472C291.484 719.472 291.993 719.589 292.46 719.822C292.936 720.046 293.346 720.387 293.692 720.844C294.046 721.301 294.322 721.866 294.518 722.538C294.714 723.201 294.812 723.966 294.812 724.834C294.812 725.991 294.639 726.962 294.294 727.746C293.958 728.53 293.496 729.123 292.908 729.524C292.32 729.925 291.657 730.126 290.92 730.126C290.173 730.126 289.506 729.925 288.918 729.524C288.33 729.123 287.868 728.53 287.532 727.746C287.196 726.962 287.028 725.996 287.028 724.848C287.028 723.98 287.126 723.215 287.322 722.552C287.518 721.88 287.793 721.315 288.148 720.858C288.502 720.391 288.918 720.046 289.394 719.822C289.87 719.589 290.383 719.472 290.934 719.472ZM290.934 729.104C291.447 729.104 291.89 728.959 292.264 728.67C292.637 728.381 292.926 727.923 293.132 727.298C293.337 726.663 293.44 725.842 293.44 724.834C293.44 723.807 293.332 722.977 293.118 722.342C292.912 721.707 292.618 721.241 292.236 720.942C291.862 720.643 291.424 720.494 290.92 720.494C290.416 720.494 289.972 720.643 289.59 720.942C289.216 721.241 288.922 721.712 288.708 722.356C288.502 722.991 288.4 723.817 288.4 724.834C288.4 725.842 288.502 726.663 288.708 727.298C288.922 727.923 289.221 728.381 289.604 728.67C289.986 728.959 290.43 729.104 290.934 729.104Z" fill="black"/>
<path d="M388.768 728.936C388.871 728.936 388.922 728.983 388.922 729.076V729.86C388.922 729.888 388.908 729.921 388.88 729.958C388.861 729.986 388.824 730 388.768 730H383.854C383.751 730 383.7 729.953 383.7 729.86V729.076C383.7 728.983 383.751 728.936 383.854 728.936H385.618C385.693 728.936 385.73 728.913 385.73 728.866V721.166C385.73 721.073 385.688 721.035 385.604 721.054L383.868 721.698C383.747 721.726 383.686 721.67 383.686 721.53V720.97C383.686 720.905 383.695 720.863 383.714 720.844C383.733 720.816 383.77 720.788 383.826 720.76L385.898 719.724C385.991 719.677 386.066 719.649 386.122 719.64C386.178 719.621 386.243 719.612 386.318 719.612H386.92C387.023 719.612 387.074 719.668 387.074 719.78V728.838C387.074 728.903 387.102 728.936 387.158 728.936H388.768ZM393.596 730.126C393.241 730.126 392.914 730.089 392.616 730.014C392.326 729.939 392.065 729.837 391.832 729.706C391.598 729.575 391.393 729.431 391.216 729.272C391.048 729.104 390.903 728.936 390.782 728.768C390.763 728.731 390.749 728.693 390.74 728.656C390.74 728.609 390.768 728.572 390.824 728.544L391.622 728.222C391.668 728.194 391.706 728.194 391.734 728.222C391.771 728.241 391.804 728.269 391.832 728.306C392.028 728.549 392.266 728.745 392.546 728.894C392.826 729.043 393.176 729.118 393.596 729.118C394.258 729.118 394.8 728.955 395.22 728.628C395.64 728.301 395.948 727.858 396.144 727.298C396.349 726.729 396.452 726.089 396.452 725.38C396.452 725.221 396.438 725.123 396.41 725.086C396.391 725.039 396.326 725.044 396.214 725.1C395.859 725.277 395.481 725.441 395.08 725.59C394.688 725.739 394.212 725.814 393.652 725.814C392.952 725.814 392.345 725.683 391.832 725.422C391.328 725.151 390.94 724.787 390.67 724.33C390.408 723.873 390.278 723.355 390.278 722.776C390.278 722.113 390.436 721.535 390.754 721.04C391.071 720.545 391.505 720.163 392.056 719.892C392.606 719.621 393.218 719.486 393.89 719.486C394.692 719.486 395.383 719.691 395.962 720.102C396.55 720.503 397.002 721.091 397.32 721.866C397.637 722.631 397.796 723.56 397.796 724.652C397.796 725.791 397.623 726.771 397.278 727.592C396.942 728.404 396.461 729.029 395.836 729.468C395.22 729.907 394.473 730.126 393.596 730.126ZM393.806 724.834C394.076 724.834 394.356 724.806 394.646 724.75C394.935 724.685 395.215 724.596 395.486 724.484C395.756 724.372 395.985 724.251 396.172 724.12C396.284 724.045 396.358 723.971 396.396 723.896C396.433 723.812 396.452 723.686 396.452 723.518C396.452 723.191 396.4 722.851 396.298 722.496C396.195 722.141 396.036 721.81 395.822 721.502C395.616 721.194 395.35 720.947 395.024 720.76C394.706 720.564 394.328 720.466 393.89 720.466C393.46 720.466 393.073 720.564 392.728 720.76C392.382 720.956 392.107 721.227 391.902 721.572C391.706 721.908 391.608 722.291 391.608 722.72C391.608 723.112 391.696 723.471 391.874 723.798C392.06 724.115 392.317 724.367 392.644 724.554C392.97 724.741 393.358 724.834 393.806 724.834ZM404.127 719.766C404.173 719.71 404.22 719.673 404.267 719.654C404.313 719.626 404.383 719.612 404.477 719.612H405.415C405.527 719.612 405.583 719.668 405.583 719.78V726.08C405.583 726.164 405.62 726.206 405.695 726.206H407.011C407.141 726.206 407.207 726.253 407.207 726.346V727.032C407.207 727.153 407.141 727.214 407.011 727.214H405.709C405.625 727.214 405.583 727.261 405.583 727.354V729.79C405.583 729.93 405.508 730 405.359 730H404.407C404.285 730 404.225 729.939 404.225 729.818V727.312C404.225 727.247 404.183 727.214 404.099 727.214H399.563C399.423 727.214 399.353 727.153 399.353 727.032V726.318C399.353 726.253 399.371 726.187 399.409 726.122C399.446 726.047 399.502 725.959 399.577 725.856L404.127 719.766ZM404.071 726.206C404.155 726.206 404.197 726.173 404.197 726.108V721.446C404.197 721.334 404.183 721.273 404.155 721.264C404.127 721.255 404.075 721.297 404.001 721.39L400.585 726.024C400.491 726.145 400.524 726.206 400.683 726.206H404.071ZM412.644 719.472C413.195 719.472 413.704 719.589 414.17 719.822C414.646 720.046 415.057 720.387 415.402 720.844C415.757 721.301 416.032 721.866 416.228 722.538C416.424 723.201 416.522 723.966 416.522 724.834C416.522 725.991 416.35 726.962 416.004 727.746C415.668 728.53 415.206 729.123 414.618 729.524C414.03 729.925 413.368 730.126 412.63 730.126C411.884 730.126 411.216 729.925 410.628 729.524C410.04 729.123 409.578 728.53 409.242 727.746C408.906 726.962 408.738 725.996 408.738 724.848C408.738 723.98 408.836 723.215 409.032 722.552C409.228 721.88 409.504 721.315 409.858 720.858C410.213 720.391 410.628 720.046 411.104 719.822C411.58 719.589 412.094 719.472 412.644 719.472ZM412.644 729.104C413.158 729.104 413.601 728.959 413.974 728.67C414.348 728.381 414.637 727.923 414.842 727.298C415.048 726.663 415.15 725.842 415.15 724.834C415.15 723.807 415.043 722.977 414.828 722.342C414.623 721.707 414.329 721.241 413.946 720.942C413.573 720.643 413.134 720.494 412.63 720.494C412.126 720.494 411.683 720.643 411.3 720.942C410.927 721.241 410.633 721.712 410.418 722.356C410.213 722.991 410.11 723.817 410.11 724.834C410.11 725.842 410.213 726.663 410.418 727.298C410.633 727.923 410.932 728.381 411.314 728.67C411.697 728.959 412.14 729.104 412.644 729.104Z" fill="black"/>
</svg>
