<svg width="335" height="567" viewBox="0 0 335 567" fill="none" xmlns="http://www.w3.org/2000/svg">
<rect x="0.5" y="0.951172" width="334" height="522.965" fill="white" stroke="black"/>
<rect y="524.416" width="335" height="42" fill="black"/>
<path d="M8.88657 550.416V540.616H15.2146V542.058H10.6786V544.802H14.3466V546.216H10.6786V550.416H8.88657ZM19.5184 550.584C18.8464 550.584 18.2397 550.43 17.6984 550.122C17.1664 549.814 16.7417 549.389 16.4244 548.848C16.1164 548.297 15.9624 547.663 15.9624 546.944C15.9624 546.225 16.121 545.595 16.4384 545.054C16.7557 544.503 17.1804 544.074 17.7124 543.766C18.2537 543.458 18.8604 543.304 19.5324 543.304C20.195 543.304 20.7924 543.458 21.3244 543.766C21.8657 544.074 22.2904 544.503 22.5984 545.054C22.9157 545.595 23.0744 546.225 23.0744 546.944C23.0744 547.663 22.9157 548.297 22.5984 548.848C22.2904 549.389 21.8657 549.814 21.3244 550.122C20.783 550.43 20.181 550.584 19.5184 550.584ZM19.5184 549.03C19.985 549.03 20.391 548.857 20.7364 548.512C21.0817 548.157 21.2544 547.635 21.2544 546.944C21.2544 546.253 21.0817 545.735 20.7364 545.39C20.391 545.035 19.9897 544.858 19.5324 544.858C19.0564 544.858 18.6457 545.035 18.3004 545.39C17.9644 545.735 17.7964 546.253 17.7964 546.944C17.7964 547.635 17.9644 548.157 18.3004 548.512C18.6457 548.857 19.0517 549.03 19.5184 549.03ZM24.6766 550.416V543.472H26.2586L26.3986 544.648C26.6133 544.237 26.9213 543.911 27.3226 543.668C27.7333 543.425 28.2139 543.304 28.7646 543.304C29.6233 543.304 30.2906 543.575 30.7666 544.116C31.2426 544.657 31.4806 545.451 31.4806 546.496V550.416H29.6886V546.664C29.6886 546.067 29.5673 545.609 29.3246 545.292C29.0819 544.975 28.7039 544.816 28.1906 544.816C27.6866 544.816 27.2713 544.993 26.9446 545.348C26.6273 545.703 26.4686 546.197 26.4686 546.832V550.416H24.6766ZM36.2882 550.416C35.5602 550.416 34.9768 550.239 34.5382 549.884C34.0995 549.529 33.8802 548.899 33.8802 547.994V544.97H32.6902V543.472H33.8802L34.0902 541.61H35.6722V543.472H37.5482V544.97H35.6722V548.008C35.6722 548.344 35.7422 548.577 35.8822 548.708C36.0315 548.829 36.2835 548.89 36.6382 548.89H37.5062V550.416H36.2882ZM42.283 550.584C41.583 550.584 40.9624 550.435 40.421 550.136C39.8797 549.837 39.455 549.417 39.147 548.876C38.839 548.335 38.685 547.709 38.685 547C38.685 546.281 38.8344 545.642 39.133 545.082C39.441 544.522 39.861 544.088 40.393 543.78C40.9344 543.463 41.569 543.304 42.297 543.304C42.9784 543.304 43.5804 543.453 44.103 543.752C44.6257 544.051 45.0317 544.461 45.321 544.984C45.6197 545.497 45.769 546.071 45.769 546.706C45.769 546.809 45.7644 546.916 45.755 547.028C45.755 547.14 45.7504 547.257 45.741 547.378H40.463C40.5004 547.919 40.687 548.344 41.023 548.652C41.3684 548.96 41.7837 549.114 42.269 549.114C42.633 549.114 42.9364 549.035 43.179 548.876C43.431 548.708 43.6177 548.493 43.739 548.232H45.559C45.4284 548.671 45.209 549.072 44.901 549.436C44.6024 549.791 44.229 550.071 43.781 550.276C43.3424 550.481 42.843 550.584 42.283 550.584ZM42.297 544.76C41.8584 544.76 41.471 544.886 41.135 545.138C40.799 545.381 40.5844 545.754 40.491 546.258H43.949C43.921 545.801 43.753 545.437 43.445 545.166C43.137 544.895 42.7544 544.76 42.297 544.76ZM50.7381 550.416V540.616H56.8001V541.582H51.9141V544.998H56.3801V545.95H51.9141V549.45H56.8001V550.416H50.7381ZM61.1045 550.584C60.2832 550.584 59.6298 550.337 59.1445 549.842C58.6592 549.338 58.4165 548.568 58.4165 547.532V543.472H59.5925V547.406C59.5925 548.853 60.1852 549.576 61.3705 549.576C61.9772 549.576 62.4765 549.361 62.8685 548.932C63.2698 548.493 63.4705 547.873 63.4705 547.07V543.472H64.6465V550.416H63.5825L63.4985 549.17C63.2838 549.609 62.9618 549.954 62.5325 550.206C62.1125 550.458 61.6365 550.584 61.1045 550.584ZM66.5822 550.416V543.472H67.6462L67.7442 544.802C67.9589 544.345 68.2855 543.981 68.7242 543.71C69.1629 543.439 69.7042 543.304 70.3482 543.304V544.536H70.0262C69.6155 544.536 69.2375 544.611 68.8922 544.76C68.5469 544.9 68.2715 545.143 68.0662 545.488C67.8609 545.833 67.7582 546.309 67.7582 546.916V550.416H66.5822ZM74.5724 550.584C73.919 550.584 73.331 550.435 72.8084 550.136C72.2857 549.837 71.8704 549.417 71.5624 548.876C71.2637 548.325 71.1144 547.681 71.1144 546.944C71.1144 546.207 71.2684 545.567 71.5764 545.026C71.8844 544.475 72.2997 544.051 72.8224 543.752C73.3544 543.453 73.947 543.304 74.6004 543.304C75.2537 543.304 75.8417 543.453 76.3644 543.752C76.887 544.051 77.2977 544.475 77.5964 545.026C77.9044 545.567 78.0584 546.207 78.0584 546.944C78.0584 547.681 77.9044 548.325 77.5964 548.876C77.2884 549.417 76.8684 549.837 76.3364 550.136C75.8137 550.435 75.2257 550.584 74.5724 550.584ZM74.5724 549.576C74.9737 549.576 75.347 549.478 75.6924 549.282C76.0377 549.086 76.3177 548.792 76.5324 548.4C76.747 548.008 76.8544 547.523 76.8544 546.944C76.8544 546.365 76.747 545.88 76.5324 545.488C76.327 545.096 76.0517 544.802 75.7064 544.606C75.361 544.41 74.9924 544.312 74.6004 544.312C74.199 544.312 73.8257 544.41 73.4804 544.606C73.135 544.802 72.855 545.096 72.6404 545.488C72.4257 545.88 72.3184 546.365 72.3184 546.944C72.3184 547.523 72.4257 548.008 72.6404 548.4C72.855 548.792 73.1304 549.086 73.4664 549.282C73.8117 549.478 74.1804 549.576 74.5724 549.576ZM82.3535 550.584C81.5229 550.584 80.8322 550.374 80.2815 549.954C79.7309 549.534 79.4089 548.965 79.3155 548.246H80.5195C80.5942 548.61 80.7855 548.927 81.0935 549.198C81.4109 549.459 81.8355 549.59 82.3675 549.59C82.8622 549.59 83.2262 549.487 83.4595 549.282C83.6929 549.067 83.8095 548.815 83.8095 548.526C83.8095 548.106 83.6555 547.826 83.3475 547.686C83.0489 547.546 82.6242 547.42 82.0735 547.308C81.7002 547.233 81.3269 547.126 80.9535 546.986C80.5802 546.846 80.2675 546.65 80.0155 546.398C79.7635 546.137 79.6375 545.796 79.6375 545.376C79.6375 544.769 79.8615 544.275 80.3095 543.892C80.7669 543.5 81.3829 543.304 82.1575 543.304C82.8949 543.304 83.4969 543.491 83.9635 543.864C84.4395 544.228 84.7149 544.751 84.7895 545.432H83.6275C83.5809 545.077 83.4269 544.802 83.1655 544.606C82.9135 544.401 82.5729 544.298 82.1435 544.298C81.7235 544.298 81.3969 544.387 81.1635 544.564C80.9395 544.741 80.8275 544.975 80.8275 545.264C80.8275 545.544 80.9722 545.763 81.2615 545.922C81.5602 546.081 81.9615 546.216 82.4655 546.328C82.8949 546.421 83.3009 546.538 83.6835 546.678C84.0755 546.809 84.3929 547.009 84.6355 547.28C84.8875 547.541 85.0135 547.924 85.0135 548.428C85.0229 549.053 84.7849 549.571 84.2995 549.982C83.8235 550.383 83.1749 550.584 82.3535 550.584ZM89.1231 550.416C88.4884 550.416 87.9891 550.262 87.6251 549.954C87.2611 549.646 87.0791 549.091 87.0791 548.288V544.466H85.8751V543.472H87.0791L87.2331 541.806H88.2551V543.472H90.2991V544.466H88.2551V548.288C88.2551 548.727 88.3438 549.025 88.5211 549.184C88.6984 549.333 89.0111 549.408 89.4591 549.408H90.1871V550.416H89.1231ZM94.1031 550.584C93.5245 550.584 93.0438 550.486 92.6611 550.29C92.2785 550.094 91.9938 549.833 91.8071 549.506C91.6205 549.179 91.5271 548.825 91.5271 548.442C91.5271 547.733 91.7978 547.187 92.3391 546.804C92.8805 546.421 93.6178 546.23 94.5511 546.23H96.4271V546.146C96.4271 545.539 96.2685 545.082 95.9511 544.774C95.6338 544.457 95.2091 544.298 94.6771 544.298C94.2198 544.298 93.8231 544.415 93.4871 544.648C93.1605 544.872 92.9551 545.203 92.8711 545.642H91.6671C91.7138 545.138 91.8818 544.713 92.1711 544.368C92.4698 544.023 92.8385 543.761 93.2771 543.584C93.7158 543.397 94.1825 543.304 94.6771 543.304C95.6478 543.304 96.3758 543.565 96.8611 544.088C97.3558 544.601 97.6031 545.287 97.6031 546.146V550.416H96.5531L96.4831 549.17C96.2871 549.562 95.9978 549.898 95.6151 550.178C95.2418 550.449 94.7378 550.584 94.1031 550.584ZM94.2851 549.59C94.7331 549.59 95.1158 549.473 95.4331 549.24C95.7598 549.007 96.0071 548.703 96.1751 548.33C96.3431 547.957 96.4271 547.565 96.4271 547.154V547.14H94.6491C93.9585 547.14 93.4685 547.261 93.1791 547.504C92.8991 547.737 92.7591 548.031 92.7591 548.386C92.7591 548.75 92.8898 549.044 93.1511 549.268C93.4218 549.483 93.7998 549.59 94.2851 549.59ZM101.92 550.416C101.285 550.416 100.786 550.262 100.422 549.954C100.058 549.646 99.876 549.091 99.876 548.288V544.466H98.672V543.472H99.876L100.03 541.806H101.052V543.472H103.096V544.466H101.052V548.288C101.052 548.727 101.141 549.025 101.318 549.184C101.495 549.333 101.808 549.408 102.256 549.408H102.984V550.416H101.92Z" fill="white"/>
<circle cx="41.0095" cy="32.6572" r="5" fill="white" stroke="#F24E1E" stroke-width="2"/>
<rect x="110" y="32.6572" width="9" height="9" transform="rotate(-45 110 32.6572)" fill="#F24E1E"/>
<rect x="162.172" y="161.68" width="9" height="9" transform="rotate(-45 162.172 161.68)" fill="#F24E1E"/>
<rect x="241.845" y="32.6572" width="8" height="8" transform="rotate(-45 241.845 32.6572)" fill="white" stroke="#F24E1E" stroke-width="2"/>
<rect x="302.249" y="109.033" width="8" height="8" transform="rotate(-45 302.249 109.033)" fill="white" stroke="#F24E1E" stroke-width="2"/>
<circle cx="182.945" cy="33.021" r="5" fill="white" stroke="black" stroke-width="2"/>
<path d="M182.945 39.021V26.9985" stroke="#F24E1E" stroke-width="2"/>
<circle cx="156.985" cy="477.226" r="5" fill="white" stroke="black" stroke-width="2"/>
<path d="M156.985 483.226V471.203" stroke="#F24E1E" stroke-width="2"/>
<path d="M137.587 109.033L284.225 109.033" stroke="black" stroke-width="0.5"/>
<path d="M168.536 161.68L278.234 161.68" stroke="black" stroke-width="0.5"/>
<path d="M135.438 218.236L190.2 218.236" stroke="black" stroke-width="0.5"/>
<path d="M179.272 266.977L244.099 266.977" stroke="black" stroke-width="0.5"/>
<path d="M166.551 319.621L230.875 319.621" stroke="black" stroke-width="0.5"/>
<path d="M115.017 372.268L158.056 372.268" stroke="black" stroke-width="0.5"/>
<path d="M119.36 424.916L165.843 424.916" stroke="black" stroke-width="0.5"/>
<path d="M107.945 477.213L156.996 477.213" stroke="black" stroke-width="0.5"/>
<path d="M114.951 78.9468L114.951 82.9468" stroke="black" stroke-width="0.5"/>
<path d="M148.284 78.9468L148.284 82.9468" stroke="black" stroke-width="0.5"/>
<path d="M181.618 78.9468L181.618 82.9468" stroke="black" stroke-width="0.5"/>
<path d="M214.951 78.9468L214.951 82.9468" stroke="black" stroke-width="0.5"/>
<path d="M248.285 78.9468L248.285 82.9468" stroke="black" stroke-width="0.5"/>
<path d="M280.378 78.9468L280.378 82.9468" stroke="black" stroke-width="0.5"/>
<path d="M77.5574 135.357L81.5574 135.357" stroke="black" stroke-width="0.5"/>
<path d="M77.5574 188.004L81.5574 188.004" stroke="black" stroke-width="0.5"/>
<path d="M77.5574 240.65L81.5574 240.65" stroke="black" stroke-width="0.5"/>
<path d="M77.5574 293.299L81.5574 293.299" stroke="black" stroke-width="0.5"/>
<path d="M77.5574 345.945L81.5574 345.945" stroke="black" stroke-width="0.5"/>
<path d="M77.5574 398.592L81.5574 398.592" stroke="black" stroke-width="0.5"/>
<path d="M77.5574 451.24L81.5574 451.24" stroke="black" stroke-width="0.5"/>
<path d="M77.5574 503.887L81.5574 503.887" stroke="black" stroke-width="0.5"/>
<path d="M281.668 101.298L287.162 117.552" stroke="black" stroke-width="0.5"/>
<path d="M286.732 101.298L292.226 117.552" stroke="black" stroke-width="0.5"/>
<path d="M12.6363 106.034L12.6363 96.2337H13.8123L13.8123 106.034H12.6363ZM15.8202 106.034L15.8202 99.0897H16.8842L16.9542 100.336C17.1782 99.897 17.5002 99.5517 17.9202 99.2997C18.3402 99.0477 18.8162 98.9217 19.3482 98.9217C20.1696 98.9217 20.8229 99.1737 21.3082 99.6777C21.8029 100.172 22.0502 100.938 22.0502 101.974L22.0502 106.034H20.8742L20.8742 102.1C20.8742 100.653 20.2769 99.9297 19.0822 99.9297C18.4849 99.9297 17.9856 100.149 17.5842 100.588C17.1922 101.017 16.9962 101.633 16.9962 102.436L16.9962 106.034H15.8202ZM25.6972 106.034L23.0652 99.0897H24.2972L26.3832 104.9L28.4832 99.0897H29.6872L27.0552 106.034H25.6972ZM31.71 97.5497C31.4767 97.5497 31.2807 97.475 31.122 97.3257C30.9727 97.167 30.898 96.971 30.898 96.7377C30.898 96.5137 30.9727 96.327 31.122 96.1777C31.2807 96.0284 31.4767 95.9537 31.71 95.9537C31.934 95.9537 32.1254 96.0284 32.284 96.1777C32.4427 96.327 32.522 96.5137 32.522 96.7377C32.522 96.971 32.4427 97.167 32.284 97.3257C32.1254 97.475 31.934 97.5497 31.71 97.5497ZM31.122 106.034L31.122 99.0897H32.298L32.298 106.034H31.122ZM37.5096 106.202C36.8563 106.202 36.2683 106.052 35.7456 105.754C35.223 105.455 34.8076 105.035 34.4996 104.494C34.201 103.943 34.0516 103.299 34.0516 102.562C34.0516 101.824 34.2056 101.185 34.5136 100.644C34.8216 100.093 35.237 99.6684 35.7596 99.3697C36.2916 99.071 36.8843 98.9217 37.5376 98.9217C38.191 98.9217 38.779 99.071 39.3016 99.3697C39.8243 99.6684 40.235 100.093 40.5336 100.644C40.8416 101.185 40.9956 101.824 40.9956 102.562C40.9956 103.299 40.8416 103.943 40.5336 104.494C40.2256 105.035 39.8056 105.455 39.2736 105.754C38.751 106.052 38.163 106.202 37.5096 106.202ZM37.5096 105.194C37.911 105.194 38.2843 105.096 38.6296 104.9C38.975 104.704 39.255 104.41 39.4696 104.018C39.6843 103.626 39.7916 103.14 39.7916 102.562C39.7916 101.983 39.6843 101.498 39.4696 101.106C39.2643 100.714 38.989 100.42 38.6436 100.224C38.2983 100.028 37.9296 99.9297 37.5376 99.9297C37.1363 99.9297 36.763 100.028 36.4176 100.224C36.0723 100.42 35.7923 100.714 35.5776 101.106C35.363 101.498 35.2556 101.983 35.2556 102.562C35.2556 103.14 35.363 103.626 35.5776 104.018C35.7923 104.41 36.0676 104.704 36.4036 104.9C36.749 105.096 37.1176 105.194 37.5096 105.194ZM46.7139 106.034L46.7139 100.084H45.6639L45.6639 99.0897H46.7139L46.7139 97.8857C46.7139 97.2137 46.8819 96.7237 47.2179 96.4157C47.5539 96.1077 48.0439 95.9537 48.6879 95.9537H49.3879L49.3879 96.9617H48.8699C48.5152 96.9617 48.2632 97.0364 48.1139 97.1857C47.9645 97.3257 47.8899 97.5684 47.8899 97.9137L47.8899 99.0897H49.5979L49.5979 100.084H47.8899L47.8899 106.034H46.7139ZM53.0345 106.202C52.4559 106.202 51.9752 106.104 51.5925 105.908C51.2099 105.712 50.9252 105.45 50.7385 105.124C50.5519 104.797 50.4585 104.442 50.4585 104.06C50.4585 103.35 50.7292 102.804 51.2705 102.422C51.8119 102.039 52.5492 101.848 53.4825 101.848H55.3585L55.3585 101.764C55.3585 101.157 55.1999 100.7 54.8825 100.392C54.5652 100.074 54.1405 99.9157 53.6085 99.9157C53.1512 99.9157 52.7545 100.032 52.4185 100.266C52.0919 100.49 51.8865 100.821 51.8025 101.26H50.5985C50.6452 100.756 50.8132 100.331 51.1025 99.9857C51.4012 99.6404 51.7699 99.379 52.2085 99.2017C52.6472 99.015 53.1139 98.9217 53.6085 98.9217C54.5792 98.9217 55.3072 99.183 55.7925 99.7057C56.2872 100.219 56.5345 100.905 56.5345 101.764L56.5345 106.034H55.4845L55.4145 104.788C55.2185 105.18 54.9292 105.516 54.5465 105.796C54.1732 106.066 53.6692 106.202 53.0345 106.202ZM53.2165 105.208C53.6645 105.208 54.0472 105.091 54.3645 104.858C54.6912 104.624 54.9385 104.321 55.1065 103.948C55.2745 103.574 55.3585 103.182 55.3585 102.772L55.3585 102.758H53.5805C52.8899 102.758 52.3999 102.879 52.1105 103.122C51.8305 103.355 51.6905 103.649 51.6905 104.004C51.6905 104.368 51.8212 104.662 52.0825 104.886C52.3532 105.1 52.7312 105.208 53.2165 105.208ZM60.8514 106.034C60.2167 106.034 59.7174 105.88 59.3534 105.572C58.9894 105.264 58.8074 104.708 58.8074 103.906L58.8074 100.084L57.6034 100.084L57.6034 99.0897L58.8074 99.0897L58.9614 97.4237H59.9834L59.9834 99.0897H62.0274L62.0274 100.084H59.9834L59.9834 103.906C59.9834 104.344 60.072 104.643 60.2494 104.802C60.4267 104.951 60.7394 105.026 61.1874 105.026H61.9154L61.9154 106.034H60.8514ZM66.2654 106.034C65.6308 106.034 65.1314 105.88 64.7674 105.572C64.4034 105.264 64.2214 104.708 64.2214 103.906L64.2214 100.084H63.0174L63.0174 99.0897H64.2214L64.3754 97.4237H65.3974L65.3974 99.0897H67.4414L67.4414 100.084H65.3974L65.3974 103.906C65.3974 104.344 65.4861 104.643 65.6634 104.802C65.8408 104.951 66.1534 105.026 66.6014 105.026H67.3294L67.3294 106.034H66.2654ZM69.3415 106.104C69.1081 106.104 68.9121 106.029 68.7535 105.88C68.6041 105.721 68.5295 105.53 68.5295 105.306C68.5295 105.082 68.6041 104.895 68.7535 104.746C68.9121 104.587 69.1081 104.508 69.3415 104.508C69.5655 104.508 69.7521 104.587 69.9015 104.746C70.0601 104.895 70.1395 105.082 70.1395 105.306C70.1395 105.53 70.0601 105.721 69.9015 105.88C69.7521 106.029 69.5655 106.104 69.3415 106.104ZM60.9833 121.202C60.3206 121.202 59.7326 121.052 59.2193 120.754C58.7059 120.446 58.2999 120.021 58.0013 119.48C57.7119 118.938 57.5673 118.299 57.5673 117.562C57.5673 116.834 57.7119 116.199 58.0013 115.658C58.2906 115.107 58.6919 114.682 59.2053 114.384C59.7279 114.076 60.3299 113.922 61.0113 113.922C61.6833 113.922 62.2619 114.076 62.7473 114.384C63.2419 114.682 63.6199 115.079 63.8813 115.574C64.1426 116.068 64.2733 116.6 64.2733 117.17C64.2733 117.272 64.2686 117.375 64.2593 117.478C64.2593 117.58 64.2593 117.697 64.2593 117.828H58.7293C58.7573 118.36 58.8786 118.803 59.0933 119.158C59.3173 119.503 59.5926 119.764 59.9193 119.942C60.2553 120.119 60.6099 120.208 60.9833 120.208C61.4686 120.208 61.8746 120.096 62.2013 119.872C62.5279 119.648 62.7659 119.344 62.9153 118.962H64.0773C63.8906 119.606 63.5313 120.142 62.9993 120.572C62.4766 120.992 61.8046 121.202 60.9833 121.202ZM60.9833 114.916C60.4233 114.916 59.9239 115.088 59.4853 115.434C59.0559 115.77 58.8086 116.264 58.7433 116.918H63.1113C63.0833 116.292 62.8686 115.802 62.4673 115.448C62.0659 115.093 61.5713 114.916 60.9833 114.916ZM65.832 121.034L65.832 110.954L67.008 110.954L67.008 121.034L65.832 121.034ZM69.3415 121.104C69.1082 121.104 68.9122 121.029 68.7535 120.88C68.6042 120.721 68.5295 120.53 68.5295 120.306C68.5295 120.082 68.6042 119.895 68.7535 119.746C68.9122 119.587 69.1082 119.508 69.3415 119.508C69.5655 119.508 69.7522 119.587 69.9015 119.746C70.0602 119.895 70.1395 120.082 70.1395 120.306C70.1395 120.53 70.0602 120.721 69.9015 120.88C69.7522 121.029 69.5655 121.104 69.3415 121.104Z" fill="black"/>
<path d="M57.7505 36.2772C57.0972 36.2772 56.5238 36.1272 56.0305 35.8272C55.5372 35.5206 55.1538 35.0972 54.8805 34.5572C54.6072 34.0106 54.4705 33.3806 54.4705 32.6672C54.4705 31.9539 54.6072 31.3239 54.8805 30.7772C55.1605 30.2306 55.5538 29.8039 56.0605 29.4972C56.5738 29.1906 57.1772 29.0372 57.8705 29.0372C58.6572 29.0372 59.3105 29.2272 59.8305 29.6072C60.3572 29.9872 60.6972 30.5106 60.8505 31.1772H59.8805C59.7872 30.7572 59.5638 30.4239 59.2105 30.1772C58.8638 29.9306 58.4172 29.8072 57.8705 29.8072C57.3572 29.8072 56.9105 29.9239 56.5305 30.1572C56.1505 30.3839 55.8538 30.7106 55.6405 31.1372C55.4338 31.5639 55.3305 32.0739 55.3305 32.6672C55.3305 33.2606 55.4338 33.7706 55.6405 34.1972C55.8472 34.6239 56.1338 34.9539 56.5005 35.1872C56.8672 35.4139 57.2938 35.5272 57.7805 35.5272C58.5272 35.5272 59.0905 35.3106 59.4705 34.8772C59.8505 34.4372 60.0672 33.8372 60.1205 33.0772H58.1005L58.1005 32.4172H60.9805L60.9805 36.1572H60.2105L60.1405 35.0072C59.8872 35.4139 59.5772 35.7272 59.2105 35.9472C58.8438 36.1672 58.3572 36.2772 57.7505 36.2772ZM64.4888 36.2772C64.0155 36.2772 63.5955 36.1706 63.2288 35.9572C62.8622 35.7372 62.5722 35.4339 62.3588 35.0472C62.1522 34.6606 62.0488 34.2039 62.0488 33.6772C62.0488 33.1572 62.1522 32.7039 62.3588 32.3172C62.5655 31.9239 62.8522 31.6206 63.2188 31.4072C63.5922 31.1872 64.0222 31.0772 64.5088 31.0772C64.9888 31.0772 65.4022 31.1872 65.7488 31.4072C66.1022 31.6206 66.3722 31.9039 66.5588 32.2572C66.7455 32.6106 66.8388 32.9906 66.8388 33.3972C66.8388 33.4706 66.8355 33.5439 66.8288 33.6172C66.8288 33.6906 66.8288 33.7739 66.8288 33.8672H62.8788C62.8988 34.2472 62.9855 34.5639 63.1388 34.8172C63.2988 35.0639 63.4955 35.2506 63.7288 35.3772C63.9688 35.5039 64.2222 35.5672 64.4888 35.5672C64.8355 35.5672 65.1255 35.4872 65.3588 35.3272C65.5922 35.1672 65.7622 34.9506 65.8688 34.6772H66.6988C66.5655 35.1372 66.3088 35.5206 65.9288 35.8272C65.5555 36.1272 65.0755 36.2772 64.4888 36.2772ZM64.4888 31.7872C64.0888 31.7872 63.7322 31.9106 63.4188 32.1572C63.1122 32.3972 62.9355 32.7506 62.8888 33.2172H66.0088C65.9888 32.7706 65.8355 32.4206 65.5488 32.1672C65.2622 31.9139 64.9088 31.7872 64.4888 31.7872ZM67.9522 36.1572L67.9522 31.1972H68.7122L68.7822 32.1472C68.9355 31.8206 69.1689 31.5606 69.4822 31.3672C69.7955 31.1739 70.1822 31.0772 70.6422 31.0772L70.6422 31.9572H70.4122C70.1189 31.9572 69.8489 32.0106 69.6022 32.1172C69.3555 32.2172 69.1589 32.3906 69.0122 32.6372C68.8655 32.8839 68.7922 33.2239 68.7922 33.6572L68.7922 36.1572H67.9522ZM71.585 36.1572L71.585 31.1972H72.345L72.405 31.9172C72.565 31.6506 72.7784 31.4439 73.045 31.2972C73.3117 31.1506 73.6117 31.0772 73.945 31.0772C74.3384 31.0772 74.675 31.1572 74.955 31.3172C75.2417 31.4772 75.4617 31.7206 75.615 32.0472C75.7884 31.7472 76.025 31.5106 76.325 31.3372C76.6317 31.1639 76.9617 31.0772 77.315 31.0772C77.9084 31.0772 78.3817 31.2572 78.735 31.6172C79.0884 31.9706 79.265 32.5172 79.265 33.2572L79.265 36.1572H78.435L78.435 33.3472C78.435 32.8339 78.3317 32.4472 78.125 32.1872C77.9184 31.9272 77.6217 31.7972 77.235 31.7972C76.835 31.7972 76.5017 31.9539 76.235 32.2672C75.975 32.5739 75.845 33.0139 75.845 33.5872L75.845 36.1572H75.005L75.005 33.3472C75.005 32.8339 74.9017 32.4472 74.695 32.1872C74.4884 31.9272 74.1917 31.7972 73.805 31.7972C73.4117 31.7972 73.0817 31.9539 72.815 32.2672C72.555 32.5739 72.425 33.0139 72.425 33.5872L72.425 36.1572H71.585ZM82.1803 36.2772C81.767 36.2772 81.4237 36.2072 81.1503 36.0672C80.877 35.9272 80.6737 35.7406 80.5403 35.5072C80.407 35.2739 80.3403 35.0206 80.3403 34.7472C80.3403 34.2406 80.5337 33.8506 80.9203 33.5772C81.307 33.3039 81.8337 33.1672 82.5003 33.1672H83.8403L83.8403 33.1072C83.8403 32.6739 83.727 32.3472 83.5003 32.1272C83.2737 31.9006 82.9703 31.7872 82.5903 31.7872C82.2637 31.7872 81.9803 31.8706 81.7403 32.0372C81.507 32.1972 81.3603 32.4339 81.3003 32.7472H80.4403C80.4737 32.3872 80.5937 32.0839 80.8003 31.8372C81.0137 31.5906 81.277 31.4039 81.5903 31.2772C81.9037 31.1439 82.237 31.0772 82.5903 31.0772C83.2837 31.0772 83.8037 31.2639 84.1503 31.6372C84.5037 32.0039 84.6803 32.4939 84.6803 33.1072L84.6803 36.1572H83.9303L83.8803 35.2672C83.7403 35.5472 83.5337 35.7872 83.2603 35.9872C82.9937 36.1806 82.6337 36.2772 82.1803 36.2772ZM82.3103 35.5672C82.6303 35.5672 82.9037 35.4839 83.1303 35.3172C83.3637 35.1506 83.5403 34.9339 83.6603 34.6672C83.7803 34.4006 83.8403 34.1206 83.8403 33.8272L83.8403 33.8172H82.5703C82.077 33.8172 81.727 33.9039 81.5203 34.0772C81.3203 34.2439 81.2203 34.4539 81.2203 34.7072C81.2203 34.9672 81.3137 35.1772 81.5003 35.3372C81.6937 35.4906 81.9637 35.5672 82.3103 35.5672ZM85.9405 36.1572L85.9405 31.1972H86.7005L86.7505 32.0872C86.9105 31.7739 87.1405 31.5272 87.4405 31.3472C87.7405 31.1672 88.0805 31.0772 88.4605 31.0772C89.0472 31.0772 89.5138 31.2572 89.8605 31.6172C90.2138 31.9706 90.3905 32.5172 90.3905 33.2572L90.3905 36.1572H89.5505L89.5505 33.3472C89.5505 32.3139 89.1238 31.7972 88.2705 31.7972C87.8438 31.7972 87.4872 31.9539 87.2005 32.2672C86.9205 32.5739 86.7805 33.0139 86.7805 33.5872L86.7805 36.1572H85.9405ZM92.1731 30.0972C92.0065 30.0972 91.8665 30.0439 91.7531 29.9372C91.6465 29.8239 91.5931 29.6839 91.5931 29.5172C91.5931 29.3572 91.6465 29.2239 91.7531 29.1172C91.8665 29.0106 92.0065 28.9572 92.1731 28.9572C92.3331 28.9572 92.4698 29.0106 92.5831 29.1172C92.6965 29.2239 92.7531 29.3572 92.7531 29.5172C92.7531 29.6839 92.6965 29.8239 92.5831 29.9372C92.4698 30.0439 92.3331 30.0972 92.1731 30.0972ZM91.7531 36.1572L91.7531 31.1972H92.5931L92.5931 36.1572H91.7531ZM95.7057 36.2772C95.2924 36.2772 94.9491 36.2072 94.6757 36.0672C94.4024 35.9272 94.1991 35.7406 94.0657 35.5072C93.9324 35.2739 93.8657 35.0206 93.8657 34.7472C93.8657 34.2406 94.0591 33.8506 94.4457 33.5772C94.8324 33.3039 95.3591 33.1672 96.0257 33.1672H97.3657L97.3657 33.1072C97.3657 32.6739 97.2524 32.3472 97.0257 32.1272C96.7991 31.9006 96.4957 31.7872 96.1157 31.7872C95.7891 31.7872 95.5057 31.8706 95.2657 32.0372C95.0324 32.1972 94.8857 32.4339 94.8257 32.7472H93.9657C93.9991 32.3872 94.1191 32.0839 94.3257 31.8372C94.5391 31.5906 94.8024 31.4039 95.1157 31.2772C95.4291 31.1439 95.7624 31.0772 96.1157 31.0772C96.8091 31.0772 97.3291 31.2639 97.6757 31.6372C98.0291 32.0039 98.2057 32.4939 98.2057 33.1072L98.2057 36.1572H97.4557L97.4057 35.2672C97.2657 35.5472 97.0591 35.7872 96.7857 35.9872C96.5191 36.1806 96.1591 36.2772 95.7057 36.2772ZM95.8357 35.5672C96.1557 35.5672 96.4291 35.4839 96.6557 35.3172C96.8891 35.1506 97.0657 34.9339 97.1857 34.6672C97.3057 34.4006 97.3657 34.1206 97.3657 33.8272L97.3657 33.8172H96.0957C95.6024 33.8172 95.2524 33.9039 95.0457 34.0772C94.8457 34.2439 94.7457 34.4539 94.7457 34.7072C94.7457 34.9672 94.8391 35.1772 95.0257 35.3372C95.2191 35.4906 95.4891 35.5672 95.8357 35.5672Z" fill="black"/>
<path d="M133.291 36.2772C132.778 36.2772 132.331 36.1839 131.951 35.9972C131.571 35.8106 131.278 35.5506 131.071 35.2172C130.865 34.8839 130.761 34.4972 130.761 34.0572H131.641C131.641 34.3306 131.705 34.5839 131.831 34.8172C131.958 35.0439 132.141 35.2272 132.381 35.3672C132.628 35.5006 132.931 35.5672 133.291 35.5672C133.765 35.5672 134.131 35.4539 134.391 35.2272C134.651 35.0006 134.781 34.7172 134.781 34.3772C134.781 34.0972 134.721 33.8739 134.601 33.7072C134.481 33.5339 134.318 33.3939 134.111 33.2872C133.911 33.1806 133.678 33.0872 133.411 33.0072C133.151 32.9272 132.878 32.8372 132.591 32.7372C132.051 32.5506 131.651 32.3206 131.391 32.0472C131.131 31.7672 131.001 31.4039 131.001 30.9572C130.995 30.5839 131.081 30.2539 131.261 29.9672C131.441 29.6739 131.695 29.4472 132.021 29.2872C132.355 29.1206 132.748 29.0372 133.201 29.0372C133.648 29.0372 134.035 29.1206 134.361 29.2872C134.695 29.4539 134.951 29.6839 135.131 29.9772C135.318 30.2706 135.415 30.6039 135.421 30.9772H134.541C134.541 30.7839 134.491 30.5939 134.391 30.4072C134.291 30.2139 134.138 30.0572 133.931 29.9372C133.731 29.8172 133.478 29.7572 133.171 29.7572C132.791 29.7506 132.478 29.8472 132.231 30.0472C131.991 30.2472 131.871 30.5239 131.871 30.8772C131.871 31.1772 131.955 31.4072 132.121 31.5672C132.295 31.7272 132.535 31.8606 132.841 31.9672C133.148 32.0672 133.501 32.1839 133.901 32.3172C134.235 32.4372 134.535 32.5772 134.801 32.7372C135.068 32.8972 135.275 33.1039 135.421 33.3572C135.575 33.6106 135.651 33.9339 135.651 34.3272C135.651 34.6606 135.565 34.9772 135.391 35.2772C135.218 35.5706 134.955 35.8106 134.601 35.9972C134.255 36.1839 133.818 36.2772 133.291 36.2772ZM136.793 38.3572L136.793 31.1972H137.553L137.633 32.0172C137.793 31.7772 138.019 31.5606 138.313 31.3672C138.613 31.1739 138.993 31.0772 139.453 31.0772C139.946 31.0772 140.376 31.1906 140.743 31.4172C141.109 31.6439 141.393 31.9539 141.593 32.3472C141.799 32.7406 141.903 33.1872 141.903 33.6872C141.903 34.1872 141.799 34.6339 141.593 35.0272C141.393 35.4139 141.106 35.7206 140.733 35.9472C140.366 36.1672 139.936 36.2772 139.443 36.2772C139.036 36.2772 138.673 36.1939 138.353 36.0272C138.039 35.8606 137.799 35.6272 137.633 35.3272L137.633 38.3572H136.793ZM139.353 35.5472C139.686 35.5472 139.979 35.4706 140.233 35.3172C140.486 35.1572 140.686 34.9372 140.833 34.6572C140.979 34.3772 141.053 34.0506 141.053 33.6772C141.053 33.3039 140.979 32.9772 140.833 32.6972C140.686 32.4172 140.486 32.2006 140.233 32.0472C139.979 31.8872 139.686 31.8072 139.353 31.8072C139.019 31.8072 138.726 31.8872 138.473 32.0472C138.219 32.2006 138.019 32.4172 137.873 32.6972C137.726 32.9772 137.653 33.3039 137.653 33.6772C137.653 34.0506 137.726 34.3772 137.873 34.6572C138.019 34.9372 138.219 35.1572 138.473 35.3172C138.726 35.4706 139.019 35.5472 139.353 35.5472ZM144.722 36.2772C144.309 36.2772 143.965 36.2072 143.692 36.0672C143.419 35.9272 143.215 35.7406 143.082 35.5072C142.949 35.2739 142.882 35.0206 142.882 34.7472C142.882 34.2406 143.075 33.8506 143.462 33.5772C143.849 33.3039 144.375 33.1672 145.042 33.1672H146.382L146.382 33.1072C146.382 32.6739 146.269 32.3472 146.042 32.1272C145.815 31.9006 145.512 31.7872 145.132 31.7872C144.805 31.7872 144.522 31.8706 144.282 32.0372C144.049 32.1972 143.902 32.4339 143.842 32.7472H142.982C143.015 32.3872 143.135 32.0839 143.342 31.8372C143.555 31.5906 143.819 31.4039 144.132 31.2772C144.445 31.1439 144.779 31.0772 145.132 31.0772C145.825 31.0772 146.345 31.2639 146.692 31.6372C147.045 32.0039 147.222 32.4939 147.222 33.1072L147.222 36.1572H146.472L146.422 35.2672C146.282 35.5472 146.075 35.7872 145.802 35.9872C145.535 36.1806 145.175 36.2772 144.722 36.2772ZM144.852 35.5672C145.172 35.5672 145.445 35.4839 145.672 35.3172C145.905 35.1506 146.082 34.9339 146.202 34.6672C146.322 34.4006 146.382 34.1206 146.382 33.8272L146.382 33.8172H145.112C144.619 33.8172 144.269 33.9039 144.062 34.0772C143.862 34.2439 143.762 34.4539 143.762 34.7072C143.762 34.9672 143.855 35.1772 144.042 35.3372C144.235 35.4906 144.505 35.5672 144.852 35.5672ZM150.442 34.5972C150.162 34.5972 149.905 34.5606 149.672 34.4872L149.172 34.9572C149.245 35.0106 149.335 35.0572 149.442 35.0972C149.555 35.1306 149.715 35.1639 149.922 35.1972C150.129 35.2239 150.419 35.2539 150.792 35.2872C151.459 35.3339 151.935 35.4872 152.222 35.7472C152.509 36.0072 152.652 36.3472 152.652 36.7672C152.652 37.0539 152.572 37.3272 152.412 37.5872C152.259 37.8472 152.019 38.0606 151.692 38.2272C151.372 38.3939 150.959 38.4772 150.452 38.4772C150.005 38.4772 149.609 38.4172 149.262 38.2972C148.915 38.1839 148.645 38.0072 148.452 37.7672C148.259 37.5339 148.162 37.2372 148.162 36.8772C148.162 36.6906 148.212 36.4872 148.312 36.2672C148.412 36.0539 148.599 35.8506 148.872 35.6572C148.725 35.5972 148.599 35.5339 148.492 35.4672C148.392 35.3939 148.299 35.3139 148.212 35.2272L148.212 34.9972L149.062 34.1572C148.669 33.8239 148.472 33.3839 148.472 32.8372C148.472 32.5106 148.549 32.2139 148.702 31.9472C148.855 31.6806 149.079 31.4706 149.372 31.3172C149.665 31.1572 150.022 31.0772 150.442 31.0772C150.729 31.0772 150.989 31.1172 151.222 31.1972H153.052L153.052 31.8272L152.122 31.8672C152.315 32.1472 152.412 32.4706 152.412 32.8372C152.412 33.1639 152.332 33.4606 152.172 33.7272C152.019 33.9939 151.795 34.2072 151.502 34.3672C151.215 34.5206 150.862 34.5972 150.442 34.5972ZM150.442 33.9072C150.795 33.9072 151.075 33.8172 151.282 33.6372C151.495 33.4506 151.602 33.1839 151.602 32.8372C151.602 32.4972 151.495 32.2372 151.282 32.0572C151.075 31.8706 150.795 31.7772 150.442 31.7772C150.082 31.7772 149.795 31.8706 149.582 32.0572C149.375 32.2372 149.272 32.4972 149.272 32.8372C149.272 33.1839 149.375 33.4506 149.582 33.6372C149.795 33.8172 150.082 33.9072 150.442 33.9072ZM148.982 36.7972C148.982 37.1306 149.122 37.3772 149.402 37.5372C149.682 37.7039 150.032 37.7872 150.452 37.7872C150.865 37.7872 151.195 37.6972 151.442 37.5172C151.695 37.3372 151.822 37.0972 151.822 36.7972C151.822 36.5839 151.735 36.3972 151.562 36.2372C151.389 36.0839 151.069 35.9939 150.602 35.9672C150.235 35.9406 149.919 35.9072 149.652 35.8672C149.379 36.0139 149.199 36.1706 149.112 36.3372C149.025 36.5106 148.982 36.6639 148.982 36.7972ZM154 36.1572L154 31.1972H154.76L154.81 32.0872C154.97 31.7739 155.2 31.5272 155.5 31.3472C155.8 31.1672 156.14 31.0772 156.52 31.0772C157.106 31.0772 157.573 31.2572 157.92 31.6172C158.273 31.9706 158.45 32.5172 158.45 33.2572L158.45 36.1572L157.61 36.1572L157.61 33.3472C157.61 32.3139 157.183 31.7972 156.33 31.7972C155.903 31.7972 155.546 31.9539 155.26 32.2672C154.98 32.5739 154.84 33.0139 154.84 33.5872L154.84 36.1572H154ZM161.372 36.2772C160.959 36.2772 160.616 36.2072 160.342 36.0672C160.069 35.9272 159.866 35.7406 159.732 35.5072C159.599 35.2739 159.532 35.0206 159.532 34.7472C159.532 34.2406 159.726 33.8506 160.112 33.5772C160.499 33.3039 161.026 33.1672 161.692 33.1672H163.032L163.032 33.1072C163.032 32.6739 162.919 32.3472 162.692 32.1272C162.466 31.9006 162.162 31.7872 161.782 31.7872C161.456 31.7872 161.172 31.8706 160.932 32.0372C160.699 32.1972 160.552 32.4339 160.492 32.7472H159.632C159.666 32.3872 159.786 32.0839 159.992 31.8372C160.206 31.5906 160.469 31.4039 160.782 31.2772C161.096 31.1439 161.429 31.0772 161.782 31.0772C162.476 31.0772 162.996 31.2639 163.342 31.6372C163.696 32.0039 163.872 32.4939 163.872 33.1072L163.872 36.1572H163.122L163.072 35.2672C162.932 35.5472 162.726 35.7872 162.452 35.9872C162.186 36.1806 161.826 36.2772 161.372 36.2772ZM161.502 35.5672C161.822 35.5672 162.096 35.4839 162.322 35.3172C162.556 35.1506 162.732 34.9339 162.852 34.6672C162.972 34.4006 163.032 34.1206 163.032 33.8272L163.032 33.8172H161.762C161.269 33.8172 160.919 33.9039 160.712 34.0772C160.512 34.2439 160.412 34.4539 160.412 34.7072C160.412 34.9672 160.506 35.1772 160.692 35.3372C160.886 35.4906 161.156 35.5672 161.502 35.5672Z" fill="black"/>
<path d="M196.676 36.1572L196.676 29.1572H200.936L200.936 29.8472H197.516L197.516 32.3072H200.426L200.426 32.9872H197.516L197.516 36.1572H196.676ZM201.967 36.1572L201.967 31.1972H202.727L202.797 32.1472C202.951 31.8206 203.184 31.5606 203.497 31.3672C203.811 31.1739 204.197 31.0772 204.657 31.0772L204.657 31.9572H204.427C204.134 31.9572 203.864 32.0106 203.617 32.1172C203.371 32.2172 203.174 32.3906 203.027 32.6372C202.881 32.8839 202.807 33.2239 202.807 33.6572L202.807 36.1572H201.967ZM207.25 36.2772C206.837 36.2772 206.494 36.2072 206.22 36.0672C205.947 35.9272 205.744 35.7406 205.61 35.5072C205.477 35.2739 205.41 35.0206 205.41 34.7472C205.41 34.2406 205.604 33.8506 205.99 33.5772C206.377 33.3039 206.904 33.1672 207.57 33.1672H208.91L208.91 33.1072C208.91 32.6739 208.797 32.3472 208.57 32.1272C208.344 31.9006 208.04 31.7872 207.66 31.7872C207.334 31.7872 207.05 31.8706 206.81 32.0372C206.577 32.1972 206.43 32.4339 206.37 32.7472H205.51C205.544 32.3872 205.664 32.0839 205.87 31.8372C206.084 31.5906 206.347 31.4039 206.66 31.2772C206.974 31.1439 207.307 31.0772 207.66 31.0772C208.354 31.0772 208.874 31.2639 209.22 31.6372C209.574 32.0039 209.75 32.4939 209.75 33.1072L209.75 36.1572H209L208.95 35.2672C208.81 35.5472 208.604 35.7872 208.33 35.9872C208.064 36.1806 207.704 36.2772 207.25 36.2772ZM207.38 35.5672C207.7 35.5672 207.974 35.4839 208.2 35.3172C208.434 35.1506 208.61 34.9339 208.73 34.6672C208.85 34.4006 208.91 34.1206 208.91 33.8272L208.91 33.8172H207.64C207.147 33.8172 206.797 33.9039 206.59 34.0772C206.39 34.2439 206.29 34.4539 206.29 34.7072C206.29 34.9672 206.384 35.1772 206.57 35.3372C206.764 35.4906 207.034 35.5672 207.38 35.5672ZM211.01 36.1572L211.01 31.1972H211.77L211.82 32.0872C211.98 31.7739 212.21 31.5272 212.51 31.3472C212.81 31.1672 213.15 31.0772 213.53 31.0772C214.117 31.0772 214.584 31.2572 214.93 31.6172C215.284 31.9706 215.46 32.5172 215.46 33.2572L215.46 36.1572H214.62L214.62 33.3472C214.62 32.3139 214.194 31.7972 213.34 31.7972C212.914 31.7972 212.557 31.9539 212.27 32.2672C211.99 32.5739 211.85 33.0139 211.85 33.5872L211.85 36.1572H211.01ZM219.013 36.2772C218.54 36.2772 218.113 36.1706 217.733 35.9572C217.36 35.7372 217.063 35.4339 216.843 35.0472C216.63 34.6539 216.523 34.1972 216.523 33.6772C216.523 33.1572 216.63 32.7039 216.843 32.3172C217.063 31.9239 217.36 31.6206 217.733 31.4072C218.113 31.1872 218.54 31.0772 219.013 31.0772C219.6 31.0772 220.093 31.2306 220.493 31.5372C220.9 31.8439 221.156 32.2539 221.263 32.7672L220.403 32.7672C220.336 32.4606 220.173 32.2239 219.913 32.0572C219.653 31.8839 219.35 31.7972 219.003 31.7972C218.723 31.7972 218.46 31.8672 218.213 32.0072C217.966 32.1472 217.766 32.3572 217.613 32.6372C217.46 32.9172 217.383 33.2639 217.383 33.6772C217.383 34.0906 217.46 34.4372 217.613 34.7172C217.766 34.9972 217.966 35.2106 218.213 35.3572C218.46 35.4972 218.723 35.5672 219.003 35.5672C219.35 35.5672 219.653 35.4839 219.913 35.3172C220.173 35.1439 220.336 34.9006 220.403 34.5872H221.263C221.163 35.0872 220.91 35.4939 220.503 35.8072C220.096 36.1206 219.6 36.2772 219.013 36.2772ZM222.946 30.0972C222.78 30.0972 222.64 30.0439 222.526 29.9372C222.42 29.8239 222.366 29.6839 222.366 29.5172C222.366 29.3572 222.42 29.2239 222.526 29.1172C222.64 29.0106 222.78 28.9572 222.946 28.9572C223.106 28.9572 223.243 29.0106 223.356 29.1172C223.47 29.2239 223.526 29.3572 223.526 29.5172C223.526 29.6839 223.47 29.8239 223.356 29.9372C223.243 30.0439 223.106 30.0972 222.946 30.0972ZM222.526 36.1572L222.526 31.1972H223.366L223.366 36.1572H222.526ZM226.479 36.2772C226.065 36.2772 225.722 36.2072 225.449 36.0672C225.175 35.9272 224.972 35.7406 224.839 35.5072C224.705 35.2739 224.639 35.0206 224.639 34.7472C224.639 34.2406 224.832 33.8506 225.219 33.5772C225.605 33.3039 226.132 33.1672 226.799 33.1672H228.139L228.139 33.1072C228.139 32.6739 228.025 32.3472 227.799 32.1272C227.572 31.9006 227.269 31.7872 226.889 31.7872C226.562 31.7872 226.279 31.8706 226.039 32.0372C225.805 32.1972 225.659 32.4339 225.599 32.7472H224.739C224.772 32.3872 224.892 32.0839 225.099 31.8372C225.312 31.5906 225.575 31.4039 225.889 31.2772C226.202 31.1439 226.535 31.0772 226.889 31.0772C227.582 31.0772 228.102 31.2639 228.449 31.6372C228.802 32.0039 228.979 32.4939 228.979 33.1072L228.979 36.1572H228.229L228.179 35.2672C228.039 35.5472 227.832 35.7872 227.559 35.9872C227.292 36.1806 226.932 36.2772 226.479 36.2772ZM226.609 35.5672C226.929 35.5672 227.202 35.4839 227.429 35.3172C227.662 35.1506 227.839 34.9339 227.959 34.6672C228.079 34.4006 228.139 34.1206 228.139 33.8272L228.139 33.8172H226.869C226.375 33.8172 226.025 33.9039 225.819 34.0772C225.619 34.2439 225.519 34.4539 225.519 34.7072C225.519 34.9672 225.612 35.1772 225.799 35.3372C225.992 35.4906 226.262 35.5672 226.609 35.5672Z" fill="black"/>
<path d="M260.409 36.1572L260.409 29.1572H261.249L261.249 36.1572H260.409ZM264.643 36.1572C264.189 36.1572 263.833 36.0472 263.573 35.8272C263.313 35.6072 263.183 35.2106 263.183 34.6372L263.183 31.9072H262.323L262.323 31.1972H263.183L263.293 30.0072H264.023L264.023 31.1972H265.483L265.483 31.9072H264.023L264.023 34.6372C264.023 34.9506 264.086 35.1639 264.213 35.2772C264.339 35.3839 264.563 35.4372 264.883 35.4372H265.403L265.403 36.1572H264.643ZM268.2 36.2772C267.787 36.2772 267.443 36.2072 267.17 36.0672C266.897 35.9272 266.693 35.7406 266.56 35.5072C266.427 35.2739 266.36 35.0206 266.36 34.7472C266.36 34.2406 266.553 33.8506 266.94 33.5772C267.327 33.3039 267.853 33.1672 268.52 33.1672H269.86L269.86 33.1072C269.86 32.6739 269.747 32.3472 269.52 32.1272C269.293 31.9006 268.99 31.7872 268.61 31.7872C268.283 31.7872 268 31.8706 267.76 32.0372C267.527 32.1972 267.38 32.4339 267.32 32.7472H266.46C266.493 32.3872 266.613 32.0839 266.82 31.8372C267.033 31.5906 267.297 31.4039 267.61 31.2772C267.923 31.1439 268.257 31.0772 268.61 31.0772C269.303 31.0772 269.823 31.2639 270.17 31.6372C270.523 32.0039 270.7 32.4939 270.7 33.1072L270.7 36.1572H269.95L269.9 35.2672C269.76 35.5472 269.553 35.7872 269.28 35.9872C269.013 36.1806 268.653 36.2772 268.2 36.2772ZM268.33 35.5672C268.65 35.5672 268.923 35.4839 269.15 35.3172C269.383 35.1506 269.56 34.9339 269.68 34.6672C269.8 34.4006 269.86 34.1206 269.86 33.8272L269.86 33.8172H268.59C268.097 33.8172 267.747 33.9039 267.54 34.0772C267.34 34.2439 267.24 34.4539 267.24 34.7072C267.24 34.9672 267.333 35.1772 267.52 35.3372C267.713 35.4906 267.983 35.5672 268.33 35.5672ZM271.96 36.1572L271.96 28.9572L272.8 28.9572L272.8 36.1572H271.96ZM274.687 30.0972C274.52 30.0972 274.38 30.0439 274.267 29.9372C274.16 29.8239 274.107 29.6839 274.107 29.5172C274.107 29.3572 274.16 29.2239 274.267 29.1172C274.38 29.0106 274.52 28.9572 274.687 28.9572C274.847 28.9572 274.984 29.0106 275.097 29.1172C275.21 29.2239 275.267 29.3572 275.267 29.5172C275.267 29.6839 275.21 29.8239 275.097 29.9372C274.984 30.0439 274.847 30.0972 274.687 30.0972ZM274.267 36.1572L274.267 31.1972H275.107L275.107 36.1572H274.267ZM278.22 36.2772C277.806 36.2772 277.463 36.2072 277.19 36.0672C276.916 35.9272 276.713 35.7406 276.58 35.5072C276.446 35.2739 276.38 35.0206 276.38 34.7472C276.38 34.2406 276.573 33.8506 276.96 33.5772C277.346 33.3039 277.873 33.1672 278.54 33.1672H279.88L279.88 33.1072C279.88 32.6739 279.766 32.3472 279.54 32.1272C279.313 31.9006 279.01 31.7872 278.63 31.7872C278.303 31.7872 278.02 31.8706 277.78 32.0372C277.546 32.1972 277.4 32.4339 277.34 32.7472H276.48C276.513 32.3872 276.633 32.0839 276.84 31.8372C277.053 31.5906 277.316 31.4039 277.63 31.2772C277.943 31.1439 278.276 31.0772 278.63 31.0772C279.323 31.0772 279.843 31.2639 280.19 31.6372C280.543 32.0039 280.72 32.4939 280.72 33.1072L280.72 36.1572H279.97L279.92 35.2672C279.78 35.5472 279.573 35.7872 279.3 35.9872C279.033 36.1806 278.673 36.2772 278.22 36.2772ZM278.35 35.5672C278.67 35.5672 278.943 35.4839 279.17 35.3172C279.403 35.1506 279.58 34.9339 279.7 34.6672C279.82 34.4006 279.88 34.1206 279.88 33.8272L279.88 33.8172H278.61C278.116 33.8172 277.766 33.9039 277.56 34.0772C277.36 34.2439 277.26 34.4539 277.26 34.7072C277.26 34.9672 277.353 35.1772 277.54 35.3372C277.733 35.4906 278.003 35.5672 278.35 35.5672Z" fill="black"/>
<path d="M81.5619 72.3516C80.6939 72.3516 79.9425 72.1416 79.3079 71.7216C78.6825 71.2923 78.2019 70.6996 77.8659 69.9436C77.5299 69.1783 77.3619 68.2916 77.3619 67.2836C77.3619 66.2756 77.5299 65.3936 77.8659 64.6376C78.2019 63.8723 78.6825 63.2796 79.3079 62.8596C79.9425 62.4303 80.6939 62.2156 81.5619 62.2156C82.4299 62.2156 83.1765 62.4303 83.8019 62.8596C84.4272 63.2796 84.9079 63.8723 85.2439 64.6376C85.5799 65.3936 85.7479 66.2756 85.7479 67.2836C85.7479 68.2916 85.5799 69.1783 85.2439 69.9436C84.9079 70.6996 84.4272 71.2923 83.8019 71.7216C83.1765 72.1416 82.4299 72.3516 81.5619 72.3516ZM81.5619 71.3156C82.1312 71.3156 82.6399 71.1569 83.0879 70.8396C83.5452 70.5129 83.8999 70.0509 84.1519 69.4536C84.4132 68.8469 84.5439 68.1236 84.5439 67.2836C84.5439 66.4436 84.4132 65.7249 84.1519 65.1276C83.8999 64.5303 83.5452 64.0729 83.0879 63.7556C82.6399 63.4289 82.1312 63.2656 81.5619 63.2656C80.9832 63.2656 80.4699 63.4289 80.0219 63.7556C79.5739 64.0729 79.2192 64.5303 78.9579 65.1276C78.6965 65.7249 78.5659 66.4436 78.5659 67.2836C78.5659 68.1236 78.6965 68.8469 78.9579 69.4536C79.2192 70.0509 79.5739 70.5129 80.0219 70.8396C80.4699 71.1569 80.9832 71.3156 81.5619 71.3156Z" fill="black"/>
<path d="M35.6635 66.9336C35.2435 66.9336 34.8609 66.8403 34.5155 66.6536C34.1795 66.4576 33.9135 66.1869 33.7175 65.8416C33.5215 65.4869 33.4235 65.0669 33.4235 64.5816C33.4235 64.0963 33.5215 63.6809 33.7175 63.3356C33.9229 62.9809 34.1935 62.7103 34.5295 62.5236C34.8749 62.3276 35.2575 62.2296 35.6775 62.2296C36.0975 62.2296 36.4755 62.3276 36.8115 62.5236C37.1475 62.7103 37.4135 62.9809 37.6095 63.3356C37.8055 63.6809 37.9035 64.0963 37.9035 64.5816C37.9035 65.0669 37.8009 65.4869 37.5955 65.8416C37.3995 66.1869 37.1335 66.4576 36.7975 66.6536C36.4615 66.8403 36.0835 66.9336 35.6635 66.9336ZM34.7955 72.1836L40.4935 62.3836H41.6695L35.9715 72.1836H34.7955ZM35.6635 66.0236C35.9902 66.0236 36.2749 65.9023 36.5175 65.6596C36.7695 65.4169 36.8955 65.0576 36.8955 64.5816C36.8955 64.0963 36.7742 63.7323 36.5315 63.4896C36.2889 63.2376 36.0042 63.1116 35.6775 63.1116C35.3509 63.1116 35.0569 63.2376 34.7955 63.4896C34.5435 63.7323 34.4175 64.0963 34.4175 64.5816C34.4175 65.0576 34.5435 65.4169 34.7955 65.6596C35.0475 65.9023 35.3369 66.0236 35.6635 66.0236ZM40.8995 72.3516C40.4795 72.3516 40.0969 72.2583 39.7515 72.0716C39.4155 71.8756 39.1495 71.6049 38.9535 71.2596C38.7575 70.9049 38.6595 70.4849 38.6595 69.9996C38.6595 69.5143 38.7575 69.0989 38.9535 68.7536C39.1589 68.3989 39.4295 68.1283 39.7655 67.9416C40.1015 67.7456 40.4795 67.6476 40.8995 67.6476C41.3195 67.6476 41.6975 67.7456 42.0335 67.9416C42.3695 68.1283 42.6355 68.3989 42.8315 68.7536C43.0275 69.0989 43.1255 69.5143 43.1255 69.9996C43.1255 70.4849 43.0275 70.9049 42.8315 71.2596C42.6355 71.6049 42.3695 71.8756 42.0335 72.0716C41.6975 72.2583 41.3195 72.3516 40.8995 72.3516ZM40.8855 71.4416C41.2215 71.4416 41.5109 71.3203 41.7535 71.0776C42.0055 70.8349 42.1315 70.4756 42.1315 69.9996C42.1315 69.5143 42.0102 69.1503 41.7675 68.9076C41.5249 68.6649 41.2355 68.5436 40.8995 68.5436C40.5729 68.5436 40.2835 68.6649 40.0315 68.9076C39.7795 69.1503 39.6535 69.5143 39.6535 69.9996C39.6535 70.4756 39.7749 70.8349 40.0175 71.0776C40.2695 71.3203 40.5589 71.4416 40.8855 71.4416Z" fill="black"/>
<path d="M109.987 72.1836L109.987 63.6996L108.405 64.0496L108.405 63.2376L110.379 62.3836H111.177L111.177 72.1836H109.987ZM117.068 72.3516C116.2 72.3516 115.448 72.1416 114.814 71.7216C114.188 71.2923 113.708 70.6996 113.372 69.9436C113.036 69.1783 112.868 68.2916 112.868 67.2836C112.868 66.2756 113.036 65.3936 113.372 64.6376C113.708 63.8723 114.188 63.2796 114.814 62.8596C115.448 62.4303 116.2 62.2156 117.068 62.2156C117.936 62.2156 118.682 62.4303 119.308 62.8596C119.933 63.2796 120.414 63.8723 120.75 64.6376C121.086 65.3936 121.254 66.2756 121.254 67.2836C121.254 68.2916 121.086 69.1783 120.75 69.9436C120.414 70.6996 119.933 71.2923 119.308 71.7216C118.682 72.1416 117.936 72.3516 117.068 72.3516ZM117.068 71.3156C117.637 71.3156 118.146 71.1569 118.594 70.8396C119.051 70.5129 119.406 70.0509 119.658 69.4536C119.919 68.8469 120.05 68.1236 120.05 67.2836C120.05 66.4436 119.919 65.7249 119.658 65.1276C119.406 64.5303 119.051 64.0729 118.594 63.7556C118.146 63.4289 117.637 63.2656 117.068 63.2656C116.489 63.2656 115.976 63.4289 115.528 63.7556C115.08 64.0729 114.725 64.5303 114.464 65.1276C114.202 65.7249 114.072 66.4436 114.072 67.2836C114.072 68.1236 114.202 68.8469 114.464 69.4536C114.725 70.0509 115.08 70.5129 115.528 70.8396C115.976 71.1569 116.489 71.3156 117.068 71.3156Z" fill="black"/>
<path d="M140.435 72.1836L140.435 71.3576C141.098 70.8349 141.723 70.3076 142.311 69.7756C142.909 69.2343 143.436 68.7023 143.893 68.1796C144.36 67.6569 144.724 67.1436 144.985 66.6396C145.256 66.1356 145.391 65.6503 145.391 65.1836C145.391 64.8383 145.331 64.5163 145.209 64.2176C145.097 63.9189 144.911 63.6809 144.649 63.5036C144.388 63.3169 144.033 63.2236 143.585 63.2236C143.156 63.2236 142.797 63.3216 142.507 63.5176C142.218 63.7043 141.999 63.9563 141.849 64.2736C141.709 64.5909 141.639 64.9316 141.639 65.2956H140.505C140.505 64.6516 140.641 64.1009 140.911 63.6436C141.182 63.1769 141.551 62.8223 142.017 62.5796C142.484 62.3369 143.011 62.2156 143.599 62.2156C144.467 62.2156 145.177 62.4629 145.727 62.9576C146.287 63.4429 146.567 64.1709 146.567 65.1416C146.567 65.7203 146.423 66.2943 146.133 66.8636C145.844 67.4236 145.475 67.9696 145.027 68.5016C144.579 69.0243 144.099 69.5143 143.585 69.9716C143.081 70.4289 142.61 70.8396 142.171 71.2036H146.903L146.903 72.1836H140.435ZM152.286 72.3516C151.418 72.3516 150.667 72.1416 150.032 71.7216C149.407 71.2923 148.926 70.6996 148.59 69.9436C148.254 69.1783 148.086 68.2916 148.086 67.2836C148.086 66.2756 148.254 65.3936 148.59 64.6376C148.926 63.8723 149.407 63.2796 150.032 62.8596C150.667 62.4303 151.418 62.2156 152.286 62.2156C153.154 62.2156 153.901 62.4303 154.526 62.8596C155.152 63.2796 155.632 63.8723 155.968 64.6376C156.304 65.3936 156.472 66.2756 156.472 67.2836C156.472 68.2916 156.304 69.1783 155.968 69.9436C155.632 70.6996 155.152 71.2923 154.526 71.7216C153.901 72.1416 153.154 72.3516 152.286 72.3516ZM152.286 71.3156C152.856 71.3156 153.364 71.1569 153.812 70.8396C154.27 70.5129 154.624 70.0509 154.876 69.4536C155.138 68.8469 155.268 68.1236 155.268 67.2836C155.268 66.4436 155.138 65.7249 154.876 65.1276C154.624 64.5303 154.27 64.0729 153.812 63.7556C153.364 63.4289 152.856 63.2656 152.286 63.2656C151.708 63.2656 151.194 63.4289 150.746 63.7556C150.298 64.0729 149.944 64.5303 149.682 65.1276C149.421 65.7249 149.29 66.4436 149.29 67.2836C149.29 68.1236 149.421 68.8469 149.682 69.4536C149.944 70.0509 150.298 70.5129 150.746 70.8396C151.194 71.1569 151.708 71.3156 152.286 71.3156Z" fill="black"/>
<path d="M176.857 72.3516C176.232 72.3516 175.667 72.2396 175.163 72.0156C174.659 71.7823 174.253 71.4369 173.945 70.9796C173.646 70.5223 173.488 69.9529 173.469 69.2716H174.659C174.668 69.8316 174.864 70.3169 175.247 70.7276C175.63 71.1289 176.166 71.3296 176.857 71.3296C177.548 71.3296 178.066 71.1383 178.411 70.7556C178.766 70.3729 178.943 69.9109 178.943 69.3696C178.943 68.9123 178.831 68.5389 178.607 68.2496C178.392 67.9603 178.098 67.7456 177.725 67.6056C177.361 67.4656 176.96 67.3956 176.521 67.3956H175.793L175.793 66.4016H176.521C177.156 66.4016 177.65 66.2569 178.005 65.9676C178.369 65.6783 178.551 65.2723 178.551 64.7496C178.551 64.3109 178.406 63.9516 178.117 63.6716C177.837 63.3823 177.417 63.2376 176.857 63.2376C176.316 63.2376 175.882 63.4009 175.555 63.7276C175.228 64.0449 175.046 64.4463 175.009 64.9316H173.819C173.847 64.3996 173.987 63.9283 174.239 63.5176C174.5 63.1069 174.855 62.7896 175.303 62.5656C175.751 62.3323 176.269 62.2156 176.857 62.2156C177.492 62.2156 178.019 62.3276 178.439 62.5516C178.868 62.7756 179.19 63.0743 179.405 63.4476C179.629 63.8209 179.741 64.2316 179.741 64.6796C179.741 65.1743 179.606 65.6269 179.335 66.0376C179.064 66.4389 178.658 66.7096 178.117 66.8496C178.696 66.9709 179.176 67.2463 179.559 67.6756C179.942 68.1049 180.133 68.6696 180.133 69.3696C180.133 69.9109 180.007 70.4103 179.755 70.8676C179.512 71.3156 179.148 71.6749 178.663 71.9456C178.178 72.2163 177.576 72.3516 176.857 72.3516ZM185.858 72.3516C184.99 72.3516 184.238 72.1416 183.604 71.7216C182.978 71.2923 182.498 70.6996 182.162 69.9436C181.826 69.1783 181.658 68.2916 181.658 67.2836C181.658 66.2756 181.826 65.3936 182.162 64.6376C182.498 63.8723 182.978 63.2796 183.604 62.8596C184.238 62.4303 184.99 62.2156 185.858 62.2156C186.726 62.2156 187.472 62.4303 188.098 62.8596C188.723 63.2796 189.204 63.8723 189.54 64.6376C189.876 65.3936 190.044 66.2756 190.044 67.2836C190.044 68.2916 189.876 69.1783 189.54 69.9436C189.204 70.6996 188.723 71.2923 188.098 71.7216C187.472 72.1416 186.726 72.3516 185.858 72.3516ZM185.858 71.3156C186.427 71.3156 186.936 71.1569 187.384 70.8396C187.841 70.5129 188.196 70.0509 188.448 69.4536C188.709 68.8469 188.84 68.1236 188.84 67.2836C188.84 66.4436 188.709 65.7249 188.448 65.1276C188.196 64.5303 187.841 64.0729 187.384 63.7556C186.936 63.4289 186.427 63.2656 185.858 63.2656C185.279 63.2656 184.766 63.4289 184.318 63.7556C183.87 64.0729 183.515 64.5303 183.254 65.1276C182.992 65.7249 182.862 66.4436 182.862 67.2836C182.862 68.1236 182.992 68.8469 183.254 69.4536C183.515 70.0509 183.87 70.5129 184.318 70.8396C184.766 71.1569 185.279 71.3156 185.858 71.3156Z" fill="black"/>
<path d="M212.014 72.1836L212.014 70.0836H207.044L207.044 69.1736L211.804 62.3836H213.176L213.176 69.0476H214.632L214.632 70.0836H213.176L213.176 72.1836H212.014ZM208.346 69.0476H212.07L212.07 63.6856L208.346 69.0476ZM219.874 72.3516C219.006 72.3516 218.255 72.1416 217.62 71.7216C216.995 71.2923 216.514 70.6996 216.178 69.9436C215.842 69.1783 215.674 68.2916 215.674 67.2836C215.674 66.2756 215.842 65.3936 216.178 64.6376C216.514 63.8723 216.995 63.2796 217.62 62.8596C218.255 62.4303 219.006 62.2156 219.874 62.2156C220.742 62.2156 221.489 62.4303 222.114 62.8596C222.74 63.2796 223.22 63.8723 223.556 64.6376C223.892 65.3936 224.06 66.2756 224.06 67.2836C224.06 68.2916 223.892 69.1783 223.556 69.9436C223.22 70.6996 222.74 71.2923 222.114 71.7216C221.489 72.1416 220.742 72.3516 219.874 72.3516ZM219.874 71.3156C220.444 71.3156 220.952 71.1569 221.4 70.8396C221.858 70.5129 222.212 70.0509 222.464 69.4536C222.726 68.8469 222.856 68.1236 222.856 67.2836C222.856 66.4436 222.726 65.7249 222.464 65.1276C222.212 64.5303 221.858 64.0729 221.4 63.7556C220.952 63.4289 220.444 63.2656 219.874 63.2656C219.296 63.2656 218.782 63.4289 218.334 63.7556C217.886 64.0729 217.532 64.5303 217.27 65.1276C217.009 65.7249 216.878 66.4436 216.878 67.2836C216.878 68.1236 217.009 68.8469 217.27 69.4536C217.532 70.0509 217.886 70.5129 218.334 70.8396C218.782 71.1569 219.296 71.3156 219.874 71.3156Z" fill="black"/>
<path d="M244.253 72.3516C243.581 72.3516 242.998 72.2303 242.503 71.9876C242.009 71.7449 241.612 71.4136 241.313 70.9936C241.024 70.5643 240.847 70.0789 240.781 69.5376H241.929C242.041 70.0789 242.303 70.5176 242.713 70.8536C243.124 71.1803 243.642 71.3436 244.267 71.3436C244.734 71.3436 245.135 71.2363 245.471 71.0216C245.807 70.7976 246.064 70.4989 246.241 70.1256C246.428 69.7523 246.521 69.3369 246.521 68.8796C246.521 68.1516 246.316 67.5636 245.905 67.1156C245.495 66.6676 244.963 66.4436 244.309 66.4436C243.768 66.4436 243.306 66.5649 242.923 66.8076C242.541 67.0503 242.261 67.3676 242.083 67.7596H240.963L241.803 62.3836H246.941L246.941 63.4056H242.713L242.139 66.3876C242.363 66.1169 242.671 65.8929 243.063 65.7156C243.465 65.5383 243.922 65.4496 244.435 65.4496C245.079 65.4496 245.639 65.5989 246.115 65.8976C246.601 66.1963 246.979 66.6023 247.249 67.1156C247.52 67.6289 247.655 68.2123 247.655 68.8656C247.655 69.4909 247.52 70.0696 247.249 70.6016C246.988 71.1336 246.601 71.5583 246.087 71.8756C245.583 72.1929 244.972 72.3516 244.253 72.3516ZM253.316 72.3516C252.448 72.3516 251.696 72.1416 251.062 71.7216C250.436 71.2923 249.956 70.6996 249.62 69.9436C249.284 69.1783 249.116 68.2916 249.116 67.2836C249.116 66.2756 249.284 65.3936 249.62 64.6376C249.956 63.8723 250.436 63.2796 251.062 62.8596C251.696 62.4303 252.448 62.2156 253.316 62.2156C254.184 62.2156 254.93 62.4303 255.556 62.8596C256.181 63.2796 256.662 63.8723 256.998 64.6376C257.334 65.3936 257.502 66.2756 257.502 67.2836C257.502 68.2916 257.334 69.1783 256.998 69.9436C256.662 70.6996 256.181 71.2923 255.556 71.7216C254.93 72.1416 254.184 72.3516 253.316 72.3516ZM253.316 71.3156C253.885 71.3156 254.394 71.1569 254.842 70.8396C255.299 70.5129 255.654 70.0509 255.906 69.4536C256.167 68.8469 256.298 68.1236 256.298 67.2836C256.298 66.4436 256.167 65.7249 255.906 65.1276C255.654 64.5303 255.299 64.0729 254.842 63.7556C254.394 63.4289 253.885 63.2656 253.316 63.2656C252.737 63.2656 252.224 63.4289 251.776 63.7556C251.328 64.0729 250.973 64.5303 250.712 65.1276C250.45 65.7249 250.32 66.4436 250.32 67.2836C250.32 68.1236 250.45 68.8469 250.712 69.4536C250.973 70.0509 251.328 70.5129 251.776 70.8396C252.224 71.1569 252.737 71.3156 253.316 71.3156Z" fill="black"/>
<path d="M277.72 72.3516C277.01 72.3516 276.413 72.2209 275.928 71.9596C275.442 71.6889 275.05 71.3296 274.752 70.8816C274.462 70.4336 274.248 69.9343 274.108 69.3836C273.977 68.8236 273.912 68.2543 273.912 67.6756C273.912 66.5929 274.061 65.6456 274.36 64.8336C274.658 64.0123 275.088 63.3729 275.648 62.9156C276.217 62.4489 276.903 62.2156 277.706 62.2156C278.322 62.2156 278.849 62.3369 279.288 62.5796C279.726 62.8223 280.072 63.1489 280.324 63.5596C280.585 63.9609 280.748 64.4089 280.814 64.9036H279.722C279.619 64.3716 279.39 63.9609 279.036 63.6716C278.681 63.3823 278.233 63.2376 277.692 63.2376C276.954 63.2376 276.334 63.5876 275.83 64.2876C275.335 64.9783 275.069 66.0609 275.032 67.5356C275.256 67.0969 275.61 66.7189 276.096 66.4016C276.59 66.0749 277.183 65.9116 277.874 65.9116C278.434 65.9116 278.956 66.0423 279.442 66.3036C279.936 66.5649 280.338 66.9336 280.646 67.4096C280.954 67.8763 281.108 68.4269 281.108 69.0616C281.108 69.6123 280.972 70.1396 280.702 70.6436C280.431 71.1476 280.039 71.5583 279.526 71.8756C279.022 72.1929 278.42 72.3516 277.72 72.3516ZM277.636 71.3156C278.074 71.3156 278.466 71.2223 278.812 71.0356C279.157 70.8489 279.428 70.5923 279.624 70.2656C279.82 69.9296 279.918 69.5469 279.918 69.1176C279.918 68.4549 279.698 67.9276 279.26 67.5356C278.83 67.1343 278.289 66.9336 277.636 66.9336C277.197 66.9336 276.805 67.0363 276.46 67.2416C276.114 67.4376 275.839 67.7036 275.634 68.0396C275.438 68.3756 275.34 68.7396 275.34 69.1316C275.34 69.5516 275.438 69.9296 275.634 70.2656C275.839 70.5923 276.114 70.8489 276.46 71.0356C276.805 71.2223 277.197 71.3156 277.636 71.3156ZM286.832 72.3516C285.964 72.3516 285.213 72.1416 284.578 71.7216C283.953 71.2923 283.472 70.6996 283.136 69.9436C282.8 69.1783 282.632 68.2916 282.632 67.2836C282.632 66.2756 282.8 65.3936 283.136 64.6376C283.472 63.8723 283.953 63.2796 284.578 62.8596C285.213 62.4303 285.964 62.2156 286.832 62.2156C287.7 62.2156 288.447 62.4303 289.072 62.8596C289.697 63.2796 290.178 63.8723 290.514 64.6376C290.85 65.3936 291.018 66.2756 291.018 67.2836C291.018 68.2916 290.85 69.1783 290.514 69.9436C290.178 70.6996 289.697 71.2923 289.072 71.7216C288.447 72.1416 287.7 72.3516 286.832 72.3516ZM286.832 71.3156C287.401 71.3156 287.91 71.1569 288.358 70.8396C288.815 70.5129 289.17 70.0509 289.422 69.4536C289.683 68.8469 289.814 68.1236 289.814 67.2836C289.814 66.4436 289.683 65.7249 289.422 65.1276C289.17 64.5303 288.815 64.0729 288.358 63.7556C287.91 63.4289 287.401 63.2656 286.832 63.2656C286.253 63.2656 285.74 63.4289 285.292 63.7556C284.844 64.0729 284.489 64.5303 284.228 65.1276C283.967 65.7249 283.836 66.4436 283.836 67.2836C283.836 68.1236 283.967 68.8469 284.228 69.4536C284.489 70.0509 284.844 70.5129 285.292 70.8396C285.74 71.1569 286.253 71.3156 286.832 71.3156Z" fill="black"/>
<path d="M301.263 72.3516C300.647 72.3516 300.119 72.2303 299.681 71.9876C299.242 71.7449 298.892 71.4229 298.631 71.0216C298.379 70.6109 298.225 70.1583 298.169 69.6636H299.261C299.354 70.1956 299.578 70.6063 299.933 70.8956C300.287 71.1849 300.735 71.3296 301.277 71.3296C302.023 71.3296 302.644 70.9843 303.139 70.2936C303.633 69.5936 303.899 68.5063 303.937 67.0316C303.713 67.4703 303.353 67.8529 302.859 68.1796C302.373 68.4969 301.785 68.6556 301.095 68.6556C300.544 68.6556 300.021 68.5249 299.527 68.2636C299.032 68.0023 298.631 67.6383 298.323 67.1716C298.015 66.6956 297.861 66.1403 297.861 65.5056C297.861 64.9549 297.996 64.4276 298.267 63.9236C298.547 63.4196 298.939 63.0089 299.443 62.6916C299.947 62.3743 300.549 62.2156 301.249 62.2156C301.958 62.2156 302.555 62.3509 303.041 62.6216C303.526 62.8829 303.913 63.2376 304.203 63.6856C304.501 64.1336 304.716 64.6376 304.847 65.1976C304.987 65.7483 305.057 66.3129 305.057 66.8916C305.057 67.9743 304.907 68.9263 304.609 69.7476C304.31 70.5596 303.876 71.1989 303.307 71.6656C302.747 72.1229 302.065 72.3516 301.263 72.3516ZM301.333 67.6336C301.771 67.6336 302.163 67.5356 302.509 67.3396C302.854 67.1343 303.129 66.8636 303.335 66.5276C303.54 66.1916 303.643 65.8276 303.643 65.4356C303.643 65.0156 303.54 64.6423 303.335 64.3156C303.129 63.9796 302.854 63.7183 302.509 63.5316C302.163 63.3449 301.771 63.2516 301.333 63.2516C300.894 63.2516 300.502 63.3449 300.157 63.5316C299.811 63.7183 299.541 63.9796 299.345 64.3156C299.149 64.6423 299.051 65.0203 299.051 65.4496C299.051 66.1123 299.265 66.6443 299.695 67.0456C300.133 67.4376 300.679 67.6336 301.333 67.6336ZM310.179 72.3516C309.507 72.3516 308.924 72.2303 308.429 71.9876C307.934 71.7449 307.538 71.4136 307.239 70.9936C306.95 70.5643 306.772 70.0789 306.707 69.5376H307.855C307.967 70.0789 308.228 70.5176 308.639 70.8536C309.05 71.1803 309.568 71.3436 310.193 71.3436C310.66 71.3436 311.061 71.2363 311.397 71.0216C311.733 70.7976 311.99 70.4989 312.167 70.1256C312.354 69.7523 312.447 69.3369 312.447 68.8796C312.447 68.1516 312.242 67.5636 311.831 67.1156C311.42 66.6676 310.888 66.4436 310.235 66.4436C309.694 66.4436 309.232 66.5649 308.849 66.8076C308.466 67.0503 308.186 67.3676 308.009 67.7596H306.889L307.729 62.3836H312.867L312.867 63.4056H308.639L308.065 66.3876C308.289 66.1169 308.597 65.8929 308.989 65.7156C309.39 65.5383 309.848 65.4496 310.361 65.4496C311.005 65.4496 311.565 65.5989 312.041 65.8976C312.526 66.1963 312.904 66.6023 313.175 67.1156C313.446 67.6289 313.581 68.2123 313.581 68.8656C313.581 69.4909 313.446 70.0696 313.175 70.6016C312.914 71.1336 312.526 71.5583 312.013 71.8756C311.509 72.1929 310.898 72.3516 310.179 72.3516Z" fill="black"/>
<path d="M37.7703 166.348C36.8089 166.348 35.9783 166.138 35.2783 165.718C34.5876 165.288 34.0509 164.696 33.6683 163.94C33.2856 163.174 33.0943 162.288 33.0943 161.28C33.0943 160.281 33.2856 159.404 33.6683 158.648C34.0509 157.882 34.5876 157.285 35.2783 156.856C35.9783 156.426 36.8089 156.212 37.7703 156.212C38.8903 156.212 39.8003 156.482 40.5003 157.024C41.2096 157.556 41.6623 158.302 41.8583 159.264H40.5563C40.4069 158.657 40.0989 158.172 39.6323 157.808C39.1749 157.434 38.5543 157.248 37.7703 157.248C37.0703 157.248 36.4589 157.411 35.9363 157.738C35.4136 158.055 35.0076 158.517 34.7183 159.124C34.4383 159.721 34.2983 160.44 34.2983 161.28C34.2983 162.12 34.4383 162.843 34.7183 163.45C35.0076 164.047 35.4136 164.509 35.9363 164.836C36.4589 165.153 37.0703 165.312 37.7703 165.312C38.5543 165.312 39.1749 165.134 39.6323 164.78C40.0989 164.416 40.4069 163.935 40.5563 163.338H41.8583C41.6623 164.28 41.2096 165.018 40.5003 165.55C39.8003 166.082 38.8903 166.348 37.7703 166.348ZM43.4785 166.18L43.4785 156.1H44.6545L44.6545 166.18H43.4785ZM49.746 166.348C49.0926 166.348 48.5046 166.198 47.982 165.9C47.4593 165.601 47.044 165.181 46.736 164.64C46.4373 164.089 46.288 163.445 46.288 162.708C46.288 161.97 46.442 161.331 46.75 160.79C47.058 160.239 47.4733 159.814 47.996 159.516C48.528 159.217 49.1206 159.068 49.774 159.068C50.4273 159.068 51.0153 159.217 51.538 159.516C52.0606 159.814 52.4713 160.239 52.77 160.79C53.078 161.331 53.232 161.97 53.232 162.708C53.232 163.445 53.078 164.089 52.77 164.64C52.462 165.181 52.042 165.601 51.51 165.9C50.9873 166.198 50.3993 166.348 49.746 166.348ZM49.746 165.34C50.1473 165.34 50.5206 165.242 50.866 165.046C51.2113 164.85 51.4913 164.556 51.706 164.164C51.9206 163.772 52.028 163.286 52.028 162.708C52.028 162.129 51.9206 161.644 51.706 161.252C51.5006 160.86 51.2253 160.566 50.88 160.37C50.5346 160.174 50.166 160.076 49.774 160.076C49.3726 160.076 48.9993 160.174 48.654 160.37C48.3086 160.566 48.0286 160.86 47.814 161.252C47.5993 161.644 47.492 162.129 47.492 162.708C47.492 163.286 47.5993 163.772 47.814 164.164C48.0286 164.556 48.304 164.85 48.64 165.046C48.9853 165.242 49.354 165.34 49.746 165.34ZM57.4011 166.348C56.5798 166.348 55.9265 166.1 55.4411 165.606C54.9558 165.102 54.7131 164.332 54.7131 163.296L54.7131 159.236H55.8891L55.8891 163.17C55.8891 164.616 56.4818 165.34 57.6671 165.34C58.2738 165.34 58.7731 165.125 59.1651 164.696C59.5665 164.257 59.7671 163.636 59.7671 162.834L59.7671 159.236H60.9431L60.9431 166.18H59.8791L59.7951 164.934C59.5805 165.372 59.2585 165.718 58.8291 165.97C58.4091 166.222 57.9331 166.348 57.4011 166.348ZM66.0288 166.348C65.3382 166.348 64.7315 166.189 64.2088 165.872C63.6955 165.554 63.2942 165.12 63.0048 164.57C62.7248 164.019 62.5848 163.394 62.5848 162.694C62.5848 161.994 62.7295 161.373 63.0188 160.832C63.3082 160.281 63.7095 159.852 64.2228 159.544C64.7362 159.226 65.3428 159.068 66.0428 159.068C66.6122 159.068 67.1162 159.184 67.5548 159.418C67.9935 159.651 68.3342 159.978 68.5768 160.398L68.5768 156.1H69.7528L69.7528 166.18H68.6888L68.5768 165.032C68.3528 165.368 68.0308 165.671 67.6108 165.942C67.1908 166.212 66.6635 166.348 66.0288 166.348ZM66.1548 165.326C66.6215 165.326 67.0322 165.218 67.3868 165.004C67.7508 164.78 68.0308 164.472 68.2268 164.08C68.4322 163.688 68.5348 163.23 68.5348 162.708C68.5348 162.185 68.4322 161.728 68.2268 161.336C68.0308 160.944 67.7508 160.64 67.3868 160.426C67.0322 160.202 66.6215 160.09 66.1548 160.09C65.6975 160.09 65.2868 160.202 64.9228 160.426C64.5682 160.64 64.2882 160.944 64.0828 161.336C63.8868 161.728 63.7888 162.185 63.7888 162.708C63.7888 163.23 63.8868 163.688 64.0828 164.08C64.2882 164.472 64.5682 164.78 64.9228 165.004C65.2868 165.218 65.6975 165.326 66.1548 165.326Z" fill="black"/>
<path d="M37.7703 209.834C36.8089 209.834 35.9783 209.624 35.2783 209.204C34.5876 208.775 34.0509 208.182 33.6683 207.426C33.2856 206.661 33.0943 205.774 33.0943 204.766C33.0943 203.767 33.2856 202.89 33.6683 202.134C34.0509 201.369 34.5876 200.771 35.2783 200.342C35.9783 199.913 36.8089 199.698 37.7703 199.698C38.8903 199.698 39.8003 199.969 40.5003 200.51C41.2096 201.042 41.6623 201.789 41.8583 202.75H40.5563C40.4069 202.143 40.0989 201.658 39.6323 201.294C39.1749 200.921 38.5543 200.734 37.7703 200.734C37.0703 200.734 36.4589 200.897 35.9363 201.224C35.4136 201.541 35.0076 202.003 34.7183 202.61C34.4383 203.207 34.2983 203.926 34.2983 204.766C34.2983 205.606 34.4383 206.329 34.7183 206.936C35.0076 207.533 35.4136 207.995 35.9363 208.322C36.4589 208.639 37.0703 208.798 37.7703 208.798C38.5543 208.798 39.1749 208.621 39.6323 208.266C40.0989 207.902 40.4069 207.421 40.5563 206.824H41.8583C41.6623 207.767 41.2096 208.504 40.5003 209.036C39.8003 209.568 38.8903 209.834 37.7703 209.834ZM43.4785 209.666L43.4785 199.586H44.6545L44.6545 209.666H43.4785ZM49.746 209.834C49.0926 209.834 48.5046 209.685 47.982 209.386C47.4593 209.087 47.044 208.667 46.736 208.126C46.4373 207.575 46.288 206.931 46.288 206.194C46.288 205.457 46.442 204.817 46.75 204.276C47.058 203.725 47.4733 203.301 47.996 203.002C48.528 202.703 49.1206 202.554 49.774 202.554C50.4273 202.554 51.0153 202.703 51.538 203.002C52.0606 203.301 52.4713 203.725 52.77 204.276C53.078 204.817 53.232 205.457 53.232 206.194C53.232 206.931 53.078 207.575 52.77 208.126C52.462 208.667 52.042 209.087 51.51 209.386C50.9873 209.685 50.3993 209.834 49.746 209.834ZM49.746 208.826C50.1473 208.826 50.5206 208.728 50.866 208.532C51.2113 208.336 51.4913 208.042 51.706 207.65C51.9206 207.258 52.028 206.773 52.028 206.194C52.028 205.615 51.9206 205.13 51.706 204.738C51.5006 204.346 51.2253 204.052 50.88 203.856C50.5346 203.66 50.166 203.562 49.774 203.562C49.3726 203.562 48.9993 203.66 48.654 203.856C48.3086 204.052 48.0286 204.346 47.814 204.738C47.5993 205.13 47.492 205.615 47.492 206.194C47.492 206.773 47.5993 207.258 47.814 207.65C48.0286 208.042 48.304 208.336 48.64 208.532C48.9853 208.728 49.354 208.826 49.746 208.826ZM57.4011 209.834C56.5798 209.834 55.9265 209.587 55.4411 209.092C54.9558 208.588 54.7131 207.818 54.7131 206.782L54.7131 202.722H55.8891L55.8891 206.656C55.8891 208.103 56.4818 208.826 57.6671 208.826C58.2738 208.826 58.7731 208.611 59.1651 208.182C59.5665 207.743 59.7671 207.123 59.7671 206.32L59.7671 202.722H60.9431L60.9431 209.666H59.8791L59.7951 208.42C59.5805 208.859 59.2585 209.204 58.8291 209.456C58.4091 209.708 57.9331 209.834 57.4011 209.834ZM66.0288 209.834C65.3382 209.834 64.7315 209.675 64.2088 209.358C63.6955 209.041 63.2942 208.607 63.0048 208.056C62.7248 207.505 62.5848 206.88 62.5848 206.18C62.5848 205.48 62.7295 204.859 63.0188 204.318C63.3082 203.767 63.7095 203.338 64.2228 203.03C64.7362 202.713 65.3428 202.554 66.0428 202.554C66.6122 202.554 67.1162 202.671 67.5548 202.904C67.9935 203.137 68.3342 203.464 68.5768 203.884L68.5768 199.586H69.7528L69.7528 209.666H68.6888L68.5768 208.518C68.3528 208.854 68.0308 209.157 67.6108 209.428C67.1908 209.699 66.6635 209.834 66.0288 209.834ZM66.1548 208.812C66.6215 208.812 67.0322 208.705 67.3868 208.49C67.7508 208.266 68.0308 207.958 68.2268 207.566C68.4322 207.174 68.5348 206.717 68.5348 206.194C68.5348 205.671 68.4322 205.214 68.2268 204.822C68.0308 204.43 67.7508 204.127 67.3868 203.912C67.0322 203.688 66.6215 203.576 66.1548 203.576C65.6975 203.576 65.2868 203.688 64.9228 203.912C64.5682 204.127 64.2882 204.43 64.0828 204.822C63.8868 205.214 63.7888 205.671 63.7888 206.194C63.7888 206.717 63.8868 207.174 64.0828 207.566C64.2882 207.958 64.5682 208.266 64.9228 208.49C65.2868 208.705 65.6975 208.812 66.1548 208.812ZM46.0262 224.834C45.3636 224.834 44.7756 224.685 44.2622 224.386C43.7489 224.078 43.3429 223.653 43.0442 223.112C42.7549 222.571 42.6102 221.931 42.6102 221.194C42.6102 220.466 42.7549 219.831 43.0442 219.29C43.3336 218.739 43.7349 218.315 44.2482 218.016C44.7709 217.708 45.3729 217.554 46.0542 217.554C46.7262 217.554 47.3049 217.708 47.7902 218.016C48.2849 218.315 48.6629 218.711 48.9242 219.206C49.1856 219.701 49.3162 220.233 49.3162 220.802C49.3162 220.905 49.3116 221.007 49.3022 221.11C49.3022 221.213 49.3022 221.329 49.3022 221.46H43.7722C43.8002 221.992 43.9216 222.435 44.1362 222.79C44.3602 223.135 44.6356 223.397 44.9622 223.574C45.2982 223.751 45.6529 223.84 46.0262 223.84C46.5116 223.84 46.9176 223.728 47.2442 223.504C47.5709 223.28 47.8089 222.977 47.9582 222.594H49.1202C48.9336 223.238 48.5742 223.775 48.0422 224.204C47.5196 224.624 46.8476 224.834 46.0262 224.834ZM46.0262 218.548C45.4662 218.548 44.9669 218.721 44.5282 219.066C44.0989 219.402 43.8516 219.897 43.7862 220.55H48.1542C48.1262 219.925 47.9116 219.435 47.5102 219.08C47.1089 218.725 46.6142 218.548 46.0262 218.548ZM52.6035 224.666L49.9715 217.722H51.2035L53.2895 223.532L55.3895 217.722H56.5935L53.9615 224.666H52.6035ZM60.7108 224.834C60.0575 224.834 59.4695 224.685 58.9468 224.386C58.4241 224.087 58.0088 223.667 57.7008 223.126C57.4021 222.575 57.2528 221.931 57.2528 221.194C57.2528 220.457 57.4068 219.817 57.7148 219.276C58.0228 218.725 58.4381 218.301 58.9608 218.002C59.4928 217.703 60.0855 217.554 60.7388 217.554C61.3921 217.554 61.9801 217.703 62.5028 218.002C63.0255 218.301 63.4361 218.725 63.7348 219.276C64.0428 219.817 64.1968 220.457 64.1968 221.194C64.1968 221.931 64.0428 222.575 63.7348 223.126C63.4268 223.667 63.0068 224.087 62.4748 224.386C61.9521 224.685 61.3641 224.834 60.7108 224.834ZM60.7108 223.826C61.1121 223.826 61.4855 223.728 61.8308 223.532C62.1761 223.336 62.4561 223.042 62.6708 222.65C62.8855 222.258 62.9928 221.773 62.9928 221.194C62.9928 220.615 62.8855 220.13 62.6708 219.738C62.4655 219.346 62.1901 219.052 61.8448 218.856C61.4995 218.66 61.1308 218.562 60.7388 218.562C60.3375 218.562 59.9641 218.66 59.6188 218.856C59.2735 219.052 58.9935 219.346 58.7788 219.738C58.5641 220.13 58.4568 220.615 58.4568 221.194C58.4568 221.773 58.5641 222.258 58.7788 222.65C58.9935 223.042 59.2688 223.336 59.6048 223.532C59.9501 223.728 60.3188 223.826 60.7108 223.826ZM65.832 224.666L65.832 214.586H67.008L67.008 224.666H65.832ZM69.3415 224.736C69.1082 224.736 68.9122 224.661 68.7535 224.512C68.6042 224.353 68.5295 224.162 68.5295 223.938C68.5295 223.714 68.6042 223.527 68.7535 223.378C68.9122 223.219 69.1082 223.14 69.3415 223.14C69.5655 223.14 69.7522 223.219 69.9015 223.378C70.0602 223.527 70.1395 223.714 70.1395 223.938C70.1395 224.162 70.0602 224.353 69.9015 224.512C69.7522 224.661 69.5655 224.736 69.3415 224.736Z" fill="black"/>
<path d="M47.4313 271.477L47.4313 261.677H53.4933L53.4933 262.643H48.6073L48.6073 266.059H53.0733L53.0733 267.011H48.6073L48.6073 270.511H53.4933L53.4933 271.477H47.4313ZM55.3336 271.477L55.3336 261.677H58.4976C59.2629 261.677 59.8883 261.803 60.3736 262.055C60.8589 262.307 61.2183 262.652 61.4516 263.091C61.6849 263.529 61.8016 264.015 61.8016 264.547C61.8016 265.163 61.6336 265.718 61.2976 266.213C60.9709 266.707 60.4576 267.057 59.7576 267.263L61.8996 271.477H60.5136L58.5256 267.431H58.4416H56.5096L56.5096 271.477H55.3336ZM56.5096 266.507H58.4136C59.1696 266.507 59.7203 266.325 60.0656 265.961C60.4109 265.597 60.5836 265.13 60.5836 264.561C60.5836 263.982 60.4109 263.525 60.0656 263.189C59.7296 262.843 59.1743 262.671 58.3996 262.671H56.5096L56.5096 266.507ZM63.6324 271.477L63.6324 261.677H66.8524C67.6178 261.677 68.2478 261.803 68.7424 262.055C69.2371 262.307 69.6011 262.647 69.8344 263.077C70.0771 263.506 70.1984 263.991 70.1984 264.533C70.1984 265.065 70.0818 265.545 69.8484 265.975C69.6151 266.404 69.2511 266.749 68.7564 267.011C68.2618 267.263 67.6271 267.389 66.8524 267.389H64.8084L64.8084 271.477H63.6324ZM64.8084 266.395H66.8244C67.6084 266.395 68.1638 266.231 68.4904 265.905C68.8264 265.569 68.9944 265.111 68.9944 264.533C68.9944 263.945 68.8264 263.487 68.4904 263.161C68.1638 262.825 67.6084 262.657 66.8244 262.657H64.8084L64.8084 266.395Z" fill="black"/>
<path d="M45.8093 324.289C44.848 324.289 44.0173 324.079 43.3173 323.659C42.6267 323.23 42.09 322.637 41.7073 321.881C41.3247 321.116 41.1333 320.229 41.1333 319.221C41.1333 318.222 41.3247 317.345 41.7073 316.589C42.09 315.824 42.6267 315.226 43.3173 314.797C44.0173 314.368 44.848 314.153 45.8093 314.153C46.9293 314.153 47.8393 314.424 48.5393 314.965C49.2487 315.497 49.7013 316.244 49.8973 317.205H48.5953C48.446 316.598 48.138 316.113 47.6713 315.749C47.214 315.376 46.5933 315.189 45.8093 315.189C45.1093 315.189 44.498 315.352 43.9753 315.679C43.4527 315.996 43.0467 316.458 42.7573 317.065C42.4773 317.662 42.3373 318.381 42.3373 319.221C42.3373 320.061 42.4773 320.784 42.7573 321.391C43.0467 321.988 43.4527 322.45 43.9753 322.777C44.498 323.094 45.1093 323.253 45.8093 323.253C46.5933 323.253 47.214 323.076 47.6713 322.721C48.138 322.357 48.446 321.876 48.5953 321.279H49.8973C49.7013 322.222 49.2487 322.959 48.5393 323.491C47.8393 324.023 46.9293 324.289 45.8093 324.289ZM51.5875 324.121L51.5875 314.321H54.7515C55.5168 314.321 56.1422 314.447 56.6275 314.699C57.1128 314.951 57.4722 315.296 57.7055 315.735C57.9388 316.174 58.0555 316.659 58.0555 317.191C58.0555 317.807 57.8875 318.362 57.5515 318.857C57.2248 319.352 56.7115 319.702 56.0115 319.907L58.1535 324.121H56.7675L54.7795 320.075H54.6955H52.7635L52.7635 324.121H51.5875ZM52.7635 319.151H54.6675C55.4235 319.151 55.9742 318.969 56.3195 318.605C56.6648 318.241 56.8375 317.774 56.8375 317.205C56.8375 316.626 56.6648 316.169 56.3195 315.833C55.9835 315.488 55.4282 315.315 54.6535 315.315H52.7635L52.7635 319.151ZM59.8863 324.121L59.8863 314.321H61.2583L64.7863 321.153L68.2863 314.321H69.6723L69.6723 324.121H68.4963L68.4963 316.421L65.2203 322.721H64.3383L61.0623 316.435L61.0623 324.121H59.8863Z" fill="black"/>
<path d="M51.2594 376.768L51.2594 366.968H52.4354L52.4354 375.83H56.9994L56.9994 376.768H51.2594ZM61.4081 376.936C60.7547 376.936 60.1667 376.786 59.6441 376.488C59.1214 376.189 58.7061 375.769 58.3981 375.228C58.0994 374.677 57.9501 374.033 57.9501 373.296C57.9501 372.558 58.1041 371.919 58.4121 371.378C58.7201 370.827 59.1354 370.402 59.6581 370.104C60.1901 369.805 60.7827 369.656 61.4361 369.656C62.0894 369.656 62.6774 369.805 63.2001 370.104C63.7227 370.402 64.1334 370.827 64.4321 371.378C64.7401 371.919 64.8941 372.558 64.8941 373.296C64.8941 374.033 64.7401 374.677 64.4321 375.228C64.1241 375.769 63.7041 376.189 63.1721 376.488C62.6494 376.786 62.0614 376.936 61.4081 376.936ZM61.4081 375.928C61.8094 375.928 62.1827 375.83 62.5281 375.634C62.8734 375.438 63.1534 375.144 63.3681 374.752C63.5827 374.36 63.6901 373.874 63.6901 373.296C63.6901 372.717 63.5827 372.232 63.3681 371.84C63.1627 371.448 62.8874 371.154 62.5421 370.958C62.1967 370.762 61.8281 370.664 61.4361 370.664C61.0347 370.664 60.6614 370.762 60.3161 370.958C59.9707 371.154 59.6907 371.448 59.4761 371.84C59.2614 372.232 59.1541 372.717 59.1541 373.296C59.1541 373.874 59.2614 374.36 59.4761 374.752C59.6907 375.144 59.9661 375.438 60.3021 375.634C60.6474 375.83 61.0161 375.928 61.4081 375.928ZM68.9998 376.768C68.3651 376.768 67.8658 376.614 67.5018 376.306C67.1378 375.998 66.9558 375.442 66.9558 374.64L66.9558 370.818H65.7518L65.7518 369.824H66.9558L67.1098 368.158H68.1318L68.1318 369.824H70.1758L70.1758 370.818H68.1318L68.1318 374.64C68.1318 375.078 68.2205 375.377 68.3978 375.536C68.5751 375.685 68.8878 375.76 69.3358 375.76H70.0638L70.0638 376.768H68.9998Z" fill="black"/>
<path d="M29.8953 422.084C28.9339 422.084 28.1033 421.874 27.4033 421.454C26.7126 421.025 26.1759 420.432 25.7933 419.676C25.4106 418.911 25.2193 418.024 25.2193 417.016C25.2193 416.017 25.4106 415.14 25.7933 414.384C26.1759 413.619 26.7126 413.021 27.4033 412.592C28.1033 412.163 28.9339 411.948 29.8953 411.948C31.0153 411.948 31.9253 412.219 32.6253 412.76C33.3346 413.292 33.7873 414.039 33.9833 415H32.6813C32.5319 414.393 32.2239 413.908 31.7573 413.544C31.2999 413.171 30.6793 412.984 29.8953 412.984C29.1953 412.984 28.5839 413.147 28.0613 413.474C27.5386 413.791 27.1326 414.253 26.8433 414.86C26.5633 415.457 26.4233 416.176 26.4233 417.016C26.4233 417.856 26.5633 418.579 26.8433 419.186C27.1326 419.783 27.5386 420.245 28.0613 420.572C28.5839 420.889 29.1953 421.048 29.8953 421.048C30.6793 421.048 31.2999 420.871 31.7573 420.516C32.2239 420.152 32.5319 419.671 32.6813 419.074H33.9833C33.7873 420.017 33.3346 420.754 32.6253 421.286C31.9253 421.818 31.0153 422.084 29.8953 422.084ZM38.7675 422.084C38.1141 422.084 37.5261 421.935 37.0035 421.636C36.4808 421.337 36.0655 420.917 35.7575 420.376C35.4588 419.825 35.3095 419.181 35.3095 418.444C35.3095 417.707 35.4635 417.067 35.7715 416.526C36.0795 415.975 36.4948 415.551 37.0175 415.252C37.5495 414.953 38.1421 414.804 38.7955 414.804C39.4488 414.804 40.0368 414.953 40.5595 415.252C41.0821 415.551 41.4928 415.975 41.7915 416.526C42.0995 417.067 42.2535 417.707 42.2535 418.444C42.2535 419.181 42.0995 419.825 41.7915 420.376C41.4835 420.917 41.0635 421.337 40.5315 421.636C40.0088 421.935 39.4208 422.084 38.7675 422.084ZM38.7675 421.076C39.1688 421.076 39.5421 420.978 39.8875 420.782C40.2328 420.586 40.5128 420.292 40.7275 419.9C40.9421 419.508 41.0495 419.023 41.0495 418.444C41.0495 417.865 40.9421 417.38 40.7275 416.988C40.5221 416.596 40.2468 416.302 39.9015 416.106C39.5561 415.91 39.1875 415.812 38.7955 415.812C38.3941 415.812 38.0208 415.91 37.6755 416.106C37.3301 416.302 37.0501 416.596 36.8355 416.988C36.6208 417.38 36.5135 417.865 36.5135 418.444C36.5135 419.023 36.6208 419.508 36.8355 419.9C37.0501 420.292 37.3255 420.586 37.6615 420.782C38.0068 420.978 38.3755 421.076 38.7675 421.076ZM43.8886 421.916L43.8886 414.972H44.9526L45.0366 415.98C45.2606 415.607 45.5593 415.317 45.9326 415.112C46.3059 414.907 46.7259 414.804 47.1926 414.804C47.7433 414.804 48.2146 414.916 48.6066 415.14C49.0079 415.364 49.3159 415.705 49.5306 416.162C49.7733 415.742 50.1046 415.411 50.5246 415.168C50.9539 414.925 51.4159 414.804 51.9106 414.804C52.7413 414.804 53.4039 415.056 53.8986 415.56C54.3933 416.055 54.6406 416.82 54.6406 417.856L54.6406 421.916H53.4786L53.4786 417.982C53.4786 417.263 53.3339 416.722 53.0446 416.358C52.7553 415.994 52.3399 415.812 51.7986 415.812C51.2386 415.812 50.7719 416.031 50.3986 416.47C50.0346 416.899 49.8526 417.515 49.8526 418.318L49.8526 421.916H48.6766L48.6766 417.982C48.6766 417.263 48.5319 416.722 48.2426 416.358C47.9533 415.994 47.5379 415.812 46.9966 415.812C46.4459 415.812 45.9839 416.031 45.6106 416.47C45.2466 416.899 45.0646 417.515 45.0646 418.318L45.0646 421.916H43.8886ZM56.412 421.916L56.412 414.972H57.476L57.56 415.98C57.784 415.607 58.0827 415.317 58.456 415.112C58.8294 414.907 59.2494 414.804 59.716 414.804C60.2667 414.804 60.738 414.916 61.13 415.14C61.5314 415.364 61.8394 415.705 62.054 416.162C62.2967 415.742 62.628 415.411 63.048 415.168C63.4774 414.925 63.9394 414.804 64.434 414.804C65.2647 414.804 65.9274 415.056 66.422 415.56C66.9167 416.055 67.164 416.82 67.164 417.856L67.164 421.916H66.002L66.002 417.982C66.002 417.263 65.8574 416.722 65.568 416.358C65.2787 415.994 64.8634 415.812 64.322 415.812C63.762 415.812 63.2954 416.031 62.922 416.47C62.558 416.899 62.376 417.515 62.376 418.318L62.376 421.916H61.2L61.2 417.982C61.2 417.263 61.0554 416.722 60.766 416.358C60.4767 415.994 60.0614 415.812 59.52 415.812C58.9694 415.812 58.5074 416.031 58.134 416.47C57.77 416.899 57.588 417.515 57.588 418.318L57.588 421.916H56.412ZM69.3415 421.986C69.1081 421.986 68.9121 421.911 68.7535 421.762C68.6041 421.603 68.5295 421.412 68.5295 421.188C68.5295 420.964 68.6041 420.777 68.7535 420.628C68.9121 420.469 69.1081 420.39 69.3415 420.39C69.5655 420.39 69.7521 420.469 69.9015 420.628C70.0601 420.777 70.1395 420.964 70.1395 421.188C70.1395 421.412 70.0601 421.603 69.9015 421.762C69.7521 421.911 69.5655 421.986 69.3415 421.986ZM60.9833 437.084C60.3206 437.084 59.7326 436.935 59.2193 436.636C58.7059 436.328 58.2999 435.903 58.0013 435.362C57.7119 434.821 57.5673 434.181 57.5673 433.444C57.5673 432.716 57.7119 432.081 58.0013 431.54C58.2906 430.989 58.6919 430.565 59.2053 430.266C59.7279 429.958 60.3299 429.804 61.0113 429.804C61.6833 429.804 62.2619 429.958 62.7473 430.266C63.2419 430.565 63.6199 430.961 63.8813 431.456C64.1426 431.951 64.2733 432.483 64.2733 433.052C64.2733 433.155 64.2686 433.257 64.2593 433.36C64.2593 433.463 64.2593 433.579 64.2593 433.71H58.7293C58.7573 434.242 58.8786 434.685 59.0933 435.04C59.3173 435.385 59.5926 435.647 59.9193 435.824C60.2553 436.001 60.6099 436.09 60.9833 436.09C61.4686 436.09 61.8746 435.978 62.2013 435.754C62.5279 435.53 62.7659 435.227 62.9153 434.844H64.0773C63.8906 435.488 63.5313 436.025 62.9993 436.454C62.4766 436.874 61.8046 437.084 60.9833 437.084ZM60.9833 430.798C60.4233 430.798 59.9239 430.971 59.4853 431.316C59.0559 431.652 58.8086 432.147 58.7433 432.8H63.1113C63.0833 432.175 62.8686 431.685 62.4673 431.33C62.0659 430.975 61.5713 430.798 60.9833 430.798ZM65.832 436.916L65.832 426.836H67.008L67.008 436.916H65.832ZM69.3415 436.986C69.1082 436.986 68.9122 436.911 68.7535 436.762C68.6042 436.603 68.5295 436.412 68.5295 436.188C68.5295 435.964 68.6042 435.777 68.7535 435.628C68.9122 435.469 69.1082 435.39 69.3415 435.39C69.5655 435.39 69.7522 435.469 69.9015 435.628C70.0602 435.777 70.1395 435.964 70.1395 436.188C70.1395 436.412 70.0602 436.603 69.9015 436.762C69.7522 436.911 69.5655 436.986 69.3415 436.986Z" fill="black"/>
<path d="M52.2438 474.213L52.2438 464.413H55.6878C56.3784 464.413 56.9478 464.525 57.3958 464.749C57.8531 464.964 58.1938 465.262 58.4178 465.645C58.6418 466.018 58.7538 466.438 58.7538 466.905C58.7538 467.54 58.5811 468.039 58.2358 468.403C57.8998 468.767 57.4938 469.019 57.0178 469.159C57.3818 469.224 57.7131 469.369 58.0118 469.593C58.3104 469.817 58.5438 470.097 58.7118 470.433C58.8891 470.769 58.9778 471.138 58.9778 471.539C58.9778 472.034 58.8564 472.486 58.6138 472.897C58.3711 473.298 58.0118 473.62 57.5358 473.863C57.0598 474.096 56.4811 474.213 55.7998 474.213H52.2438ZM53.4198 468.697H55.6038C56.2291 468.697 56.7098 468.552 57.0458 468.263C57.3818 467.964 57.5498 467.554 57.5498 467.031C57.5498 466.536 57.3818 466.14 57.0458 465.841C56.7191 465.542 56.2244 465.393 55.5618 465.393H53.4198L53.4198 468.697ZM53.4198 473.233H55.6738C56.3458 473.233 56.8638 473.079 57.2278 472.771C57.5918 472.454 57.7738 472.015 57.7738 471.455C57.7738 470.904 57.5824 470.466 57.1998 470.139C56.8171 469.803 56.2991 469.635 55.6458 469.635H53.4198L53.4198 473.233ZM61.3096 465.729C61.0763 465.729 60.8803 465.654 60.7216 465.505C60.5723 465.346 60.4976 465.15 60.4976 464.917C60.4976 464.693 60.5723 464.506 60.7216 464.357C60.8803 464.208 61.0763 464.133 61.3096 464.133C61.5336 464.133 61.725 464.208 61.8836 464.357C62.0423 464.506 62.1216 464.693 62.1216 464.917C62.1216 465.15 62.0423 465.346 61.8836 465.505C61.725 465.654 61.5336 465.729 61.3096 465.729ZM60.7216 474.213L60.7216 467.269H61.8976L61.8976 474.213H60.7216ZM66.6892 472.029C66.2972 472.029 65.9379 471.978 65.6112 471.875L64.9112 472.533C65.0139 472.608 65.1399 472.673 65.2892 472.729C65.4479 472.776 65.6719 472.822 65.9612 472.869C66.2506 472.906 66.6566 472.948 67.1792 472.995C68.1126 473.06 68.7799 473.275 69.1812 473.639C69.5826 474.003 69.7832 474.479 69.7832 475.067C69.7832 475.468 69.6712 475.851 69.4472 476.215C69.2326 476.579 68.8966 476.878 68.4392 477.111C67.9912 477.344 67.4126 477.461 66.7032 477.461C66.0779 477.461 65.5226 477.377 65.0372 477.209C64.5519 477.05 64.1739 476.803 63.9032 476.467C63.6326 476.14 63.4972 475.725 63.4972 475.221C63.4972 474.96 63.5672 474.675 63.7072 474.367C63.8472 474.068 64.1086 473.784 64.4912 473.513C64.2859 473.429 64.1086 473.34 63.9592 473.247C63.8192 473.144 63.6886 473.032 63.5672 472.911L63.5672 472.589L64.7572 471.413C64.2066 470.946 63.9312 470.33 63.9312 469.565C63.9312 469.108 64.0386 468.692 64.2532 468.319C64.4679 467.946 64.7806 467.652 65.1912 467.437C65.6019 467.213 66.1012 467.101 66.6892 467.101C67.0906 467.101 67.4546 467.157 67.7812 467.269H70.3432L70.3432 468.151L69.0412 468.207C69.3119 468.599 69.4472 469.052 69.4472 469.565C69.4472 470.022 69.3352 470.438 69.1112 470.811C68.8966 471.184 68.5839 471.483 68.1732 471.707C67.7719 471.922 67.2772 472.029 66.6892 472.029ZM66.6892 471.063C67.1839 471.063 67.5759 470.937 67.8652 470.685C68.1639 470.424 68.3132 470.05 68.3132 469.565C68.3132 469.089 68.1639 468.725 67.8652 468.473C67.5759 468.212 67.1839 468.081 66.6892 468.081C66.1852 468.081 65.7839 468.212 65.4852 468.473C65.1959 468.725 65.0512 469.089 65.0512 469.565C65.0512 470.05 65.1959 470.424 65.4852 470.685C65.7839 470.937 66.1852 471.063 66.6892 471.063ZM64.6452 475.109C64.6452 475.576 64.8412 475.921 65.2332 476.145C65.6252 476.378 66.1152 476.495 66.7032 476.495C67.2819 476.495 67.7439 476.369 68.0892 476.117C68.4439 475.865 68.6212 475.529 68.6212 475.109C68.6212 474.81 68.4999 474.549 68.2572 474.325C68.0146 474.11 67.5666 473.984 66.9132 473.947C66.3999 473.91 65.9566 473.863 65.5832 473.807C65.2006 474.012 64.9486 474.232 64.8272 474.465C64.7059 474.708 64.6452 474.922 64.6452 475.109ZM45.6577 489.381C44.9671 489.381 44.3604 489.222 43.8377 488.905C43.3244 488.588 42.9231 488.154 42.6337 487.603C42.3537 487.052 42.2137 486.427 42.2137 485.727C42.2137 485.027 42.3584 484.406 42.6477 483.865C42.9371 483.314 43.3384 482.885 43.8517 482.577C44.3651 482.26 44.9717 482.101 45.6717 482.101C46.2411 482.101 46.7451 482.218 47.1837 482.451C47.6224 482.684 47.9631 483.011 48.2057 483.431L48.2057 479.133H49.3817L49.3817 489.213H48.3178L48.2057 488.065C47.9817 488.401 47.6597 488.704 47.2397 488.975C46.8197 489.246 46.2924 489.381 45.6577 489.381ZM45.7837 488.359C46.2504 488.359 46.6611 488.252 47.0158 488.037C47.3797 487.813 47.6597 487.505 47.8558 487.113C48.0611 486.721 48.1637 486.264 48.1637 485.741C48.1637 485.218 48.0611 484.761 47.8557 484.369C47.6597 483.977 47.3797 483.674 47.0157 483.459C46.6611 483.235 46.2504 483.123 45.7837 483.123C45.3264 483.123 44.9157 483.235 44.5517 483.459C44.1971 483.674 43.9171 483.977 43.7117 484.369C43.5157 484.761 43.4177 485.218 43.4177 485.741C43.4177 486.264 43.5157 486.721 43.7117 487.113C43.9171 487.505 44.1971 487.813 44.5517 488.037C44.9157 488.252 45.3264 488.359 45.7837 488.359ZM53.6088 489.381C53.0301 489.381 52.5494 489.283 52.1668 489.087C51.7841 488.891 51.4994 488.63 51.3128 488.303C51.1261 487.976 51.0328 487.622 51.0328 487.239C51.0328 486.53 51.3034 485.984 51.8448 485.601C52.3861 485.218 53.1234 485.027 54.0568 485.027H55.9328L55.9328 484.943C55.9328 484.336 55.7741 483.879 55.4568 483.571C55.1394 483.254 54.7148 483.095 54.1828 483.095C53.7254 483.095 53.3288 483.212 52.9928 483.445C52.6661 483.669 52.4608 484 52.3768 484.439H51.1728C51.2194 483.935 51.3874 483.51 51.6768 483.165C51.9754 482.82 52.3441 482.558 52.7828 482.381C53.2214 482.194 53.6881 482.101 54.1828 482.101C55.1534 482.101 55.8814 482.362 56.3668 482.885C56.8614 483.398 57.1088 484.084 57.1088 484.943L57.1088 489.213H56.0588L55.9888 487.967C55.7928 488.359 55.5034 488.695 55.1208 488.975C54.7474 489.246 54.2434 489.381 53.6088 489.381ZM53.7908 488.387C54.2388 488.387 54.6214 488.27 54.9388 488.037C55.2654 487.804 55.5128 487.5 55.6808 487.127C55.8488 486.754 55.9328 486.362 55.9328 485.951L55.9328 485.937H54.1548C53.4641 485.937 52.9741 486.058 52.6848 486.301C52.4048 486.534 52.2648 486.828 52.2648 487.183C52.2648 487.547 52.3954 487.841 52.6568 488.065C52.9274 488.28 53.3054 488.387 53.7908 488.387ZM61.4256 489.213C60.7909 489.213 60.2916 489.059 59.9276 488.751C59.5636 488.443 59.3816 487.888 59.3816 487.085L59.3816 483.263H58.1776L58.1776 482.269H59.3816L59.5356 480.603H60.5576L60.5576 482.269H62.6016L62.6016 483.263H60.5576L60.5576 487.085C60.5576 487.524 60.6462 487.822 60.8236 487.981C61.0009 488.13 61.3136 488.205 61.7616 488.205H62.4896L62.4896 489.213H61.4256ZM66.4056 489.381C65.827 489.381 65.3463 489.283 64.9636 489.087C64.581 488.891 64.2963 488.63 64.1096 488.303C63.923 487.976 63.8296 487.622 63.8296 487.239C63.8296 486.53 64.1003 485.984 64.6416 485.601C65.183 485.218 65.9203 485.027 66.8536 485.027H68.7296L68.7296 484.943C68.7296 484.336 68.571 483.879 68.2536 483.571C67.9363 483.254 67.5116 483.095 66.9796 483.095C66.5223 483.095 66.1256 483.212 65.7896 483.445C65.463 483.669 65.2576 484 65.1736 484.439H63.9696C64.0163 483.935 64.1843 483.51 64.4736 483.165C64.7723 482.82 65.141 482.558 65.5796 482.381C66.0183 482.194 66.485 482.101 66.9796 482.101C67.9503 482.101 68.6783 482.362 69.1636 482.885C69.6583 483.398 69.9056 484.084 69.9056 484.943L69.9056 489.213H68.8556L68.7856 487.967C68.5896 488.359 68.3003 488.695 67.9176 488.975C67.5443 489.246 67.0403 489.381 66.4056 489.381ZM66.5876 488.387C67.0356 488.387 67.4183 488.27 67.7356 488.037C68.0623 487.804 68.3096 487.5 68.4776 487.127C68.6456 486.754 68.7296 486.362 68.7296 485.951L68.7296 485.937H66.9516C66.261 485.937 65.771 486.058 65.4816 486.301C65.2016 486.534 65.0616 486.828 65.0616 487.183C65.0616 487.547 65.1923 487.841 65.4536 488.065C65.7243 488.28 66.1023 488.387 66.5876 488.387Z" fill="black"/>
<circle cx="137.587" cy="109.033" r="5" fill="white" stroke="#F24E1E" stroke-width="2"/>
<circle cx="159.468" cy="109.056" r="5" fill="white" stroke="black" stroke-width="2"/>
<path d="M159.468 115.056V103.033" stroke="#F24E1E" stroke-width="2"/>
<circle cx="172.092" cy="161.692" r="5" fill="white" stroke="black" stroke-width="2"/>
<path d="M172.092 167.692V155.67" stroke="#F24E1E" stroke-width="2"/>
<rect x="184.544" y="109.057" width="9" height="9" transform="rotate(-45 184.544 109.057)" fill="#F24E1E"/>
<circle cx="190.2" cy="161.691" r="5" fill="white" stroke="#F24E1E" stroke-width="2"/>
<rect x="272.577" y="161.68" width="8" height="8" transform="rotate(-45 272.577 161.68)" fill="white" stroke="#F24E1E" stroke-width="2"/>
<rect x="184.543" y="218.236" width="8" height="8" transform="rotate(-45 184.543 218.236)" fill="white" stroke="#F24E1E" stroke-width="2"/>
<circle cx="142.284" cy="218.246" r="5" fill="white" stroke="#F24E1E" stroke-width="2"/>
<circle cx="135.438" cy="218.247" r="5" fill="white" stroke="black" stroke-width="2"/>
<path d="M135.438 224.247V212.225" stroke="#F24E1E" stroke-width="2"/>
<circle cx="179.272" cy="266.977" r="5" fill="white" stroke="#F24E1E" stroke-width="2"/>
<rect x="191.614" y="266.977" width="8" height="8" transform="rotate(-45 191.614 266.977)" fill="white" stroke="#F24E1E" stroke-width="2"/>
<rect x="217.937" y="266.977" width="9" height="9" transform="rotate(-45 217.937 266.977)" fill="#F24E1E"/>
<circle cx="244.099" cy="266.987" r="5" fill="white" stroke="black" stroke-width="2"/>
<path d="M244.099 272.987V260.965" stroke="#F24E1E" stroke-width="2"/>
<rect x="160.895" y="319.621" width="8" height="8" transform="rotate(-45 160.895 319.621)" fill="white" stroke="#F24E1E" stroke-width="2"/>
<rect x="152.4" y="372.268" width="8" height="8" transform="rotate(-45 152.4 372.268)" fill="white" stroke="#F24E1E" stroke-width="2"/>
<rect x="113.703" y="424.916" width="8" height="8" transform="rotate(-45 113.703 424.916)" fill="white" stroke="#F24E1E" stroke-width="2"/>
<circle cx="175.686" cy="319.634" r="5" fill="white" stroke="black" stroke-width="2"/>
<path d="M175.686 325.634V313.611" stroke="#F24E1E" stroke-width="2"/>
<rect x="187.645" y="319.623" width="9" height="9" transform="rotate(-45 187.645 319.623)" fill="#F24E1E"/>
<circle cx="230.875" cy="319.611" r="5" fill="white" stroke="#F24E1E" stroke-width="2"/>
<circle cx="115.589" cy="372.28" r="5" fill="white" stroke="black" stroke-width="2"/>
<path d="M115.589 378.28V366.258" stroke="#F24E1E" stroke-width="2"/>
<circle cx="127.611" cy="424.929" r="5" fill="white" stroke="black" stroke-width="2"/>
<path d="M127.611 430.929V418.906" stroke="#F24E1E" stroke-width="2"/>
<rect x="128.711" y="372.268" width="9" height="9" transform="rotate(-45 128.711 372.268)" fill="#F24E1E"/>
<circle cx="141.439" cy="424.906" r="5" fill="white" stroke="#F24E1E" stroke-width="2"/>
<rect x="159.481" y="424.906" width="9" height="9" transform="rotate(-45 159.481 424.906)" fill="#F24E1E"/>
<circle cx="139.968" cy="477.203" r="5" fill="white" stroke="#F24E1E" stroke-width="2"/>
<rect x="117.118" y="477.203" width="9" height="9" transform="rotate(-45 117.118 477.203)" fill="#F24E1E"/>
<rect x="102.289" y="477.225" width="8" height="8" transform="rotate(-45 102.289 477.225)" fill="white" stroke="#F24E1E" stroke-width="2"/>
<path d="M280.379 82.9468L81.5574 82.9468L81.5574 504.016" stroke="black" stroke-width="0.5"/>
</svg>
