<svg width="335" height="592" viewBox="0 0 335 592" fill="none" xmlns="http://www.w3.org/2000/svg">
<rect x="0.5" y="0.5" width="334" height="549" fill="white" stroke="black"/>
<rect y="550" width="335" height="42" fill="black"/>
<path d="M14.5791 571.604H10.4023V576H9.08984V566.047H15.2559V567.127H10.4023V570.531H14.5791V571.604ZM16.1445 572.233C16.1445 571.509 16.2858 570.857 16.5684 570.278C16.8555 569.7 17.252 569.253 17.7578 568.938C18.2682 568.624 18.8493 568.467 19.501 568.467C20.5081 568.467 21.3216 568.815 21.9414 569.513C22.5658 570.21 22.8779 571.137 22.8779 572.295V572.384C22.8779 573.104 22.7389 573.751 22.4609 574.325C22.1875 574.895 21.7933 575.339 21.2783 575.658C20.7679 575.977 20.18 576.137 19.5146 576.137C18.512 576.137 17.6986 575.788 17.0742 575.091C16.4544 574.394 16.1445 573.471 16.1445 572.322V572.233ZM17.416 572.384C17.416 573.204 17.6051 573.863 17.9834 574.359C18.3662 574.856 18.8766 575.104 19.5146 575.104C20.1572 575.104 20.6676 574.854 21.0459 574.353C21.4242 573.847 21.6133 573.14 21.6133 572.233C21.6133 571.422 21.4196 570.766 21.0322 570.265C20.6494 569.759 20.139 569.506 19.501 569.506C18.8766 569.506 18.373 569.754 17.9902 570.251C17.6074 570.748 17.416 571.459 17.416 572.384ZM25.6602 568.604L25.7012 569.533C26.2663 568.822 27.0046 568.467 27.916 568.467C29.4792 568.467 30.2676 569.349 30.2812 571.112V576H29.0166V571.105C29.012 570.572 28.889 570.178 28.6475 569.923C28.4105 569.668 28.0391 569.54 27.5332 569.54C27.123 569.54 26.763 569.649 26.4531 569.868C26.1432 570.087 25.9017 570.374 25.7285 570.729V576H24.4639V568.604H25.6602ZM33.9043 566.812V568.604H35.2852V569.581H33.9043V574.168C33.9043 574.464 33.9658 574.688 34.0889 574.838C34.2119 574.984 34.4215 575.057 34.7178 575.057C34.8636 575.057 35.0641 575.029 35.3193 574.975V576C34.9867 576.091 34.6631 576.137 34.3486 576.137C33.7835 576.137 33.3574 575.966 33.0703 575.624C32.7832 575.282 32.6396 574.797 32.6396 574.168V569.581H31.293V568.604H32.6396V566.812H33.9043ZM39.8379 576.137C38.8353 576.137 38.0195 575.809 37.3906 575.152C36.7617 574.492 36.4473 573.61 36.4473 572.507V572.274C36.4473 571.541 36.5863 570.887 36.8643 570.312C37.1468 569.734 37.5387 569.283 38.04 568.959C38.5459 568.631 39.0928 568.467 39.6807 568.467C40.6423 568.467 41.3896 568.784 41.9229 569.417C42.4561 570.05 42.7227 570.957 42.7227 572.138V572.664H37.7119C37.7301 573.393 37.9421 573.983 38.3477 574.435C38.7578 574.881 39.2773 575.104 39.9062 575.104C40.3529 575.104 40.7311 575.013 41.041 574.831C41.3509 574.649 41.6221 574.407 41.8545 574.106L42.627 574.708C42.0072 575.66 41.0775 576.137 39.8379 576.137ZM39.6807 569.506C39.1702 569.506 38.7419 569.693 38.3955 570.066C38.0492 570.436 37.835 570.955 37.7529 571.625H41.458V571.529C41.4215 570.887 41.2484 570.39 40.9385 570.039C40.6286 569.684 40.2093 569.506 39.6807 569.506ZM44.1514 575.337C44.1514 575.118 44.2152 574.936 44.3428 574.79C44.4749 574.644 44.6709 574.571 44.9307 574.571C45.1904 574.571 45.3864 574.644 45.5186 574.79C45.6553 574.936 45.7236 575.118 45.7236 575.337C45.7236 575.547 45.6553 575.722 45.5186 575.863C45.3864 576.005 45.1904 576.075 44.9307 576.075C44.6709 576.075 44.4749 576.005 44.3428 575.863C44.2152 575.722 44.1514 575.547 44.1514 575.337ZM44.1582 569.301C44.1582 569.082 44.222 568.9 44.3496 568.754C44.4818 568.608 44.6777 568.535 44.9375 568.535C45.1973 568.535 45.3932 568.608 45.5254 568.754C45.6621 568.9 45.7305 569.082 45.7305 569.301C45.7305 569.51 45.6621 569.686 45.5254 569.827C45.3932 569.968 45.1973 570.039 44.9375 570.039C44.6777 570.039 44.4818 569.968 44.3496 569.827C44.222 569.686 44.1582 569.51 44.1582 569.301ZM56.8799 571.399H52.5664V574.927H57.5771V576H51.2539V566.047H57.5088V567.127H52.5664V570.326H56.8799V571.399ZM63.4561 575.269C62.9639 575.847 62.2415 576.137 61.2891 576.137C60.5007 576.137 59.8991 575.909 59.4844 575.453C59.0742 574.993 58.8669 574.314 58.8623 573.416V568.604H60.127V573.382C60.127 574.503 60.5827 575.063 61.4941 575.063C62.4603 575.063 63.1029 574.703 63.4219 573.983V568.604H64.6865V576H63.4834L63.4561 575.269ZM70.1895 569.738C69.998 569.706 69.7907 569.69 69.5674 569.69C68.738 569.69 68.1751 570.044 67.8789 570.75V576H66.6143V568.604H67.8447L67.8652 569.458C68.2799 568.797 68.8678 568.467 69.6289 568.467C69.875 568.467 70.0618 568.499 70.1895 568.562V569.738ZM70.8867 572.233C70.8867 571.509 71.028 570.857 71.3105 570.278C71.5977 569.7 71.9941 569.253 72.5 568.938C73.0104 568.624 73.5915 568.467 74.2432 568.467C75.2503 568.467 76.0638 568.815 76.6836 569.513C77.3079 570.21 77.6201 571.137 77.6201 572.295V572.384C77.6201 573.104 77.4811 573.751 77.2031 574.325C76.9297 574.895 76.5355 575.339 76.0205 575.658C75.5101 575.977 74.9222 576.137 74.2568 576.137C73.2542 576.137 72.4408 575.788 71.8164 575.091C71.1966 574.394 70.8867 573.471 70.8867 572.322V572.233ZM72.1582 572.384C72.1582 573.204 72.3473 573.863 72.7256 574.359C73.1084 574.856 73.6188 575.104 74.2568 575.104C74.8994 575.104 75.4098 574.854 75.7881 574.353C76.1663 573.847 76.3555 573.14 76.3555 572.233C76.3555 571.422 76.1618 570.766 75.7744 570.265C75.3916 569.759 74.8812 569.506 74.2432 569.506C73.6188 569.506 73.1152 569.754 72.7324 570.251C72.3496 570.748 72.1582 571.459 72.1582 572.384ZM83.5127 574.038C83.5127 573.696 83.3828 573.432 83.123 573.245C82.8678 573.054 82.4189 572.89 81.7764 572.753C81.1383 572.616 80.6302 572.452 80.252 572.261C79.8783 572.069 79.6003 571.841 79.418 571.577C79.2402 571.313 79.1514 570.998 79.1514 570.634C79.1514 570.028 79.4066 569.515 79.917 569.096C80.432 568.676 81.0882 568.467 81.8857 568.467C82.7243 568.467 83.4033 568.683 83.9229 569.116C84.4469 569.549 84.709 570.103 84.709 570.777H83.4375C83.4375 570.431 83.2894 570.132 82.9932 569.882C82.7015 569.631 82.3324 569.506 81.8857 569.506C81.4255 569.506 81.0654 569.606 80.8057 569.807C80.5459 570.007 80.416 570.269 80.416 570.593C80.416 570.898 80.5368 571.128 80.7783 571.283C81.0199 571.438 81.4551 571.586 82.084 571.728C82.7174 571.869 83.2301 572.037 83.6221 572.233C84.014 572.429 84.3034 572.666 84.4902 572.944C84.6816 573.218 84.7773 573.553 84.7773 573.949C84.7773 574.61 84.513 575.141 83.9844 575.542C83.4557 575.938 82.7699 576.137 81.9268 576.137C81.3343 576.137 80.8102 576.032 80.3545 575.822C79.8988 575.613 79.541 575.321 79.2812 574.947C79.026 574.569 78.8984 574.161 78.8984 573.724H80.1631C80.1859 574.147 80.3545 574.485 80.6689 574.735C80.988 574.981 81.4072 575.104 81.9268 575.104C82.4053 575.104 82.7881 575.009 83.0752 574.817C83.3669 574.621 83.5127 574.362 83.5127 574.038ZM88.1406 566.812V568.604H89.5215V569.581H88.1406V574.168C88.1406 574.464 88.2021 574.688 88.3252 574.838C88.4482 574.984 88.6579 575.057 88.9541 575.057C89.0999 575.057 89.3005 575.029 89.5557 574.975V576C89.223 576.091 88.8994 576.137 88.585 576.137C88.0199 576.137 87.5938 575.966 87.3066 575.624C87.0195 575.282 86.876 574.797 86.876 574.168V569.581H85.5293V568.604H86.876V566.812H88.1406ZM95.5713 576C95.4984 575.854 95.4391 575.594 95.3936 575.221C94.8057 575.831 94.1038 576.137 93.2881 576.137C92.5589 576.137 91.9596 575.932 91.4902 575.521C91.0254 575.107 90.793 574.583 90.793 573.949C90.793 573.179 91.0846 572.582 91.668 572.158C92.2559 571.73 93.0807 571.516 94.1426 571.516H95.373V570.935C95.373 570.493 95.2409 570.142 94.9766 569.882C94.7122 569.618 94.3226 569.485 93.8076 569.485C93.3564 569.485 92.9782 569.599 92.6729 569.827C92.3675 570.055 92.2148 570.331 92.2148 570.654H90.9434C90.9434 570.285 91.0732 569.93 91.333 569.588C91.5973 569.242 91.9528 568.968 92.3994 568.768C92.8506 568.567 93.3451 568.467 93.8828 568.467C94.735 568.467 95.4027 568.681 95.8857 569.109C96.3688 569.533 96.6195 570.119 96.6377 570.866V574.271C96.6377 574.95 96.7243 575.49 96.8975 575.891V576H95.5713ZM93.4727 575.036C93.8691 575.036 94.2451 574.934 94.6006 574.729C94.9561 574.523 95.2135 574.257 95.373 573.929V572.411H94.3818C92.8324 572.411 92.0576 572.865 92.0576 573.771C92.0576 574.168 92.1898 574.478 92.4541 574.701C92.7184 574.924 93.0579 575.036 93.4727 575.036ZM100.336 566.812V568.604H101.717V569.581H100.336V574.168C100.336 574.464 100.397 574.688 100.521 574.838C100.644 574.984 100.853 575.057 101.149 575.057C101.295 575.057 101.496 575.029 101.751 574.975V576C101.418 576.091 101.095 576.137 100.78 576.137C100.215 576.137 99.7891 575.966 99.502 575.624C99.2148 575.282 99.0713 574.797 99.0713 574.168V569.581H97.7246V568.604H99.0713V566.812H100.336Z" fill="white"/>
<path d="M81.4756 24V499.438" stroke="black" stroke-opacity="0.5" stroke-width="0.5"/>
<path d="M116.787 24V499.438" stroke="black" stroke-opacity="0.5" stroke-width="0.5"/>
<path d="M152.099 24V499.438" stroke="black" stroke-opacity="0.5" stroke-width="0.5"/>
<path d="M187.41 24V499.438" stroke="black" stroke-opacity="0.5" stroke-width="0.5"/>
<path d="M222.722 24V499.438" stroke="black" stroke-opacity="0.5" stroke-width="0.5"/>
<path d="M258.033 24V499.438" stroke="black" stroke-opacity="0.5" stroke-width="0.5"/>
<path d="M293.344 24V499.438" stroke="black" stroke-opacity="0.5" stroke-width="0.5"/>
<path d="M46.1641 24V499.438" stroke="black"/>
<path d="M45.7227 395.679L81.3323 328.598L116.299 289.597L152.611 242.526L187.578 207.559L223.218 176.626L257.512 170.574L275.668 162.505L293.673 165.934L314.72 163.14" stroke="#F24E1E" stroke-width="2" stroke-linecap="round" stroke-linejoin="round"/>
<path d="M46.4199 406.041L311 406.041" stroke="black" stroke-opacity="0.5" stroke-width="0.5"/>
<path d="M46.4199 312.644L311 312.644" stroke="black" stroke-opacity="0.5" stroke-width="0.5"/>
<path d="M46.4199 219.246L311 219.246" stroke="black" stroke-opacity="0.5" stroke-width="0.5"/>
<path d="M46.4199 125.849L311 125.849" stroke="black" stroke-opacity="0.5" stroke-width="0.5"/>
<path d="M46.1641 499.438L311 499.438" stroke="black"/>
<path d="M34.1591 519.304C34.8231 518.656 35.2871 518.12 35.5511 517.696C35.8231 517.264 35.9591 516.82 35.9591 516.364C35.9591 516.02 35.8671 515.724 35.6831 515.476C35.5071 515.22 35.2711 515.028 34.9751 514.9C34.6871 514.772 34.3831 514.708 34.0631 514.708C33.6791 514.708 33.2951 514.808 32.9111 515.008C32.5271 515.2 32.2071 515.492 31.9511 515.884C31.9271 515.924 31.8911 515.944 31.8431 515.944C31.8031 515.944 31.7631 515.928 31.7231 515.896L31.3391 515.656C31.2831 515.608 31.2551 515.564 31.2551 515.524C31.2551 515.492 31.2711 515.456 31.3031 515.416C31.6391 514.936 32.0591 514.576 32.5631 514.336C33.0671 514.096 33.5991 513.976 34.1591 513.976C34.6471 513.976 35.0951 514.068 35.5031 514.252C35.9111 514.428 36.2351 514.7 36.4751 515.068C36.7231 515.428 36.8471 515.88 36.8471 516.424C36.8471 516.944 36.7031 517.436 36.4151 517.9C36.1271 518.356 35.6111 518.948 34.8671 519.676L32.3951 522.076C32.3551 522.116 32.3351 522.144 32.3351 522.16C32.3351 522.2 32.3791 522.22 32.4671 522.22H36.8111C36.8591 522.22 36.8911 522.228 36.9071 522.244C36.9311 522.26 36.9431 522.292 36.9431 522.34V522.88C36.9431 522.96 36.8991 523 36.8111 523H31.4231C31.3591 523 31.3111 522.988 31.2791 522.964C31.2551 522.94 31.2431 522.896 31.2431 522.832V522.436C31.2431 522.348 31.2591 522.276 31.2911 522.22C31.3231 522.156 31.3951 522.076 31.5071 521.98L34.1591 519.304ZM41.7778 513.976C42.3938 513.976 42.9458 514.152 43.4338 514.504C43.9218 514.856 44.3058 515.376 44.5858 516.064C44.8658 516.752 45.0058 517.588 45.0058 518.572C45.0058 519.548 44.8658 520.38 44.5858 521.068C44.3058 521.748 43.9218 522.26 43.4338 522.604C42.9458 522.948 42.3898 523.12 41.7658 523.12C41.1418 523.12 40.5858 522.948 40.0978 522.604C39.6098 522.26 39.2258 521.752 38.9458 521.08C38.6658 520.4 38.5258 519.572 38.5258 518.596C38.5258 517.612 38.6658 516.772 38.9458 516.076C39.2258 515.38 39.6098 514.856 40.0978 514.504C40.5938 514.152 41.1538 513.976 41.7778 513.976ZM41.7898 522.388C42.5098 522.388 43.0698 522.08 43.4698 521.464C43.8778 520.84 44.0818 519.876 44.0818 518.572C44.0818 517.26 43.8778 516.288 43.4698 515.656C43.0618 515.016 42.4978 514.696 41.7778 514.696C41.0578 514.696 40.4898 515.016 40.0738 515.656C39.6658 516.296 39.4618 517.268 39.4618 518.572C39.4618 519.868 39.6698 520.828 40.0858 521.452C40.5018 522.076 41.0698 522.388 41.7898 522.388ZM49.9692 513.976C50.5852 513.976 51.1372 514.152 51.6252 514.504C52.1132 514.856 52.4972 515.376 52.7772 516.064C53.0572 516.752 53.1972 517.588 53.1972 518.572C53.1972 519.548 53.0572 520.38 52.7772 521.068C52.4972 521.748 52.1132 522.26 51.6252 522.604C51.1372 522.948 50.5812 523.12 49.9572 523.12C49.3332 523.12 48.7772 522.948 48.2892 522.604C47.8012 522.26 47.4172 521.752 47.1372 521.08C46.8572 520.4 46.7172 519.572 46.7172 518.596C46.7172 517.612 46.8572 516.772 47.1372 516.076C47.4172 515.38 47.8012 514.856 48.2892 514.504C48.7852 514.152 49.3452 513.976 49.9692 513.976ZM49.9812 522.388C50.7012 522.388 51.2612 522.08 51.6612 521.464C52.0692 520.84 52.2732 519.876 52.2732 518.572C52.2732 517.26 52.0692 516.288 51.6612 515.656C51.2532 515.016 50.6892 514.696 49.9692 514.696C49.2492 514.696 48.6812 515.016 48.2652 515.656C47.8572 516.296 47.6532 517.268 47.6532 518.572C47.6532 519.868 47.8612 520.828 48.2772 521.452C48.6932 522.076 49.2612 522.388 49.9812 522.388ZM58.7606 514.192C58.8166 514.128 58.8966 514.096 59.0006 514.096H59.6366C59.7246 514.096 59.7686 514.14 59.7686 514.228V519.724C59.7686 519.788 59.7966 519.82 59.8526 519.82H61.0286C61.1246 519.82 61.1726 519.856 61.1726 519.928V520.396C61.1726 520.492 61.1206 520.54 61.0166 520.54H59.8646C59.8006 520.54 59.7686 520.58 59.7686 520.66V522.856C59.7686 522.952 59.7126 523 59.6006 523H58.9886C58.9006 523 58.8566 522.952 58.8566 522.856V520.624C58.8566 520.568 58.8206 520.54 58.7486 520.54H54.7886C54.6846 520.54 54.6326 520.492 54.6326 520.396V519.88C54.6326 519.792 54.6846 519.68 54.7886 519.544L58.7606 514.192ZM58.7126 519.82C58.7446 519.82 58.7686 519.812 58.7846 519.796C58.8086 519.78 58.8206 519.76 58.8206 519.736V515.476C58.8206 515.372 58.8046 515.32 58.7726 515.32C58.7406 515.32 58.7006 515.356 58.6526 515.428L55.5206 519.664C55.4966 519.696 55.4846 519.724 55.4846 519.748C55.4846 519.796 55.5246 519.82 55.6046 519.82H58.7126Z" fill="black"/>
<path d="M35.0767 490.414C35.6927 490.414 36.2447 490.59 36.7327 490.942C37.2207 491.294 37.6047 491.814 37.8847 492.502C38.1647 493.19 38.3047 494.026 38.3047 495.01C38.3047 495.986 38.1647 496.818 37.8847 497.506C37.6047 498.186 37.2207 498.698 36.7327 499.042C36.2447 499.386 35.6887 499.558 35.0647 499.558C34.4407 499.558 33.8847 499.386 33.3967 499.042C32.9087 498.698 32.5247 498.19 32.2447 497.518C31.9647 496.838 31.8247 496.01 31.8247 495.034C31.8247 494.05 31.9647 493.21 32.2447 492.514C32.5247 491.818 32.9087 491.294 33.3967 490.942C33.8927 490.59 34.4527 490.414 35.0767 490.414ZM35.0887 498.826C35.8087 498.826 36.3687 498.518 36.7687 497.902C37.1767 497.278 37.3807 496.314 37.3807 495.01C37.3807 493.698 37.1767 492.726 36.7687 492.094C36.3607 491.454 35.7967 491.134 35.0767 491.134C34.3567 491.134 33.7887 491.454 33.3727 492.094C32.9647 492.734 32.7607 493.706 32.7607 495.01C32.7607 496.306 32.9687 497.266 33.3847 497.89C33.8007 498.514 34.3687 498.826 35.0887 498.826Z" fill="black"/>
<path d="M37.8511 397.137C37.9151 397.137 37.9551 397.145 37.9711 397.161C37.9951 397.177 38.0031 397.217 37.9951 397.281L37.9471 397.797C37.9471 397.813 37.9431 397.833 37.9351 397.857C37.9351 397.881 37.9231 397.897 37.8991 397.905C37.8831 397.905 37.8551 397.905 37.8151 397.905H33.6511C33.5711 397.905 33.5271 397.945 33.5191 398.025L33.3031 400.917V400.953C33.3031 400.993 33.3151 401.025 33.3391 401.049C33.3711 401.065 33.4031 401.065 33.4351 401.049C33.8111 400.841 34.1431 400.689 34.4311 400.593C34.7271 400.489 35.0791 400.437 35.4871 400.437C36.0231 400.437 36.5111 400.533 36.9511 400.725C37.3991 400.917 37.7551 401.213 38.0191 401.613C38.2911 402.013 38.4271 402.517 38.4271 403.125C38.4271 403.749 38.2831 404.293 37.9951 404.757C37.7071 405.213 37.3071 405.561 36.7951 405.801C36.2831 406.041 35.7071 406.161 35.0671 406.161C34.4831 406.161 33.9311 406.061 33.4111 405.861C32.8991 405.653 32.4551 405.353 32.0791 404.961C32.0391 404.905 32.0191 404.869 32.0191 404.853C32.0191 404.821 32.0431 404.789 32.0911 404.757L32.4991 404.409C32.5071 404.401 32.5231 404.397 32.5471 404.397C32.5871 404.397 32.6231 404.413 32.6551 404.445C33.0471 404.797 33.4031 405.053 33.7231 405.213C34.0511 405.373 34.4551 405.453 34.9351 405.453C35.7431 405.453 36.3791 405.241 36.8431 404.817C37.3071 404.393 37.5391 403.837 37.5391 403.149C37.5391 402.493 37.3351 401.997 36.9271 401.661C36.5191 401.317 36.0071 401.145 35.3911 401.145C34.9831 401.145 34.6111 401.213 34.2751 401.349C33.9391 401.485 33.5791 401.673 33.1951 401.913C33.1471 401.937 33.1111 401.949 33.0871 401.949C33.0791 401.949 33.0671 401.945 33.0511 401.937C33.0351 401.921 33.0151 401.909 32.9911 401.901L32.5351 401.625C32.5191 401.609 32.4991 401.597 32.4751 401.589C32.4511 401.573 32.4391 401.557 32.4391 401.541C32.4391 401.533 32.4431 401.517 32.4511 401.493C32.4591 401.469 32.4631 401.437 32.4631 401.397L32.7871 397.281C32.7951 397.209 32.8071 397.169 32.8231 397.161C32.8471 397.145 32.9111 397.137 33.0151 397.137H37.8511Z" fill="black"/>
<path d="M30.3354 311.9C30.4074 311.9 30.4434 311.932 30.4434 311.996V312.536C30.4434 312.56 30.4314 312.584 30.4074 312.608C30.3914 312.632 30.3634 312.644 30.3234 312.644H26.2674C26.1954 312.644 26.1594 312.612 26.1594 312.548V311.996C26.1594 311.932 26.1914 311.9 26.2554 311.9H27.8514C27.9074 311.9 27.9354 311.88 27.9354 311.84V304.844C27.9354 304.756 27.9034 304.728 27.8394 304.76L26.2794 305.348L26.2314 305.36C26.1754 305.36 26.1474 305.32 26.1474 305.24V304.832C26.1474 304.784 26.1514 304.756 26.1594 304.748C26.1674 304.732 26.1954 304.712 26.2434 304.688L27.9714 303.824C28.0674 303.768 28.1714 303.74 28.2834 303.74H28.7274C28.7594 303.74 28.7834 303.752 28.7994 303.776C28.8234 303.8 28.8354 303.832 28.8354 303.872V311.816C28.8354 311.872 28.8594 311.9 28.9074 311.9H30.3354ZM35.0767 303.62C35.6927 303.62 36.2447 303.796 36.7327 304.148C37.2207 304.5 37.6047 305.02 37.8847 305.708C38.1647 306.396 38.3047 307.232 38.3047 308.216C38.3047 309.192 38.1647 310.024 37.8847 310.712C37.6047 311.392 37.2207 311.904 36.7327 312.248C36.2447 312.592 35.6887 312.764 35.0647 312.764C34.4407 312.764 33.8847 312.592 33.3967 312.248C32.9087 311.904 32.5247 311.396 32.2447 310.724C31.9647 310.044 31.8247 309.216 31.8247 308.24C31.8247 307.256 31.9647 306.416 32.2447 305.72C32.5247 305.024 32.9087 304.5 33.3967 304.148C33.8927 303.796 34.4527 303.62 35.0767 303.62ZM35.0887 312.032C35.8087 312.032 36.3687 311.724 36.7687 311.108C37.1767 310.484 37.3807 309.52 37.3807 308.216C37.3807 306.904 37.1767 305.932 36.7687 305.3C36.3607 304.66 35.7967 304.34 35.0767 304.34C34.3567 304.34 33.7887 304.66 33.3727 305.3C32.9647 305.94 32.7607 306.912 32.7607 308.216C32.7607 309.512 32.9687 310.472 33.3847 311.096C33.8007 311.72 34.3687 312.032 35.0887 312.032Z" fill="black"/>
<path d="M30.7339 218.503C30.8059 218.503 30.8419 218.535 30.8419 218.599V219.139C30.8419 219.163 30.8299 219.187 30.8059 219.211C30.7899 219.235 30.7619 219.247 30.7219 219.247H26.6659C26.5939 219.247 26.5579 219.215 26.5579 219.151V218.599C26.5579 218.535 26.5899 218.503 26.6539 218.503H28.2499C28.3059 218.503 28.3339 218.483 28.3339 218.443V211.447C28.3339 211.359 28.3019 211.331 28.2379 211.363L26.6779 211.951L26.6299 211.963C26.5739 211.963 26.5459 211.923 26.5459 211.843V211.435C26.5459 211.387 26.5499 211.359 26.5579 211.351C26.5659 211.335 26.5939 211.315 26.6419 211.291L28.3699 210.427C28.4659 210.371 28.5699 210.343 28.6819 210.343H29.1259C29.1579 210.343 29.1819 210.355 29.1979 210.379C29.2219 210.403 29.2339 210.435 29.2339 210.475V218.419C29.2339 218.475 29.2579 218.503 29.3059 218.503H30.7339ZM37.8511 210.343C37.9151 210.343 37.9551 210.351 37.9711 210.367C37.9951 210.383 38.0031 210.423 37.9951 210.487L37.9471 211.003C37.9471 211.019 37.9431 211.039 37.9351 211.063C37.9351 211.087 37.9231 211.103 37.8991 211.111C37.8831 211.111 37.8551 211.111 37.8151 211.111H33.6511C33.5711 211.111 33.5271 211.151 33.5191 211.231L33.3031 214.123V214.159C33.3031 214.199 33.3151 214.231 33.3391 214.255C33.3711 214.271 33.4031 214.271 33.4351 214.255C33.8111 214.047 34.1431 213.895 34.4311 213.799C34.7271 213.695 35.0791 213.643 35.4871 213.643C36.0231 213.643 36.5111 213.739 36.9511 213.931C37.3991 214.123 37.7551 214.419 38.0191 214.819C38.2911 215.219 38.4271 215.723 38.4271 216.331C38.4271 216.955 38.2831 217.499 37.9951 217.963C37.7071 218.419 37.3071 218.767 36.7951 219.007C36.2831 219.247 35.7071 219.367 35.0671 219.367C34.4831 219.367 33.9311 219.267 33.4111 219.067C32.8991 218.859 32.4551 218.559 32.0791 218.167C32.0391 218.111 32.0191 218.075 32.0191 218.059C32.0191 218.027 32.0431 217.995 32.0911 217.963L32.4991 217.615C32.5071 217.607 32.5231 217.603 32.5471 217.603C32.5871 217.603 32.6231 217.619 32.6551 217.651C33.0471 218.003 33.4031 218.259 33.7231 218.419C34.0511 218.579 34.4551 218.659 34.9351 218.659C35.7431 218.659 36.3791 218.447 36.8431 218.023C37.3071 217.599 37.5391 217.043 37.5391 216.355C37.5391 215.699 37.3351 215.203 36.9271 214.867C36.5191 214.523 36.0071 214.351 35.3911 214.351C34.9831 214.351 34.6111 214.419 34.2751 214.555C33.9391 214.691 33.5791 214.879 33.1951 215.119C33.1471 215.143 33.1111 215.155 33.0871 215.155C33.0791 215.155 33.0671 215.151 33.0511 215.143C33.0351 215.127 33.0151 215.115 32.9911 215.107L32.5351 214.831C32.5191 214.815 32.4991 214.803 32.4751 214.795C32.4511 214.779 32.4391 214.763 32.4391 214.747C32.4391 214.739 32.4431 214.723 32.4511 214.699C32.4591 214.675 32.4631 214.643 32.4631 214.603L32.7871 210.487C32.7951 210.415 32.8071 210.375 32.8231 210.367C32.8471 210.351 32.9111 210.343 33.0151 210.343H37.8511Z" fill="black"/>
<path d="M27.458 122.154C28.122 121.506 28.586 120.97 28.85 120.546C29.122 120.114 29.258 119.67 29.258 119.214C29.258 118.87 29.166 118.574 28.982 118.326C28.806 118.07 28.57 117.878 28.274 117.75C27.986 117.622 27.682 117.558 27.362 117.558C26.978 117.558 26.594 117.658 26.21 117.858C25.826 118.05 25.506 118.342 25.25 118.734C25.226 118.774 25.19 118.794 25.142 118.794C25.102 118.794 25.062 118.778 25.022 118.746L24.638 118.506C24.582 118.458 24.554 118.414 24.554 118.374C24.554 118.342 24.57 118.306 24.602 118.266C24.938 117.786 25.358 117.426 25.862 117.186C26.366 116.946 26.898 116.826 27.458 116.826C27.946 116.826 28.394 116.918 28.802 117.102C29.21 117.278 29.534 117.55 29.774 117.918C30.022 118.278 30.146 118.73 30.146 119.274C30.146 119.794 30.002 120.286 29.714 120.75C29.426 121.206 28.91 121.798 28.166 122.526L25.694 124.926C25.654 124.966 25.634 124.994 25.634 125.01C25.634 125.05 25.678 125.07 25.766 125.07H30.11C30.158 125.07 30.19 125.078 30.206 125.094C30.23 125.11 30.242 125.142 30.242 125.19V125.73C30.242 125.81 30.198 125.85 30.11 125.85H24.722C24.658 125.85 24.61 125.838 24.578 125.814C24.554 125.79 24.542 125.746 24.542 125.682V125.286C24.542 125.198 24.558 125.126 24.59 125.07C24.622 125.006 24.694 124.926 24.806 124.83L27.458 122.154ZM35.0767 116.826C35.6927 116.826 36.2447 117.002 36.7327 117.354C37.2207 117.706 37.6047 118.226 37.8847 118.914C38.1647 119.602 38.3047 120.438 38.3047 121.422C38.3047 122.398 38.1647 123.23 37.8847 123.918C37.6047 124.598 37.2207 125.11 36.7327 125.454C36.2447 125.798 35.6887 125.97 35.0647 125.97C34.4407 125.97 33.8847 125.798 33.3967 125.454C32.9087 125.11 32.5247 124.602 32.2447 123.93C31.9647 123.25 31.8247 122.422 31.8247 121.446C31.8247 120.462 31.9647 119.622 32.2447 118.926C32.5247 118.23 32.9087 117.706 33.3967 117.354C33.8927 117.002 34.4527 116.826 35.0767 116.826ZM35.0887 125.238C35.8087 125.238 36.3687 124.93 36.7687 124.314C37.1767 123.69 37.3807 122.726 37.3807 121.422C37.3807 120.11 37.1767 119.138 36.7687 118.506C36.3607 117.866 35.7967 117.546 35.0767 117.546C34.3567 117.546 33.7887 117.866 33.3727 118.506C32.9647 119.146 32.7607 120.118 32.7607 121.422C32.7607 122.718 32.9687 123.678 33.3847 124.302C33.8007 124.926 34.3687 125.238 35.0887 125.238Z" fill="black"/>
<path d="M27.8564 28.7566C28.5204 28.1086 28.9844 27.5726 29.2484 27.1486C29.5204 26.7166 29.6564 26.2726 29.6564 25.8166C29.6564 25.4726 29.5644 25.1766 29.3804 24.9286C29.2044 24.6726 28.9684 24.4806 28.6724 24.3526C28.3844 24.2246 28.0804 24.1606 27.7604 24.1606C27.3764 24.1606 26.9924 24.2606 26.6084 24.4606C26.2244 24.6526 25.9044 24.9446 25.6484 25.3366C25.6244 25.3766 25.5884 25.3966 25.5404 25.3966C25.5004 25.3966 25.4604 25.3806 25.4204 25.3486L25.0364 25.1086C24.9804 25.0606 24.9524 25.0166 24.9524 24.9766C24.9524 24.9446 24.9684 24.9086 25.0004 24.8686C25.3364 24.3886 25.7564 24.0286 26.2604 23.7886C26.7644 23.5486 27.2964 23.4286 27.8564 23.4286C28.3444 23.4286 28.7924 23.5206 29.2004 23.7046C29.6084 23.8806 29.9324 24.1526 30.1724 24.5206C30.4204 24.8806 30.5444 25.3326 30.5444 25.8766C30.5444 26.3966 30.4004 26.8886 30.1124 27.3526C29.8244 27.8086 29.3084 28.4006 28.5644 29.1286L26.0924 31.5286C26.0524 31.5686 26.0324 31.5966 26.0324 31.6126C26.0324 31.6526 26.0764 31.6726 26.1644 31.6726H30.5084C30.5564 31.6726 30.5884 31.6806 30.6044 31.6966C30.6284 31.7126 30.6404 31.7446 30.6404 31.7926V32.3326C30.6404 32.4126 30.5964 32.4526 30.5084 32.4526H25.1204C25.0564 32.4526 25.0084 32.4406 24.9764 32.4166C24.9524 32.3926 24.9404 32.3486 24.9404 32.2846V31.8886C24.9404 31.8006 24.9564 31.7286 24.9884 31.6726C25.0204 31.6086 25.0924 31.5286 25.2044 31.4326L27.8564 28.7566ZM37.8511 23.5486C37.9151 23.5486 37.9551 23.5566 37.9711 23.5726C37.9951 23.5886 38.0031 23.6286 37.9951 23.6926L37.9471 24.2086C37.9471 24.2246 37.9431 24.2446 37.9351 24.2686C37.9351 24.2926 37.9231 24.3086 37.8991 24.3166C37.8831 24.3166 37.8551 24.3166 37.8151 24.3166H33.6511C33.5711 24.3166 33.5271 24.3566 33.5191 24.4366L33.3031 27.3286V27.3646C33.3031 27.4046 33.3151 27.4366 33.3391 27.4606C33.3711 27.4766 33.4031 27.4766 33.4351 27.4606C33.8111 27.2526 34.1431 27.1006 34.4311 27.0046C34.7271 26.9006 35.0791 26.8486 35.4871 26.8486C36.0231 26.8486 36.5111 26.9446 36.9511 27.1366C37.3991 27.3286 37.7551 27.6246 38.0191 28.0246C38.2911 28.4246 38.4271 28.9286 38.4271 29.5366C38.4271 30.1606 38.2831 30.7046 37.9951 31.1686C37.7071 31.6246 37.3071 31.9726 36.7951 32.2126C36.2831 32.4526 35.7071 32.5726 35.0671 32.5726C34.4831 32.5726 33.9311 32.4726 33.4111 32.2726C32.8991 32.0646 32.4551 31.7646 32.0791 31.3726C32.0391 31.3166 32.0191 31.2806 32.0191 31.2646C32.0191 31.2326 32.0431 31.2006 32.0911 31.1686L32.4991 30.8206C32.5071 30.8126 32.5231 30.8086 32.5471 30.8086C32.5871 30.8086 32.6231 30.8246 32.6551 30.8566C33.0471 31.2086 33.4031 31.4646 33.7231 31.6246C34.0511 31.7846 34.4551 31.8646 34.9351 31.8646C35.7431 31.8646 36.3791 31.6526 36.8431 31.2286C37.3071 30.8046 37.5391 30.2486 37.5391 29.5606C37.5391 28.9046 37.3351 28.4086 36.9271 28.0726C36.5191 27.7286 36.0071 27.5566 35.3911 27.5566C34.9831 27.5566 34.6111 27.6246 34.2751 27.7606C33.9391 27.8966 33.5791 28.0846 33.1951 28.3246C33.1471 28.3486 33.1111 28.3606 33.0871 28.3606C33.0791 28.3606 33.0671 28.3566 33.0511 28.3486C33.0351 28.3326 33.0151 28.3206 32.9911 28.3126L32.5351 28.0366C32.5191 28.0206 32.4991 28.0086 32.4751 28.0006C32.4511 27.9846 32.4391 27.9686 32.4391 27.9526C32.4391 27.9446 32.4431 27.9286 32.4511 27.9046C32.4591 27.8806 32.4631 27.8486 32.4631 27.8086L32.7871 23.6926C32.7951 23.6206 32.8071 23.5806 32.8231 23.5726C32.8471 23.5566 32.9111 23.5486 33.0151 23.5486H37.8511Z" fill="black"/>
<path d="M104.618 519.304C105.282 518.656 105.746 518.12 106.01 517.696C106.282 517.264 106.418 516.82 106.418 516.364C106.418 516.02 106.326 515.724 106.142 515.476C105.966 515.22 105.73 515.028 105.434 514.9C105.146 514.772 104.842 514.708 104.522 514.708C104.138 514.708 103.754 514.808 103.37 515.008C102.986 515.2 102.666 515.492 102.41 515.884C102.386 515.924 102.35 515.944 102.302 515.944C102.262 515.944 102.222 515.928 102.182 515.896L101.798 515.656C101.742 515.608 101.714 515.564 101.714 515.524C101.714 515.492 101.73 515.456 101.762 515.416C102.098 514.936 102.518 514.576 103.022 514.336C103.526 514.096 104.058 513.976 104.618 513.976C105.106 513.976 105.554 514.068 105.962 514.252C106.37 514.428 106.694 514.7 106.934 515.068C107.182 515.428 107.306 515.88 107.306 516.424C107.306 516.944 107.162 517.436 106.874 517.9C106.586 518.356 106.07 518.948 105.326 519.676L102.854 522.076C102.814 522.116 102.794 522.144 102.794 522.16C102.794 522.2 102.838 522.22 102.926 522.22H107.27C107.318 522.22 107.35 522.228 107.366 522.244C107.39 522.26 107.402 522.292 107.402 522.34V522.88C107.402 522.96 107.358 523 107.27 523H101.882C101.818 523 101.77 522.988 101.738 522.964C101.714 522.94 101.702 522.896 101.702 522.832V522.436C101.702 522.348 101.718 522.276 101.75 522.22C101.782 522.156 101.854 522.076 101.966 521.98L104.618 519.304ZM112.237 513.976C112.853 513.976 113.405 514.152 113.893 514.504C114.381 514.856 114.765 515.376 115.045 516.064C115.325 516.752 115.465 517.588 115.465 518.572C115.465 519.548 115.325 520.38 115.045 521.068C114.765 521.748 114.381 522.26 113.893 522.604C113.405 522.948 112.849 523.12 112.225 523.12C111.601 523.12 111.045 522.948 110.557 522.604C110.069 522.26 109.685 521.752 109.405 521.08C109.125 520.4 108.985 519.572 108.985 518.596C108.985 517.612 109.125 516.772 109.405 516.076C109.685 515.38 110.069 514.856 110.557 514.504C111.053 514.152 111.613 513.976 112.237 513.976ZM112.249 522.388C112.969 522.388 113.529 522.08 113.929 521.464C114.337 520.84 114.541 519.876 114.541 518.572C114.541 517.26 114.337 516.288 113.929 515.656C113.521 515.016 112.957 514.696 112.237 514.696C111.517 514.696 110.949 515.016 110.533 515.656C110.125 516.296 109.921 517.268 109.921 518.572C109.921 519.868 110.129 520.828 110.545 521.452C110.961 522.076 111.529 522.388 112.249 522.388ZM120.428 513.976C121.044 513.976 121.596 514.152 122.084 514.504C122.572 514.856 122.956 515.376 123.236 516.064C123.516 516.752 123.656 517.588 123.656 518.572C123.656 519.548 123.516 520.38 123.236 521.068C122.956 521.748 122.572 522.26 122.084 522.604C121.596 522.948 121.04 523.12 120.416 523.12C119.792 523.12 119.236 522.948 118.748 522.604C118.26 522.26 117.876 521.752 117.596 521.08C117.316 520.4 117.176 519.572 117.176 518.596C117.176 517.612 117.316 516.772 117.596 516.076C117.876 515.38 118.26 514.856 118.748 514.504C119.244 514.152 119.804 513.976 120.428 513.976ZM120.44 522.388C121.16 522.388 121.72 522.08 122.12 521.464C122.528 520.84 122.732 519.876 122.732 518.572C122.732 517.26 122.528 516.288 122.12 515.656C121.712 515.016 121.148 514.696 120.428 514.696C119.708 514.696 119.14 515.016 118.724 515.656C118.316 516.296 118.112 517.268 118.112 518.572C118.112 519.868 118.32 520.828 118.736 521.452C119.152 522.076 119.72 522.388 120.44 522.388ZM128.5 513.976C129.06 513.976 129.556 514.08 129.988 514.288C130.42 514.488 130.752 514.776 130.984 515.152C131.224 515.52 131.344 515.944 131.344 516.424C131.344 516.808 131.248 517.152 131.056 517.456C130.872 517.752 130.56 518.06 130.12 518.38C130.056 518.42 130.024 518.452 130.024 518.476C130.024 518.5 130.052 518.528 130.108 518.56C130.636 518.752 131.04 519.032 131.32 519.4C131.6 519.76 131.74 520.188 131.74 520.684C131.74 521.172 131.604 521.6 131.332 521.968C131.06 522.336 130.676 522.62 130.18 522.82C129.692 523.02 129.124 523.12 128.476 523.12C127.492 523.12 126.716 522.916 126.148 522.508C125.588 522.092 125.308 521.516 125.308 520.78C125.308 520.348 125.416 519.964 125.632 519.628C125.848 519.284 126.196 518.956 126.676 518.644C126.78 518.572 126.832 518.52 126.832 518.488C126.832 518.448 126.78 518.404 126.676 518.356C125.924 517.956 125.548 517.34 125.548 516.508C125.548 516.036 125.672 515.608 125.92 515.224C126.176 514.84 126.528 514.536 126.976 514.312C127.424 514.088 127.932 513.976 128.5 513.976ZM128.512 514.684C128.12 514.684 127.764 514.76 127.444 514.912C127.132 515.064 126.884 515.276 126.7 515.548C126.516 515.82 126.424 516.12 126.424 516.448C126.424 517.248 126.868 517.744 127.756 517.936L129.064 518.224C129.216 518.264 129.408 518.196 129.64 518.02C129.88 517.836 130.084 517.596 130.252 517.3C130.428 516.996 130.516 516.692 130.516 516.388C130.516 515.876 130.332 515.464 129.964 515.152C129.604 514.84 129.12 514.684 128.512 514.684ZM128.512 522.412C129.224 522.412 129.788 522.256 130.204 521.944C130.628 521.632 130.84 521.216 130.84 520.696C130.84 520.288 130.732 519.964 130.516 519.724C130.308 519.476 129.968 519.3 129.496 519.196L127.84 518.8C127.824 518.792 127.792 518.788 127.744 518.788C127.56 518.788 127.336 518.876 127.072 519.052C126.816 519.228 126.596 519.464 126.412 519.76C126.228 520.048 126.136 520.364 126.136 520.708C126.136 521.244 126.34 521.664 126.748 521.968C127.164 522.264 127.752 522.412 128.512 522.412Z" fill="black"/>
<path d="M177.075 519.304C177.739 518.656 178.203 518.12 178.467 517.696C178.739 517.264 178.875 516.82 178.875 516.364C178.875 516.02 178.783 515.724 178.599 515.476C178.423 515.22 178.187 515.028 177.891 514.9C177.603 514.772 177.299 514.708 176.979 514.708C176.595 514.708 176.211 514.808 175.827 515.008C175.443 515.2 175.123 515.492 174.867 515.884C174.843 515.924 174.807 515.944 174.759 515.944C174.719 515.944 174.679 515.928 174.639 515.896L174.255 515.656C174.199 515.608 174.171 515.564 174.171 515.524C174.171 515.492 174.187 515.456 174.219 515.416C174.555 514.936 174.975 514.576 175.479 514.336C175.983 514.096 176.515 513.976 177.075 513.976C177.563 513.976 178.011 514.068 178.419 514.252C178.827 514.428 179.151 514.7 179.391 515.068C179.639 515.428 179.763 515.88 179.763 516.424C179.763 516.944 179.619 517.436 179.331 517.9C179.043 518.356 178.527 518.948 177.783 519.676L175.311 522.076C175.271 522.116 175.251 522.144 175.251 522.16C175.251 522.2 175.295 522.22 175.383 522.22H179.727C179.775 522.22 179.807 522.228 179.823 522.244C179.847 522.26 179.859 522.292 179.859 522.34V522.88C179.859 522.96 179.815 523 179.727 523H174.339C174.275 523 174.227 522.988 174.195 522.964C174.171 522.94 174.159 522.896 174.159 522.832V522.436C174.159 522.348 174.175 522.276 174.207 522.22C174.239 522.156 174.311 522.076 174.423 521.98L177.075 519.304ZM184.694 513.976C185.31 513.976 185.862 514.152 186.35 514.504C186.838 514.856 187.222 515.376 187.502 516.064C187.782 516.752 187.922 517.588 187.922 518.572C187.922 519.548 187.782 520.38 187.502 521.068C187.222 521.748 186.838 522.26 186.35 522.604C185.862 522.948 185.306 523.12 184.682 523.12C184.058 523.12 183.502 522.948 183.014 522.604C182.526 522.26 182.142 521.752 181.862 521.08C181.582 520.4 181.442 519.572 181.442 518.596C181.442 517.612 181.582 516.772 181.862 516.076C182.142 515.38 182.526 514.856 183.014 514.504C183.51 514.152 184.07 513.976 184.694 513.976ZM184.706 522.388C185.426 522.388 185.986 522.08 186.386 521.464C186.794 520.84 186.998 519.876 186.998 518.572C186.998 517.26 186.794 516.288 186.386 515.656C185.978 515.016 185.414 514.696 184.694 514.696C183.974 514.696 183.406 515.016 182.99 515.656C182.582 516.296 182.378 517.268 182.378 518.572C182.378 519.868 182.586 520.828 183.002 521.452C183.418 522.076 183.986 522.388 184.706 522.388ZM193.593 522.256C193.665 522.256 193.701 522.288 193.701 522.352V522.892C193.701 522.916 193.689 522.94 193.665 522.964C193.649 522.988 193.621 523 193.581 523H189.525C189.453 523 189.417 522.968 189.417 522.904V522.352C189.417 522.288 189.449 522.256 189.513 522.256H191.109C191.165 522.256 191.193 522.236 191.193 522.196V515.2C191.193 515.112 191.161 515.084 191.097 515.116L189.537 515.704L189.489 515.716C189.433 515.716 189.405 515.676 189.405 515.596V515.188C189.405 515.14 189.409 515.112 189.417 515.104C189.425 515.088 189.453 515.068 189.501 515.044L191.229 514.18C191.325 514.124 191.429 514.096 191.541 514.096H191.985C192.017 514.096 192.041 514.108 192.057 514.132C192.081 514.156 192.093 514.188 192.093 514.228V522.172C192.093 522.228 192.117 522.256 192.165 522.256H193.593ZM197.77 519.304C198.434 518.656 198.898 518.12 199.162 517.696C199.434 517.264 199.57 516.82 199.57 516.364C199.57 516.02 199.478 515.724 199.294 515.476C199.118 515.22 198.882 515.028 198.586 514.9C198.298 514.772 197.994 514.708 197.674 514.708C197.29 514.708 196.906 514.808 196.522 515.008C196.138 515.2 195.818 515.492 195.562 515.884C195.538 515.924 195.502 515.944 195.454 515.944C195.414 515.944 195.374 515.928 195.334 515.896L194.95 515.656C194.894 515.608 194.866 515.564 194.866 515.524C194.866 515.492 194.882 515.456 194.914 515.416C195.25 514.936 195.67 514.576 196.174 514.336C196.678 514.096 197.21 513.976 197.77 513.976C198.258 513.976 198.706 514.068 199.114 514.252C199.522 514.428 199.846 514.7 200.086 515.068C200.334 515.428 200.458 515.88 200.458 516.424C200.458 516.944 200.314 517.436 200.026 517.9C199.738 518.356 199.222 518.948 198.478 519.676L196.006 522.076C195.966 522.116 195.946 522.144 195.946 522.16C195.946 522.2 195.99 522.22 196.078 522.22H200.422C200.47 522.22 200.502 522.228 200.518 522.244C200.542 522.26 200.554 522.292 200.554 522.34V522.88C200.554 522.96 200.51 523 200.422 523H195.034C194.97 523 194.922 522.988 194.89 522.964C194.866 522.94 194.854 522.896 194.854 522.832V522.436C194.854 522.348 194.87 522.276 194.902 522.22C194.934 522.156 195.006 522.076 195.118 521.98L197.77 519.304Z" fill="black"/>
<path d="M285.565 178.774C285.669 178.774 285.721 178.834 285.721 178.954V187.45C285.721 187.538 285.701 187.598 285.661 187.63C285.629 187.662 285.565 187.678 285.469 187.678H284.485C284.405 187.678 284.349 187.666 284.317 187.642C284.285 187.61 284.269 187.558 284.269 187.486V178.954C284.269 178.834 284.325 178.774 284.437 178.774H285.565ZM289.619 182.23C289.547 182.23 289.511 182.27 289.511 182.35V185.866C289.511 186.202 289.571 186.434 289.691 186.562C289.819 186.69 290.019 186.754 290.291 186.754H291.059C291.155 186.754 291.203 186.802 291.203 186.898V187.414C291.203 187.526 291.143 187.594 291.023 187.618C290.767 187.658 290.359 187.678 289.799 187.678C289.271 187.678 288.879 187.558 288.623 187.318C288.367 187.07 288.239 186.69 288.239 186.178V182.374C288.239 182.278 288.199 182.23 288.119 182.23H287.219C287.115 182.23 287.063 182.182 287.063 182.086V181.45C287.063 181.362 287.111 181.318 287.207 181.318H288.167C288.231 181.318 288.263 181.282 288.263 181.21L288.407 179.326C288.423 179.214 288.471 179.158 288.551 179.158H289.379C289.483 179.158 289.535 179.222 289.535 179.35V181.21C289.535 181.282 289.571 181.318 289.643 181.318H291.083C291.179 181.318 291.227 181.362 291.227 181.45V182.086C291.227 182.182 291.171 182.23 291.059 182.23H289.619ZM296.08 186.958C295.496 187.518 294.812 187.798 294.028 187.798C293.412 187.798 292.924 187.642 292.564 187.33C292.212 187.01 292.036 186.586 292.036 186.058C292.036 185.41 292.316 184.894 292.876 184.51C293.444 184.126 294.248 183.91 295.288 183.862L296.068 183.802C296.196 183.786 296.26 183.726 296.26 183.622V183.322C296.26 182.93 296.14 182.622 295.9 182.398C295.66 182.166 295.332 182.05 294.916 182.05C294.26 182.05 293.736 182.346 293.344 182.938C293.32 182.986 293.292 183.018 293.26 183.034C293.236 183.042 293.196 183.038 293.14 183.022L292.324 182.782C292.276 182.766 292.252 182.734 292.252 182.686C292.252 182.654 292.264 182.61 292.288 182.554C292.512 182.122 292.852 181.79 293.308 181.558C293.772 181.318 294.328 181.198 294.976 181.198C295.816 181.198 296.444 181.378 296.86 181.738C297.276 182.098 297.484 182.598 297.484 183.238V187.474C297.484 187.554 297.468 187.61 297.436 187.642C297.412 187.666 297.368 187.678 297.304 187.678H296.5C296.388 187.678 296.324 187.598 296.308 187.438L296.284 186.982C296.268 186.918 296.244 186.886 296.212 186.886C296.188 186.886 296.144 186.91 296.08 186.958ZM296.26 184.69C296.26 184.562 296.204 184.502 296.092 184.51L295.444 184.558C294.78 184.598 294.252 184.734 293.86 184.966C293.476 185.19 293.284 185.502 293.284 185.902C293.284 186.214 293.396 186.462 293.62 186.646C293.844 186.822 294.144 186.91 294.52 186.91C294.952 186.91 295.36 186.762 295.744 186.466C296.088 186.186 296.26 185.906 296.26 185.626V184.69ZM300.349 187.45C300.349 187.538 300.329 187.598 300.289 187.63C300.257 187.662 300.193 187.678 300.097 187.678H299.281C299.201 187.678 299.145 187.666 299.113 187.642C299.081 187.61 299.065 187.558 299.065 187.486L299.089 178.954C299.089 178.834 299.141 178.774 299.245 178.774H300.193C300.297 178.774 300.349 178.834 300.349 178.954V187.45ZM303.349 180.046C303.349 180.134 303.329 180.198 303.289 180.238C303.257 180.278 303.197 180.298 303.109 180.298H302.221C302.141 180.298 302.085 180.282 302.053 180.25C302.021 180.21 302.005 180.15 302.005 180.07V178.978C302.005 178.842 302.065 178.774 302.185 178.774H303.181C303.229 178.774 303.269 178.794 303.301 178.834C303.333 178.866 303.349 178.91 303.349 178.966V180.046ZM303.313 187.45C303.313 187.538 303.293 187.598 303.253 187.63C303.221 187.662 303.161 187.678 303.073 187.678H302.257C302.177 187.678 302.121 187.666 302.089 187.642C302.057 187.61 302.041 187.558 302.041 187.486V181.498C302.041 181.434 302.053 181.39 302.077 181.366C302.101 181.334 302.145 181.318 302.209 181.318H303.169C303.265 181.318 303.313 181.374 303.313 181.486V187.45ZM308.642 186.958C308.058 187.518 307.374 187.798 306.59 187.798C305.974 187.798 305.486 187.642 305.126 187.33C304.774 187.01 304.598 186.586 304.598 186.058C304.598 185.41 304.878 184.894 305.438 184.51C306.006 184.126 306.81 183.91 307.85 183.862L308.63 183.802C308.758 183.786 308.822 183.726 308.822 183.622V183.322C308.822 182.93 308.702 182.622 308.462 182.398C308.222 182.166 307.894 182.05 307.478 182.05C306.822 182.05 306.298 182.346 305.906 182.938C305.882 182.986 305.854 183.018 305.822 183.034C305.798 183.042 305.758 183.038 305.702 183.022L304.886 182.782C304.838 182.766 304.814 182.734 304.814 182.686C304.814 182.654 304.826 182.61 304.85 182.554C305.074 182.122 305.414 181.79 305.87 181.558C306.334 181.318 306.89 181.198 307.538 181.198C308.378 181.198 309.006 181.378 309.422 181.738C309.838 182.098 310.046 182.598 310.046 183.238V187.474C310.046 187.554 310.03 187.61 309.998 187.642C309.974 187.666 309.93 187.678 309.866 187.678H309.062C308.95 187.678 308.886 187.598 308.87 187.438L308.846 186.982C308.83 186.918 308.806 186.886 308.774 186.886C308.75 186.886 308.706 186.91 308.642 186.958ZM308.822 184.69C308.822 184.562 308.766 184.502 308.654 184.51L308.006 184.558C307.342 184.598 306.814 184.734 306.422 184.966C306.038 185.19 305.846 185.502 305.846 185.902C305.846 186.214 305.958 186.462 306.182 186.646C306.406 186.822 306.706 186.91 307.082 186.91C307.514 186.91 307.922 186.762 308.306 186.466C308.65 186.186 308.822 185.906 308.822 185.626V184.69Z" fill="#F24E1E"/>
<path d="M276.677 139.349C276.677 139.285 276.689 139.241 276.713 139.217C276.737 139.185 276.781 139.169 276.845 139.169H282.437C282.533 139.169 282.581 139.221 282.581 139.325L282.569 140.081C282.569 140.201 282.509 140.261 282.389 140.261H278.309C278.189 140.261 278.129 140.313 278.129 140.417V142.889C278.129 142.993 278.181 143.045 278.285 143.045H281.213C281.317 143.045 281.369 143.093 281.369 143.189V143.993C281.369 144.081 281.317 144.125 281.213 144.125H278.273C278.177 144.125 278.129 144.169 278.129 144.257V146.849C278.129 146.897 278.137 146.933 278.153 146.957C278.177 146.973 278.209 146.981 278.249 146.981H282.557C282.621 146.981 282.665 146.993 282.689 147.017C282.713 147.033 282.725 147.069 282.725 147.125V147.917C282.725 148.021 282.669 148.073 282.557 148.073H276.881C276.801 148.073 276.745 148.061 276.713 148.037C276.689 148.005 276.677 147.953 276.677 147.881V139.349ZM290.846 145.001C290.846 146.113 290.566 146.925 290.006 147.437C289.446 147.941 288.618 148.193 287.522 148.193C286.362 148.193 285.518 147.917 284.99 147.365C284.462 146.805 284.198 145.949 284.198 144.797V139.361C284.198 139.233 284.25 139.169 284.354 139.169H285.494C285.598 139.169 285.65 139.229 285.65 139.349V145.049C285.65 146.425 286.31 147.113 287.63 147.113C288.974 147.113 289.646 146.413 289.646 145.013V139.349C289.646 139.229 289.694 139.169 289.79 139.169H290.702C290.798 139.169 290.846 139.225 290.846 139.337V145.001Z" fill="black"/>
<path d="M247.794 519.304C248.458 518.656 248.922 518.12 249.186 517.696C249.458 517.264 249.594 516.82 249.594 516.364C249.594 516.02 249.502 515.724 249.318 515.476C249.142 515.22 248.906 515.028 248.61 514.9C248.322 514.772 248.018 514.708 247.698 514.708C247.314 514.708 246.93 514.808 246.546 515.008C246.162 515.2 245.842 515.492 245.586 515.884C245.562 515.924 245.526 515.944 245.478 515.944C245.438 515.944 245.398 515.928 245.358 515.896L244.974 515.656C244.918 515.608 244.89 515.564 244.89 515.524C244.89 515.492 244.906 515.456 244.938 515.416C245.274 514.936 245.694 514.576 246.198 514.336C246.702 514.096 247.234 513.976 247.794 513.976C248.282 513.976 248.73 514.068 249.138 514.252C249.546 514.428 249.87 514.7 250.11 515.068C250.358 515.428 250.482 515.88 250.482 516.424C250.482 516.944 250.338 517.436 250.05 517.9C249.762 518.356 249.246 518.948 248.502 519.676L246.03 522.076C245.99 522.116 245.97 522.144 245.97 522.16C245.97 522.2 246.014 522.22 246.102 522.22H250.446C250.494 522.22 250.526 522.228 250.542 522.244C250.566 522.26 250.578 522.292 250.578 522.34V522.88C250.578 522.96 250.534 523 250.446 523H245.058C244.994 523 244.946 522.988 244.914 522.964C244.89 522.94 244.878 522.896 244.878 522.832V522.436C244.878 522.348 244.894 522.276 244.926 522.22C244.958 522.156 245.03 522.076 245.142 521.98L247.794 519.304ZM255.413 513.976C256.029 513.976 256.581 514.152 257.069 514.504C257.557 514.856 257.941 515.376 258.221 516.064C258.501 516.752 258.641 517.588 258.641 518.572C258.641 519.548 258.501 520.38 258.221 521.068C257.941 521.748 257.557 522.26 257.069 522.604C256.581 522.948 256.025 523.12 255.401 523.12C254.777 523.12 254.221 522.948 253.733 522.604C253.245 522.26 252.861 521.752 252.581 521.08C252.301 520.4 252.161 519.572 252.161 518.596C252.161 517.612 252.301 516.772 252.581 516.076C252.861 515.38 253.245 514.856 253.733 514.504C254.229 514.152 254.789 513.976 255.413 513.976ZM255.425 522.388C256.145 522.388 256.705 522.08 257.105 521.464C257.513 520.84 257.717 519.876 257.717 518.572C257.717 517.26 257.513 516.288 257.105 515.656C256.697 515.016 256.133 514.696 255.413 514.696C254.693 514.696 254.125 515.016 253.709 515.656C253.301 516.296 253.097 517.268 253.097 518.572C253.097 519.868 253.305 520.828 253.721 521.452C254.137 522.076 254.705 522.388 255.425 522.388ZM264.312 522.256C264.384 522.256 264.42 522.288 264.42 522.352V522.892C264.42 522.916 264.408 522.94 264.384 522.964C264.368 522.988 264.34 523 264.3 523H260.244C260.172 523 260.136 522.968 260.136 522.904V522.352C260.136 522.288 260.168 522.256 260.232 522.256H261.828C261.884 522.256 261.912 522.236 261.912 522.196V515.2C261.912 515.112 261.88 515.084 261.816 515.116L260.256 515.704L260.208 515.716C260.152 515.716 260.124 515.676 260.124 515.596V515.188C260.124 515.14 260.128 515.112 260.136 515.104C260.144 515.088 260.172 515.068 260.22 515.044L261.948 514.18C262.044 514.124 262.148 514.096 262.26 514.096H262.704C262.736 514.096 262.76 514.108 262.776 514.132C262.8 514.156 262.812 514.188 262.812 514.228V522.172C262.812 522.228 262.836 522.256 262.884 522.256H264.312ZM269.377 513.976C270.297 513.976 271.033 514.328 271.585 515.032C271.601 515.08 271.609 515.116 271.609 515.14C271.617 515.156 271.601 515.176 271.561 515.2L271.033 515.452C271.025 515.46 271.009 515.464 270.985 515.464C270.945 515.464 270.905 515.436 270.865 515.38C270.673 515.156 270.461 514.988 270.229 514.876C269.997 514.764 269.717 514.708 269.389 514.708C268.485 514.708 267.809 515.02 267.361 515.644C266.921 516.268 266.701 517.096 266.701 518.128C266.701 518.232 266.705 518.304 266.713 518.344C266.729 518.384 266.753 518.404 266.785 518.404C266.817 518.404 266.857 518.392 266.905 518.368C267.337 518.16 267.721 518 268.057 517.888C268.401 517.776 268.793 517.72 269.233 517.72C269.833 517.72 270.349 517.832 270.781 518.056C271.221 518.28 271.553 518.588 271.777 518.98C272.001 519.372 272.113 519.82 272.113 520.324C272.113 520.868 271.977 521.352 271.705 521.776C271.441 522.2 271.077 522.532 270.613 522.772C270.157 523.004 269.653 523.12 269.101 523.12C268.421 523.12 267.833 522.948 267.337 522.604C266.841 522.252 266.461 521.744 266.197 521.08C265.933 520.408 265.801 519.604 265.801 518.668C265.801 517.7 265.941 516.864 266.221 516.16C266.509 515.456 266.921 514.916 267.457 514.54C267.993 514.164 268.633 513.976 269.377 513.976ZM269.173 518.428C268.829 518.428 268.441 518.484 268.009 518.596C267.585 518.7 267.245 518.836 266.989 519.004C266.885 519.076 266.813 519.148 266.773 519.22C266.741 519.292 266.725 519.404 266.725 519.556C266.725 519.98 266.813 520.412 266.989 520.852C267.173 521.292 267.445 521.664 267.805 521.968C268.165 522.264 268.605 522.412 269.125 522.412C269.517 522.412 269.869 522.32 270.181 522.136C270.501 521.952 270.753 521.704 270.937 521.392C271.121 521.072 271.213 520.724 271.213 520.348C271.213 519.996 271.129 519.676 270.961 519.388C270.801 519.092 270.565 518.86 270.253 518.692C269.949 518.516 269.589 518.428 269.173 518.428Z" fill="black"/>
<path d="M46.4033 317.006L81.5227 303.305L116.686 256.135L152.706 225.26L187.869 198.673L223.032 182.378L258.196 172.944L294.216 159.222L314.799 148.073" stroke="black" stroke-width="2" stroke-linecap="round" stroke-linejoin="round"/>
</svg>
