<svg width="17" height="16" viewBox="0 0 17 16" fill="none" xmlns="http://www.w3.org/2000/svg">
<path d="M3.55536 1.76917C3.55512 2.23815 3.36761 2.68783 3.03406 3.01928C2.70051 3.35073 2.24826 3.53681 1.77679 3.53657C1.30532 3.53634 0.853255 3.34981 0.520042 3.01803C0.186829 2.68625 -0.000235512 2.23638 2.22531e-07 1.7674C0.000235957 1.29842 0.187753 0.848746 0.521299 0.517294C0.854845 0.185842 1.3071 -0.000234268 1.77857 2.21355e-07C2.25004 0.000234711 2.7021 0.186761 3.03532 0.518545C3.36853 0.850329 3.5556 1.30019 3.55536 1.76917ZM3.60869 4.84599H0.0533306V15.9155H3.60869V4.84599ZM9.22616 4.84599H5.68857V15.9155H9.1906V10.1066C9.1906 6.87068 13.4304 6.57007 13.4304 10.1066V15.9155H16.9413V8.90421C16.9413 3.44904 10.6661 3.6524 9.1906 6.33135L9.22616 4.84599Z" fill="black"/>
</svg>
