<svg width="382" height="332" viewBox="0 0 382 332" fill="none" xmlns="http://www.w3.org/2000/svg">
<g filter="url(#filter0_d_2605_9127)">
<rect x="7" y="6" width="366" height="55" rx="4" fill="white"/>
<rect x="7.5" y="6.5" width="365" height="54" rx="3.5" stroke="#F24E1E"/>
</g>
<g filter="url(#filter1_d_2605_9127)">
<rect x="7" y="93" width="366" height="55" rx="4" fill="white"/>
<rect x="7.5" y="93.5" width="365" height="54" rx="3.5" stroke="#F24E1E"/>
</g>
<g filter="url(#filter2_d_2605_9127)">
<rect x="7" y="180" width="366" height="55" rx="4" fill="white"/>
<rect x="7.5" y="180.5" width="365" height="54" rx="3.5" stroke="#F24E1E"/>
</g>
<g filter="url(#filter3_d_2605_9127)">
<rect x="7" y="267" width="366" height="55" rx="4" fill="white"/>
<rect x="7.5" y="267.5" width="365" height="54" rx="3.5" stroke="#F24E1E"/>
</g>
<path d="M30.306 28.472C30.95 28.472 31.5567 28.6073 32.126 28.878C32.6953 29.1393 33.1667 29.494 33.54 29.942C33.9133 30.39 34.142 30.88 34.226 31.412C34.2353 31.4493 34.24 31.496 34.24 31.552C34.24 31.5987 34.2307 31.6313 34.212 31.65C34.1933 31.6593 34.156 31.6687 34.1 31.678L32.798 31.762H32.756C32.7 31.762 32.658 31.7107 32.63 31.608C32.4993 31.0293 32.2333 30.5673 31.832 30.222C31.44 29.8767 30.95 29.704 30.362 29.704C29.4567 29.704 28.766 30.0447 28.29 30.726C27.8233 31.398 27.59 32.42 27.59 33.792C27.59 35.1547 27.8233 36.172 28.29 36.844C28.766 37.516 29.4753 37.852 30.418 37.852C31.0527 37.852 31.58 37.698 32 37.39C32.4293 37.082 32.7747 36.5873 33.036 35.906C33.0453 35.8407 33.1153 35.8173 33.246 35.836L34.24 36.074C34.324 36.0927 34.3567 36.172 34.338 36.312C34.2073 36.76 33.9693 37.1987 33.624 37.628C33.288 38.0573 32.84 38.4167 32.28 38.706C31.72 38.9953 31.076 39.14 30.348 39.14C29.4147 39.14 28.6073 38.9207 27.926 38.482C27.2447 38.0433 26.722 37.4227 26.358 36.62C25.994 35.808 25.812 34.8607 25.812 33.778C25.812 32.686 25.9893 31.7433 26.344 30.95C26.708 30.1473 27.226 29.536 27.898 29.116C28.5793 28.6867 29.382 28.472 30.306 28.472ZM36.767 39C36.655 39 36.599 38.944 36.599 38.832L36.627 38.706L40.197 28.836C40.225 28.752 40.2623 28.696 40.309 28.668C40.3557 28.6307 40.421 28.612 40.505 28.612H41.919C42.0963 28.612 42.213 28.6913 42.269 28.85L45.811 38.72C45.8203 38.7387 45.825 38.7713 45.825 38.818C45.825 38.9393 45.7737 39 45.671 39H44.341C44.2197 39 44.1403 38.944 44.103 38.832L43.207 36.34C43.1883 36.2933 43.1697 36.2607 43.151 36.242C43.1323 36.2233 43.095 36.214 43.039 36.214H39.161C39.077 36.214 39.021 36.2513 38.993 36.326L38.083 38.86C38.055 38.9533 37.9757 39 37.845 39H36.767ZM42.605 34.898C42.6703 34.898 42.7077 34.884 42.717 34.856C42.7357 34.8187 42.7357 34.7673 42.717 34.702L41.205 30.502C41.177 30.4367 41.1443 30.404 41.107 30.404C41.0697 30.404 41.037 30.4413 41.009 30.516L39.455 34.716L39.441 34.8C39.441 34.8653 39.483 34.898 39.567 34.898H42.605ZM49.258 39C49.1086 39 49.034 38.9207 49.034 38.762V28.822C49.034 28.7473 49.048 28.696 49.076 28.668C49.104 28.6307 49.1553 28.612 49.23 28.612H51.064C51.148 28.612 51.2086 28.626 51.246 28.654C51.2833 28.6727 51.3113 28.7147 51.33 28.78L54.13 36.13C54.158 36.214 54.1906 36.256 54.228 36.256C54.256 36.256 54.2933 36.2093 54.34 36.116L57.098 28.836C57.154 28.6867 57.238 28.612 57.35 28.612H59.254C59.3753 28.612 59.436 28.682 59.436 28.822V38.748C59.436 38.8413 59.4173 38.9067 59.38 38.944C59.3426 38.9813 59.2773 39 59.184 39H57.98C57.896 39 57.8353 38.986 57.798 38.958C57.7606 38.9207 57.742 38.86 57.742 38.776V31.104C57.742 31.0573 57.7326 31.0387 57.714 31.048C57.6953 31.048 57.6766 31.0713 57.658 31.118L54.774 38.804C54.7273 38.9347 54.6386 39 54.508 39H53.668C53.528 39 53.43 38.9393 53.374 38.818L50.546 31.202C50.5273 31.1367 50.504 31.1087 50.476 31.118C50.4573 31.118 50.448 31.146 50.448 31.202V38.804C50.448 38.8787 50.434 38.93 50.406 38.958C50.378 38.986 50.322 39 50.238 39H49.258ZM63.5092 39C63.4439 39 63.3925 38.9813 63.3552 38.944C63.3179 38.9067 63.2992 38.86 63.2992 38.804V28.85C63.2992 28.6913 63.3739 28.612 63.5232 28.612H66.9252C68.2132 28.612 69.2025 28.8453 69.8932 29.312C70.5839 29.7693 70.9292 30.4367 70.9292 31.314C70.9292 31.8647 70.7845 32.3313 70.4952 32.714C70.2059 33.0873 69.7392 33.3907 69.0952 33.624C69.0579 33.6333 69.0392 33.6567 69.0392 33.694C69.0392 33.722 69.0579 33.7407 69.0952 33.75C69.7859 33.9367 70.3039 34.2307 70.6492 34.632C71.0039 35.0333 71.1812 35.5607 71.1812 36.214C71.1812 37.1473 70.8312 37.8473 70.1312 38.314C69.4312 38.7713 68.4045 39 67.0512 39H63.5092ZM67.1212 33.134C67.7092 33.134 68.2085 33.0033 68.6192 32.742C69.0299 32.4807 69.2352 32.07 69.2352 31.51C69.2352 30.95 69.0299 30.5253 68.6192 30.236C68.2179 29.9467 67.6625 29.802 66.9532 29.802H65.2032C65.0632 29.802 64.9932 29.8627 64.9932 29.984V32.938C64.9932 33.0687 65.0445 33.134 65.1472 33.134H67.1212ZM66.9812 37.81C68.6052 37.81 69.4172 37.2453 69.4172 36.116C69.4172 35.528 69.2072 35.0893 68.7872 34.8C68.3672 34.5107 67.8119 34.366 67.1212 34.366H65.2172C65.1332 34.366 65.0725 34.38 65.0352 34.408C65.0072 34.436 64.9932 34.4827 64.9932 34.548V37.6C64.9932 37.74 65.0445 37.81 65.1472 37.81H66.9812ZM76.1096 28.612C76.231 28.612 76.2916 28.682 76.2916 28.822V38.734C76.2916 38.8367 76.2683 38.9067 76.2216 38.944C76.1843 38.9813 76.1096 39 75.9976 39H74.8496C74.7563 39 74.691 38.986 74.6536 38.958C74.6163 38.9207 74.5976 38.86 74.5976 38.776V28.822C74.5976 28.682 74.663 28.612 74.7936 28.612H76.1096ZM79.6775 39C79.5655 39 79.5095 38.944 79.5095 38.832L79.5375 38.706L83.1075 28.836C83.1355 28.752 83.1729 28.696 83.2195 28.668C83.2662 28.6307 83.3315 28.612 83.4155 28.612H84.8295C85.0069 28.612 85.1235 28.6913 85.1795 28.85L88.7215 38.72C88.7309 38.7387 88.7355 38.7713 88.7355 38.818C88.7355 38.9393 88.6842 39 88.5815 39H87.2515C87.1302 39 87.0509 38.944 87.0135 38.832L86.1175 36.34C86.0989 36.2933 86.0802 36.2607 86.0615 36.242C86.0429 36.2233 86.0055 36.214 85.9495 36.214H82.0715C81.9875 36.214 81.9315 36.2513 81.9035 36.326L80.9935 38.86C80.9655 38.9533 80.8862 39 80.7555 39H79.6775ZM85.5155 34.898C85.5809 34.898 85.6182 34.884 85.6275 34.856C85.6462 34.8187 85.6462 34.7673 85.6275 34.702L84.1155 30.502C84.0875 30.4367 84.0549 30.404 84.0175 30.404C83.9802 30.404 83.9475 30.4413 83.9195 30.516L82.3655 34.716L82.3515 34.8C82.3515 34.8653 82.3935 34.898 82.4775 34.898H85.5155ZM92.1685 39C92.0192 39 91.9445 38.9207 91.9445 38.762V28.822C91.9445 28.7473 91.9585 28.696 91.9865 28.668C92.0145 28.6307 92.0658 28.612 92.1405 28.612H93.9745C94.0585 28.612 94.1192 28.626 94.1565 28.654C94.1938 28.6727 94.2218 28.7147 94.2405 28.78L97.0405 36.13C97.0685 36.214 97.1012 36.256 97.1385 36.256C97.1665 36.256 97.2038 36.2093 97.2505 36.116L100.009 28.836C100.065 28.6867 100.149 28.612 100.261 28.612H102.165C102.286 28.612 102.347 28.682 102.347 28.822V38.748C102.347 38.8413 102.328 38.9067 102.291 38.944C102.253 38.9813 102.188 39 102.095 39H100.891C100.807 39 100.746 38.986 100.709 38.958C100.671 38.9207 100.653 38.86 100.653 38.776V31.104C100.653 31.0573 100.643 31.0387 100.625 31.048C100.606 31.048 100.587 31.0713 100.569 31.118L97.6845 38.804C97.6378 38.9347 97.5492 39 97.4185 39H96.5785C96.4385 39 96.3405 38.9393 96.2845 38.818L93.4565 31.202C93.4378 31.1367 93.4145 31.1087 93.3865 31.118C93.3678 31.118 93.3585 31.146 93.3585 31.202V38.804C93.3585 38.8787 93.3445 38.93 93.3165 38.958C93.2885 38.986 93.2325 39 93.1485 39H92.1685ZM106.21 28.822C106.21 28.7473 106.224 28.696 106.252 28.668C106.28 28.6307 106.331 28.612 106.406 28.612H112.93C113.042 28.612 113.098 28.6727 113.098 28.794L113.084 29.676C113.084 29.816 113.014 29.886 112.874 29.886H108.114C107.974 29.886 107.904 29.9467 107.904 30.068V32.952C107.904 33.0733 107.964 33.134 108.086 33.134H111.502C111.623 33.134 111.684 33.19 111.684 33.302V34.24C111.684 34.3427 111.623 34.394 111.502 34.394H108.072C107.96 34.394 107.904 34.4453 107.904 34.548V37.572C107.904 37.628 107.913 37.67 107.932 37.698C107.96 37.7167 107.997 37.726 108.044 37.726H113.07C113.144 37.726 113.196 37.74 113.224 37.768C113.252 37.7867 113.266 37.8287 113.266 37.894V38.818C113.266 38.9393 113.2 39 113.07 39H106.448C106.354 39 106.289 38.986 106.252 38.958C106.224 38.9207 106.21 38.86 106.21 38.776V28.822ZM124.49 28.612C124.593 28.612 124.644 28.6727 124.644 28.794V38.818C124.644 38.874 124.625 38.9207 124.588 38.958C124.551 38.986 124.499 39 124.434 39H123.524C123.449 39 123.389 38.9953 123.342 38.986C123.305 38.9673 123.263 38.9253 123.216 38.86L118.106 31.524C118.069 31.4587 118.031 31.4307 117.994 31.44C117.966 31.4493 117.952 31.482 117.952 31.538V38.804C117.952 38.9347 117.877 39 117.728 39H116.734C116.585 39 116.51 38.9347 116.51 38.804V28.822C116.51 28.7473 116.524 28.696 116.552 28.668C116.589 28.6307 116.645 28.612 116.72 28.612H117.812C117.896 28.612 117.957 28.626 117.994 28.654C118.041 28.6727 118.083 28.7147 118.12 28.78L123.02 35.878C123.076 35.9433 123.118 35.976 123.146 35.976C123.202 35.976 123.23 35.934 123.23 35.85V28.808C123.23 28.6773 123.295 28.612 123.426 28.612H124.49ZM127.82 28.808C127.82 28.6773 127.89 28.612 128.03 28.612H135.716C135.846 28.612 135.912 28.6773 135.912 28.808V29.704C135.912 29.816 135.846 29.872 135.716 29.872H132.944C132.888 29.872 132.85 29.8813 132.832 29.9C132.813 29.9187 132.804 29.9513 132.804 29.998V38.79C132.804 38.93 132.738 39 132.608 39H131.292C131.17 39 131.11 38.9347 131.11 38.804V30.026C131.11 29.9607 131.096 29.9187 131.068 29.9C131.049 29.8813 131.012 29.872 130.956 29.872H128.016C127.885 29.872 127.82 29.816 127.82 29.704V28.808ZM142.513 39.14C141.57 39.14 140.758 38.9347 140.077 38.524C139.395 38.104 138.873 37.4973 138.509 36.704C138.145 35.9107 137.963 34.9587 137.963 33.848C137.963 32.728 138.145 31.7667 138.509 30.964C138.882 30.152 139.409 29.536 140.091 29.116C140.781 28.6867 141.593 28.472 142.527 28.472C143.451 28.472 144.249 28.6867 144.921 29.116C145.602 29.536 146.125 30.1473 146.489 30.95C146.862 31.7527 147.049 32.714 147.049 33.834C147.049 34.9447 146.867 35.8967 146.503 36.69C146.139 37.4833 145.616 38.09 144.935 38.51C144.253 38.93 143.446 39.14 142.513 39.14ZM142.527 37.894C143.46 37.894 144.151 37.5673 144.599 36.914C145.056 36.2607 145.285 35.2387 145.285 33.848C145.285 32.4387 145.056 31.398 144.599 30.726C144.141 30.0447 143.451 29.704 142.527 29.704C141.593 29.704 140.893 30.0447 140.427 30.726C139.96 31.398 139.727 32.4387 139.727 33.848C139.727 35.2293 139.955 36.2513 140.413 36.914C140.879 37.5673 141.584 37.894 142.527 37.894ZM158.942 28.472C159.586 28.472 160.193 28.6073 160.762 28.878C161.331 29.1393 161.803 29.494 162.176 29.942C162.549 30.39 162.778 30.88 162.862 31.412C162.871 31.4493 162.876 31.496 162.876 31.552C162.876 31.5987 162.867 31.6313 162.848 31.65C162.829 31.6593 162.792 31.6687 162.736 31.678L161.434 31.762H161.392C161.336 31.762 161.294 31.7107 161.266 31.608C161.135 31.0293 160.869 30.5673 160.468 30.222C160.076 29.8767 159.586 29.704 158.998 29.704C158.093 29.704 157.402 30.0447 156.926 30.726C156.459 31.398 156.226 32.42 156.226 33.792C156.226 35.1547 156.459 36.172 156.926 36.844C157.402 37.516 158.111 37.852 159.054 37.852C159.689 37.852 160.216 37.698 160.636 37.39C161.065 37.082 161.411 36.5873 161.672 35.906C161.681 35.8407 161.751 35.8173 161.882 35.836L162.876 36.074C162.96 36.0927 162.993 36.172 162.974 36.312C162.843 36.76 162.605 37.1987 162.26 37.628C161.924 38.0573 161.476 38.4167 160.916 38.706C160.356 38.9953 159.712 39.14 158.984 39.14C158.051 39.14 157.243 38.9207 156.562 38.482C155.881 38.0433 155.358 37.4227 154.994 36.62C154.63 35.808 154.448 34.8607 154.448 33.778C154.448 32.686 154.625 31.7433 154.98 30.95C155.344 30.1473 155.862 29.536 156.534 29.116C157.215 28.6867 158.018 28.472 158.942 28.472ZM166.235 28.822C166.235 28.682 166.3 28.612 166.431 28.612H167.747C167.868 28.612 167.929 28.682 167.929 28.822V37.572C167.929 37.628 167.938 37.67 167.957 37.698C167.985 37.7167 168.022 37.726 168.069 37.726H172.801C172.866 37.726 172.913 37.74 172.941 37.768C172.978 37.7867 172.997 37.8287 172.997 37.894V38.818C172.997 38.9393 172.931 39 172.801 39H166.473C166.389 39 166.328 38.9813 166.291 38.944C166.253 38.9067 166.235 38.8507 166.235 38.776V28.822ZM177.692 28.612C177.813 28.612 177.874 28.682 177.874 28.822V38.734C177.874 38.8367 177.85 38.9067 177.804 38.944C177.766 38.9813 177.692 39 177.58 39H176.432C176.338 39 176.273 38.986 176.236 38.958C176.198 38.9207 176.18 38.86 176.18 38.776V28.822C176.18 28.682 176.245 28.612 176.376 28.612H177.692ZM181.974 39C181.824 39 181.75 38.9207 181.75 38.762V28.822C181.75 28.7473 181.764 28.696 181.792 28.668C181.82 28.6307 181.871 28.612 181.946 28.612H183.78C183.864 28.612 183.924 28.626 183.962 28.654C183.999 28.6727 184.027 28.7147 184.046 28.78L186.846 36.13C186.874 36.214 186.906 36.256 186.944 36.256C186.972 36.256 187.009 36.2093 187.056 36.116L189.814 28.836C189.87 28.6867 189.954 28.612 190.066 28.612H191.97C192.091 28.612 192.152 28.682 192.152 28.822V38.748C192.152 38.8413 192.133 38.9067 192.096 38.944C192.058 38.9813 191.993 39 191.9 39H190.696C190.612 39 190.551 38.986 190.514 38.958C190.476 38.9207 190.458 38.86 190.458 38.776V31.104C190.458 31.0573 190.448 31.0387 190.43 31.048C190.411 31.048 190.392 31.0713 190.374 31.118L187.49 38.804C187.443 38.9347 187.354 39 187.224 39H186.384C186.244 39 186.146 38.9393 186.09 38.818L183.262 31.202C183.243 31.1367 183.22 31.1087 183.192 31.118C183.173 31.118 183.164 31.146 183.164 31.202V38.804C183.164 38.8787 183.15 38.93 183.122 38.958C183.094 38.986 183.038 39 182.954 39H181.974ZM195.525 39C195.413 39 195.357 38.944 195.357 38.832L195.385 38.706L198.955 28.836C198.983 28.752 199.02 28.696 199.067 28.668C199.113 28.6307 199.179 28.612 199.263 28.612H200.677C200.854 28.612 200.971 28.6913 201.027 28.85L204.569 38.72C204.578 38.7387 204.583 38.7713 204.583 38.818C204.583 38.9393 204.531 39 204.429 39H203.099C202.977 39 202.898 38.944 202.861 38.832L201.965 36.34C201.946 36.2933 201.927 36.2607 201.909 36.242C201.89 36.2233 201.853 36.214 201.797 36.214H197.919C197.835 36.214 197.779 36.2513 197.751 36.326L196.841 38.86C196.813 38.9533 196.733 39 196.603 39H195.525ZM201.363 34.898C201.428 34.898 201.465 34.884 201.475 34.856C201.493 34.8187 201.493 34.7673 201.475 34.702L199.963 30.502C199.935 30.4367 199.902 30.404 199.865 30.404C199.827 30.404 199.795 30.4413 199.767 30.516L198.213 34.716L198.199 34.8C198.199 34.8653 198.241 34.898 198.325 34.898H201.363ZM205.575 28.808C205.575 28.6773 205.645 28.612 205.785 28.612H213.471C213.601 28.612 213.667 28.6773 213.667 28.808V29.704C213.667 29.816 213.601 29.872 213.471 29.872H210.699C210.643 29.872 210.605 29.8813 210.587 29.9C210.568 29.9187 210.559 29.9513 210.559 29.998V38.79C210.559 38.93 210.493 39 210.363 39H209.047C208.925 39 208.865 38.9347 208.865 38.804V30.026C208.865 29.9607 208.851 29.9187 208.823 29.9C208.804 29.8813 208.767 29.872 208.711 29.872H205.771C205.64 29.872 205.575 29.816 205.575 29.704V28.808ZM218.36 28.612C218.481 28.612 218.542 28.682 218.542 28.822V38.734C218.542 38.8367 218.519 38.9067 218.472 38.944C218.435 38.9813 218.36 39 218.248 39H217.1C217.007 39 216.941 38.986 216.904 38.958C216.867 38.9207 216.848 38.86 216.848 38.776V28.822C216.848 28.682 216.913 28.612 217.044 28.612H218.36ZM226.492 28.472C227.136 28.472 227.743 28.6073 228.312 28.878C228.881 29.1393 229.353 29.494 229.726 29.942C230.099 30.39 230.328 30.88 230.412 31.412C230.421 31.4493 230.426 31.496 230.426 31.552C230.426 31.5987 230.417 31.6313 230.398 31.65C230.379 31.6593 230.342 31.6687 230.286 31.678L228.984 31.762H228.942C228.886 31.762 228.844 31.7107 228.816 31.608C228.685 31.0293 228.419 30.5673 228.018 30.222C227.626 29.8767 227.136 29.704 226.548 29.704C225.643 29.704 224.952 30.0447 224.476 30.726C224.009 31.398 223.776 32.42 223.776 33.792C223.776 35.1547 224.009 36.172 224.476 36.844C224.952 37.516 225.661 37.852 226.604 37.852C227.239 37.852 227.766 37.698 228.186 37.39C228.615 37.082 228.961 36.5873 229.222 35.906C229.231 35.8407 229.301 35.8173 229.432 35.836L230.426 36.074C230.51 36.0927 230.543 36.172 230.524 36.312C230.393 36.76 230.155 37.1987 229.81 37.628C229.474 38.0573 229.026 38.4167 228.466 38.706C227.906 38.9953 227.262 39.14 226.534 39.14C225.601 39.14 224.793 38.9207 224.112 38.482C223.431 38.0433 222.908 37.4227 222.544 36.62C222.18 35.808 221.998 34.8607 221.998 33.778C221.998 32.686 222.175 31.7433 222.53 30.95C222.894 30.1473 223.412 29.536 224.084 29.116C224.765 28.6867 225.568 28.472 226.492 28.472ZM237.929 39.14C236.986 39.14 236.174 38.9347 235.493 38.524C234.811 38.104 234.289 37.4973 233.925 36.704C233.561 35.9107 233.379 34.9587 233.379 33.848C233.379 32.728 233.561 31.7667 233.925 30.964C234.298 30.152 234.825 29.536 235.507 29.116C236.197 28.6867 237.009 28.472 237.943 28.472C238.867 28.472 239.665 28.6867 240.337 29.116C241.018 29.536 241.541 30.1473 241.905 30.95C242.278 31.7527 242.465 32.714 242.465 33.834C242.465 34.9447 242.283 35.8967 241.919 36.69C241.555 37.4833 241.032 38.09 240.351 38.51C239.669 38.93 238.862 39.14 237.929 39.14ZM237.943 37.894C238.876 37.894 239.567 37.5673 240.015 36.914C240.472 36.2607 240.701 35.2387 240.701 33.848C240.701 32.4387 240.472 31.398 240.015 30.726C239.557 30.0447 238.867 29.704 237.943 29.704C237.009 29.704 236.309 30.0447 235.843 30.726C235.376 31.398 235.143 32.4387 235.143 33.848C235.143 35.2293 235.371 36.2513 235.829 36.914C236.295 37.5673 237 37.894 237.943 37.894Z" fill="#F24E1E"/>
<path d="M31.972 117.712C31.7293 117.441 31.4307 117.208 31.076 117.012C30.7213 116.816 30.2593 116.718 29.69 116.718C29.0273 116.718 28.5093 116.858 28.136 117.138C27.772 117.409 27.59 117.787 27.59 118.272C27.59 118.403 27.6227 118.557 27.688 118.734C27.7533 118.911 27.884 119.084 28.08 119.252C28.2853 119.411 28.5793 119.56 28.962 119.7L31.062 120.358C31.9113 120.619 32.518 120.993 32.882 121.478C33.2553 121.954 33.442 122.514 33.442 123.158C33.442 123.774 33.2833 124.306 32.966 124.754C32.658 125.202 32.2147 125.547 31.636 125.79C31.0667 126.023 30.3853 126.14 29.592 126.14C29.004 126.14 28.458 126.075 27.954 125.944C27.4593 125.804 27.016 125.603 26.624 125.342C26.2413 125.071 25.9193 124.745 25.658 124.362C25.6207 124.297 25.6067 124.236 25.616 124.18C25.6253 124.124 25.6673 124.068 25.742 124.012L26.428 123.536C26.5307 123.471 26.61 123.443 26.666 123.452C26.722 123.461 26.7733 123.494 26.82 123.55C27.0533 123.849 27.2867 124.101 27.52 124.306C27.7627 124.511 28.038 124.665 28.346 124.768C28.6633 124.861 29.046 124.908 29.494 124.908C30.194 124.908 30.754 124.787 31.174 124.544C31.6033 124.292 31.818 123.895 31.818 123.354C31.818 123.139 31.776 122.948 31.692 122.78C31.608 122.603 31.4633 122.444 31.258 122.304C31.0527 122.155 30.754 122.01 30.362 121.87L28.248 121.184C27.716 121.007 27.282 120.778 26.946 120.498C26.6193 120.218 26.3767 119.901 26.218 119.546C26.0593 119.191 25.98 118.827 25.98 118.454C25.98 117.857 26.134 117.334 26.442 116.886C26.75 116.438 27.1793 116.093 27.73 115.85C28.2807 115.598 28.9247 115.472 29.662 115.472C30.1567 115.472 30.6093 115.533 31.02 115.654C31.44 115.766 31.8227 115.929 32.168 116.144C32.5133 116.349 32.8073 116.597 33.05 116.886C33.0873 116.933 33.1107 116.979 33.12 117.026C33.1387 117.073 33.1153 117.124 33.05 117.18L32.252 117.796C32.196 117.833 32.1493 117.847 32.112 117.838C32.084 117.819 32.0373 117.777 31.972 117.712ZM40.6201 115.472C41.1147 115.472 41.5814 115.551 42.0201 115.71C42.4681 115.859 42.8694 116.069 43.2241 116.34C43.5787 116.611 43.8681 116.923 44.0921 117.278C44.3254 117.623 44.4747 118.001 44.5401 118.412C44.5587 118.515 44.5587 118.585 44.5401 118.622C44.5214 118.65 44.4794 118.669 44.4141 118.678L43.1121 118.762C43.0561 118.771 43.0187 118.762 43.0001 118.734C42.9814 118.706 42.9627 118.664 42.9441 118.608C42.8227 118.048 42.5661 117.591 42.1741 117.236C41.7821 116.881 41.2827 116.704 40.6761 116.704C39.7894 116.704 39.1034 117.04 38.6181 117.712C38.1421 118.384 37.9041 119.411 37.9041 120.792C37.9041 122.155 38.1374 123.172 38.6041 123.844C39.0801 124.516 39.7894 124.852 40.7321 124.852C41.3574 124.852 41.8801 124.703 42.3001 124.404C42.7294 124.096 43.0794 123.597 43.3501 122.906C43.3781 122.841 43.4481 122.817 43.5601 122.836L44.5541 123.074C44.5821 123.083 44.6101 123.102 44.6381 123.13C44.6661 123.158 44.6707 123.219 44.6521 123.312C44.5867 123.555 44.4794 123.807 44.3301 124.068C44.1807 124.329 43.9941 124.586 43.7701 124.838C43.5461 125.081 43.2801 125.3 42.9721 125.496C42.6641 125.692 42.3141 125.851 41.9221 125.972C41.5394 126.084 41.1194 126.14 40.6621 126.14C39.7194 126.14 38.9074 125.921 38.2261 125.482C37.5541 125.043 37.0361 124.423 36.6721 123.62C36.3081 122.817 36.1261 121.87 36.1261 120.778C36.1261 119.677 36.3081 118.729 36.6721 117.936C37.0361 117.143 37.5541 116.536 38.2261 116.116C38.8981 115.687 39.6961 115.472 40.6201 115.472ZM47.0947 126C47.0294 126 46.9827 125.972 46.9547 125.916C46.9267 125.86 46.9267 125.79 46.9547 125.706L50.5247 115.836C50.5527 115.752 50.5901 115.696 50.6367 115.668C50.6834 115.631 50.7487 115.612 50.8327 115.612H52.2467C52.4241 115.612 52.5407 115.691 52.5967 115.85L56.1387 125.72C56.1667 125.785 56.1667 125.851 56.1387 125.916C56.1107 125.972 56.0594 126 55.9847 126H54.6687C54.5474 126 54.4681 125.944 54.4307 125.832L53.5347 123.34C53.5254 123.293 53.5067 123.261 53.4787 123.242C53.4601 123.223 53.4227 123.214 53.3667 123.214H49.4887C49.4047 123.214 49.3487 123.251 49.3207 123.326L48.4107 125.86C48.3921 125.907 48.3641 125.944 48.3267 125.972C48.2987 125.991 48.2474 126 48.1727 126H47.0947ZM52.9327 121.898C53.0541 121.898 53.0914 121.833 53.0447 121.702L51.5327 117.502C51.4954 117.427 51.4581 117.39 51.4207 117.39C51.3927 117.39 51.3647 117.432 51.3367 117.516L49.7827 121.716C49.7361 121.837 49.7687 121.898 49.8807 121.898H52.9327ZM67.1037 125.706C67.1317 125.781 67.127 125.851 67.0897 125.916C67.0617 125.972 67.0104 126 66.9357 126H65.5777C65.4657 126 65.3817 125.935 65.3257 125.804L63.6177 121.548C63.571 121.436 63.4544 121.38 63.2677 121.38H61.2237C61.1584 121.38 61.1117 121.399 61.0837 121.436C61.065 121.464 61.0557 121.497 61.0557 121.534V125.748C61.0557 125.916 60.967 126 60.7897 126H59.5997C59.5064 126 59.441 125.981 59.4037 125.944C59.3757 125.907 59.3617 125.851 59.3617 125.776V115.822C59.3617 115.682 59.427 115.612 59.5577 115.612H63.6037C64.7517 115.612 65.643 115.845 66.2777 116.312C66.9217 116.779 67.2437 117.46 67.2437 118.356C67.2437 118.869 67.1457 119.313 66.9497 119.686C66.7537 120.05 66.5017 120.349 66.1937 120.582C65.895 120.806 65.573 120.969 65.2277 121.072C65.1624 121.1 65.1437 121.156 65.1717 121.24L67.1037 125.706ZM63.2677 120.19C63.9957 120.19 64.5464 120.055 64.9197 119.784C65.3024 119.504 65.4937 119.07 65.4937 118.482C65.4937 117.922 65.321 117.502 64.9757 117.222C64.6304 116.942 64.1404 116.802 63.5057 116.802H61.2797C61.1304 116.802 61.0557 116.858 61.0557 116.97V119.994C61.0557 120.125 61.107 120.19 61.2097 120.19H63.2677ZM76.3591 117.712C76.1164 117.441 75.8178 117.208 75.4631 117.012C75.1084 116.816 74.6464 116.718 74.0771 116.718C73.4144 116.718 72.8964 116.858 72.5231 117.138C72.1591 117.409 71.9771 117.787 71.9771 118.272C71.9771 118.403 72.0098 118.557 72.0751 118.734C72.1404 118.911 72.2711 119.084 72.4671 119.252C72.6724 119.411 72.9664 119.56 73.3491 119.7L75.4491 120.358C76.2984 120.619 76.9051 120.993 77.2691 121.478C77.6424 121.954 77.8291 122.514 77.8291 123.158C77.8291 123.774 77.6704 124.306 77.3531 124.754C77.0451 125.202 76.6018 125.547 76.0231 125.79C75.4538 126.023 74.7724 126.14 73.9791 126.14C73.3911 126.14 72.8451 126.075 72.3411 125.944C71.8464 125.804 71.4031 125.603 71.0111 125.342C70.6284 125.071 70.3064 124.745 70.0451 124.362C70.0078 124.297 69.9938 124.236 70.0031 124.18C70.0124 124.124 70.0544 124.068 70.1291 124.012L70.8151 123.536C70.9178 123.471 70.9971 123.443 71.0531 123.452C71.1091 123.461 71.1604 123.494 71.2071 123.55C71.4404 123.849 71.6738 124.101 71.9071 124.306C72.1498 124.511 72.4251 124.665 72.7331 124.768C73.0504 124.861 73.4331 124.908 73.8811 124.908C74.5811 124.908 75.1411 124.787 75.5611 124.544C75.9904 124.292 76.2051 123.895 76.2051 123.354C76.2051 123.139 76.1631 122.948 76.0791 122.78C75.9951 122.603 75.8504 122.444 75.6451 122.304C75.4398 122.155 75.1411 122.01 74.7491 121.87L72.6351 121.184C72.1031 121.007 71.6691 120.778 71.3331 120.498C71.0064 120.218 70.7638 119.901 70.6051 119.546C70.4464 119.191 70.3671 118.827 70.3671 118.454C70.3671 117.857 70.5211 117.334 70.8291 116.886C71.1371 116.438 71.5664 116.093 72.1171 115.85C72.6678 115.598 73.3118 115.472 74.0491 115.472C74.5438 115.472 74.9964 115.533 75.4071 115.654C75.8271 115.766 76.2098 115.929 76.5551 116.144C76.9004 116.349 77.1944 116.597 77.4371 116.886C77.4744 116.933 77.4978 116.979 77.5071 117.026C77.5258 117.073 77.5024 117.124 77.4371 117.18L76.6391 117.796C76.5831 117.833 76.5364 117.847 76.4991 117.838C76.4711 117.819 76.4244 117.777 76.3591 117.712ZM82.6639 115.612C82.7853 115.612 82.8459 115.682 82.8459 115.822V125.734C82.8459 125.837 82.8226 125.907 82.7759 125.944C82.7386 125.981 82.6639 126 82.5519 126H81.4039C81.3013 126 81.2313 125.986 81.1939 125.958C81.1659 125.921 81.1519 125.86 81.1519 125.776V115.822C81.1519 115.682 81.2173 115.612 81.3479 115.612H82.6639ZM86.0358 115.808C86.0358 115.743 86.0498 115.696 86.0778 115.668C86.1152 115.631 86.1712 115.612 86.2458 115.612H93.9318C94.0065 115.612 94.0578 115.631 94.0858 115.668C94.1138 115.696 94.1278 115.743 94.1278 115.808V116.704C94.1278 116.816 94.0625 116.872 93.9318 116.872H91.1598C91.0572 116.872 91.0058 116.914 91.0058 116.998V125.79C91.0058 125.93 90.9452 126 90.8238 126H89.5078C89.3865 126 89.3258 125.935 89.3258 125.804V117.026C89.3258 116.923 89.2745 116.872 89.1718 116.872H86.2318C86.1012 116.872 86.0358 116.816 86.0358 116.704V115.808ZM95.4522 126C95.3868 126 95.3402 125.972 95.3122 125.916C95.2842 125.86 95.2842 125.79 95.3122 125.706L98.8822 115.836C98.9102 115.752 98.9475 115.696 98.9942 115.668C99.0408 115.631 99.1062 115.612 99.1902 115.612H100.604C100.781 115.612 100.898 115.691 100.954 115.85L104.496 125.72C104.524 125.785 104.524 125.851 104.496 125.916C104.468 125.972 104.417 126 104.342 126H103.026C102.905 126 102.825 125.944 102.788 125.832L101.892 123.34C101.883 123.293 101.864 123.261 101.836 123.242C101.817 123.223 101.78 123.214 101.724 123.214H97.8462C97.7622 123.214 97.7062 123.251 97.6782 123.326L96.7682 125.86C96.7495 125.907 96.7215 125.944 96.6842 125.972C96.6562 125.991 96.6048 126 96.5302 126H95.4522ZM101.29 121.898C101.411 121.898 101.449 121.833 101.402 121.702L99.8902 117.502C99.8528 117.427 99.8155 117.39 99.7782 117.39C99.7502 117.39 99.7222 117.432 99.6942 117.516L98.1402 121.716C98.0935 121.837 98.1262 121.898 98.2382 121.898H101.29ZM98.2942 112.616C98.3408 112.513 98.4062 112.481 98.4902 112.518L101.752 113.834C101.836 113.871 101.859 113.946 101.822 114.058L101.696 114.422C101.677 114.487 101.649 114.529 101.612 114.548C101.575 114.557 101.514 114.557 101.43 114.548L98.2242 113.61C98.0655 113.563 98.0095 113.47 98.0562 113.33L98.2942 112.616ZM112.324 115.612C112.427 115.612 112.59 115.612 112.814 115.612C113.047 115.612 113.295 115.617 113.556 115.626C113.827 115.626 114.074 115.626 114.298 115.626C114.531 115.626 114.704 115.626 114.816 115.626C116.095 115.645 117.135 115.859 117.938 116.27C118.741 116.671 119.329 117.245 119.702 117.992C120.085 118.739 120.276 119.653 120.276 120.736C120.276 121.875 120.071 122.836 119.66 123.62C119.259 124.404 118.643 124.997 117.812 125.398C116.991 125.799 115.95 126 114.69 126H112.338C112.17 126 112.086 125.916 112.086 125.748V115.836C112.086 115.752 112.105 115.696 112.142 115.668C112.179 115.631 112.24 115.612 112.324 115.612ZM113.92 116.858C113.827 116.858 113.78 116.923 113.78 117.054V124.6C113.78 124.712 113.836 124.768 113.948 124.768H114.41C115.353 124.768 116.127 124.637 116.734 124.376C117.341 124.115 117.789 123.695 118.078 123.116C118.367 122.528 118.512 121.753 118.512 120.792C118.512 119.803 118.367 119.023 118.078 118.454C117.789 117.885 117.345 117.479 116.748 117.236C116.16 116.984 115.409 116.858 114.494 116.858H113.92ZM125.238 115.612C125.359 115.612 125.42 115.682 125.42 115.822V125.734C125.42 125.837 125.397 125.907 125.35 125.944C125.313 125.981 125.238 126 125.126 126H123.978C123.875 126 123.805 125.986 123.768 125.958C123.74 125.921 123.726 125.86 123.726 125.776V115.822C123.726 115.682 123.791 115.612 123.922 115.612H125.238ZM133.663 115.822C133.663 115.682 133.728 115.612 133.859 115.612H140.257C140.369 115.612 140.425 115.673 140.425 115.794L140.411 116.676C140.411 116.816 140.341 116.886 140.201 116.886H135.567C135.427 116.886 135.357 116.947 135.357 117.068V120.12C135.357 120.232 135.418 120.288 135.539 120.288H139.053C139.165 120.288 139.221 120.344 139.221 120.456V121.38C139.221 121.483 139.165 121.534 139.053 121.534H135.525C135.413 121.534 135.357 121.59 135.357 121.702V125.776C135.357 125.925 135.273 126 135.105 126H133.901C133.808 126 133.742 125.986 133.705 125.958C133.677 125.921 133.663 125.86 133.663 125.776V115.822ZM147.26 126.14C146.317 126.14 145.505 125.935 144.824 125.524C144.142 125.104 143.62 124.502 143.256 123.718C142.892 122.925 142.71 121.968 142.71 120.848C142.71 119.719 142.896 118.753 143.27 117.95C143.643 117.147 144.17 116.536 144.852 116.116C145.533 115.687 146.34 115.472 147.274 115.472C148.198 115.472 148.996 115.687 149.668 116.116C150.349 116.536 150.872 117.147 151.236 117.95C151.609 118.743 151.796 119.705 151.796 120.834C151.796 121.954 151.614 122.911 151.25 123.704C150.886 124.488 150.363 125.09 149.682 125.51C149 125.93 148.193 126.14 147.26 126.14ZM147.274 124.894C148.207 124.894 148.898 124.572 149.346 123.928C149.803 123.275 150.032 122.248 150.032 120.848C150.032 119.429 149.798 118.384 149.332 117.712C148.874 117.04 148.188 116.704 147.274 116.704C146.34 116.704 145.64 117.045 145.174 117.726C144.707 118.398 144.474 119.439 144.474 120.848C144.474 122.239 144.707 123.261 145.174 123.914C145.64 124.567 146.34 124.894 147.274 124.894ZM163.228 115.612C163.331 115.612 163.382 115.673 163.382 115.794V125.818C163.382 125.874 163.363 125.921 163.326 125.958C163.289 125.986 163.237 126 163.172 126H162.262C162.197 126 162.141 125.995 162.094 125.986C162.047 125.967 162.001 125.925 161.954 125.86L156.844 118.524C156.797 118.459 156.76 118.431 156.732 118.44C156.704 118.449 156.69 118.482 156.69 118.538V125.804C156.69 125.935 156.615 126 156.466 126H155.472C155.323 126 155.248 125.935 155.248 125.804V115.822C155.248 115.682 155.318 115.612 155.458 115.612H156.55C156.625 115.612 156.681 115.621 156.718 115.64C156.765 115.659 156.811 115.705 156.858 115.78L161.758 122.878C161.814 122.953 161.861 122.985 161.898 122.976C161.945 122.957 161.968 122.915 161.968 122.85V115.808C161.968 115.677 162.033 115.612 162.164 115.612H163.228ZM166.558 115.808C166.558 115.743 166.572 115.696 166.6 115.668C166.637 115.631 166.693 115.612 166.768 115.612H174.454C174.528 115.612 174.58 115.631 174.608 115.668C174.636 115.696 174.65 115.743 174.65 115.808V116.704C174.65 116.816 174.584 116.872 174.454 116.872H171.682C171.579 116.872 171.528 116.914 171.528 116.998V125.79C171.528 125.93 171.467 126 171.346 126H170.03C169.908 126 169.848 125.935 169.848 125.804V117.026C169.848 116.923 169.796 116.872 169.694 116.872H166.754C166.623 116.872 166.558 116.816 166.558 116.704V115.808ZM179.343 115.612C179.465 115.612 179.525 115.682 179.525 115.822V125.734C179.525 125.837 179.502 125.907 179.455 125.944C179.418 125.981 179.343 126 179.231 126H178.083C177.981 126 177.911 125.986 177.873 125.958C177.845 125.921 177.831 125.86 177.831 125.776V115.822C177.831 115.682 177.897 115.612 178.027 115.612H179.343ZM187.768 115.822C187.768 115.682 187.833 115.612 187.964 115.612H194.488C194.6 115.612 194.656 115.673 194.656 115.794L194.642 116.676C194.642 116.816 194.572 116.886 194.432 116.886H189.672C189.532 116.886 189.462 116.947 189.462 117.068V119.952C189.462 120.073 189.523 120.134 189.644 120.134H193.06C193.181 120.134 193.242 120.19 193.242 120.302V121.24C193.242 121.287 193.228 121.324 193.2 121.352C193.181 121.38 193.135 121.394 193.06 121.394H189.63C189.518 121.394 189.462 121.445 189.462 121.548V124.572C189.462 124.675 189.509 124.726 189.602 124.726H194.628C194.759 124.726 194.824 124.782 194.824 124.894V125.818C194.824 125.874 194.81 125.921 194.782 125.958C194.754 125.986 194.703 126 194.628 126H188.006C187.847 126 187.768 125.925 187.768 125.776V115.822ZM206.048 115.612C206.151 115.612 206.202 115.673 206.202 115.794V125.818C206.202 125.874 206.184 125.921 206.146 125.958C206.109 125.986 206.058 126 205.992 126H205.082C205.017 126 204.961 125.995 204.914 125.986C204.868 125.967 204.821 125.925 204.774 125.86L199.664 118.524C199.618 118.459 199.58 118.431 199.552 118.44C199.524 118.449 199.51 118.482 199.51 118.538V125.804C199.51 125.935 199.436 126 199.286 126H198.292C198.143 126 198.068 125.935 198.068 125.804V115.822C198.068 115.682 198.138 115.612 198.278 115.612H199.37C199.445 115.612 199.501 115.621 199.538 115.64C199.585 115.659 199.632 115.705 199.678 115.78L204.578 122.878C204.634 122.953 204.681 122.985 204.718 122.976C204.765 122.957 204.788 122.915 204.788 122.85V115.808C204.788 115.677 204.854 115.612 204.984 115.612H206.048ZM210.064 115.822C210.064 115.682 210.129 115.612 210.26 115.612H216.784C216.896 115.612 216.952 115.673 216.952 115.794L216.938 116.676C216.938 116.816 216.868 116.886 216.728 116.886H211.968C211.828 116.886 211.758 116.947 211.758 117.068V119.952C211.758 120.073 211.819 120.134 211.94 120.134H215.356C215.477 120.134 215.538 120.19 215.538 120.302V121.24C215.538 121.287 215.524 121.324 215.496 121.352C215.477 121.38 215.431 121.394 215.356 121.394H211.926C211.814 121.394 211.758 121.445 211.758 121.548V124.572C211.758 124.675 211.805 124.726 211.898 124.726H216.924C217.055 124.726 217.12 124.782 217.12 124.894V125.818C217.12 125.874 217.106 125.921 217.078 125.958C217.05 125.986 216.999 126 216.924 126H210.302C210.143 126 210.064 125.925 210.064 125.776V115.822ZM228.106 125.706C228.134 125.781 228.13 125.851 228.092 125.916C228.064 125.972 228.013 126 227.938 126H226.58C226.468 126 226.384 125.935 226.328 125.804L224.62 121.548C224.574 121.436 224.457 121.38 224.27 121.38H222.226C222.161 121.38 222.114 121.399 222.086 121.436C222.068 121.464 222.058 121.497 222.058 121.534V125.748C222.058 125.916 221.97 126 221.792 126H220.602C220.509 126 220.444 125.981 220.406 125.944C220.378 125.907 220.364 125.851 220.364 125.776V115.822C220.364 115.682 220.43 115.612 220.56 115.612H224.606C225.754 115.612 226.646 115.845 227.28 116.312C227.924 116.779 228.246 117.46 228.246 118.356C228.246 118.869 228.148 119.313 227.952 119.686C227.756 120.05 227.504 120.349 227.196 120.582C226.898 120.806 226.576 120.969 226.23 121.072C226.165 121.1 226.146 121.156 226.174 121.24L228.106 125.706ZM224.27 120.19C224.998 120.19 225.549 120.055 225.922 119.784C226.305 119.504 226.496 119.07 226.496 118.482C226.496 117.922 226.324 117.502 225.978 117.222C225.633 116.942 225.143 116.802 224.508 116.802H222.282C222.133 116.802 222.058 116.858 222.058 116.97V119.994C222.058 120.125 222.11 120.19 222.212 120.19H224.27ZM235.517 126.14C234.612 126.14 233.823 125.925 233.151 125.496C232.479 125.067 231.961 124.455 231.597 123.662C231.242 122.869 231.065 121.931 231.065 120.848C231.065 119.728 231.252 118.767 231.625 117.964C232.008 117.161 232.54 116.545 233.221 116.116C233.902 115.687 234.696 115.472 235.601 115.472C236.282 115.472 236.903 115.607 237.463 115.878C238.032 116.149 238.494 116.503 238.849 116.942C239.213 117.371 239.437 117.833 239.521 118.328C239.54 118.421 239.54 118.487 239.521 118.524C239.502 118.552 239.46 118.575 239.395 118.594L238.121 118.79C238.065 118.799 238.023 118.79 237.995 118.762C237.976 118.734 237.962 118.687 237.953 118.622C237.888 118.267 237.748 117.95 237.533 117.67C237.318 117.381 237.043 117.152 236.707 116.984C236.38 116.807 236.002 116.718 235.573 116.718C234.994 116.718 234.5 116.867 234.089 117.166C233.678 117.465 233.366 117.913 233.151 118.51C232.946 119.107 232.843 119.859 232.843 120.764C232.843 121.716 232.95 122.495 233.165 123.102C233.38 123.709 233.692 124.161 234.103 124.46C234.523 124.749 235.027 124.894 235.615 124.894C236.016 124.894 236.371 124.829 236.679 124.698C236.987 124.567 237.244 124.39 237.449 124.166C237.654 123.942 237.813 123.699 237.925 123.438C238.037 123.177 238.107 122.915 238.135 122.654L238.149 121.954C238.168 121.842 238.121 121.786 238.009 121.786H235.909C235.853 121.786 235.811 121.777 235.783 121.758C235.755 121.73 235.741 121.683 235.741 121.618V120.876C235.741 120.773 235.792 120.722 235.895 120.722L239.451 120.736C239.544 120.736 239.614 120.759 239.661 120.806C239.708 120.843 239.731 120.895 239.731 120.96V125.818C239.731 125.883 239.712 125.93 239.675 125.958C239.647 125.986 239.605 126 239.549 126H239.185C239.12 126 239.059 125.991 239.003 125.972C238.956 125.944 238.919 125.893 238.891 125.818L238.667 124.614C238.658 124.567 238.639 124.544 238.611 124.544C238.592 124.544 238.564 124.567 238.527 124.614C238.359 124.875 238.14 125.123 237.869 125.356C237.608 125.589 237.281 125.781 236.889 125.93C236.506 126.07 236.049 126.14 235.517 126.14ZM243.289 115.822C243.289 115.682 243.355 115.612 243.485 115.612H250.009C250.121 115.612 250.177 115.673 250.177 115.794L250.163 116.676C250.163 116.816 250.093 116.886 249.953 116.886H245.193C245.053 116.886 244.983 116.947 244.983 117.068V119.952C244.983 120.073 245.044 120.134 245.165 120.134H248.581C248.703 120.134 248.763 120.19 248.763 120.302V121.24C248.763 121.287 248.749 121.324 248.721 121.352C248.703 121.38 248.656 121.394 248.581 121.394H245.151C245.039 121.394 244.983 121.445 244.983 121.548V124.572C244.983 124.675 245.03 124.726 245.123 124.726H250.149C250.28 124.726 250.345 124.782 250.345 124.894V125.818C250.345 125.874 250.331 125.921 250.303 125.958C250.275 125.986 250.224 126 250.149 126H243.527C243.369 126 243.289 125.925 243.289 125.776V115.822ZM252.904 115.808C252.904 115.743 252.918 115.696 252.946 115.668C252.983 115.631 253.039 115.612 253.114 115.612H260.8C260.874 115.612 260.926 115.631 260.954 115.668C260.982 115.696 260.996 115.743 260.996 115.808V116.704C260.996 116.816 260.93 116.872 260.8 116.872H258.028C257.925 116.872 257.874 116.914 257.874 116.998V125.79C257.874 125.93 257.813 126 257.692 126H256.376C256.254 126 256.194 125.935 256.194 125.804V117.026C256.194 116.923 256.142 116.872 256.04 116.872H253.1C252.969 116.872 252.904 116.816 252.904 116.704V115.808ZM265.689 115.612C265.811 115.612 265.871 115.682 265.871 115.822V125.734C265.871 125.837 265.848 125.907 265.801 125.944C265.764 125.981 265.689 126 265.577 126H264.429C264.327 126 264.257 125.986 264.219 125.958C264.191 125.921 264.177 125.86 264.177 125.776V115.822C264.177 115.682 264.243 115.612 264.373 115.612H265.689ZM273.821 115.472C274.316 115.472 274.783 115.551 275.221 115.71C275.669 115.859 276.071 116.069 276.425 116.34C276.78 116.611 277.069 116.923 277.293 117.278C277.527 117.623 277.676 118.001 277.741 118.412C277.76 118.515 277.76 118.585 277.741 118.622C277.723 118.65 277.681 118.669 277.615 118.678L276.313 118.762C276.257 118.771 276.22 118.762 276.201 118.734C276.183 118.706 276.164 118.664 276.145 118.608C276.024 118.048 275.767 117.591 275.375 117.236C274.983 116.881 274.484 116.704 273.877 116.704C272.991 116.704 272.305 117.04 271.819 117.712C271.343 118.384 271.105 119.411 271.105 120.792C271.105 122.155 271.339 123.172 271.805 123.844C272.281 124.516 272.991 124.852 273.933 124.852C274.559 124.852 275.081 124.703 275.501 124.404C275.931 124.096 276.281 123.597 276.551 122.906C276.579 122.841 276.649 122.817 276.761 122.836L277.755 123.074C277.783 123.083 277.811 123.102 277.839 123.13C277.867 123.158 277.872 123.219 277.853 123.312C277.788 123.555 277.681 123.807 277.531 124.068C277.382 124.329 277.195 124.586 276.971 124.838C276.747 125.081 276.481 125.3 276.173 125.496C275.865 125.692 275.515 125.851 275.123 125.972C274.741 126.084 274.321 126.14 273.863 126.14C272.921 126.14 272.109 125.921 271.427 125.482C270.755 125.043 270.237 124.423 269.873 123.62C269.509 122.817 269.327 121.87 269.327 120.778C269.327 119.677 269.509 118.729 269.873 117.936C270.237 117.143 270.755 116.536 271.427 116.116C272.099 115.687 272.897 115.472 273.821 115.472ZM282.948 121.268C282.855 121.268 282.808 121.315 282.808 121.408V125.762C282.808 125.921 282.719 126 282.542 126H281.352C281.259 126 281.193 125.981 281.156 125.944C281.128 125.907 281.114 125.851 281.114 125.776V115.822C281.114 115.682 281.179 115.612 281.31 115.612H282.626C282.747 115.612 282.808 115.682 282.808 115.822V119.756C282.808 119.887 282.869 119.952 282.99 119.952H287.148C287.26 119.952 287.316 119.891 287.316 119.77V115.808C287.316 115.677 287.372 115.612 287.484 115.612H288.828C288.949 115.612 289.01 115.682 289.01 115.822V125.776C289.01 125.851 288.991 125.907 288.954 125.944C288.926 125.981 288.865 126 288.772 126H287.596C287.409 126 287.316 125.921 287.316 125.762V121.422C287.316 121.319 287.265 121.268 287.162 121.268H282.948ZM292.877 115.822C292.877 115.682 292.943 115.612 293.073 115.612H299.597C299.709 115.612 299.765 115.673 299.765 115.794L299.751 116.676C299.751 116.816 299.681 116.886 299.541 116.886H294.781C294.641 116.886 294.571 116.947 294.571 117.068V119.952C294.571 120.073 294.632 120.134 294.753 120.134H298.169C298.291 120.134 298.351 120.19 298.351 120.302V121.24C298.351 121.287 298.337 121.324 298.309 121.352C298.291 121.38 298.244 121.394 298.169 121.394H294.739C294.627 121.394 294.571 121.445 294.571 121.548V124.572C294.571 124.675 294.618 124.726 294.711 124.726H299.737C299.868 124.726 299.933 124.782 299.933 124.894V125.818C299.933 125.874 299.919 125.921 299.891 125.958C299.863 125.986 299.812 126 299.737 126H293.115C292.957 126 292.877 125.925 292.877 125.776V115.822Z" fill="#F24E1E"/>
<path d="M34.086 205.706C34.086 206.397 33.9273 206.971 33.61 207.428C33.2927 207.876 32.854 208.212 32.294 208.436C31.734 208.66 31.09 208.772 30.362 208.772H28.066C27.9727 208.772 27.926 208.819 27.926 208.912V212.762C27.926 212.921 27.842 213 27.674 213H26.456C26.372 213 26.3113 212.986 26.274 212.958C26.246 212.921 26.232 212.865 26.232 212.79V202.822C26.232 202.682 26.2973 202.612 26.428 202.612H30.166C30.9033 202.612 31.566 202.719 32.154 202.934C32.7513 203.149 33.2227 203.485 33.568 203.942C33.9133 204.399 34.086 204.987 34.086 205.706ZM32.35 205.664C32.35 205.235 32.2567 204.889 32.07 204.628C31.8833 204.357 31.6173 204.161 31.272 204.04C30.936 203.919 30.5347 203.858 30.068 203.858H28.136C27.996 203.858 27.926 203.923 27.926 204.054V207.316C27.926 207.456 27.9773 207.526 28.08 207.526H30.166C30.8287 207.526 31.356 207.372 31.748 207.064C32.1493 206.756 32.35 206.289 32.35 205.664ZM41.5514 213.14C40.6087 213.14 39.7967 212.935 39.1154 212.524C38.4341 212.104 37.9114 211.502 37.5474 210.718C37.1834 209.925 37.0014 208.968 37.0014 207.848C37.0014 206.719 37.1881 205.753 37.5614 204.95C37.9347 204.147 38.4621 203.536 39.1434 203.116C39.8247 202.687 40.6321 202.472 41.5654 202.472C42.4894 202.472 43.2874 202.687 43.9594 203.116C44.6407 203.536 45.1634 204.147 45.5274 204.95C45.9007 205.743 46.0874 206.705 46.0874 207.834C46.0874 208.954 45.9054 209.911 45.5414 210.704C45.1774 211.488 44.6547 212.09 43.9734 212.51C43.2921 212.93 42.4847 213.14 41.5514 213.14ZM41.5654 211.894C42.4987 211.894 43.1894 211.572 43.6374 210.928C44.0947 210.275 44.3234 209.248 44.3234 207.848C44.3234 206.429 44.0901 205.384 43.6234 204.712C43.1661 204.04 42.4801 203.704 41.5654 203.704C40.6321 203.704 39.9321 204.045 39.4654 204.726C38.9987 205.398 38.7654 206.439 38.7654 207.848C38.7654 209.239 38.9987 210.261 39.4654 210.914C39.9321 211.567 40.6321 211.894 41.5654 211.894ZM56.9606 202.612C57.0352 202.612 57.0866 202.635 57.1146 202.682C57.1519 202.729 57.1566 202.785 57.1286 202.85L53.6286 212.762C53.5819 212.921 53.4652 213 53.2786 213H52.0886C51.8832 213 51.7572 212.925 51.7106 212.776L48.2806 202.864C48.2619 202.789 48.2666 202.729 48.2946 202.682C48.3319 202.635 48.3832 202.612 48.4486 202.612H49.7646C49.8859 202.612 49.9652 202.673 50.0026 202.794L52.7326 210.844C52.7979 211.021 52.8632 211.017 52.9286 210.83L55.6446 202.794C55.6819 202.673 55.7659 202.612 55.8966 202.612H56.9606ZM60.3324 202.822C60.3324 202.682 60.3977 202.612 60.5284 202.612H67.0524C67.1644 202.612 67.2204 202.673 67.2204 202.794L67.2064 203.676C67.2064 203.816 67.1364 203.886 66.9964 203.886H62.2364C62.0964 203.886 62.0264 203.947 62.0264 204.068V206.952C62.0264 207.073 62.0871 207.134 62.2084 207.134H65.6244C65.7457 207.134 65.8064 207.19 65.8064 207.302V208.24C65.8064 208.287 65.7924 208.324 65.7644 208.352C65.7457 208.38 65.6991 208.394 65.6244 208.394H62.1944C62.0824 208.394 62.0264 208.445 62.0264 208.548V211.572C62.0264 211.675 62.0731 211.726 62.1664 211.726H67.1924C67.3231 211.726 67.3884 211.782 67.3884 211.894V212.818C67.3884 212.874 67.3744 212.921 67.3464 212.958C67.3184 212.986 67.2671 213 67.1924 213H60.5704C60.4117 213 60.3324 212.925 60.3324 212.776V202.822ZM78.3748 212.706C78.4028 212.781 78.3981 212.851 78.3608 212.916C78.3328 212.972 78.2814 213 78.2068 213H76.8488C76.7368 213 76.6528 212.935 76.5968 212.804L74.8888 208.548C74.8421 208.436 74.7254 208.38 74.5388 208.38H72.4948C72.4294 208.38 72.3828 208.399 72.3548 208.436C72.3361 208.464 72.3268 208.497 72.3268 208.534V212.748C72.3268 212.916 72.2381 213 72.0608 213H70.8708C70.7774 213 70.7121 212.981 70.6748 212.944C70.6468 212.907 70.6328 212.851 70.6328 212.776V202.822C70.6328 202.682 70.6981 202.612 70.8288 202.612H74.8748C76.0228 202.612 76.9141 202.845 77.5488 203.312C78.1928 203.779 78.5148 204.46 78.5148 205.356C78.5148 205.869 78.4168 206.313 78.2208 206.686C78.0248 207.05 77.7728 207.349 77.4648 207.582C77.1661 207.806 76.8441 207.969 76.4988 208.072C76.4334 208.1 76.4148 208.156 76.4428 208.24L78.3748 212.706ZM74.5388 207.19C75.2668 207.19 75.8174 207.055 76.1908 206.784C76.5734 206.504 76.7648 206.07 76.7648 205.482C76.7648 204.922 76.5921 204.502 76.2468 204.222C75.9014 203.942 75.4114 203.802 74.7768 203.802H72.5508C72.4014 203.802 72.3268 203.858 72.3268 203.97V206.994C72.3268 207.125 72.3781 207.19 72.4808 207.19H74.5388ZM81.0675 202.808C81.0675 202.743 81.0815 202.696 81.1095 202.668C81.1468 202.631 81.2028 202.612 81.2775 202.612H88.9635C89.0382 202.612 89.0895 202.631 89.1175 202.668C89.1455 202.696 89.1595 202.743 89.1595 202.808V203.704C89.1595 203.816 89.0942 203.872 88.9635 203.872H86.1915C86.0888 203.872 86.0375 203.914 86.0375 203.998V212.79C86.0375 212.93 85.9768 213 85.8555 213H84.5395C84.4182 213 84.3575 212.935 84.3575 212.804V204.026C84.3575 203.923 84.3062 203.872 84.2035 203.872H81.2635C81.1328 203.872 81.0675 203.816 81.0675 203.704V202.808ZM90.4838 213C90.4185 213 90.3718 212.972 90.3438 212.916C90.3158 212.86 90.3158 212.79 90.3438 212.706L93.9138 202.836C93.9418 202.752 93.9791 202.696 94.0258 202.668C94.0725 202.631 94.1378 202.612 94.2218 202.612H95.6358C95.8131 202.612 95.9298 202.691 95.9858 202.85L99.5278 212.72C99.5558 212.785 99.5558 212.851 99.5278 212.916C99.4998 212.972 99.4485 213 99.3738 213H98.0578C97.9365 213 97.8571 212.944 97.8198 212.832L96.9238 210.34C96.9145 210.293 96.8958 210.261 96.8678 210.242C96.8491 210.223 96.8118 210.214 96.7558 210.214H92.8778C92.7938 210.214 92.7378 210.251 92.7098 210.326L91.7998 212.86C91.7811 212.907 91.7531 212.944 91.7158 212.972C91.6878 212.991 91.6365 213 91.5618 213H90.4838ZM96.3218 208.898C96.4431 208.898 96.4805 208.833 96.4338 208.702L94.9218 204.502C94.8845 204.427 94.8471 204.39 94.8098 204.39C94.7818 204.39 94.7538 204.432 94.7258 204.516L93.1718 208.716C93.1251 208.837 93.1578 208.898 93.2698 208.898H96.3218ZM93.3258 199.616C93.3725 199.513 93.4378 199.481 93.5218 199.518L96.7838 200.834C96.8678 200.871 96.8911 200.946 96.8538 201.058L96.7278 201.422C96.7091 201.487 96.6811 201.529 96.6438 201.548C96.6065 201.557 96.5458 201.557 96.4618 201.548L93.2558 200.61C93.0971 200.563 93.0411 200.47 93.0878 200.33L93.3258 199.616ZM107.118 202.822C107.118 202.682 107.183 202.612 107.314 202.612H113.838C113.95 202.612 114.006 202.673 114.006 202.794L113.992 203.676C113.992 203.816 113.922 203.886 113.782 203.886H109.022C108.882 203.886 108.812 203.947 108.812 204.068V206.952C108.812 207.073 108.872 207.134 108.994 207.134H112.41C112.531 207.134 112.592 207.19 112.592 207.302V208.24C112.592 208.287 112.578 208.324 112.55 208.352C112.531 208.38 112.484 208.394 112.41 208.394H108.98C108.868 208.394 108.812 208.445 108.812 208.548V211.572C108.812 211.675 108.858 211.726 108.952 211.726H113.978C114.108 211.726 114.174 211.782 114.174 211.894V212.818C114.174 212.874 114.16 212.921 114.132 212.958C114.104 212.986 114.052 213 113.978 213H107.356C107.197 213 107.118 212.925 107.118 212.776V202.822ZM125.398 202.612C125.501 202.612 125.552 202.673 125.552 202.794V212.818C125.552 212.874 125.533 212.921 125.496 212.958C125.459 212.986 125.407 213 125.342 213H124.432C124.367 213 124.311 212.995 124.264 212.986C124.217 212.967 124.171 212.925 124.124 212.86L119.014 205.524C118.967 205.459 118.93 205.431 118.902 205.44C118.874 205.449 118.86 205.482 118.86 205.538V212.804C118.86 212.935 118.785 213 118.636 213H117.642C117.493 213 117.418 212.935 117.418 212.804V202.822C117.418 202.682 117.488 202.612 117.628 202.612H118.72C118.795 202.612 118.851 202.621 118.888 202.64C118.935 202.659 118.981 202.705 119.028 202.78L123.928 209.878C123.984 209.953 124.031 209.985 124.068 209.976C124.115 209.957 124.138 209.915 124.138 209.85V202.808C124.138 202.677 124.203 202.612 124.334 202.612H125.398ZM129.414 202.822C129.414 202.682 129.479 202.612 129.61 202.612H136.134C136.246 202.612 136.302 202.673 136.302 202.794L136.288 203.676C136.288 203.816 136.218 203.886 136.078 203.886H131.318C131.178 203.886 131.108 203.947 131.108 204.068V206.952C131.108 207.073 131.168 207.134 131.29 207.134H134.706C134.827 207.134 134.888 207.19 134.888 207.302V208.24C134.888 208.287 134.874 208.324 134.846 208.352C134.827 208.38 134.78 208.394 134.706 208.394H131.276C131.164 208.394 131.108 208.445 131.108 208.548V211.572C131.108 211.675 131.154 211.726 131.248 211.726H136.274C136.404 211.726 136.47 211.782 136.47 211.894V212.818C136.47 212.874 136.456 212.921 136.428 212.958C136.4 212.986 136.348 213 136.274 213H129.652C129.493 213 129.414 212.925 129.414 212.776V202.822ZM147.456 212.706C147.484 212.781 147.479 212.851 147.442 212.916C147.414 212.972 147.363 213 147.288 213H145.93C145.818 213 145.734 212.935 145.678 212.804L143.97 208.548C143.923 208.436 143.807 208.38 143.62 208.38H141.576C141.511 208.38 141.464 208.399 141.436 208.436C141.417 208.464 141.408 208.497 141.408 208.534V212.748C141.408 212.916 141.319 213 141.142 213H139.952C139.859 213 139.793 212.981 139.756 212.944C139.728 212.907 139.714 212.851 139.714 212.776V202.822C139.714 202.682 139.779 202.612 139.91 202.612H143.956C145.104 202.612 145.995 202.845 146.63 203.312C147.274 203.779 147.596 204.46 147.596 205.356C147.596 205.869 147.498 206.313 147.302 206.686C147.106 207.05 146.854 207.349 146.546 207.582C146.247 207.806 145.925 207.969 145.58 208.072C145.515 208.1 145.496 208.156 145.524 208.24L147.456 212.706ZM143.62 207.19C144.348 207.19 144.899 207.055 145.272 206.784C145.655 206.504 145.846 206.07 145.846 205.482C145.846 204.922 145.673 204.502 145.328 204.222C144.983 203.942 144.493 203.802 143.858 203.802H141.632C141.483 203.802 141.408 203.858 141.408 203.97V206.994C141.408 207.125 141.459 207.19 141.562 207.19H143.62ZM154.867 213.14C153.961 213.14 153.173 212.925 152.501 212.496C151.829 212.067 151.311 211.455 150.947 210.662C150.592 209.869 150.415 208.931 150.415 207.848C150.415 206.728 150.601 205.767 150.975 204.964C151.357 204.161 151.889 203.545 152.571 203.116C153.252 202.687 154.045 202.472 154.951 202.472C155.632 202.472 156.253 202.607 156.813 202.878C157.382 203.149 157.844 203.503 158.199 203.942C158.563 204.371 158.787 204.833 158.871 205.328C158.889 205.421 158.889 205.487 158.871 205.524C158.852 205.552 158.81 205.575 158.745 205.594L157.471 205.79C157.415 205.799 157.373 205.79 157.345 205.762C157.326 205.734 157.312 205.687 157.303 205.622C157.237 205.267 157.097 204.95 156.883 204.67C156.668 204.381 156.393 204.152 156.057 203.984C155.73 203.807 155.352 203.718 154.923 203.718C154.344 203.718 153.849 203.867 153.439 204.166C153.028 204.465 152.715 204.913 152.501 205.51C152.295 206.107 152.193 206.859 152.193 207.764C152.193 208.716 152.3 209.495 152.515 210.102C152.729 210.709 153.042 211.161 153.453 211.46C153.873 211.749 154.377 211.894 154.965 211.894C155.366 211.894 155.721 211.829 156.029 211.698C156.337 211.567 156.593 211.39 156.799 211.166C157.004 210.942 157.163 210.699 157.275 210.438C157.387 210.177 157.457 209.915 157.485 209.654L157.499 208.954C157.517 208.842 157.471 208.786 157.359 208.786H155.259C155.203 208.786 155.161 208.777 155.133 208.758C155.105 208.73 155.091 208.683 155.091 208.618V207.876C155.091 207.773 155.142 207.722 155.245 207.722L158.801 207.736C158.894 207.736 158.964 207.759 159.011 207.806C159.057 207.843 159.081 207.895 159.081 207.96V212.818C159.081 212.883 159.062 212.93 159.025 212.958C158.997 212.986 158.955 213 158.899 213H158.535C158.469 213 158.409 212.991 158.353 212.972C158.306 212.944 158.269 212.893 158.241 212.818L158.017 211.614C158.007 211.567 157.989 211.544 157.961 211.544C157.942 211.544 157.914 211.567 157.877 211.614C157.709 211.875 157.489 212.123 157.219 212.356C156.957 212.589 156.631 212.781 156.239 212.93C155.856 213.07 155.399 213.14 154.867 213.14ZM162.639 202.822C162.639 202.682 162.704 202.612 162.835 202.612H169.359C169.471 202.612 169.527 202.673 169.527 202.794L169.513 203.676C169.513 203.816 169.443 203.886 169.303 203.886H164.543C164.403 203.886 164.333 203.947 164.333 204.068V206.952C164.333 207.073 164.394 207.134 164.515 207.134H167.931C168.052 207.134 168.113 207.19 168.113 207.302V208.24C168.113 208.287 168.099 208.324 168.071 208.352C168.052 208.38 168.006 208.394 167.931 208.394H164.501C164.389 208.394 164.333 208.445 164.333 208.548V211.572C164.333 211.675 164.38 211.726 164.473 211.726H169.499C169.63 211.726 169.695 211.782 169.695 211.894V212.818C169.695 212.874 169.681 212.921 169.653 212.958C169.625 212.986 169.574 213 169.499 213H162.877C162.718 213 162.639 212.925 162.639 212.776V202.822ZM172.253 202.808C172.253 202.743 172.267 202.696 172.295 202.668C172.333 202.631 172.389 202.612 172.463 202.612H180.149C180.224 202.612 180.275 202.631 180.303 202.668C180.331 202.696 180.345 202.743 180.345 202.808V203.704C180.345 203.816 180.28 203.872 180.149 203.872H177.377C177.275 203.872 177.223 203.914 177.223 203.998V212.79C177.223 212.93 177.163 213 177.041 213H175.725C175.604 213 175.543 212.935 175.543 212.804V204.026C175.543 203.923 175.492 203.872 175.389 203.872H172.449C172.319 203.872 172.253 203.816 172.253 203.704V202.808ZM185.039 202.612C185.16 202.612 185.221 202.682 185.221 202.822V212.734C185.221 212.837 185.198 212.907 185.151 212.944C185.114 212.981 185.039 213 184.927 213H183.779C183.676 213 183.606 212.986 183.569 212.958C183.541 212.921 183.527 212.86 183.527 212.776V202.822C183.527 202.682 183.592 202.612 183.723 202.612H185.039ZM193.171 202.472C193.666 202.472 194.132 202.551 194.571 202.71C195.019 202.859 195.42 203.069 195.775 203.34C196.13 203.611 196.419 203.923 196.643 204.278C196.876 204.623 197.026 205.001 197.091 205.412C197.11 205.515 197.11 205.585 197.091 205.622C197.072 205.65 197.03 205.669 196.965 205.678L195.663 205.762C195.607 205.771 195.57 205.762 195.551 205.734C195.532 205.706 195.514 205.664 195.495 205.608C195.374 205.048 195.117 204.591 194.725 204.236C194.333 203.881 193.834 203.704 193.227 203.704C192.34 203.704 191.654 204.04 191.169 204.712C190.693 205.384 190.455 206.411 190.455 207.792C190.455 209.155 190.688 210.172 191.155 210.844C191.631 211.516 192.34 211.852 193.283 211.852C193.908 211.852 194.431 211.703 194.851 211.404C195.28 211.096 195.63 210.597 195.901 209.906C195.929 209.841 195.999 209.817 196.111 209.836L197.105 210.074C197.133 210.083 197.161 210.102 197.189 210.13C197.217 210.158 197.222 210.219 197.203 210.312C197.138 210.555 197.03 210.807 196.881 211.068C196.732 211.329 196.545 211.586 196.321 211.838C196.097 212.081 195.831 212.3 195.523 212.496C195.215 212.692 194.865 212.851 194.473 212.972C194.09 213.084 193.67 213.14 193.213 213.14C192.27 213.14 191.458 212.921 190.777 212.482C190.105 212.043 189.587 211.423 189.223 210.62C188.859 209.817 188.677 208.87 188.677 207.778C188.677 206.677 188.859 205.729 189.223 204.936C189.587 204.143 190.105 203.536 190.777 203.116C191.449 202.687 192.247 202.472 193.171 202.472ZM199.646 213C199.58 213 199.534 212.972 199.506 212.916C199.478 212.86 199.478 212.79 199.506 212.706L203.076 202.836C203.104 202.752 203.141 202.696 203.188 202.668C203.234 202.631 203.3 202.612 203.384 202.612H204.798C204.975 202.612 205.092 202.691 205.148 202.85L208.69 212.72C208.718 212.785 208.718 212.851 208.69 212.916C208.662 212.972 208.61 213 208.536 213H207.22C207.098 213 207.019 212.944 206.982 212.832L206.086 210.34C206.076 210.293 206.058 210.261 206.03 210.242C206.011 210.223 205.974 210.214 205.918 210.214H202.04C201.956 210.214 201.9 210.251 201.872 210.326L200.962 212.86C200.943 212.907 200.915 212.944 200.878 212.972C200.85 212.991 200.798 213 200.724 213H199.646ZM205.484 208.898C205.605 208.898 205.642 208.833 205.596 208.702L204.084 204.502C204.046 204.427 204.009 204.39 203.972 204.39C203.944 204.39 203.916 204.432 203.888 204.516L202.334 208.716C202.287 208.837 202.32 208.898 202.432 208.898H205.484Z" fill="#F24E1E"/>
<path d="M25.546 289.808C25.546 289.743 25.56 289.696 25.588 289.668C25.6253 289.631 25.6813 289.612 25.756 289.612H33.442C33.5167 289.612 33.568 289.631 33.596 289.668C33.624 289.696 33.638 289.743 33.638 289.808V290.704C33.638 290.816 33.5727 290.872 33.442 290.872H30.67C30.5673 290.872 30.516 290.914 30.516 290.998V299.79C30.516 299.93 30.4553 300 30.334 300H29.018C28.8967 300 28.836 299.935 28.836 299.804V291.026C28.836 290.923 28.7847 290.872 28.682 290.872H25.742C25.6113 290.872 25.546 290.816 25.546 290.704V289.808ZM34.9623 300C34.897 300 34.8503 299.972 34.8223 299.916C34.7943 299.86 34.7943 299.79 34.8223 299.706L38.3923 289.836C38.4203 289.752 38.4576 289.696 38.5043 289.668C38.551 289.631 38.6163 289.612 38.7003 289.612H40.1143C40.2916 289.612 40.4083 289.691 40.4643 289.85L44.0063 299.72C44.0343 299.785 44.0343 299.851 44.0063 299.916C43.9783 299.972 43.927 300 43.8523 300H42.5363C42.415 300 42.3356 299.944 42.2983 299.832L41.4023 297.34C41.393 297.293 41.3743 297.261 41.3463 297.242C41.3276 297.223 41.2903 297.214 41.2343 297.214H37.3563C37.2723 297.214 37.2163 297.251 37.1883 297.326L36.2783 299.86C36.2596 299.907 36.2316 299.944 36.1943 299.972C36.1663 299.991 36.115 300 36.0403 300H34.9623ZM40.8003 295.898C40.9216 295.898 40.959 295.833 40.9123 295.702L39.4003 291.502C39.363 291.427 39.3256 291.39 39.2883 291.39C39.2603 291.39 39.2323 291.432 39.2043 291.516L37.6503 295.716C37.6036 295.837 37.6363 295.898 37.7483 295.898H40.8003ZM52.7232 291.712C52.4805 291.441 52.1818 291.208 51.8272 291.012C51.4725 290.816 51.0105 290.718 50.4412 290.718C49.7785 290.718 49.2605 290.858 48.8872 291.138C48.5232 291.409 48.3412 291.787 48.3412 292.272C48.3412 292.403 48.3738 292.557 48.4392 292.734C48.5045 292.911 48.6352 293.084 48.8312 293.252C49.0365 293.411 49.3305 293.56 49.7132 293.7L51.8132 294.358C52.6625 294.619 53.2692 294.993 53.6332 295.478C54.0065 295.954 54.1932 296.514 54.1932 297.158C54.1932 297.774 54.0345 298.306 53.7172 298.754C53.4092 299.202 52.9658 299.547 52.3872 299.79C51.8178 300.023 51.1365 300.14 50.3432 300.14C49.7552 300.14 49.2092 300.075 48.7052 299.944C48.2105 299.804 47.7672 299.603 47.3752 299.342C46.9925 299.071 46.6705 298.745 46.4092 298.362C46.3718 298.297 46.3578 298.236 46.3672 298.18C46.3765 298.124 46.4185 298.068 46.4932 298.012L47.1792 297.536C47.2818 297.471 47.3612 297.443 47.4172 297.452C47.4732 297.461 47.5245 297.494 47.5712 297.55C47.8045 297.849 48.0378 298.101 48.2712 298.306C48.5138 298.511 48.7892 298.665 49.0972 298.768C49.4145 298.861 49.7972 298.908 50.2452 298.908C50.9452 298.908 51.5052 298.787 51.9252 298.544C52.3545 298.292 52.5692 297.895 52.5692 297.354C52.5692 297.139 52.5272 296.948 52.4432 296.78C52.3592 296.603 52.2145 296.444 52.0092 296.304C51.8038 296.155 51.5052 296.01 51.1132 295.87L48.9992 295.184C48.4672 295.007 48.0332 294.778 47.6972 294.498C47.3705 294.218 47.1278 293.901 46.9692 293.546C46.8105 293.191 46.7312 292.827 46.7312 292.454C46.7312 291.857 46.8852 291.334 47.1932 290.886C47.5012 290.438 47.9305 290.093 48.4812 289.85C49.0318 289.598 49.6758 289.472 50.4132 289.472C50.9078 289.472 51.3605 289.533 51.7712 289.654C52.1912 289.766 52.5738 289.929 52.9192 290.144C53.2645 290.349 53.5585 290.597 53.8012 290.886C53.8385 290.933 53.8618 290.979 53.8712 291.026C53.8898 291.073 53.8665 291.124 53.8012 291.18L53.0032 291.796C52.9472 291.833 52.9005 291.847 52.8632 291.838C52.8352 291.819 52.7885 291.777 52.7232 291.712ZM63.0646 291.712C62.8219 291.441 62.5232 291.208 62.1686 291.012C61.8139 290.816 61.3519 290.718 60.7826 290.718C60.1199 290.718 59.6019 290.858 59.2286 291.138C58.8646 291.409 58.6826 291.787 58.6826 292.272C58.6826 292.403 58.7152 292.557 58.7806 292.734C58.8459 292.911 58.9766 293.084 59.1726 293.252C59.3779 293.411 59.6719 293.56 60.0546 293.7L62.1546 294.358C63.0039 294.619 63.6106 294.993 63.9746 295.478C64.3479 295.954 64.5346 296.514 64.5346 297.158C64.5346 297.774 64.3759 298.306 64.0586 298.754C63.7506 299.202 63.3072 299.547 62.7286 299.79C62.1592 300.023 61.4779 300.14 60.6846 300.14C60.0966 300.14 59.5506 300.075 59.0466 299.944C58.5519 299.804 58.1086 299.603 57.7166 299.342C57.3339 299.071 57.0119 298.745 56.7506 298.362C56.7132 298.297 56.6992 298.236 56.7086 298.18C56.7179 298.124 56.7599 298.068 56.8346 298.012L57.5206 297.536C57.6232 297.471 57.7026 297.443 57.7586 297.452C57.8146 297.461 57.8659 297.494 57.9126 297.55C58.1459 297.849 58.3792 298.101 58.6126 298.306C58.8552 298.511 59.1306 298.665 59.4386 298.768C59.7559 298.861 60.1386 298.908 60.5866 298.908C61.2866 298.908 61.8466 298.787 62.2666 298.544C62.6959 298.292 62.9106 297.895 62.9106 297.354C62.9106 297.139 62.8686 296.948 62.7846 296.78C62.7006 296.603 62.5559 296.444 62.3506 296.304C62.1452 296.155 61.8466 296.01 61.4546 295.87L59.3406 295.184C58.8086 295.007 58.3746 294.778 58.0386 294.498C57.7119 294.218 57.4692 293.901 57.3106 293.546C57.1519 293.191 57.0726 292.827 57.0726 292.454C57.0726 291.857 57.2266 291.334 57.5346 290.886C57.8426 290.438 58.2719 290.093 58.8226 289.85C59.3732 289.598 60.0172 289.472 60.7546 289.472C61.2492 289.472 61.7019 289.533 62.1126 289.654C62.5326 289.766 62.9152 289.929 63.2606 290.144C63.6059 290.349 63.8999 290.597 64.1426 290.886C64.1799 290.933 64.2032 290.979 64.2126 291.026C64.2312 291.073 64.2079 291.124 64.1426 291.18L63.3446 291.796C63.2886 291.833 63.2419 291.847 63.2046 291.838C63.1766 291.819 63.1299 291.777 63.0646 291.712ZM67.8574 289.822C67.8574 289.682 67.9227 289.612 68.0534 289.612H74.5774C74.6894 289.612 74.7454 289.673 74.7454 289.794L74.7314 290.676C74.7314 290.816 74.6614 290.886 74.5214 290.886H69.7614C69.6214 290.886 69.5514 290.947 69.5514 291.068V293.952C69.5514 294.073 69.6121 294.134 69.7334 294.134H73.1494C73.2707 294.134 73.3314 294.19 73.3314 294.302V295.24C73.3314 295.287 73.3174 295.324 73.2894 295.352C73.2707 295.38 73.2241 295.394 73.1494 295.394H69.7194C69.6074 295.394 69.5514 295.445 69.5514 295.548V298.572C69.5514 298.675 69.5981 298.726 69.6914 298.726H74.7174C74.8481 298.726 74.9134 298.782 74.9134 298.894V299.818C74.9134 299.874 74.8994 299.921 74.8714 299.958C74.8434 299.986 74.7921 300 74.7174 300H68.0954C67.9367 300 67.8574 299.925 67.8574 299.776V289.822ZM88.2646 291.712C88.0219 291.441 87.7232 291.208 87.3686 291.012C87.0139 290.816 86.5519 290.718 85.9826 290.718C85.3199 290.718 84.8019 290.858 84.4286 291.138C84.0646 291.409 83.8826 291.787 83.8826 292.272C83.8826 292.403 83.9152 292.557 83.9806 292.734C84.0459 292.911 84.1766 293.084 84.3726 293.252C84.5779 293.411 84.8719 293.56 85.2546 293.7L87.3546 294.358C88.2039 294.619 88.8106 294.993 89.1746 295.478C89.5479 295.954 89.7346 296.514 89.7346 297.158C89.7346 297.774 89.5759 298.306 89.2586 298.754C88.9506 299.202 88.5072 299.547 87.9286 299.79C87.3592 300.023 86.6779 300.14 85.8846 300.14C85.2966 300.14 84.7506 300.075 84.2466 299.944C83.7519 299.804 83.3086 299.603 82.9166 299.342C82.5339 299.071 82.2119 298.745 81.9506 298.362C81.9132 298.297 81.8992 298.236 81.9086 298.18C81.9179 298.124 81.9599 298.068 82.0346 298.012L82.7206 297.536C82.8232 297.471 82.9026 297.443 82.9586 297.452C83.0146 297.461 83.0659 297.494 83.1126 297.55C83.3459 297.849 83.5792 298.101 83.8126 298.306C84.0552 298.511 84.3306 298.665 84.6386 298.768C84.9559 298.861 85.3386 298.908 85.7866 298.908C86.4866 298.908 87.0466 298.787 87.4666 298.544C87.8959 298.292 88.1106 297.895 88.1106 297.354C88.1106 297.139 88.0686 296.948 87.9846 296.78C87.9006 296.603 87.7559 296.444 87.5506 296.304C87.3452 296.155 87.0466 296.01 86.6546 295.87L84.5406 295.184C84.0086 295.007 83.5746 294.778 83.2386 294.498C82.9119 294.218 82.6692 293.901 82.5106 293.546C82.3519 293.191 82.2726 292.827 82.2726 292.454C82.2726 291.857 82.4266 291.334 82.7346 290.886C83.0426 290.438 83.4719 290.093 84.0226 289.85C84.5732 289.598 85.2172 289.472 85.9546 289.472C86.4492 289.472 86.9019 289.533 87.3126 289.654C87.7326 289.766 88.1152 289.929 88.4606 290.144C88.8059 290.349 89.0999 290.597 89.3426 290.886C89.3799 290.933 89.4032 290.979 89.4126 291.026C89.4312 291.073 89.4079 291.124 89.3426 291.18L88.5446 291.796C88.4886 291.833 88.4419 291.847 88.4046 291.838C88.3766 291.819 88.3299 291.777 88.2646 291.712ZM100.687 296.416C100.687 297.293 100.538 298.007 100.239 298.558C99.9407 299.109 99.5021 299.51 98.9234 299.762C98.3447 300.014 97.6401 300.14 96.8094 300.14C95.8947 300.14 95.1527 299.995 94.5834 299.706C94.0141 299.407 93.5941 298.964 93.3234 298.376C93.0621 297.788 92.9314 297.055 92.9314 296.178V289.836C92.9314 289.687 92.9921 289.612 93.1134 289.612H94.4434C94.5647 289.612 94.6254 289.682 94.6254 289.822V296.472C94.6254 297.293 94.8214 297.9 95.2134 298.292C95.6054 298.684 96.1794 298.88 96.9354 298.88C97.4301 298.88 97.8501 298.796 98.1954 298.628C98.5501 298.46 98.8207 298.194 99.0074 297.83C99.1941 297.466 99.2874 296.999 99.2874 296.43V289.822C99.2874 289.682 99.3434 289.612 99.4554 289.612H100.519C100.631 289.612 100.687 289.677 100.687 289.808V296.416ZM104.438 289.822C104.438 289.682 104.503 289.612 104.634 289.612H105.95C106.071 289.612 106.132 289.682 106.132 289.822V298.572C106.132 298.675 106.179 298.726 106.272 298.726H111.004C111.135 298.726 111.2 298.782 111.2 298.894V299.818C111.2 299.874 111.181 299.921 111.144 299.958C111.116 299.986 111.069 300 111.004 300H104.676C104.583 300 104.517 299.981 104.48 299.944C104.452 299.907 104.438 299.851 104.438 299.776V289.822ZM126.604 292.706C126.604 293.397 126.445 293.971 126.128 294.428C125.81 294.876 125.372 295.212 124.812 295.436C124.252 295.66 123.608 295.772 122.88 295.772H120.584C120.49 295.772 120.444 295.819 120.444 295.912V299.762C120.444 299.921 120.36 300 120.192 300H118.974C118.89 300 118.829 299.986 118.792 299.958C118.764 299.921 118.75 299.865 118.75 299.79V289.822C118.75 289.682 118.815 289.612 118.946 289.612H122.684C123.421 289.612 124.084 289.719 124.672 289.934C125.269 290.149 125.74 290.485 126.086 290.942C126.431 291.399 126.604 291.987 126.604 292.706ZM124.868 292.664C124.868 292.235 124.774 291.889 124.588 291.628C124.401 291.357 124.135 291.161 123.79 291.04C123.454 290.919 123.052 290.858 122.586 290.858H120.654C120.514 290.858 120.444 290.923 120.444 291.054V294.316C120.444 294.456 120.495 294.526 120.598 294.526H122.684C123.346 294.526 123.874 294.372 124.266 294.064C124.667 293.756 124.868 293.289 124.868 292.664ZM137.667 299.706C137.695 299.781 137.69 299.851 137.653 299.916C137.625 299.972 137.574 300 137.499 300H136.141C136.029 300 135.945 299.935 135.889 299.804L134.181 295.548C134.134 295.436 134.018 295.38 133.831 295.38H131.787C131.722 295.38 131.675 295.399 131.647 295.436C131.628 295.464 131.619 295.497 131.619 295.534V299.748C131.619 299.916 131.53 300 131.353 300H130.163C130.07 300 130.004 299.981 129.967 299.944C129.939 299.907 129.925 299.851 129.925 299.776V289.822C129.925 289.682 129.99 289.612 130.121 289.612H134.167C135.315 289.612 136.206 289.845 136.841 290.312C137.485 290.779 137.807 291.46 137.807 292.356C137.807 292.869 137.709 293.313 137.513 293.686C137.317 294.05 137.065 294.349 136.757 294.582C136.458 294.806 136.136 294.969 135.791 295.072C135.726 295.1 135.707 295.156 135.735 295.24L137.667 299.706ZM133.831 294.19C134.559 294.19 135.11 294.055 135.483 293.784C135.866 293.504 136.057 293.07 136.057 292.482C136.057 291.922 135.884 291.502 135.539 291.222C135.194 290.942 134.704 290.802 134.069 290.802H131.843C131.694 290.802 131.619 290.858 131.619 290.97V293.994C131.619 294.125 131.67 294.19 131.773 294.19H133.831ZM142.694 289.612C142.816 289.612 142.876 289.682 142.876 289.822V299.734C142.876 299.837 142.853 299.907 142.806 299.944C142.769 299.981 142.694 300 142.582 300H141.434C141.332 300 141.262 299.986 141.224 299.958C141.196 299.921 141.182 299.86 141.182 299.776V289.822C141.182 289.682 141.248 289.612 141.378 289.612H142.694ZM154.788 289.612C154.863 289.612 154.914 289.635 154.942 289.682C154.98 289.729 154.984 289.785 154.956 289.85L151.456 299.762C151.41 299.921 151.293 300 151.106 300H149.916C149.711 300 149.585 299.925 149.538 299.776L146.108 289.864C146.09 289.789 146.094 289.729 146.122 289.682C146.16 289.635 146.211 289.612 146.276 289.612H147.592C147.714 289.612 147.793 289.673 147.83 289.794L150.56 297.844C150.626 298.021 150.691 298.017 150.756 297.83L153.472 289.794C153.51 289.673 153.594 289.612 153.724 289.612H154.788ZM156.399 300C156.333 300 156.287 299.972 156.259 299.916C156.231 299.86 156.231 299.79 156.259 299.706L159.829 289.836C159.857 289.752 159.894 289.696 159.941 289.668C159.987 289.631 160.053 289.612 160.137 289.612H161.551C161.728 289.612 161.845 289.691 161.901 289.85L165.443 299.72C165.471 299.785 165.471 299.851 165.443 299.916C165.415 299.972 165.363 300 165.289 300H163.973C163.851 300 163.772 299.944 163.735 299.832L162.839 297.34C162.829 297.293 162.811 297.261 162.783 297.242C162.764 297.223 162.727 297.214 162.671 297.214H158.793C158.709 297.214 158.653 297.251 158.625 297.326L157.715 299.86C157.696 299.907 157.668 299.944 157.631 299.972C157.603 299.991 157.551 300 157.477 300H156.399ZM162.237 295.898C162.358 295.898 162.395 295.833 162.349 295.702L160.837 291.502C160.799 291.427 160.762 291.39 160.725 291.39C160.697 291.39 160.669 291.432 160.641 291.516L159.087 295.716C159.04 295.837 159.073 295.898 159.185 295.898H162.237ZM166.476 289.808C166.476 289.743 166.49 289.696 166.518 289.668C166.555 289.631 166.611 289.612 166.686 289.612H174.372C174.446 289.612 174.498 289.631 174.526 289.668C174.554 289.696 174.568 289.743 174.568 289.808V290.704C174.568 290.816 174.502 290.872 174.372 290.872H171.6C171.497 290.872 171.446 290.914 171.446 290.998V299.79C171.446 299.93 171.385 300 171.264 300H169.948C169.826 300 169.766 299.935 169.766 299.804V291.026C169.766 290.923 169.714 290.872 169.612 290.872H166.672C166.541 290.872 166.476 290.816 166.476 290.704V289.808ZM181.169 300.14C180.226 300.14 179.414 299.935 178.733 299.524C178.051 299.104 177.529 298.502 177.165 297.718C176.801 296.925 176.619 295.968 176.619 294.848C176.619 293.719 176.805 292.753 177.179 291.95C177.552 291.147 178.079 290.536 178.761 290.116C179.442 289.687 180.249 289.472 181.183 289.472C182.107 289.472 182.905 289.687 183.577 290.116C184.258 290.536 184.781 291.147 185.145 291.95C185.518 292.743 185.705 293.705 185.705 294.834C185.705 295.954 185.523 296.911 185.159 297.704C184.795 298.488 184.272 299.09 183.591 299.51C182.909 299.93 182.102 300.14 181.169 300.14ZM181.183 298.894C182.116 298.894 182.807 298.572 183.255 297.928C183.712 297.275 183.941 296.248 183.941 294.848C183.941 293.429 183.707 292.384 183.241 291.712C182.783 291.04 182.097 290.704 181.183 290.704C180.249 290.704 179.549 291.045 179.083 291.726C178.616 292.398 178.383 293.439 178.383 294.848C178.383 296.239 178.616 297.261 179.083 297.914C179.549 298.567 180.249 298.894 181.183 298.894Z" fill="#F24E1E"/>
<path d="M180 93L182.887 88H177.113L180 93ZM179.5 61V88.5H180.5V61H179.5Z" fill="black"/>
<path d="M180 180L182.887 175H177.113L180 180ZM179.5 148V175.5H180.5V148H179.5Z" fill="black"/>
<path d="M180 267L182.887 262H177.113L180 267ZM179.5 235V262.5H180.5V235H179.5Z" fill="black"/>
<defs>
<filter id="filter0_d_2605_9127" x="0" y="0" width="382" height="71" filterUnits="userSpaceOnUse" color-interpolation-filters="sRGB">
<feFlood flood-opacity="0" result="BackgroundImageFix"/>
<feColorMatrix in="SourceAlpha" type="matrix" values="0 0 0 0 0 0 0 0 0 0 0 0 0 0 0 0 0 0 127 0" result="hardAlpha"/>
<feMorphology radius="1" operator="dilate" in="SourceAlpha" result="effect1_dropShadow_2605_9127"/>
<feOffset dx="1" dy="2"/>
<feGaussianBlur stdDeviation="3.5"/>
<feColorMatrix type="matrix" values="0 0 0 0 0.733218 0 0 0 0 0.733218 0 0 0 0 0.733218 0 0 0 0.45 0"/>
<feBlend mode="normal" in2="BackgroundImageFix" result="effect1_dropShadow_2605_9127"/>
<feBlend mode="normal" in="SourceGraphic" in2="effect1_dropShadow_2605_9127" result="shape"/>
</filter>
<filter id="filter1_d_2605_9127" x="0" y="87" width="382" height="71" filterUnits="userSpaceOnUse" color-interpolation-filters="sRGB">
<feFlood flood-opacity="0" result="BackgroundImageFix"/>
<feColorMatrix in="SourceAlpha" type="matrix" values="0 0 0 0 0 0 0 0 0 0 0 0 0 0 0 0 0 0 127 0" result="hardAlpha"/>
<feMorphology radius="1" operator="dilate" in="SourceAlpha" result="effect1_dropShadow_2605_9127"/>
<feOffset dx="1" dy="2"/>
<feGaussianBlur stdDeviation="3.5"/>
<feColorMatrix type="matrix" values="0 0 0 0 0.733218 0 0 0 0 0.733218 0 0 0 0 0.733218 0 0 0 0.45 0"/>
<feBlend mode="normal" in2="BackgroundImageFix" result="effect1_dropShadow_2605_9127"/>
<feBlend mode="normal" in="SourceGraphic" in2="effect1_dropShadow_2605_9127" result="shape"/>
</filter>
<filter id="filter2_d_2605_9127" x="0" y="174" width="382" height="71" filterUnits="userSpaceOnUse" color-interpolation-filters="sRGB">
<feFlood flood-opacity="0" result="BackgroundImageFix"/>
<feColorMatrix in="SourceAlpha" type="matrix" values="0 0 0 0 0 0 0 0 0 0 0 0 0 0 0 0 0 0 127 0" result="hardAlpha"/>
<feMorphology radius="1" operator="dilate" in="SourceAlpha" result="effect1_dropShadow_2605_9127"/>
<feOffset dx="1" dy="2"/>
<feGaussianBlur stdDeviation="3.5"/>
<feColorMatrix type="matrix" values="0 0 0 0 0.733218 0 0 0 0 0.733218 0 0 0 0 0.733218 0 0 0 0.45 0"/>
<feBlend mode="normal" in2="BackgroundImageFix" result="effect1_dropShadow_2605_9127"/>
<feBlend mode="normal" in="SourceGraphic" in2="effect1_dropShadow_2605_9127" result="shape"/>
</filter>
<filter id="filter3_d_2605_9127" x="0" y="261" width="382" height="71" filterUnits="userSpaceOnUse" color-interpolation-filters="sRGB">
<feFlood flood-opacity="0" result="BackgroundImageFix"/>
<feColorMatrix in="SourceAlpha" type="matrix" values="0 0 0 0 0 0 0 0 0 0 0 0 0 0 0 0 0 0 127 0" result="hardAlpha"/>
<feMorphology radius="1" operator="dilate" in="SourceAlpha" result="effect1_dropShadow_2605_9127"/>
<feOffset dx="1" dy="2"/>
<feGaussianBlur stdDeviation="3.5"/>
<feColorMatrix type="matrix" values="0 0 0 0 0.733218 0 0 0 0 0.733218 0 0 0 0 0.733218 0 0 0 0.45 0"/>
<feBlend mode="normal" in2="BackgroundImageFix" result="effect1_dropShadow_2605_9127"/>
<feBlend mode="normal" in="SourceGraphic" in2="effect1_dropShadow_2605_9127" result="shape"/>
</filter>
</defs>
</svg>
