<svg width="335" height="567" viewBox="0 0 335 567" fill="none" xmlns="http://www.w3.org/2000/svg">
<rect x="0.5" y="0.951172" width="334" height="522.965" fill="white" stroke="black"/>
<rect y="524.416" width="335" height="42" fill="black"/>
<path d="M8.88657 550.416V540.616H15.2146V542.058H10.6786V544.802H14.3466V546.216H10.6786V550.416H8.88657ZM19.5184 550.584C18.8464 550.584 18.2397 550.43 17.6984 550.122C17.1664 549.814 16.7417 549.389 16.4244 548.848C16.1164 548.297 15.9624 547.663 15.9624 546.944C15.9624 546.225 16.121 545.595 16.4384 545.054C16.7557 544.503 17.1804 544.074 17.7124 543.766C18.2537 543.458 18.8604 543.304 19.5324 543.304C20.195 543.304 20.7924 543.458 21.3244 543.766C21.8657 544.074 22.2904 544.503 22.5984 545.054C22.9157 545.595 23.0744 546.225 23.0744 546.944C23.0744 547.663 22.9157 548.297 22.5984 548.848C22.2904 549.389 21.8657 549.814 21.3244 550.122C20.783 550.43 20.181 550.584 19.5184 550.584ZM19.5184 549.03C19.985 549.03 20.391 548.857 20.7364 548.512C21.0817 548.157 21.2544 547.635 21.2544 546.944C21.2544 546.253 21.0817 545.735 20.7364 545.39C20.391 545.035 19.9897 544.858 19.5324 544.858C19.0564 544.858 18.6457 545.035 18.3004 545.39C17.9644 545.735 17.7964 546.253 17.7964 546.944C17.7964 547.635 17.9644 548.157 18.3004 548.512C18.6457 548.857 19.0517 549.03 19.5184 549.03ZM24.6766 550.416V543.472H26.2586L26.3986 544.648C26.6133 544.237 26.9213 543.911 27.3226 543.668C27.7333 543.425 28.2139 543.304 28.7646 543.304C29.6233 543.304 30.2906 543.575 30.7666 544.116C31.2426 544.657 31.4806 545.451 31.4806 546.496V550.416H29.6886V546.664C29.6886 546.067 29.5673 545.609 29.3246 545.292C29.0819 544.975 28.7039 544.816 28.1906 544.816C27.6866 544.816 27.2713 544.993 26.9446 545.348C26.6273 545.703 26.4686 546.197 26.4686 546.832V550.416H24.6766ZM36.2882 550.416C35.5602 550.416 34.9768 550.239 34.5382 549.884C34.0995 549.529 33.8802 548.899 33.8802 547.994V544.97H32.6902V543.472H33.8802L34.0902 541.61H35.6722V543.472H37.5482V544.97H35.6722V548.008C35.6722 548.344 35.7422 548.577 35.8822 548.708C36.0315 548.829 36.2835 548.89 36.6382 548.89H37.5062V550.416H36.2882ZM42.283 550.584C41.583 550.584 40.9624 550.435 40.421 550.136C39.8797 549.837 39.455 549.417 39.147 548.876C38.839 548.335 38.685 547.709 38.685 547C38.685 546.281 38.8344 545.642 39.133 545.082C39.441 544.522 39.861 544.088 40.393 543.78C40.9344 543.463 41.569 543.304 42.297 543.304C42.9784 543.304 43.5804 543.453 44.103 543.752C44.6257 544.051 45.0317 544.461 45.321 544.984C45.6197 545.497 45.769 546.071 45.769 546.706C45.769 546.809 45.7644 546.916 45.755 547.028C45.755 547.14 45.7504 547.257 45.741 547.378H40.463C40.5004 547.919 40.687 548.344 41.023 548.652C41.3684 548.96 41.7837 549.114 42.269 549.114C42.633 549.114 42.9364 549.035 43.179 548.876C43.431 548.708 43.6177 548.493 43.739 548.232H45.559C45.4284 548.671 45.209 549.072 44.901 549.436C44.6024 549.791 44.229 550.071 43.781 550.276C43.3424 550.481 42.843 550.584 42.283 550.584ZM42.297 544.76C41.8584 544.76 41.471 544.886 41.135 545.138C40.799 545.381 40.5844 545.754 40.491 546.258H43.949C43.921 545.801 43.753 545.437 43.445 545.166C43.137 544.895 42.7544 544.76 42.297 544.76ZM50.7381 550.416V540.616H56.8001V541.582H51.9141V544.998H56.3801V545.95H51.9141V549.45H56.8001V550.416H50.7381ZM61.1045 550.584C60.2832 550.584 59.6298 550.337 59.1445 549.842C58.6592 549.338 58.4165 548.568 58.4165 547.532V543.472H59.5925V547.406C59.5925 548.853 60.1852 549.576 61.3705 549.576C61.9772 549.576 62.4765 549.361 62.8685 548.932C63.2698 548.493 63.4705 547.873 63.4705 547.07V543.472H64.6465V550.416H63.5825L63.4985 549.17C63.2838 549.609 62.9618 549.954 62.5325 550.206C62.1125 550.458 61.6365 550.584 61.1045 550.584ZM66.5822 550.416V543.472H67.6462L67.7442 544.802C67.9589 544.345 68.2855 543.981 68.7242 543.71C69.1629 543.439 69.7042 543.304 70.3482 543.304V544.536H70.0262C69.6155 544.536 69.2375 544.611 68.8922 544.76C68.5469 544.9 68.2715 545.143 68.0662 545.488C67.8609 545.833 67.7582 546.309 67.7582 546.916V550.416H66.5822ZM74.5724 550.584C73.919 550.584 73.331 550.435 72.8084 550.136C72.2857 549.837 71.8704 549.417 71.5624 548.876C71.2637 548.325 71.1144 547.681 71.1144 546.944C71.1144 546.207 71.2684 545.567 71.5764 545.026C71.8844 544.475 72.2997 544.051 72.8224 543.752C73.3544 543.453 73.947 543.304 74.6004 543.304C75.2537 543.304 75.8417 543.453 76.3644 543.752C76.887 544.051 77.2977 544.475 77.5964 545.026C77.9044 545.567 78.0584 546.207 78.0584 546.944C78.0584 547.681 77.9044 548.325 77.5964 548.876C77.2884 549.417 76.8684 549.837 76.3364 550.136C75.8137 550.435 75.2257 550.584 74.5724 550.584ZM74.5724 549.576C74.9737 549.576 75.347 549.478 75.6924 549.282C76.0377 549.086 76.3177 548.792 76.5324 548.4C76.747 548.008 76.8544 547.523 76.8544 546.944C76.8544 546.365 76.747 545.88 76.5324 545.488C76.327 545.096 76.0517 544.802 75.7064 544.606C75.361 544.41 74.9924 544.312 74.6004 544.312C74.199 544.312 73.8257 544.41 73.4804 544.606C73.135 544.802 72.855 545.096 72.6404 545.488C72.4257 545.88 72.3184 546.365 72.3184 546.944C72.3184 547.523 72.4257 548.008 72.6404 548.4C72.855 548.792 73.1304 549.086 73.4664 549.282C73.8117 549.478 74.1804 549.576 74.5724 549.576ZM82.3535 550.584C81.5229 550.584 80.8322 550.374 80.2815 549.954C79.7309 549.534 79.4089 548.965 79.3155 548.246H80.5195C80.5942 548.61 80.7855 548.927 81.0935 549.198C81.4109 549.459 81.8355 549.59 82.3675 549.59C82.8622 549.59 83.2262 549.487 83.4595 549.282C83.6929 549.067 83.8095 548.815 83.8095 548.526C83.8095 548.106 83.6555 547.826 83.3475 547.686C83.0489 547.546 82.6242 547.42 82.0735 547.308C81.7002 547.233 81.3269 547.126 80.9535 546.986C80.5802 546.846 80.2675 546.65 80.0155 546.398C79.7635 546.137 79.6375 545.796 79.6375 545.376C79.6375 544.769 79.8615 544.275 80.3095 543.892C80.7669 543.5 81.3829 543.304 82.1575 543.304C82.8949 543.304 83.4969 543.491 83.9635 543.864C84.4395 544.228 84.7149 544.751 84.7895 545.432H83.6275C83.5809 545.077 83.4269 544.802 83.1655 544.606C82.9135 544.401 82.5729 544.298 82.1435 544.298C81.7235 544.298 81.3969 544.387 81.1635 544.564C80.9395 544.741 80.8275 544.975 80.8275 545.264C80.8275 545.544 80.9722 545.763 81.2615 545.922C81.5602 546.081 81.9615 546.216 82.4655 546.328C82.8949 546.421 83.3009 546.538 83.6835 546.678C84.0755 546.809 84.3929 547.009 84.6355 547.28C84.8875 547.541 85.0135 547.924 85.0135 548.428C85.0229 549.053 84.7849 549.571 84.2995 549.982C83.8235 550.383 83.1749 550.584 82.3535 550.584ZM89.1231 550.416C88.4884 550.416 87.9891 550.262 87.6251 549.954C87.2611 549.646 87.0791 549.091 87.0791 548.288V544.466H85.8751V543.472H87.0791L87.2331 541.806H88.2551V543.472H90.2991V544.466H88.2551V548.288C88.2551 548.727 88.3438 549.025 88.5211 549.184C88.6984 549.333 89.0111 549.408 89.4591 549.408H90.1871V550.416H89.1231ZM94.1031 550.584C93.5245 550.584 93.0438 550.486 92.6611 550.29C92.2785 550.094 91.9938 549.833 91.8071 549.506C91.6205 549.179 91.5271 548.825 91.5271 548.442C91.5271 547.733 91.7978 547.187 92.3391 546.804C92.8805 546.421 93.6178 546.23 94.5511 546.23H96.4271V546.146C96.4271 545.539 96.2685 545.082 95.9511 544.774C95.6338 544.457 95.2091 544.298 94.6771 544.298C94.2198 544.298 93.8231 544.415 93.4871 544.648C93.1605 544.872 92.9551 545.203 92.8711 545.642H91.6671C91.7138 545.138 91.8818 544.713 92.1711 544.368C92.4698 544.023 92.8385 543.761 93.2771 543.584C93.7158 543.397 94.1825 543.304 94.6771 543.304C95.6478 543.304 96.3758 543.565 96.8611 544.088C97.3558 544.601 97.6031 545.287 97.6031 546.146V550.416H96.5531L96.4831 549.17C96.2871 549.562 95.9978 549.898 95.6151 550.178C95.2418 550.449 94.7378 550.584 94.1031 550.584ZM94.2851 549.59C94.7331 549.59 95.1158 549.473 95.4331 549.24C95.7598 549.007 96.0071 548.703 96.1751 548.33C96.3431 547.957 96.4271 547.565 96.4271 547.154V547.14H94.6491C93.9585 547.14 93.4685 547.261 93.1791 547.504C92.8991 547.737 92.7591 548.031 92.7591 548.386C92.7591 548.75 92.8898 549.044 93.1511 549.268C93.4218 549.483 93.7998 549.59 94.2851 549.59ZM101.92 550.416C101.285 550.416 100.786 550.262 100.422 549.954C100.058 549.646 99.876 549.091 99.876 548.288V544.466H98.672V543.472H99.876L100.03 541.806H101.052V543.472H103.096V544.466H101.052V548.288C101.052 548.727 101.141 549.025 101.318 549.184C101.495 549.333 101.808 549.408 102.256 549.408H102.984V550.416H101.92Z" fill="white"/>
<circle cx="225.294" cy="416.309" r="5" fill="white" stroke="#F24E1E" stroke-width="2"/>
<rect x="238.294" y="416.309" width="9" height="9" transform="rotate(-45 238.294 416.309)" fill="#F24E1E"/>
<rect x="188.254" y="459.642" width="9" height="9" transform="rotate(-45 188.254 459.642)" fill="#F24E1E"/>
<rect x="226.496" y="374.23" width="9" height="9" transform="rotate(-45 226.496 374.23)" fill="#F24E1E"/>
<rect x="267.701" y="128.115" width="9" height="9" transform="rotate(-45 267.701 128.115)" fill="#F24E1E"/>
<rect x="278.437" y="416.309" width="8" height="8" transform="rotate(-45 278.437 416.309)" fill="white" stroke="#F24E1E" stroke-width="2"/>
<circle cx="264.022" cy="416.308" r="5" fill="white" stroke="black" stroke-width="2"/>
<path d="M264.022 422.308V410.285" stroke="#F24E1E" stroke-width="2"/>
<circle cx="47.2222" cy="32.6572" r="5" fill="white" stroke="#F24E1E" stroke-width="2"/>
<rect x="116.213" y="32.6572" width="9" height="9" transform="rotate(-45 116.213 32.6572)" fill="#F24E1E"/>
<rect x="248.058" y="32.6572" width="8" height="8" transform="rotate(-45 248.058 32.6572)" fill="white" stroke="#F24E1E" stroke-width="2"/>
<circle cx="189.158" cy="33.021" r="5" fill="white" stroke="black" stroke-width="2"/>
<path d="M189.158 39.021V26.9985" stroke="#F24E1E" stroke-width="2"/>
<path d="M63.9634 36.2772C63.31 36.2772 62.7367 36.1272 62.2434 35.8272C61.75 35.5206 61.3667 35.0972 61.0934 34.5572C60.82 34.0106 60.6834 33.3806 60.6834 32.6672C60.6834 31.9539 60.82 31.3239 61.0934 30.7772C61.3734 30.2306 61.7667 29.8039 62.2734 29.4972C62.7867 29.1906 63.39 29.0372 64.0834 29.0372C64.87 29.0372 65.5234 29.2272 66.0434 29.6072C66.57 29.9872 66.91 30.5106 67.0634 31.1772H66.0934C66 30.7572 65.7767 30.4239 65.4234 30.1772C65.0767 29.9306 64.63 29.8072 64.0834 29.8072C63.57 29.8072 63.1234 29.9239 62.7434 30.1572C62.3634 30.3839 62.0667 30.7106 61.8534 31.1372C61.6467 31.5639 61.5434 32.0739 61.5434 32.6672C61.5434 33.2606 61.6467 33.7706 61.8534 34.1972C62.06 34.6239 62.3467 34.9539 62.7134 35.1872C63.08 35.4139 63.5067 35.5272 63.9934 35.5272C64.74 35.5272 65.3034 35.3106 65.6834 34.8772C66.0634 34.4372 66.28 33.8372 66.3334 33.0772H64.3134L64.3134 32.4172H67.1934L67.1934 36.1572H66.4234L66.3534 35.0072C66.1 35.4139 65.79 35.7272 65.4234 35.9472C65.0567 36.1672 64.57 36.2772 63.9634 36.2772ZM70.7017 36.2772C70.2284 36.2772 69.8084 36.1706 69.4417 35.9572C69.0751 35.7372 68.7851 35.4339 68.5717 35.0472C68.3651 34.6606 68.2617 34.2039 68.2617 33.6772C68.2617 33.1572 68.3651 32.7039 68.5717 32.3172C68.7784 31.9239 69.0651 31.6206 69.4317 31.4072C69.8051 31.1872 70.2351 31.0772 70.7217 31.0772C71.2017 31.0772 71.6151 31.1872 71.9617 31.4072C72.3151 31.6206 72.5851 31.9039 72.7717 32.2572C72.9584 32.6106 73.0517 32.9906 73.0517 33.3972C73.0517 33.4706 73.0484 33.5439 73.0417 33.6172C73.0417 33.6906 73.0417 33.7739 73.0417 33.8672H69.0917C69.1117 34.2472 69.1984 34.5639 69.3517 34.8172C69.5117 35.0639 69.7084 35.2506 69.9417 35.3772C70.1817 35.5039 70.4351 35.5672 70.7017 35.5672C71.0484 35.5672 71.3384 35.4872 71.5717 35.3272C71.8051 35.1672 71.9751 34.9506 72.0817 34.6772H72.9117C72.7784 35.1372 72.5217 35.5206 72.1417 35.8272C71.7684 36.1272 71.2884 36.2772 70.7017 36.2772ZM70.7017 31.7872C70.3017 31.7872 69.9451 31.9106 69.6317 32.1572C69.3251 32.3972 69.1484 32.7506 69.1017 33.2172H72.2217C72.2017 32.7706 72.0484 32.4206 71.7617 32.1672C71.4751 31.9139 71.1217 31.7872 70.7017 31.7872ZM74.1651 36.1572L74.1651 31.1972H74.9251L74.9951 32.1472C75.1484 31.8206 75.3818 31.5606 75.6951 31.3672C76.0084 31.1739 76.3951 31.0772 76.8551 31.0772L76.8551 31.9572H76.6251C76.3318 31.9572 76.0618 32.0106 75.8151 32.1172C75.5684 32.2172 75.3718 32.3906 75.2251 32.6372C75.0784 32.8839 75.0051 33.2239 75.0051 33.6572L75.0051 36.1572H74.1651ZM77.7979 36.1572L77.7979 31.1972H78.5579L78.6179 31.9172C78.7779 31.6506 78.9912 31.4439 79.2579 31.2972C79.5246 31.1506 79.8246 31.0772 80.1579 31.0772C80.5512 31.0772 80.8879 31.1572 81.1679 31.3172C81.4546 31.4772 81.6746 31.7206 81.8279 32.0472C82.0012 31.7472 82.2379 31.5106 82.5379 31.3372C82.8446 31.1639 83.1746 31.0772 83.5279 31.0772C84.1212 31.0772 84.5946 31.2572 84.9479 31.6172C85.3012 31.9706 85.4779 32.5172 85.4779 33.2572L85.4779 36.1572H84.6479L84.6479 33.3472C84.6479 32.8339 84.5446 32.4472 84.3379 32.1872C84.1312 31.9272 83.8346 31.7972 83.4479 31.7972C83.0479 31.7972 82.7146 31.9539 82.4479 32.2672C82.1879 32.5739 82.0579 33.0139 82.0579 33.5872L82.0579 36.1572H81.2179L81.2179 33.3472C81.2179 32.8339 81.1146 32.4472 80.9079 32.1872C80.7012 31.9272 80.4046 31.7972 80.0179 31.7972C79.6246 31.7972 79.2946 31.9539 79.0279 32.2672C78.7679 32.5739 78.6379 33.0139 78.6379 33.5872L78.6379 36.1572H77.7979ZM88.3932 36.2772C87.9799 36.2772 87.6366 36.2072 87.3632 36.0672C87.0899 35.9272 86.8866 35.7406 86.7532 35.5072C86.6199 35.2739 86.5532 35.0206 86.5532 34.7472C86.5532 34.2406 86.7466 33.8506 87.1332 33.5772C87.5199 33.3039 88.0466 33.1672 88.7132 33.1672H90.0532L90.0532 33.1072C90.0532 32.6739 89.9399 32.3472 89.7132 32.1272C89.4866 31.9006 89.1832 31.7872 88.8032 31.7872C88.4766 31.7872 88.1932 31.8706 87.9532 32.0372C87.7199 32.1972 87.5732 32.4339 87.5132 32.7472H86.6532C86.6866 32.3872 86.8066 32.0839 87.0132 31.8372C87.2266 31.5906 87.4899 31.4039 87.8032 31.2772C88.1166 31.1439 88.4499 31.0772 88.8032 31.0772C89.4966 31.0772 90.0166 31.2639 90.3632 31.6372C90.7166 32.0039 90.8932 32.4939 90.8932 33.1072L90.8932 36.1572H90.1432L90.0932 35.2672C89.9532 35.5472 89.7466 35.7872 89.4732 35.9872C89.2066 36.1806 88.8466 36.2772 88.3932 36.2772ZM88.5232 35.5672C88.8432 35.5672 89.1166 35.4839 89.3432 35.3172C89.5766 35.1506 89.7532 34.9339 89.8732 34.6672C89.9932 34.4006 90.0532 34.1206 90.0532 33.8272L90.0532 33.8172H88.7832C88.2899 33.8172 87.9399 33.9039 87.7332 34.0772C87.5332 34.2439 87.4332 34.4539 87.4332 34.7072C87.4332 34.9672 87.5266 35.1772 87.7132 35.3372C87.9066 35.4906 88.1766 35.5672 88.5232 35.5672ZM92.1534 36.1572L92.1534 31.1972H92.9134L92.9634 32.0872C93.1234 31.7739 93.3534 31.5272 93.6534 31.3472C93.9534 31.1672 94.2934 31.0772 94.6734 31.0772C95.26 31.0772 95.7267 31.2572 96.0734 31.6172C96.4267 31.9706 96.6034 32.5172 96.6034 33.2572L96.6034 36.1572H95.7634L95.7634 33.3472C95.7634 32.3139 95.3367 31.7972 94.4834 31.7972C94.0567 31.7972 93.7 31.9539 93.4134 32.2672C93.1334 32.5739 92.9934 33.0139 92.9934 33.5872L92.9934 36.1572H92.1534ZM98.386 30.0972C98.2194 30.0972 98.0794 30.0439 97.966 29.9372C97.8594 29.8239 97.806 29.6839 97.806 29.5172C97.806 29.3572 97.8594 29.2239 97.966 29.1172C98.0794 29.0106 98.2194 28.9572 98.386 28.9572C98.546 28.9572 98.6827 29.0106 98.796 29.1172C98.9094 29.2239 98.966 29.3572 98.966 29.5172C98.966 29.6839 98.9094 29.8239 98.796 29.9372C98.6827 30.0439 98.546 30.0972 98.386 30.0972ZM97.966 36.1572L97.966 31.1972H98.806L98.806 36.1572H97.966ZM101.919 36.2772C101.505 36.2772 101.162 36.2072 100.889 36.0672C100.615 35.9272 100.412 35.7406 100.279 35.5072C100.145 35.2739 100.079 35.0206 100.079 34.7472C100.079 34.2406 100.272 33.8506 100.659 33.5772C101.045 33.3039 101.572 33.1672 102.239 33.1672H103.579L103.579 33.1072C103.579 32.6739 103.465 32.3472 103.239 32.1272C103.012 31.9006 102.709 31.7872 102.329 31.7872C102.002 31.7872 101.719 31.8706 101.479 32.0372C101.245 32.1972 101.099 32.4339 101.039 32.7472H100.179C100.212 32.3872 100.332 32.0839 100.539 31.8372C100.752 31.5906 101.015 31.4039 101.329 31.2772C101.642 31.1439 101.975 31.0772 102.329 31.0772C103.022 31.0772 103.542 31.2639 103.889 31.6372C104.242 32.0039 104.419 32.4939 104.419 33.1072L104.419 36.1572H103.669L103.619 35.2672C103.479 35.5472 103.272 35.7872 102.999 35.9872C102.732 36.1806 102.372 36.2772 101.919 36.2772ZM102.049 35.5672C102.369 35.5672 102.642 35.4839 102.869 35.3172C103.102 35.1506 103.279 34.9339 103.399 34.6672C103.519 34.4006 103.579 34.1206 103.579 33.8272L103.579 33.8172H102.309C101.815 33.8172 101.465 33.9039 101.259 34.0772C101.059 34.2439 100.959 34.4539 100.959 34.7072C100.959 34.9672 101.052 35.1772 101.239 35.3372C101.432 35.4906 101.702 35.5672 102.049 35.5672Z" fill="black"/>
<path d="M139.504 36.2772C138.991 36.2772 138.544 36.1839 138.164 35.9972C137.784 35.8106 137.491 35.5506 137.284 35.2172C137.078 34.8839 136.974 34.4972 136.974 34.0572H137.854C137.854 34.3306 137.918 34.5839 138.044 34.8172C138.171 35.0439 138.354 35.2272 138.594 35.3672C138.841 35.5006 139.144 35.5672 139.504 35.5672C139.978 35.5672 140.344 35.4539 140.604 35.2272C140.864 35.0006 140.994 34.7172 140.994 34.3772C140.994 34.0972 140.934 33.8739 140.814 33.7072C140.694 33.5339 140.531 33.3939 140.324 33.2872C140.124 33.1806 139.891 33.0872 139.624 33.0072C139.364 32.9272 139.091 32.8372 138.804 32.7372C138.264 32.5506 137.864 32.3206 137.604 32.0472C137.344 31.7672 137.214 31.4039 137.214 30.9572C137.208 30.5839 137.294 30.2539 137.474 29.9672C137.654 29.6739 137.908 29.4472 138.234 29.2872C138.568 29.1206 138.961 29.0372 139.414 29.0372C139.861 29.0372 140.248 29.1206 140.574 29.2872C140.908 29.4539 141.164 29.6839 141.344 29.9772C141.531 30.2706 141.628 30.6039 141.634 30.9772H140.754C140.754 30.7839 140.704 30.5939 140.604 30.4072C140.504 30.2139 140.351 30.0572 140.144 29.9372C139.944 29.8172 139.691 29.7572 139.384 29.7572C139.004 29.7506 138.691 29.8472 138.444 30.0472C138.204 30.2472 138.084 30.5239 138.084 30.8772C138.084 31.1772 138.168 31.4072 138.334 31.5672C138.508 31.7272 138.748 31.8606 139.054 31.9672C139.361 32.0672 139.714 32.1839 140.114 32.3172C140.448 32.4372 140.748 32.5772 141.014 32.7372C141.281 32.8972 141.488 33.1039 141.634 33.3572C141.788 33.6106 141.864 33.9339 141.864 34.3272C141.864 34.6606 141.778 34.9772 141.604 35.2772C141.431 35.5706 141.168 35.8106 140.814 35.9972C140.468 36.1839 140.031 36.2772 139.504 36.2772ZM143.005 38.3572L143.005 31.1972H143.765L143.845 32.0172C144.005 31.7772 144.232 31.5606 144.525 31.3672C144.825 31.1739 145.205 31.0772 145.665 31.0772C146.159 31.0772 146.589 31.1906 146.955 31.4172C147.322 31.6439 147.605 31.9539 147.805 32.3472C148.012 32.7406 148.115 33.1872 148.115 33.6872C148.115 34.1872 148.012 34.6339 147.805 35.0272C147.605 35.4139 147.319 35.7206 146.945 35.9472C146.579 36.1672 146.149 36.2772 145.655 36.2772C145.249 36.2772 144.885 36.1939 144.565 36.0272C144.252 35.8606 144.012 35.6272 143.845 35.3272L143.845 38.3572H143.005ZM145.565 35.5472C145.899 35.5472 146.192 35.4706 146.445 35.3172C146.699 35.1572 146.899 34.9372 147.045 34.6572C147.192 34.3772 147.265 34.0506 147.265 33.6772C147.265 33.3039 147.192 32.9772 147.045 32.6972C146.899 32.4172 146.699 32.2006 146.445 32.0472C146.192 31.8872 145.899 31.8072 145.565 31.8072C145.232 31.8072 144.939 31.8872 144.685 32.0472C144.432 32.2006 144.232 32.4172 144.085 32.6972C143.939 32.9772 143.865 33.3039 143.865 33.6772C143.865 34.0506 143.939 34.3772 144.085 34.6572C144.232 34.9372 144.432 35.1572 144.685 35.3172C144.939 35.4706 145.232 35.5472 145.565 35.5472ZM150.935 36.2772C150.521 36.2772 150.178 36.2072 149.905 36.0672C149.631 35.9272 149.428 35.7406 149.295 35.5072C149.161 35.2739 149.095 35.0206 149.095 34.7472C149.095 34.2406 149.288 33.8506 149.675 33.5772C150.061 33.3039 150.588 33.1672 151.255 33.1672H152.595L152.595 33.1072C152.595 32.6739 152.481 32.3472 152.255 32.1272C152.028 31.9006 151.725 31.7872 151.345 31.7872C151.018 31.7872 150.735 31.8706 150.495 32.0372C150.261 32.1972 150.115 32.4339 150.055 32.7472H149.195C149.228 32.3872 149.348 32.0839 149.555 31.8372C149.768 31.5906 150.031 31.4039 150.345 31.2772C150.658 31.1439 150.991 31.0772 151.345 31.0772C152.038 31.0772 152.558 31.2639 152.905 31.6372C153.258 32.0039 153.435 32.4939 153.435 33.1072L153.435 36.1572H152.685L152.635 35.2672C152.495 35.5472 152.288 35.7872 152.015 35.9872C151.748 36.1806 151.388 36.2772 150.935 36.2772ZM151.065 35.5672C151.385 35.5672 151.658 35.4839 151.885 35.3172C152.118 35.1506 152.295 34.9339 152.415 34.6672C152.535 34.4006 152.595 34.1206 152.595 33.8272L152.595 33.8172H151.325C150.831 33.8172 150.481 33.9039 150.275 34.0772C150.075 34.2439 149.975 34.4539 149.975 34.7072C149.975 34.9672 150.068 35.1772 150.255 35.3372C150.448 35.4906 150.718 35.5672 151.065 35.5672ZM156.655 34.5972C156.375 34.5972 156.118 34.5606 155.885 34.4872L155.385 34.9572C155.458 35.0106 155.548 35.0572 155.655 35.0972C155.768 35.1306 155.928 35.1639 156.135 35.1972C156.342 35.2239 156.632 35.2539 157.005 35.2872C157.672 35.3339 158.148 35.4872 158.435 35.7472C158.722 36.0072 158.865 36.3472 158.865 36.7672C158.865 37.0539 158.785 37.3272 158.625 37.5872C158.472 37.8472 158.232 38.0606 157.905 38.2272C157.585 38.3939 157.172 38.4772 156.665 38.4772C156.218 38.4772 155.822 38.4172 155.475 38.2972C155.128 38.1839 154.858 38.0072 154.665 37.7672C154.472 37.5339 154.375 37.2372 154.375 36.8772C154.375 36.6906 154.425 36.4872 154.525 36.2672C154.625 36.0539 154.812 35.8506 155.085 35.6572C154.938 35.5972 154.812 35.5339 154.705 35.4672C154.605 35.3939 154.512 35.3139 154.425 35.2272L154.425 34.9972L155.275 34.1572C154.882 33.8239 154.685 33.3839 154.685 32.8372C154.685 32.5106 154.762 32.2139 154.915 31.9472C155.068 31.6806 155.292 31.4706 155.585 31.3172C155.878 31.1572 156.235 31.0772 156.655 31.0772C156.942 31.0772 157.202 31.1172 157.435 31.1972H159.265L159.265 31.8272L158.335 31.8672C158.528 32.1472 158.625 32.4706 158.625 32.8372C158.625 33.1639 158.545 33.4606 158.385 33.7272C158.232 33.9939 158.008 34.2072 157.715 34.3672C157.428 34.5206 157.075 34.5972 156.655 34.5972ZM156.655 33.9072C157.008 33.9072 157.288 33.8172 157.495 33.6372C157.708 33.4506 157.815 33.1839 157.815 32.8372C157.815 32.4972 157.708 32.2372 157.495 32.0572C157.288 31.8706 157.008 31.7772 156.655 31.7772C156.295 31.7772 156.008 31.8706 155.795 32.0572C155.588 32.2372 155.485 32.4972 155.485 32.8372C155.485 33.1839 155.588 33.4506 155.795 33.6372C156.008 33.8172 156.295 33.9072 156.655 33.9072ZM155.195 36.7972C155.195 37.1306 155.335 37.3772 155.615 37.5372C155.895 37.7039 156.245 37.7872 156.665 37.7872C157.078 37.7872 157.408 37.6972 157.655 37.5172C157.908 37.3372 158.035 37.0972 158.035 36.7972C158.035 36.5839 157.948 36.3972 157.775 36.2372C157.602 36.0839 157.282 35.9939 156.815 35.9672C156.448 35.9406 156.132 35.9072 155.865 35.8672C155.592 36.0139 155.412 36.1706 155.325 36.3372C155.238 36.5106 155.195 36.6639 155.195 36.7972ZM160.212 36.1572L160.212 31.1972H160.972L161.022 32.0872C161.182 31.7739 161.412 31.5272 161.712 31.3472C162.012 31.1672 162.352 31.0772 162.732 31.0772C163.319 31.0772 163.786 31.2572 164.132 31.6172C164.486 31.9706 164.662 32.5172 164.662 33.2572L164.662 36.1572L163.822 36.1572L163.822 33.3472C163.822 32.3139 163.396 31.7972 162.542 31.7972C162.116 31.7972 161.759 31.9539 161.472 32.2672C161.192 32.5739 161.052 33.0139 161.052 33.5872L161.052 36.1572H160.212ZM167.585 36.2772C167.172 36.2772 166.828 36.2072 166.555 36.0672C166.282 35.9272 166.078 35.7406 165.945 35.5072C165.812 35.2739 165.745 35.0206 165.745 34.7472C165.745 34.2406 165.938 33.8506 166.325 33.5772C166.712 33.3039 167.238 33.1672 167.905 33.1672H169.245L169.245 33.1072C169.245 32.6739 169.132 32.3472 168.905 32.1272C168.678 31.9006 168.375 31.7872 167.995 31.7872C167.668 31.7872 167.385 31.8706 167.145 32.0372C166.912 32.1972 166.765 32.4339 166.705 32.7472H165.845C165.878 32.3872 165.998 32.0839 166.205 31.8372C166.418 31.5906 166.682 31.4039 166.995 31.2772C167.308 31.1439 167.642 31.0772 167.995 31.0772C168.688 31.0772 169.208 31.2639 169.555 31.6372C169.908 32.0039 170.085 32.4939 170.085 33.1072L170.085 36.1572H169.335L169.285 35.2672C169.145 35.5472 168.938 35.7872 168.665 35.9872C168.398 36.1806 168.038 36.2772 167.585 36.2772ZM167.715 35.5672C168.035 35.5672 168.308 35.4839 168.535 35.3172C168.768 35.1506 168.945 34.9339 169.065 34.6672C169.185 34.4006 169.245 34.1206 169.245 33.8272L169.245 33.8172H167.975C167.482 33.8172 167.132 33.9039 166.925 34.0772C166.725 34.2439 166.625 34.4539 166.625 34.7072C166.625 34.9672 166.718 35.1772 166.905 35.3372C167.098 35.4906 167.368 35.5672 167.715 35.5672Z" fill="black"/>
<path d="M202.888 36.1572L202.888 29.1572H207.148L207.148 29.8472H203.728L203.728 32.3072H206.638L206.638 32.9872H203.728L203.728 36.1572H202.888ZM208.18 36.1572L208.18 31.1972H208.94L209.01 32.1472C209.164 31.8206 209.397 31.5606 209.71 31.3672C210.024 31.1739 210.41 31.0772 210.87 31.0772L210.87 31.9572H210.64C210.347 31.9572 210.077 32.0106 209.83 32.1172C209.584 32.2172 209.387 32.3906 209.24 32.6372C209.094 32.8839 209.02 33.2239 209.02 33.6572L209.02 36.1572H208.18ZM213.463 36.2772C213.05 36.2772 212.706 36.2072 212.433 36.0672C212.16 35.9272 211.956 35.7406 211.823 35.5072C211.69 35.2739 211.623 35.0206 211.623 34.7472C211.623 34.2406 211.816 33.8506 212.203 33.5772C212.59 33.3039 213.116 33.1672 213.783 33.1672H215.123L215.123 33.1072C215.123 32.6739 215.01 32.3472 214.783 32.1272C214.556 31.9006 214.253 31.7872 213.873 31.7872C213.546 31.7872 213.263 31.8706 213.023 32.0372C212.79 32.1972 212.643 32.4339 212.583 32.7472H211.723C211.756 32.3872 211.876 32.0839 212.083 31.8372C212.296 31.5906 212.56 31.4039 212.873 31.2772C213.186 31.1439 213.52 31.0772 213.873 31.0772C214.566 31.0772 215.086 31.2639 215.433 31.6372C215.786 32.0039 215.963 32.4939 215.963 33.1072L215.963 36.1572H215.213L215.163 35.2672C215.023 35.5472 214.816 35.7872 214.543 35.9872C214.276 36.1806 213.916 36.2772 213.463 36.2772ZM213.593 35.5672C213.913 35.5672 214.186 35.4839 214.413 35.3172C214.646 35.1506 214.823 34.9339 214.943 34.6672C215.063 34.4006 215.123 34.1206 215.123 33.8272L215.123 33.8172H213.853C213.36 33.8172 213.01 33.9039 212.803 34.0772C212.603 34.2439 212.503 34.4539 212.503 34.7072C212.503 34.9672 212.596 35.1772 212.783 35.3372C212.976 35.4906 213.246 35.5672 213.593 35.5672ZM217.223 36.1572L217.223 31.1972H217.983L218.033 32.0872C218.193 31.7739 218.423 31.5272 218.723 31.3472C219.023 31.1672 219.363 31.0772 219.743 31.0772C220.33 31.0772 220.797 31.2572 221.143 31.6172C221.497 31.9706 221.673 32.5172 221.673 33.2572L221.673 36.1572H220.833L220.833 33.3472C220.833 32.3139 220.407 31.7972 219.553 31.7972C219.127 31.7972 218.77 31.9539 218.483 32.2672C218.203 32.5739 218.063 33.0139 218.063 33.5872L218.063 36.1572H217.223ZM225.226 36.2772C224.753 36.2772 224.326 36.1706 223.946 35.9572C223.573 35.7372 223.276 35.4339 223.056 35.0472C222.843 34.6539 222.736 34.1972 222.736 33.6772C222.736 33.1572 222.843 32.7039 223.056 32.3172C223.276 31.9239 223.573 31.6206 223.946 31.4072C224.326 31.1872 224.753 31.0772 225.226 31.0772C225.813 31.0772 226.306 31.2306 226.706 31.5372C227.113 31.8439 227.369 32.2539 227.476 32.7672L226.616 32.7672C226.549 32.4606 226.386 32.2239 226.126 32.0572C225.866 31.8839 225.563 31.7972 225.216 31.7972C224.936 31.7972 224.673 31.8672 224.426 32.0072C224.179 32.1472 223.979 32.3572 223.826 32.6372C223.673 32.9172 223.596 33.2639 223.596 33.6772C223.596 34.0906 223.673 34.4372 223.826 34.7172C223.979 34.9972 224.179 35.2106 224.426 35.3572C224.673 35.4972 224.936 35.5672 225.216 35.5672C225.563 35.5672 225.866 35.4839 226.126 35.3172C226.386 35.1439 226.549 34.9006 226.616 34.5872H227.476C227.376 35.0872 227.123 35.4939 226.716 35.8072C226.309 36.1206 225.813 36.2772 225.226 36.2772ZM229.159 30.0972C228.992 30.0972 228.852 30.0439 228.739 29.9372C228.632 29.8239 228.579 29.6839 228.579 29.5172C228.579 29.3572 228.632 29.2239 228.739 29.1172C228.852 29.0106 228.992 28.9572 229.159 28.9572C229.319 28.9572 229.456 29.0106 229.569 29.1172C229.682 29.2239 229.739 29.3572 229.739 29.5172C229.739 29.6839 229.682 29.8239 229.569 29.9372C229.456 30.0439 229.319 30.0972 229.159 30.0972ZM228.739 36.1572L228.739 31.1972H229.579L229.579 36.1572H228.739ZM232.692 36.2772C232.278 36.2772 231.935 36.2072 231.662 36.0672C231.388 35.9272 231.185 35.7406 231.052 35.5072C230.918 35.2739 230.852 35.0206 230.852 34.7472C230.852 34.2406 231.045 33.8506 231.432 33.5772C231.818 33.3039 232.345 33.1672 233.012 33.1672H234.352L234.352 33.1072C234.352 32.6739 234.238 32.3472 234.012 32.1272C233.785 31.9006 233.482 31.7872 233.102 31.7872C232.775 31.7872 232.492 31.8706 232.252 32.0372C232.018 32.1972 231.872 32.4339 231.812 32.7472H230.952C230.985 32.3872 231.105 32.0839 231.312 31.8372C231.525 31.5906 231.788 31.4039 232.102 31.2772C232.415 31.1439 232.748 31.0772 233.102 31.0772C233.795 31.0772 234.315 31.2639 234.662 31.6372C235.015 32.0039 235.192 32.4939 235.192 33.1072L235.192 36.1572H234.442L234.392 35.2672C234.252 35.5472 234.045 35.7872 233.772 35.9872C233.505 36.1806 233.145 36.2772 232.692 36.2772ZM232.822 35.5672C233.142 35.5672 233.415 35.4839 233.642 35.3172C233.875 35.1506 234.052 34.9339 234.172 34.6672C234.292 34.4006 234.352 34.1206 234.352 33.8272L234.352 33.8172H233.082C232.588 33.8172 232.238 33.9039 232.032 34.0772C231.832 34.2439 231.732 34.4539 231.732 34.7072C231.732 34.9672 231.825 35.1772 232.012 35.3372C232.205 35.4906 232.475 35.5672 232.822 35.5672Z" fill="black"/>
<path d="M266.621 36.1572L266.621 29.1572H267.461L267.461 36.1572H266.621ZM270.856 36.1572C270.402 36.1572 270.046 36.0472 269.786 35.8272C269.526 35.6072 269.396 35.2106 269.396 34.6372L269.396 31.9072H268.536L268.536 31.1972H269.396L269.506 30.0072H270.236L270.236 31.1972H271.696L271.696 31.9072H270.236L270.236 34.6372C270.236 34.9506 270.299 35.1639 270.426 35.2772C270.552 35.3839 270.776 35.4372 271.096 35.4372H271.616L271.616 36.1572H270.856ZM274.413 36.2772C273.999 36.2772 273.656 36.2072 273.383 36.0672C273.109 35.9272 272.906 35.7406 272.773 35.5072C272.639 35.2739 272.573 35.0206 272.573 34.7472C272.573 34.2406 272.766 33.8506 273.153 33.5772C273.539 33.3039 274.066 33.1672 274.733 33.1672H276.073L276.073 33.1072C276.073 32.6739 275.959 32.3472 275.733 32.1272C275.506 31.9006 275.203 31.7872 274.823 31.7872C274.496 31.7872 274.213 31.8706 273.973 32.0372C273.739 32.1972 273.593 32.4339 273.533 32.7472H272.673C272.706 32.3872 272.826 32.0839 273.033 31.8372C273.246 31.5906 273.509 31.4039 273.823 31.2772C274.136 31.1439 274.469 31.0772 274.823 31.0772C275.516 31.0772 276.036 31.2639 276.383 31.6372C276.736 32.0039 276.913 32.4939 276.913 33.1072L276.913 36.1572H276.163L276.113 35.2672C275.973 35.5472 275.766 35.7872 275.493 35.9872C275.226 36.1806 274.866 36.2772 274.413 36.2772ZM274.543 35.5672C274.863 35.5672 275.136 35.4839 275.363 35.3172C275.596 35.1506 275.773 34.9339 275.893 34.6672C276.013 34.4006 276.073 34.1206 276.073 33.8272L276.073 33.8172H274.803C274.309 33.8172 273.959 33.9039 273.753 34.0772C273.553 34.2439 273.453 34.4539 273.453 34.7072C273.453 34.9672 273.546 35.1772 273.733 35.3372C273.926 35.4906 274.196 35.5672 274.543 35.5672ZM278.173 36.1572L278.173 28.9572L279.013 28.9572L279.013 36.1572H278.173ZM280.9 30.0972C280.733 30.0972 280.593 30.0439 280.48 29.9372C280.373 29.8239 280.32 29.6839 280.32 29.5172C280.32 29.3572 280.373 29.2239 280.48 29.1172C280.593 29.0106 280.733 28.9572 280.9 28.9572C281.06 28.9572 281.196 29.0106 281.31 29.1172C281.423 29.2239 281.48 29.3572 281.48 29.5172C281.48 29.6839 281.423 29.8239 281.31 29.9372C281.196 30.0439 281.06 30.0972 280.9 30.0972ZM280.48 36.1572L280.48 31.1972H281.32L281.32 36.1572H280.48ZM284.432 36.2772C284.019 36.2772 283.676 36.2072 283.402 36.0672C283.129 35.9272 282.926 35.7406 282.792 35.5072C282.659 35.2739 282.592 35.0206 282.592 34.7472C282.592 34.2406 282.786 33.8506 283.172 33.5772C283.559 33.3039 284.086 33.1672 284.752 33.1672H286.092L286.092 33.1072C286.092 32.6739 285.979 32.3472 285.752 32.1272C285.526 31.9006 285.222 31.7872 284.842 31.7872C284.516 31.7872 284.232 31.8706 283.992 32.0372C283.759 32.1972 283.612 32.4339 283.552 32.7472H282.692C282.726 32.3872 282.846 32.0839 283.052 31.8372C283.266 31.5906 283.529 31.4039 283.842 31.2772C284.156 31.1439 284.489 31.0772 284.842 31.0772C285.536 31.0772 286.056 31.2639 286.402 31.6372C286.756 32.0039 286.932 32.4939 286.932 33.1072L286.932 36.1572H286.182L286.132 35.2672C285.992 35.5472 285.786 35.7872 285.512 35.9872C285.246 36.1806 284.886 36.2772 284.432 36.2772ZM284.562 35.5672C284.882 35.5672 285.156 35.4839 285.382 35.3172C285.616 35.1506 285.792 34.9339 285.912 34.6672C286.032 34.4006 286.092 34.1206 286.092 33.8272L286.092 33.8172H284.822C284.329 33.8172 283.979 33.9039 283.772 34.0772C283.572 34.2439 283.472 34.4539 283.472 34.7072C283.472 34.9672 283.566 35.1772 283.752 35.3372C283.946 35.4906 284.216 35.5672 284.562 35.5672Z" fill="black"/>
<path d="M43.181 124.584L43.181 114.784H46.345C47.1104 114.784 47.7357 114.91 48.221 115.162C48.7064 115.414 49.0657 115.759 49.299 116.198C49.5324 116.637 49.649 117.122 49.649 117.654C49.649 118.27 49.481 118.825 49.145 119.32C48.8184 119.815 48.305 120.165 47.605 120.37L49.747 124.584H48.361L46.373 120.538H46.289H44.357L44.357 124.584H43.181ZM44.357 119.614H46.261C47.017 119.614 47.5677 119.432 47.913 119.068C48.2584 118.704 48.431 118.237 48.431 117.668C48.431 117.089 48.2584 116.632 47.913 116.296C47.577 115.951 47.0217 115.778 46.247 115.778H44.357L44.357 119.614ZM54.15 124.752C53.4967 124.752 52.9087 124.603 52.386 124.304C51.8634 124.005 51.448 123.585 51.14 123.044C50.8414 122.493 50.692 121.849 50.692 121.112C50.692 120.375 50.846 119.735 51.154 119.194C51.462 118.643 51.8774 118.219 52.4 117.92C52.932 117.621 53.5247 117.472 54.178 117.472C54.8314 117.472 55.4194 117.621 55.942 117.92C56.4647 118.219 56.8754 118.643 57.174 119.194C57.482 119.735 57.636 120.375 57.636 121.112C57.636 121.849 57.482 122.493 57.174 123.044C56.866 123.585 56.446 124.005 55.914 124.304C55.3914 124.603 54.8034 124.752 54.15 124.752ZM54.15 123.744C54.5514 123.744 54.9247 123.646 55.27 123.45C55.6154 123.254 55.8954 122.96 56.11 122.568C56.3247 122.176 56.432 121.691 56.432 121.112C56.432 120.533 56.3247 120.048 56.11 119.656C55.9047 119.264 55.6294 118.97 55.284 118.774C54.9387 118.578 54.57 118.48 54.178 118.48C53.7767 118.48 53.4034 118.578 53.058 118.774C52.7127 118.97 52.4327 119.264 52.218 119.656C52.0034 120.048 51.896 120.533 51.896 121.112C51.896 121.691 52.0034 122.176 52.218 122.568C52.4327 122.96 52.708 123.254 53.044 123.45C53.3894 123.646 53.758 123.744 54.15 123.744ZM62.9812 124.752C62.4118 124.752 61.9032 124.635 61.4552 124.402C61.0165 124.169 60.6805 123.842 60.4472 123.422L60.3352 124.584H59.2712L59.2712 114.504H60.4472L60.4472 118.788C60.6712 118.452 60.9885 118.149 61.3992 117.878C61.8192 117.607 62.3512 117.472 62.9952 117.472C63.6858 117.472 64.2878 117.631 64.8012 117.948C65.3145 118.265 65.7112 118.699 65.9912 119.25C66.2805 119.801 66.4252 120.426 66.4252 121.126C66.4252 121.826 66.2805 122.451 65.9912 123.002C65.7112 123.543 65.3098 123.973 64.7872 124.29C64.2738 124.598 63.6718 124.752 62.9812 124.752ZM62.8552 123.73C63.3218 123.73 63.7325 123.623 64.0872 123.408C64.4418 123.184 64.7218 122.876 64.9272 122.484C65.1325 122.092 65.2352 121.635 65.2352 121.112C65.2352 120.589 65.1325 120.132 64.9272 119.74C64.7218 119.348 64.4418 119.045 64.0872 118.83C63.7325 118.606 63.3218 118.494 62.8552 118.494C62.3885 118.494 61.9778 118.606 61.6232 118.83C61.2685 119.045 60.9885 119.348 60.7832 119.74C60.5778 120.132 60.4752 120.589 60.4752 121.112C60.4752 121.635 60.5778 122.092 60.7832 122.484C60.9885 122.876 61.2685 123.184 61.6232 123.408C61.9778 123.623 62.3885 123.73 62.8552 123.73ZM71.2262 124.752C70.5729 124.752 69.9849 124.603 69.4622 124.304C68.9395 124.005 68.5242 123.585 68.2162 123.044C67.9175 122.493 67.7682 121.849 67.7682 121.112C67.7682 120.375 67.9222 119.735 68.2302 119.194C68.5382 118.643 68.9535 118.219 69.4762 117.92C70.0082 117.621 70.6009 117.472 71.2542 117.472C71.9075 117.472 72.4955 117.621 73.0182 117.92C73.5409 118.219 73.9515 118.643 74.2502 119.194C74.5582 119.735 74.7122 120.375 74.7122 121.112C74.7122 121.849 74.5582 122.493 74.2502 123.044C73.9422 123.585 73.5222 124.005 72.9902 124.304C72.4675 124.603 71.8795 124.752 71.2262 124.752ZM71.2262 123.744C71.6275 123.744 72.0009 123.646 72.3462 123.45C72.6915 123.254 72.9715 122.96 73.1862 122.568C73.4009 122.176 73.5082 121.691 73.5082 121.112C73.5082 120.533 73.4009 120.048 73.1862 119.656C72.9809 119.264 72.7055 118.97 72.3602 118.774C72.0149 118.578 71.6462 118.48 71.2542 118.48C70.8529 118.48 70.4795 118.578 70.1342 118.774C69.7889 118.97 69.5089 119.264 69.2942 119.656C69.0795 120.048 68.9722 120.533 68.9722 121.112C68.9722 121.691 69.0795 122.176 69.2942 122.568C69.5089 122.96 69.7842 123.254 70.1202 123.45C70.4655 123.646 70.8342 123.744 71.2262 123.744ZM78.8179 124.584C78.1832 124.584 77.6839 124.43 77.3199 124.122C76.9559 123.814 76.7739 123.259 76.7739 122.456L76.7739 118.634H75.5699L75.5699 117.64H76.7739L76.9279 115.974H77.9499L77.9499 117.64L79.9939 117.64L79.9939 118.634L77.9499 118.634L77.9499 122.456C77.9499 122.895 78.0386 123.193 78.2159 123.352C78.3932 123.501 78.7059 123.576 79.1539 123.576H79.8819L79.8819 124.584H78.8179ZM36.9354 141.614C36.4314 141.129 35.9647 140.55 35.5354 139.878C35.106 139.215 34.7607 138.469 34.4994 137.638C34.2474 136.798 34.1214 135.893 34.1214 134.922C34.1214 133.951 34.2474 133.051 34.4994 132.22C34.7607 131.38 35.106 130.629 35.5354 129.966C35.9647 129.294 36.4314 128.715 36.9354 128.23H38.1394L38.1394 128.342C37.2807 129.182 36.59 130.167 36.0674 131.296C35.554 132.416 35.2974 133.625 35.2974 134.922C35.2974 136.219 35.5587 137.433 36.0814 138.562C36.604 139.682 37.29 140.662 38.1394 141.502L38.1394 141.614H36.9354ZM44.7621 142.664L44.7621 138.436C44.5381 138.772 44.2161 139.075 43.7961 139.346C43.3761 139.617 42.8488 139.752 42.2141 139.752C41.5235 139.752 40.9168 139.593 40.3941 139.276C39.8808 138.959 39.4795 138.525 39.1901 137.974C38.9101 137.423 38.7701 136.798 38.7701 136.098C38.7701 135.398 38.9148 134.777 39.2041 134.236C39.4935 133.685 39.8948 133.256 40.4081 132.948C40.9215 132.631 41.5281 132.472 42.2281 132.472C42.7975 132.472 43.3015 132.589 43.7401 132.822C44.1788 133.055 44.5195 133.382 44.7621 133.802L44.8741 132.64H45.9381L45.9381 142.664H44.7621ZM42.3401 138.73C42.8068 138.73 43.2175 138.623 43.5721 138.408C43.9361 138.184 44.2161 137.876 44.4121 137.484C44.6175 137.092 44.7201 136.635 44.7201 136.112C44.7201 135.589 44.6175 135.132 44.4121 134.74C44.2161 134.348 43.9361 134.045 43.5721 133.83C43.2175 133.606 42.8068 133.494 42.3401 133.494C41.8828 133.494 41.4721 133.606 41.1081 133.83C40.7535 134.045 40.4735 134.348 40.2681 134.74C40.0721 135.132 39.9741 135.589 39.9741 136.112C39.9741 136.635 40.0721 137.092 40.2681 137.484C40.4735 137.876 40.7535 138.184 41.1081 138.408C41.4721 138.623 41.8828 138.73 42.3401 138.73ZM50.3892 139.752C49.5678 139.752 48.9145 139.505 48.4292 139.01C47.9438 138.506 47.7012 137.736 47.7012 136.7L47.7012 132.64H48.8772L48.8772 136.574C48.8772 138.021 49.4698 138.744 50.6552 138.744C51.2618 138.744 51.7612 138.529 52.1532 138.1C52.5545 137.661 52.7552 137.041 52.7552 136.238L52.7552 132.64H53.9312L53.9312 139.584H52.8672L52.7832 138.338C52.5685 138.777 52.2465 139.122 51.8172 139.374C51.3972 139.626 50.9212 139.752 50.3892 139.752ZM58.1769 139.752C57.5982 139.752 57.1175 139.654 56.7349 139.458C56.3522 139.262 56.0675 139.001 55.8809 138.674C55.6942 138.347 55.6009 137.993 55.6009 137.61C55.6009 136.901 55.8715 136.355 56.4129 135.972C56.9542 135.589 57.6915 135.398 58.6249 135.398H60.5009L60.5009 135.314C60.5009 134.707 60.3422 134.25 60.0249 133.942C59.7075 133.625 59.2829 133.466 58.7509 133.466C58.2935 133.466 57.8969 133.583 57.5609 133.816C57.2342 134.04 57.0289 134.371 56.9449 134.81H55.7409C55.7875 134.306 55.9555 133.881 56.2449 133.536C56.5435 133.191 56.9122 132.929 57.3509 132.752C57.7895 132.565 58.2562 132.472 58.7509 132.472C59.7215 132.472 60.4495 132.733 60.9349 133.256C61.4295 133.769 61.6769 134.455 61.6769 135.314L61.6769 139.584H60.6269L60.5569 138.338C60.3609 138.73 60.0715 139.066 59.6889 139.346C59.3155 139.617 58.8115 139.752 58.1769 139.752ZM58.3589 138.758C58.8069 138.758 59.1895 138.641 59.5069 138.408C59.8335 138.175 60.0809 137.871 60.2489 137.498C60.4169 137.125 60.5009 136.733 60.5009 136.322L60.5009 136.308H58.7229C58.0322 136.308 57.5422 136.429 57.2529 136.672C56.9729 136.905 56.8329 137.199 56.8329 137.554C56.8329 137.918 56.9635 138.212 57.2249 138.436C57.4955 138.651 57.8735 138.758 58.3589 138.758ZM63.4411 139.584L63.4411 129.504H64.6171L64.6171 139.584H63.4411ZM69.2046 139.752C68.3739 139.752 67.6833 139.542 67.1326 139.122C66.5819 138.702 66.2599 138.133 66.1666 137.414H67.3706C67.4453 137.778 67.6366 138.095 67.9446 138.366C68.2619 138.627 68.6866 138.758 69.2186 138.758C69.7133 138.758 70.0773 138.655 70.3106 138.45C70.5439 138.235 70.6606 137.983 70.6606 137.694C70.6606 137.274 70.5066 136.994 70.1986 136.854C69.8999 136.714 69.4753 136.588 68.9246 136.476C68.5513 136.401 68.1779 136.294 67.8046 136.154C67.4313 136.014 67.1186 135.818 66.8666 135.566C66.6146 135.305 66.4886 134.964 66.4886 134.544C66.4886 133.937 66.7126 133.443 67.1606 133.06C67.6179 132.668 68.2339 132.472 69.0086 132.472C69.7459 132.472 70.3479 132.659 70.8146 133.032C71.2906 133.396 71.5659 133.919 71.6406 134.6H70.4786C70.4319 134.245 70.2779 133.97 70.0166 133.774C69.7646 133.569 69.4239 133.466 68.9946 133.466C68.5746 133.466 68.2479 133.555 68.0146 133.732C67.7906 133.909 67.6786 134.143 67.6786 134.432C67.6786 134.712 67.8233 134.931 68.1126 135.09C68.4113 135.249 68.8126 135.384 69.3166 135.496C69.7459 135.589 70.1519 135.706 70.5346 135.846C70.9266 135.977 71.2439 136.177 71.4866 136.448C71.7386 136.709 71.8646 137.092 71.8646 137.596C71.8739 138.221 71.6359 138.739 71.1506 139.15C70.6746 139.551 70.0259 139.752 69.2046 139.752ZM73.9506 139.654C73.7173 139.654 73.5213 139.579 73.3626 139.43C73.2133 139.271 73.1386 139.08 73.1386 138.856C73.1386 138.632 73.2133 138.445 73.3626 138.296C73.5213 138.137 73.7173 138.058 73.9506 138.058C74.1746 138.058 74.3613 138.137 74.5106 138.296C74.6693 138.445 74.7486 138.632 74.7486 138.856C74.7486 139.08 74.6693 139.271 74.5106 139.43C74.3613 139.579 74.1746 139.654 73.9506 139.654ZM75.845 141.614L75.845 141.502C76.6943 140.662 77.3803 139.682 77.903 138.562C78.435 137.433 78.701 136.219 78.701 134.922C78.701 133.625 78.4397 132.416 77.917 131.296C77.3943 130.167 76.7083 129.182 75.859 128.342L75.859 128.23H77.049C77.5623 128.715 78.029 129.294 78.449 129.966C78.8783 130.629 79.219 131.38 79.471 132.22C79.7323 133.051 79.863 133.951 79.863 134.922C79.863 135.893 79.7323 136.798 79.471 137.638C79.219 138.469 78.8783 139.215 78.449 139.878C78.029 140.55 77.5623 141.129 77.049 141.614H75.845Z" fill="black"/>
<path d="M43.181 210.244L43.181 200.444H46.345C47.1104 200.444 47.7357 200.57 48.221 200.822C48.7064 201.074 49.0657 201.419 49.299 201.858C49.5324 202.297 49.649 202.782 49.649 203.314C49.649 203.93 49.481 204.485 49.145 204.98C48.8184 205.475 48.305 205.825 47.605 206.03L49.747 210.244H48.361L46.373 206.198H46.289H44.357L44.357 210.244H43.181ZM44.357 205.274H46.261C47.017 205.274 47.5677 205.092 47.913 204.728C48.2584 204.364 48.431 203.897 48.431 203.328C48.431 202.749 48.2584 202.292 47.913 201.956C47.577 201.611 47.0217 201.438 46.247 201.438H44.357L44.357 205.274ZM54.15 210.412C53.4967 210.412 52.9087 210.263 52.386 209.964C51.8634 209.665 51.448 209.245 51.14 208.704C50.8414 208.153 50.692 207.509 50.692 206.772C50.692 206.035 50.846 205.395 51.154 204.854C51.462 204.303 51.8774 203.879 52.4 203.58C52.932 203.281 53.5247 203.132 54.178 203.132C54.8314 203.132 55.4194 203.281 55.942 203.58C56.4647 203.879 56.8754 204.303 57.174 204.854C57.482 205.395 57.636 206.035 57.636 206.772C57.636 207.509 57.482 208.153 57.174 208.704C56.866 209.245 56.446 209.665 55.914 209.964C55.3914 210.263 54.8034 210.412 54.15 210.412ZM54.15 209.404C54.5514 209.404 54.9247 209.306 55.27 209.11C55.6154 208.914 55.8954 208.62 56.11 208.228C56.3247 207.836 56.432 207.351 56.432 206.772C56.432 206.193 56.3247 205.708 56.11 205.316C55.9047 204.924 55.6294 204.63 55.284 204.434C54.9387 204.238 54.57 204.14 54.178 204.14C53.7767 204.14 53.4034 204.238 53.058 204.434C52.7127 204.63 52.4327 204.924 52.218 205.316C52.0034 205.708 51.896 206.193 51.896 206.772C51.896 207.351 52.0034 207.836 52.218 208.228C52.4327 208.62 52.708 208.914 53.044 209.11C53.3894 209.306 53.758 209.404 54.15 209.404ZM62.9812 210.412C62.4118 210.412 61.9032 210.295 61.4552 210.062C61.0165 209.829 60.6805 209.502 60.4472 209.082L60.3352 210.244H59.2712L59.2712 200.164H60.4472L60.4472 204.448C60.6712 204.112 60.9885 203.809 61.3992 203.538C61.8192 203.267 62.3512 203.132 62.9952 203.132C63.6858 203.132 64.2878 203.291 64.8012 203.608C65.3145 203.925 65.7112 204.359 65.9912 204.91C66.2805 205.461 66.4252 206.086 66.4252 206.786C66.4252 207.486 66.2805 208.111 65.9912 208.662C65.7112 209.203 65.3098 209.633 64.7872 209.95C64.2738 210.258 63.6718 210.412 62.9812 210.412ZM62.8552 209.39C63.3218 209.39 63.7325 209.283 64.0872 209.068C64.4418 208.844 64.7218 208.536 64.9272 208.144C65.1325 207.752 65.2352 207.295 65.2352 206.772C65.2352 206.249 65.1325 205.792 64.9272 205.4C64.7218 205.008 64.4418 204.705 64.0872 204.49C63.7325 204.266 63.3218 204.154 62.8552 204.154C62.3885 204.154 61.9778 204.266 61.6232 204.49C61.2685 204.705 60.9885 205.008 60.7832 205.4C60.5778 205.792 60.4752 206.249 60.4752 206.772C60.4752 207.295 60.5778 207.752 60.7832 208.144C60.9885 208.536 61.2685 208.844 61.6232 209.068C61.9778 209.283 62.3885 209.39 62.8552 209.39ZM71.2262 210.412C70.5729 210.412 69.9849 210.263 69.4622 209.964C68.9395 209.665 68.5242 209.245 68.2162 208.704C67.9175 208.153 67.7682 207.509 67.7682 206.772C67.7682 206.035 67.9222 205.395 68.2302 204.854C68.5382 204.303 68.9535 203.879 69.4762 203.58C70.0082 203.281 70.6009 203.132 71.2542 203.132C71.9075 203.132 72.4955 203.281 73.0182 203.58C73.5409 203.879 73.9515 204.303 74.2502 204.854C74.5582 205.395 74.7122 206.035 74.7122 206.772C74.7122 207.509 74.5582 208.153 74.2502 208.704C73.9422 209.245 73.5222 209.665 72.9902 209.964C72.4675 210.263 71.8795 210.412 71.2262 210.412ZM71.2262 209.404C71.6275 209.404 72.0009 209.306 72.3462 209.11C72.6915 208.914 72.9715 208.62 73.1862 208.228C73.4009 207.836 73.5082 207.351 73.5082 206.772C73.5082 206.193 73.4009 205.708 73.1862 205.316C72.9809 204.924 72.7055 204.63 72.3602 204.434C72.0149 204.238 71.6462 204.14 71.2542 204.14C70.8529 204.14 70.4795 204.238 70.1342 204.434C69.7889 204.63 69.5089 204.924 69.2942 205.316C69.0795 205.708 68.9722 206.193 68.9722 206.772C68.9722 207.351 69.0795 207.836 69.2942 208.228C69.5089 208.62 69.7842 208.914 70.1202 209.11C70.4655 209.306 70.8342 209.404 71.2262 209.404ZM78.8179 210.244C78.1832 210.244 77.6839 210.09 77.3199 209.782C76.9559 209.474 76.7739 208.919 76.7739 208.116L76.7739 204.294H75.5699L75.5699 203.3H76.7739L76.9279 201.634H77.9499L77.9499 203.3H79.9939L79.9939 204.294H77.9499L77.9499 208.116C77.9499 208.555 78.0386 208.853 78.2159 209.012C78.3932 209.161 78.7059 209.236 79.1539 209.236H79.8819L79.8819 210.244H78.8179ZM59.3153 216.76C59.0819 216.76 58.8859 216.685 58.7273 216.536C58.5779 216.377 58.5033 216.181 58.5033 215.948C58.5033 215.724 58.5779 215.537 58.7273 215.388C58.8859 215.239 59.0819 215.164 59.3153 215.164C59.5393 215.164 59.7306 215.239 59.8893 215.388C60.0479 215.537 60.1273 215.724 60.1273 215.948C60.1273 216.181 60.0479 216.377 59.8893 216.536C59.7306 216.685 59.5393 216.76 59.3153 216.76ZM58.7273 225.244L58.7273 218.3H59.9033L59.9033 225.244H58.7273ZM61.9509 225.244L61.9509 218.3H63.0149L63.0849 219.546C63.3089 219.107 63.6309 218.762 64.0509 218.51C64.4709 218.258 64.9469 218.132 65.4789 218.132C66.3002 218.132 66.9535 218.384 67.4389 218.888C67.9335 219.383 68.1809 220.148 68.1809 221.184L68.1809 225.244H67.0049L67.0049 221.31C67.0049 219.863 66.4075 219.14 65.2129 219.14C64.6155 219.14 64.1162 219.359 63.7149 219.798C63.3229 220.227 63.1269 220.843 63.1269 221.646L63.1269 225.244H61.9509ZM73.1126 225.412C72.4219 225.412 71.8153 225.253 71.2926 224.936C70.7793 224.619 70.3779 224.185 70.0886 223.634C69.8086 223.083 69.6686 222.458 69.6686 221.758C69.6686 221.058 69.8133 220.437 70.1026 219.896C70.3919 219.345 70.7933 218.916 71.3066 218.608C71.8199 218.291 72.4266 218.132 73.1266 218.132C73.6959 218.132 74.1999 218.249 74.6386 218.482C75.0773 218.715 75.4179 219.042 75.6606 219.462L75.6606 215.164H76.8366L76.8366 225.244H75.7726L75.6606 224.096C75.4366 224.432 75.1146 224.735 74.6946 225.006C74.2746 225.277 73.7473 225.412 73.1126 225.412ZM73.2386 224.39C73.7053 224.39 74.1159 224.283 74.4706 224.068C74.8346 223.844 75.1146 223.536 75.3106 223.144C75.5159 222.752 75.6186 222.295 75.6186 221.772C75.6186 221.249 75.5159 220.792 75.3106 220.4C75.1146 220.008 74.8346 219.705 74.4706 219.49C74.1159 219.266 73.7053 219.154 73.2386 219.154C72.7813 219.154 72.3706 219.266 72.0066 219.49C71.6519 219.705 71.3719 220.008 71.1666 220.4C70.9706 220.792 70.8726 221.249 70.8726 221.772C70.8726 222.295 70.9706 222.752 71.1666 223.144C71.3719 223.536 71.6519 223.844 72.0066 224.068C72.3706 224.283 72.7813 224.39 73.2386 224.39ZM79.1596 225.314C78.9263 225.314 78.7303 225.239 78.5716 225.09C78.4223 224.931 78.3476 224.74 78.3476 224.516C78.3476 224.292 78.4223 224.105 78.5716 223.956C78.7303 223.797 78.9263 223.718 79.1596 223.718C79.3836 223.718 79.5703 223.797 79.7196 223.956C79.8783 224.105 79.9576 224.292 79.9576 224.516C79.9576 224.74 79.8783 224.931 79.7196 225.09C79.5703 225.239 79.3836 225.314 79.1596 225.314Z" fill="black"/>
<path d="M43.181 289.902L43.181 280.102H46.345C47.1104 280.102 47.7357 280.228 48.221 280.48C48.7064 280.732 49.0657 281.078 49.299 281.516C49.5324 281.955 49.649 282.44 49.649 282.972C49.649 283.588 49.481 284.144 49.145 284.638C48.8184 285.133 48.305 285.483 47.605 285.688L49.747 289.902H48.361L46.373 285.856H46.289H44.357L44.357 289.902H43.181ZM44.357 284.932H46.261C47.017 284.932 47.5677 284.75 47.913 284.386C48.2584 284.022 48.431 283.556 48.431 282.986C48.431 282.408 48.2584 281.95 47.913 281.614C47.577 281.269 47.0217 281.096 46.247 281.096H44.357L44.357 284.932ZM54.15 290.07C53.4967 290.07 52.9087 289.921 52.386 289.622C51.8634 289.324 51.448 288.904 51.14 288.362C50.8414 287.812 50.692 287.168 50.692 286.43C50.692 285.693 50.846 285.054 51.154 284.512C51.462 283.962 51.8774 283.537 52.4 283.238C52.932 282.94 53.5247 282.79 54.178 282.79C54.8314 282.79 55.4194 282.94 55.942 283.238C56.4647 283.537 56.8754 283.962 57.174 284.512C57.482 285.054 57.636 285.693 57.636 286.43C57.636 287.168 57.482 287.812 57.174 288.362C56.866 288.904 56.446 289.324 55.914 289.622C55.3914 289.921 54.8034 290.07 54.15 290.07ZM54.15 289.062C54.5514 289.062 54.9247 288.964 55.27 288.768C55.6154 288.572 55.8954 288.278 56.11 287.886C56.3247 287.494 56.432 287.009 56.432 286.43C56.432 285.852 56.3247 285.366 56.11 284.974C55.9047 284.582 55.6294 284.288 55.284 284.092C54.9387 283.896 54.57 283.798 54.178 283.798C53.7767 283.798 53.4034 283.896 53.058 284.092C52.7127 284.288 52.4327 284.582 52.218 284.974C52.0034 285.366 51.896 285.852 51.896 286.43C51.896 287.009 52.0034 287.494 52.218 287.886C52.4327 288.278 52.708 288.572 53.044 288.768C53.3894 288.964 53.758 289.062 54.15 289.062ZM62.9812 290.07C62.4118 290.07 61.9032 289.954 61.4552 289.72C61.0165 289.487 60.6805 289.16 60.4472 288.74L60.3352 289.902H59.2712L59.2712 279.822H60.4472L60.4472 284.106C60.6712 283.77 60.9885 283.467 61.3992 283.196C61.8192 282.926 62.3512 282.79 62.9952 282.79C63.6858 282.79 64.2878 282.949 64.8012 283.266C65.3145 283.584 65.7112 284.018 65.9912 284.568C66.2805 285.119 66.4252 285.744 66.4252 286.444C66.4252 287.144 66.2805 287.77 65.9912 288.32C65.7112 288.862 65.3098 289.291 64.7872 289.608C64.2738 289.916 63.6718 290.07 62.9812 290.07ZM62.8552 289.048C63.3218 289.048 63.7325 288.941 64.0872 288.726C64.4418 288.502 64.7218 288.194 64.9272 287.802C65.1325 287.41 65.2352 286.953 65.2352 286.43C65.2352 285.908 65.1325 285.45 64.9272 285.058C64.7218 284.666 64.4418 284.363 64.0872 284.148C63.7325 283.924 63.3218 283.812 62.8552 283.812C62.3885 283.812 61.9778 283.924 61.6232 284.148C61.2685 284.363 60.9885 284.666 60.7832 285.058C60.5778 285.45 60.4752 285.908 60.4752 286.43C60.4752 286.953 60.5778 287.41 60.7832 287.802C60.9885 288.194 61.2685 288.502 61.6232 288.726C61.9778 288.941 62.3885 289.048 62.8552 289.048ZM71.2262 290.07C70.5729 290.07 69.9849 289.921 69.4622 289.622C68.9395 289.324 68.5242 288.904 68.2162 288.362C67.9175 287.812 67.7682 287.168 67.7682 286.43C67.7682 285.693 67.9222 285.054 68.2302 284.512C68.5382 283.962 68.9535 283.537 69.4762 283.238C70.0082 282.94 70.6009 282.79 71.2542 282.79C71.9075 282.79 72.4955 282.94 73.0182 283.238C73.5409 283.537 73.9515 283.962 74.2502 284.512C74.5582 285.054 74.7122 285.693 74.7122 286.43C74.7122 287.168 74.5582 287.812 74.2502 288.362C73.9422 288.904 73.5222 289.324 72.9902 289.622C72.4675 289.921 71.8795 290.07 71.2262 290.07ZM71.2262 289.062C71.6275 289.062 72.0009 288.964 72.3462 288.768C72.6915 288.572 72.9715 288.278 73.1862 287.886C73.4009 287.494 73.5082 287.009 73.5082 286.43C73.5082 285.852 73.4009 285.366 73.1862 284.974C72.9809 284.582 72.7055 284.288 72.3602 284.092C72.0149 283.896 71.6462 283.798 71.2542 283.798C70.8529 283.798 70.4795 283.896 70.1342 284.092C69.7889 284.288 69.5089 284.582 69.2942 284.974C69.0795 285.366 68.9722 285.852 68.9722 286.43C68.9722 287.009 69.0795 287.494 69.2942 287.886C69.5089 288.278 69.7842 288.572 70.1202 288.768C70.4655 288.964 70.8342 289.062 71.2262 289.062ZM78.8179 289.902C78.1832 289.902 77.6839 289.748 77.3199 289.44C76.9559 289.132 76.7739 288.577 76.7739 287.774L76.7739 283.952H75.5699L75.5699 282.958H76.7739L76.9279 281.292H77.9499L77.9499 282.958H79.9939L79.9939 283.952H77.9499L77.9499 287.774C77.9499 288.213 78.0386 288.512 78.2159 288.67C78.3932 288.82 78.7059 288.894 79.1539 288.894H79.8819L79.8819 289.902H78.8179ZM54.6167 305.07C53.7861 305.07 53.0954 304.86 52.5447 304.44C51.9941 304.02 51.6721 303.451 51.5787 302.732H52.7827C52.8574 303.096 53.0487 303.414 53.3567 303.684C53.6741 303.946 54.0987 304.076 54.6307 304.076C55.1254 304.076 55.4894 303.974 55.7227 303.768C55.9561 303.554 56.0727 303.302 56.0727 303.012C56.0727 302.592 55.9187 302.312 55.6107 302.172C55.3121 302.032 54.8874 301.906 54.3367 301.794C53.9634 301.72 53.5901 301.612 53.2167 301.472C52.8434 301.332 52.5307 301.136 52.2787 300.884C52.0267 300.623 51.9007 300.282 51.9007 299.862C51.9007 299.256 52.1247 298.761 52.5727 298.378C53.0301 297.986 53.6461 297.79 54.4207 297.79C55.1581 297.79 55.7601 297.977 56.2267 298.35C56.7027 298.714 56.9781 299.237 57.0527 299.918H55.8907C55.8441 299.564 55.6901 299.288 55.4287 299.092C55.1767 298.887 54.8361 298.784 54.4067 298.784C53.9867 298.784 53.6601 298.873 53.4267 299.05C53.2027 299.228 53.0907 299.461 53.0907 299.75C53.0907 300.03 53.2354 300.25 53.5247 300.408C53.8234 300.567 54.2247 300.702 54.7287 300.814C55.1581 300.908 55.5641 301.024 55.9467 301.164C56.3387 301.295 56.6561 301.496 56.8987 301.766C57.1507 302.028 57.2767 302.41 57.2767 302.914C57.2861 303.54 57.0481 304.058 56.5627 304.468C56.0867 304.87 55.4381 305.07 54.6167 305.07ZM62.0787 305.07C61.4161 305.07 60.8281 304.921 60.3147 304.622C59.8014 304.314 59.3954 303.89 59.0967 303.348C58.8074 302.807 58.6627 302.168 58.6627 301.43C58.6627 300.702 58.8074 300.068 59.0967 299.526C59.3861 298.976 59.7874 298.551 60.3007 298.252C60.8234 297.944 61.4254 297.79 62.1067 297.79C62.7787 297.79 63.3574 297.944 63.8427 298.252C64.3374 298.551 64.7154 298.948 64.9767 299.442C65.2381 299.937 65.3687 300.469 65.3687 301.038C65.3687 301.141 65.3641 301.244 65.3547 301.346C65.3547 301.449 65.3547 301.566 65.3547 301.696H59.8247C59.8527 302.228 59.9741 302.672 60.1887 303.026C60.4127 303.372 60.6881 303.633 61.0147 303.81C61.3507 303.988 61.7054 304.076 62.0787 304.076C62.5641 304.076 62.9701 303.964 63.2967 303.74C63.6234 303.516 63.8614 303.213 64.0107 302.83H65.1727C64.9861 303.474 64.6267 304.011 64.0947 304.44C63.5721 304.86 62.9001 305.07 62.0787 305.07ZM62.0787 298.784C61.5187 298.784 61.0194 298.957 60.5807 299.302C60.1514 299.638 59.9041 300.133 59.8387 300.786H64.2067C64.1787 300.161 63.9641 299.671 63.5627 299.316C63.1614 298.962 62.6667 298.784 62.0787 298.784ZM66.9274 304.902L66.9274 297.958H67.9914L68.0894 299.288C68.3041 298.831 68.6308 298.467 69.0694 298.196C69.5081 297.926 70.0494 297.79 70.6934 297.79L70.6934 299.022H70.3714C69.9608 299.022 69.5828 299.097 69.2374 299.246C68.8921 299.386 68.6168 299.629 68.4114 299.974C68.2061 300.32 68.1034 300.796 68.1034 301.402L68.1034 304.902H66.9274ZM74.0154 304.902L71.3834 297.958H72.6154L74.7014 303.768L76.8014 297.958H78.0054L75.3734 304.902H74.0154ZM79.1596 304.972C78.9263 304.972 78.7303 304.898 78.5716 304.748C78.4223 304.59 78.3476 304.398 78.3476 304.174C78.3476 303.95 78.4223 303.764 78.5716 303.614C78.7303 303.456 78.9263 303.376 79.1596 303.376C79.3836 303.376 79.5703 303.456 79.7196 303.614C79.8783 303.764 79.9576 303.95 79.9576 304.174C79.9576 304.398 79.8783 304.59 79.7196 304.748C79.5703 304.898 79.3836 304.972 79.1596 304.972Z" fill="black"/>
<path d="M48.1576 372.562L48.1576 362.762H49.3336L49.3336 372.562H48.1576ZM51.3415 372.562L51.3415 365.618H52.4055L52.4755 366.864C52.6995 366.426 53.0215 366.08 53.4415 365.828C53.8615 365.576 54.3375 365.45 54.8695 365.45C55.6908 365.45 56.3442 365.702 56.8295 366.206C57.3242 366.701 57.5715 367.466 57.5715 368.502L57.5715 372.562H56.3955L56.3955 368.628C56.3955 367.182 55.7982 366.458 54.6035 366.458C54.0062 366.458 53.5068 366.678 53.1055 367.116C52.7135 367.546 52.5175 368.162 52.5175 368.965L52.5175 372.562H51.3415ZM62.0972 372.562C61.4625 372.562 60.9632 372.409 60.5992 372.101C60.2352 371.793 60.0532 371.237 60.0532 370.434L60.0532 366.612H58.8492L58.8492 365.618H60.0532L60.2072 363.952H61.2292L61.2292 365.618H63.2732L63.2732 366.612H61.2292L61.2292 370.434C61.2292 370.873 61.3179 371.172 61.4952 371.33C61.6725 371.48 61.9852 371.554 62.4332 371.554H63.1612L63.1612 372.562H62.0972ZM67.6979 372.731C67.0352 372.731 66.4472 372.581 65.9339 372.282C65.4205 371.974 65.0145 371.55 64.7159 371.008C64.4265 370.467 64.2819 369.828 64.2819 369.09C64.2819 368.362 64.4265 367.728 64.7159 367.186C65.0052 366.636 65.4065 366.211 65.9199 365.912C66.4425 365.604 67.0445 365.45 67.7259 365.45C68.3979 365.45 68.9765 365.604 69.4619 365.912C69.9565 366.211 70.3345 366.608 70.5959 367.102C70.8572 367.597 70.9879 368.129 70.9879 368.698C70.9879 368.801 70.9832 368.904 70.9739 369.006C70.9739 369.109 70.9739 369.226 70.9739 369.356H65.4439C65.4719 369.888 65.5932 370.332 65.8079 370.686C66.0319 371.032 66.3072 371.293 66.6339 371.47C66.9699 371.648 67.3245 371.736 67.6979 371.736C68.1832 371.736 68.5892 371.624 68.9159 371.4C69.2425 371.176 69.4805 370.873 69.6299 370.49H70.7919C70.6052 371.134 70.2459 371.671 69.7139 372.101C69.1912 372.521 68.5192 372.731 67.6979 372.731ZM67.6979 366.444C67.1379 366.444 66.6385 366.617 66.1999 366.962C65.7705 367.298 65.5232 367.793 65.4579 368.447H69.8259C69.7979 367.821 69.5832 367.331 69.1819 366.976C68.7805 366.622 68.2859 366.444 67.6979 366.444ZM72.5466 372.562L72.5466 362.482H73.7226L73.7226 372.562H72.5466ZM75.6501 372.562L75.6501 362.482H76.8261L76.8261 372.562H75.6501ZM79.1596 372.633C78.9263 372.633 78.7303 372.558 78.5716 372.408C78.4223 372.25 78.3476 372.058 78.3476 371.834C78.3476 371.61 78.4223 371.424 78.5716 371.274C78.7303 371.116 78.9263 371.036 79.1596 371.036C79.3836 371.036 79.5703 371.116 79.7196 371.274C79.8783 371.424 79.9576 371.61 79.9576 371.834C79.9576 372.058 79.8783 372.25 79.7196 372.408C79.5703 372.558 79.3836 372.633 79.1596 372.633ZM62.9894 387.731C62.4107 387.731 61.93 387.632 61.5474 387.436C61.1647 387.24 60.88 386.979 60.6934 386.652C60.5067 386.326 60.4134 385.971 60.4134 385.588C60.4134 384.879 60.684 384.333 61.2254 383.95C61.7667 383.568 62.504 383.376 63.4374 383.376H65.3134L65.3134 383.292C65.3134 382.686 65.1547 382.228 64.8374 381.92C64.52 381.603 64.0954 381.444 63.5634 381.444C63.106 381.444 62.7094 381.561 62.3734 381.794C62.0467 382.018 61.8414 382.35 61.7574 382.788H60.5534C60.6 382.284 60.768 381.86 61.0574 381.514C61.356 381.169 61.7247 380.908 62.1634 380.73C62.602 380.544 63.0687 380.45 63.5634 380.45C64.534 380.45 65.262 380.712 65.7474 381.234C66.242 381.748 66.4894 382.434 66.4894 383.292L66.4894 387.562H65.4394L65.3694 386.316C65.1734 386.708 64.884 387.044 64.5014 387.324C64.128 387.595 63.624 387.731 62.9894 387.731ZM63.1714 386.736C63.6194 386.736 64.002 386.62 64.3194 386.386C64.646 386.153 64.8934 385.85 65.0614 385.476C65.2294 385.103 65.3134 384.711 65.3134 384.3L65.3134 384.286H63.5354C62.8447 384.286 62.3547 384.408 62.0654 384.65C61.7854 384.884 61.6454 385.178 61.6454 385.532C61.6454 385.896 61.776 386.19 62.0374 386.414C62.308 386.629 62.686 386.736 63.1714 386.736ZM68.2536 387.562L68.2536 380.618H69.3176L69.4156 381.948C69.6303 381.491 69.9569 381.127 70.3956 380.856C70.8343 380.586 71.3756 380.45 72.0196 380.45L72.0196 381.682H71.6976C71.2869 381.682 70.9089 381.757 70.5636 381.906C70.2183 382.046 69.9429 382.289 69.7376 382.634C69.5323 382.98 69.4296 383.456 69.4296 384.062L69.4296 387.562H68.2536ZM76.0835 387.562C75.4489 387.562 74.9495 387.409 74.5855 387.101C74.2215 386.793 74.0395 386.237 74.0395 385.434L74.0395 381.612H72.8355L72.8355 380.618H74.0395L74.1935 378.952H75.2155L75.2155 380.618H77.2595L77.2595 381.612H75.2155L75.2155 385.434C75.2155 385.873 75.3042 386.172 75.4815 386.33C75.6589 386.48 75.9715 386.554 76.4195 386.554H77.1475L77.1475 387.562H76.0835ZM79.1596 387.633C78.9263 387.633 78.7303 387.558 78.5716 387.408C78.4223 387.25 78.3476 387.058 78.3476 386.834C78.3476 386.61 78.4223 386.424 78.5716 386.274C78.7303 386.116 78.9263 386.036 79.1596 386.036C79.3836 386.036 79.5703 386.116 79.7196 386.274C79.8783 386.424 79.9576 386.61 79.9576 386.834C79.9576 387.058 79.8783 387.25 79.7196 387.408C79.5703 387.558 79.3836 387.633 79.1596 387.633Z" fill="black"/>
<path d="M34.7093 455.389C33.9906 455.389 33.3653 455.258 32.8333 454.997C32.3013 454.735 31.8906 454.371 31.6013 453.905C31.3119 453.438 31.1673 452.897 31.1673 452.281H32.3993C32.3993 452.663 32.4879 453.018 32.6653 453.345C32.8426 453.662 33.0993 453.919 33.4353 454.115C33.7806 454.301 34.2053 454.395 34.7093 454.395C35.3719 454.395 35.8853 454.236 36.2493 453.919C36.6133 453.601 36.7953 453.205 36.7953 452.729C36.7953 452.337 36.7113 452.024 36.5433 451.791C36.3753 451.548 36.1466 451.352 35.8573 451.203C35.5773 451.053 35.2506 450.923 34.8773 450.811C34.5133 450.699 34.1306 450.573 33.7293 450.433C32.9733 450.171 32.4133 449.849 32.0493 449.467C31.6853 449.075 31.5033 448.566 31.5033 447.941C31.4939 447.418 31.6153 446.956 31.8673 446.555C32.1193 446.144 32.4739 445.827 32.9313 445.603C33.3979 445.369 33.9486 445.253 34.5833 445.253C35.2086 445.253 35.7499 445.369 36.2073 445.603C36.6739 445.836 37.0333 446.158 37.2853 446.569C37.5466 446.979 37.6819 447.446 37.6913 447.969H36.4593C36.4593 447.698 36.3893 447.432 36.2493 447.171C36.1093 446.9 35.8946 446.681 35.6053 446.513C35.3253 446.345 34.9706 446.261 34.5413 446.261C34.0093 446.251 33.5706 446.387 33.2253 446.667C32.8893 446.947 32.7213 447.334 32.7213 447.829C32.7213 448.249 32.8379 448.571 33.0713 448.795C33.3139 449.019 33.6499 449.205 34.0793 449.355C34.5086 449.495 35.0033 449.658 35.5633 449.845C36.0299 450.013 36.4499 450.209 36.8233 450.433C37.1966 450.657 37.4859 450.946 37.6913 451.301C37.9059 451.655 38.0133 452.108 38.0133 452.659C38.0133 453.125 37.8919 453.569 37.6493 453.989C37.4066 454.399 37.0379 454.735 36.5433 454.997C36.0579 455.258 35.4466 455.389 34.7093 455.389ZM42.355 455.221C41.7204 455.221 41.221 455.067 40.857 454.759C40.493 454.451 40.311 453.895 40.311 453.093L40.311 449.271H39.107L39.107 448.277H40.311L40.465 446.611H41.487L41.487 448.277H43.531L43.531 449.271H41.487L41.487 453.093C41.487 453.531 41.5757 453.83 41.753 453.989C41.9304 454.138 42.243 454.213 42.691 454.213H43.419L43.419 455.221H42.355ZM47.3351 455.389C46.7564 455.389 46.2757 455.291 45.8931 455.095C45.5104 454.899 45.2257 454.637 45.0391 454.311C44.8524 453.984 44.7591 453.629 44.7591 453.247C44.7591 452.537 45.0297 451.991 45.5711 451.609C46.1124 451.226 46.8497 451.035 47.7831 451.035H49.6591L49.6591 450.951C49.6591 450.344 49.5004 449.887 49.1831 449.579C48.8657 449.261 48.4411 449.103 47.9091 449.103C47.4517 449.103 47.0551 449.219 46.7191 449.453C46.3924 449.677 46.1871 450.008 46.1031 450.447H44.8991C44.9457 449.943 45.1137 449.518 45.4031 449.173C45.7017 448.827 46.0704 448.566 46.5091 448.389C46.9477 448.202 47.4144 448.109 47.9091 448.109C48.8797 448.109 49.6077 448.37 50.0931 448.893C50.5877 449.406 50.8351 450.092 50.8351 450.951L50.8351 455.221H49.7851L49.7151 453.975C49.5191 454.367 49.2297 454.703 48.8471 454.983C48.4737 455.253 47.9697 455.389 47.3351 455.389ZM47.5171 454.395C47.9651 454.395 48.3477 454.278 48.6651 454.045C48.9917 453.811 49.2391 453.508 49.4071 453.135C49.5751 452.761 49.6591 452.369 49.6591 451.959L49.6591 451.945H47.8811C47.1904 451.945 46.7004 452.066 46.4111 452.309C46.1311 452.542 45.9911 452.836 45.9911 453.191C45.9911 453.555 46.1217 453.849 46.3831 454.073C46.6537 454.287 47.0317 454.395 47.5171 454.395ZM52.5993 455.221L52.5993 448.277H53.6633L53.7473 449.285C53.9713 448.911 54.27 448.622 54.6433 448.417C55.0166 448.211 55.4366 448.109 55.9033 448.109C56.454 448.109 56.9253 448.221 57.3173 448.445C57.7186 448.669 58.0266 449.009 58.2413 449.467C58.484 449.047 58.8153 448.715 59.2353 448.473C59.6646 448.23 60.1266 448.109 60.6213 448.109C61.452 448.109 62.1146 448.361 62.6093 448.865C63.104 449.359 63.3513 450.125 63.3513 451.161L63.3513 455.221H62.1893L62.1893 451.287C62.1893 450.568 62.0446 450.027 61.7553 449.663C61.466 449.299 61.0506 449.117 60.5093 449.117C59.9493 449.117 59.4826 449.336 59.1093 449.775C58.7453 450.204 58.5633 450.82 58.5633 451.623L58.5633 455.221H57.3873L57.3873 451.287C57.3873 450.568 57.2426 450.027 56.9533 449.663C56.664 449.299 56.2486 449.117 55.7073 449.117C55.1566 449.117 54.6946 449.336 54.3213 449.775C53.9573 450.204 53.7753 450.82 53.7753 451.623L53.7753 455.221H52.5993ZM65.1227 458.301L65.1227 448.277H66.1867L66.2987 449.425C66.5227 449.089 66.8401 448.785 67.2507 448.515C67.6707 448.244 68.2027 448.109 68.8467 448.109C69.5374 448.109 70.1394 448.267 70.6527 448.585C71.1661 448.902 71.5627 449.336 71.8427 449.887C72.1321 450.437 72.2767 451.063 72.2767 451.763C72.2767 452.463 72.1321 453.088 71.8427 453.639C71.5627 454.18 71.1614 454.609 70.6387 454.927C70.1254 455.235 69.5234 455.389 68.8327 455.389C68.2634 455.389 67.7547 455.272 67.3067 455.039C66.8681 454.805 66.5321 454.479 66.2987 454.059L66.2987 458.301H65.1227ZM68.7067 454.367C69.1734 454.367 69.5841 454.259 69.9387 454.045C70.2934 453.821 70.5734 453.513 70.7787 453.121C70.9841 452.729 71.0867 452.271 71.0867 451.749C71.0867 451.226 70.9841 450.769 70.7787 450.377C70.5734 449.985 70.2934 449.681 69.9387 449.467C69.5841 449.243 69.1734 449.131 68.7067 449.131C68.2401 449.131 67.8294 449.243 67.4747 449.467C67.1201 449.681 66.8401 449.985 66.6347 450.377C66.4294 450.769 66.3267 451.226 66.3267 451.749C66.3267 452.271 66.4294 452.729 66.6347 453.121C66.8401 453.513 67.1201 453.821 67.4747 454.045C67.8294 454.259 68.2401 454.367 68.7067 454.367ZM76.2238 455.389C75.6451 455.389 75.1644 455.291 74.7818 455.095C74.3991 454.899 74.1144 454.637 73.9278 454.311C73.7411 453.984 73.6478 453.629 73.6478 453.247C73.6478 452.537 73.9184 451.991 74.4598 451.609C75.0011 451.226 75.7384 451.035 76.6718 451.035H78.5478L78.5478 450.951C78.5478 450.344 78.3891 449.887 78.0718 449.579C77.7544 449.261 77.3298 449.103 76.7978 449.103C76.3404 449.103 75.9438 449.219 75.6078 449.453C75.2811 449.677 75.0758 450.008 74.9918 450.447H73.7878C73.8344 449.943 74.0024 449.518 74.2918 449.173C74.5904 448.827 74.9591 448.566 75.3978 448.389C75.8364 448.202 76.3031 448.109 76.7978 448.109C77.7684 448.109 78.4964 448.37 78.9818 448.893C79.4764 449.406 79.7238 450.092 79.7238 450.951L79.7238 455.221H78.6738L78.6038 453.975C78.4078 454.367 78.1184 454.703 77.7358 454.983C77.3624 455.253 76.8584 455.389 76.2238 455.389ZM76.4058 454.395C76.8538 454.395 77.2364 454.278 77.5538 454.045C77.8804 453.811 78.1278 453.508 78.2958 453.135C78.4638 452.761 78.5478 452.369 78.5478 451.959L78.5478 451.945H76.7698C76.0791 451.945 75.5891 452.066 75.2998 452.309C75.0198 452.542 74.8798 452.836 74.8798 453.191C74.8798 453.555 75.0104 453.849 75.2718 454.073C75.5424 454.287 75.9204 454.395 76.4058 454.395ZM66.6315 470.389C66.0061 470.389 65.4415 470.277 64.9375 470.053C64.4335 469.819 64.0275 469.474 63.7195 469.017C63.4208 468.559 63.2621 467.99 63.2435 467.309H64.4335C64.4428 467.869 64.6388 468.354 65.0215 468.765C65.4041 469.166 65.9408 469.367 66.6315 469.367C67.3221 469.367 67.8401 469.175 68.1855 468.793C68.5401 468.41 68.7175 467.948 68.7175 467.407C68.7175 466.949 68.6055 466.576 68.3815 466.287C68.1668 465.997 67.8728 465.783 67.4995 465.643C67.1355 465.503 66.7341 465.433 66.2955 465.433H65.5675L65.5675 464.439H66.2955C66.9301 464.439 67.4248 464.294 67.7795 464.005C68.1435 463.715 68.3255 463.309 68.3255 462.787C68.3255 462.348 68.1808 461.989 67.8915 461.709C67.6115 461.419 67.1915 461.275 66.6315 461.275C66.0901 461.275 65.6561 461.438 65.3295 461.765C65.0028 462.082 64.8208 462.483 64.7835 462.969H63.5935C63.6215 462.437 63.7615 461.965 64.0135 461.555C64.2748 461.144 64.6295 460.827 65.0775 460.603C65.5255 460.369 66.0435 460.253 66.6315 460.253C67.2661 460.253 67.7935 460.365 68.2135 460.589C68.6428 460.813 68.9648 461.111 69.1795 461.485C69.4035 461.858 69.5155 462.269 69.5155 462.717C69.5155 463.211 69.3801 463.664 69.1095 464.075C68.8388 464.476 68.4328 464.747 67.8915 464.887C68.4701 465.008 68.9508 465.283 69.3335 465.713C69.7161 466.142 69.9075 466.707 69.9075 467.407C69.9075 467.948 69.7815 468.447 69.5295 468.905C69.2868 469.353 68.9228 469.712 68.4375 469.983C67.9521 470.253 67.3501 470.389 66.6315 470.389ZM71.8099 470.221L71.8099 460.421H74.8199C76.5466 460.421 77.8159 460.859 78.6279 461.737C79.4493 462.614 79.8599 463.818 79.8599 465.349C79.8599 466.851 79.4493 468.041 78.6279 468.919C77.8159 469.787 76.5466 470.221 74.8199 470.221H71.8099ZM72.9859 469.241H74.7919C75.7439 469.241 76.4999 469.087 77.0599 468.779C77.6293 468.461 78.0353 468.013 78.2779 467.435C78.5206 466.847 78.6419 466.151 78.6419 465.349C78.6419 464.527 78.5206 463.823 78.2779 463.235C78.0353 462.647 77.6293 462.194 77.0599 461.877C76.4999 461.559 75.7439 461.401 74.7919 461.401H72.9859L72.9859 469.241Z" fill="black"/>
<path d="M92.7296 69.1563C91.8616 69.1563 91.1102 68.9463 90.4756 68.5263C89.8502 68.0969 89.3696 67.5043 89.0336 66.7483C88.6976 65.9829 88.5296 65.0963 88.5296 64.0883C88.5296 63.0803 88.6976 62.1983 89.0336 61.4423C89.3696 60.6769 89.8502 60.0843 90.4756 59.6643C91.1102 59.2349 91.8616 59.0203 92.7296 59.0203C93.5976 59.0203 94.3442 59.2349 94.9696 59.6643C95.5949 60.0843 96.0756 60.6769 96.4116 61.4423C96.7476 62.1983 96.9156 63.0803 96.9156 64.0883C96.9156 65.0963 96.7476 65.9829 96.4116 66.7483C96.0756 67.5043 95.5949 68.0969 94.9696 68.5263C94.3442 68.9463 93.5976 69.1563 92.7296 69.1563ZM92.7296 68.1203C93.2989 68.1203 93.8076 67.9616 94.2556 67.6443C94.7129 67.3176 95.0676 66.8556 95.3196 66.2583C95.5809 65.6516 95.7116 64.9283 95.7116 64.0883C95.7116 63.2483 95.5809 62.5296 95.3196 61.9323C95.0676 61.3349 94.7129 60.8776 94.2556 60.5603C93.8076 60.2336 93.2989 60.0703 92.7296 60.0703C92.1509 60.0703 91.6376 60.2336 91.1896 60.5603C90.7416 60.8776 90.3869 61.3349 90.1256 61.9323C89.8642 62.5296 89.7336 63.2483 89.7336 64.0883C89.7336 64.9283 89.8642 65.6516 90.1256 66.2583C90.3869 66.8556 90.7416 67.3176 91.1896 67.6443C91.6376 67.9616 92.1509 68.1203 92.7296 68.1203Z" fill="black"/>
<path d="M53.2458 63.7383C52.8258 63.7383 52.4431 63.6449 52.0978 63.4583C51.7618 63.2623 51.4958 62.9916 51.2998 62.6463C51.1038 62.2916 51.0058 61.8716 51.0058 61.3863C51.0058 60.9009 51.1038 60.4856 51.2998 60.1403C51.5051 59.7856 51.7758 59.5149 52.1118 59.3283C52.4571 59.1323 52.8398 59.0343 53.2598 59.0343C53.6798 59.0343 54.0578 59.1323 54.3938 59.3283C54.7298 59.5149 54.9958 59.7856 55.1918 60.1403C55.3878 60.4856 55.4858 60.9009 55.4858 61.3863C55.4858 61.8716 55.3831 62.2916 55.1778 62.6463C54.9818 62.9916 54.7158 63.2623 54.3798 63.4583C54.0438 63.6449 53.6658 63.7383 53.2458 63.7383ZM52.3778 68.9883L58.0758 59.1883H59.2518L53.5538 68.9883H52.3778ZM53.2458 62.8283C53.5725 62.8283 53.8571 62.7069 54.0998 62.4643C54.3518 62.2216 54.4778 61.8623 54.4778 61.3863C54.4778 60.9009 54.3565 60.5369 54.1138 60.2943C53.8711 60.0423 53.5865 59.9163 53.2598 59.9163C52.9331 59.9163 52.6391 60.0423 52.3778 60.2943C52.1258 60.5369 51.9998 60.9009 51.9998 61.3863C51.9998 61.8623 52.1258 62.2216 52.3778 62.4643C52.6298 62.7069 52.9191 62.8283 53.2458 62.8283ZM58.4818 69.1563C58.0618 69.1563 57.6791 69.0629 57.3338 68.8763C56.9978 68.6803 56.7318 68.4096 56.5358 68.0643C56.3398 67.7096 56.2418 67.2896 56.2418 66.8043C56.2418 66.3189 56.3398 65.9036 56.5358 65.5583C56.7411 65.2036 57.0118 64.9329 57.3478 64.7463C57.6838 64.5503 58.0618 64.4523 58.4818 64.4523C58.9018 64.4523 59.2798 64.5503 59.6158 64.7463C59.9518 64.9329 60.2178 65.2036 60.4138 65.5583C60.6098 65.9036 60.7078 66.3189 60.7078 66.8043C60.7078 67.2896 60.6098 67.7096 60.4138 68.0643C60.2178 68.4096 59.9518 68.6803 59.6158 68.8763C59.2798 69.0629 58.9018 69.1563 58.4818 69.1563ZM58.4678 68.2463C58.8038 68.2463 59.0931 68.1249 59.3358 67.8823C59.5878 67.6396 59.7138 67.2803 59.7138 66.8043C59.7138 66.3189 59.5925 65.9549 59.3498 65.7123C59.1071 65.4696 58.8178 65.3483 58.4818 65.3483C58.1551 65.3483 57.8658 65.4696 57.6138 65.7123C57.3618 65.9549 57.2358 66.3189 57.2358 66.8043C57.2358 67.2803 57.3571 67.6396 57.5998 67.8823C57.8518 68.1249 58.1411 68.2463 58.4678 68.2463Z" fill="black"/>
<path d="M129.304 68.9883L129.304 68.1623C129.967 67.6396 130.592 67.1123 131.18 66.5803C131.777 66.0389 132.305 65.5069 132.762 64.9843C133.229 64.4616 133.593 63.9483 133.854 63.4443C134.125 62.9403 134.26 62.4549 134.26 61.9883C134.26 61.6429 134.199 61.3209 134.078 61.0223C133.966 60.7236 133.779 60.4856 133.518 60.3083C133.257 60.1216 132.902 60.0283 132.454 60.0283C132.025 60.0283 131.665 60.1263 131.376 60.3223C131.087 60.5089 130.867 60.7609 130.718 61.0783C130.578 61.3956 130.508 61.7363 130.508 62.1003H129.374C129.374 61.4563 129.509 60.9056 129.78 60.4483C130.051 59.9816 130.419 59.6269 130.886 59.3843C131.353 59.1416 131.88 59.0203 132.468 59.0203C133.336 59.0203 134.045 59.2676 134.596 59.7623C135.156 60.2476 135.436 60.9756 135.436 61.9463C135.436 62.5249 135.291 63.0989 135.002 63.6683C134.713 64.2283 134.344 64.7743 133.896 65.3063C133.448 65.8289 132.967 66.3189 132.454 66.7763C131.95 67.2336 131.479 67.6443 131.04 68.0083H135.772L135.772 68.9883H129.304Z" fill="black"/>
<path d="M172.866 68.9883L172.866 66.8883H167.896L167.896 65.9783L172.656 59.1883H174.028L174.028 65.8523H175.484L175.484 66.8883H174.028L174.028 68.9883H172.866ZM169.198 65.8523H172.922L172.922 60.4903L169.198 65.8523Z" fill="black"/>
<path d="M210.988 69.1563C210.278 69.1563 209.681 69.0256 209.196 68.7643C208.71 68.4936 208.318 68.1343 208.02 67.6863C207.73 67.2383 207.516 66.7389 207.376 66.1883C207.245 65.6283 207.18 65.0589 207.18 64.4803C207.18 63.3976 207.329 62.4503 207.628 61.6383C207.926 60.8169 208.356 60.1776 208.916 59.7203C209.485 59.2536 210.171 59.0203 210.974 59.0203C211.59 59.0203 212.117 59.1416 212.556 59.3843C212.994 59.6269 213.34 59.9536 213.592 60.3643C213.853 60.7656 214.016 61.2136 214.082 61.7083H212.99C212.887 61.1763 212.658 60.7656 212.304 60.4763C211.949 60.1869 211.501 60.0423 210.96 60.0423C210.222 60.0423 209.602 60.3923 209.098 61.0923C208.603 61.7829 208.337 62.8656 208.3 64.3403C208.524 63.9016 208.878 63.5236 209.364 63.2063C209.858 62.8796 210.451 62.7163 211.142 62.7163C211.702 62.7163 212.224 62.8469 212.71 63.1083C213.204 63.3696 213.606 63.7383 213.914 64.2143C214.222 64.6809 214.376 65.2316 214.376 65.8663C214.376 66.4169 214.24 66.9443 213.97 67.4483C213.699 67.9523 213.307 68.3629 212.794 68.6803C212.29 68.9976 211.688 69.1563 210.988 69.1563ZM210.904 68.1203C211.342 68.1203 211.734 68.0269 212.08 67.8403C212.425 67.6536 212.696 67.3969 212.892 67.0703C213.088 66.7343 213.186 66.3516 213.186 65.9223C213.186 65.2596 212.966 64.7323 212.528 64.3403C212.098 63.9389 211.557 63.7383 210.904 63.7383C210.465 63.7383 210.073 63.8409 209.728 64.0463C209.382 64.2423 209.107 64.5083 208.902 64.8443C208.706 65.1803 208.608 65.5443 208.608 65.9363C208.608 66.3563 208.706 66.7343 208.902 67.0703C209.107 67.3969 209.382 67.6536 209.728 67.8403C210.073 68.0269 210.465 68.1203 210.904 68.1203Z" fill="black"/>
<path d="M250.033 69.1563C249.389 69.1563 248.811 69.0396 248.297 68.8063C247.784 68.5636 247.378 68.2323 247.079 67.8123C246.79 67.3829 246.645 66.8883 246.645 66.3283C246.645 65.7309 246.818 65.1943 247.163 64.7183C247.518 64.2423 247.985 63.9249 248.563 63.7663C248.031 63.5889 247.621 63.3043 247.331 62.9123C247.042 62.5203 246.897 62.0909 246.897 61.6243C246.897 61.1483 247.023 60.7143 247.275 60.3223C247.527 59.9209 247.887 59.6036 248.353 59.3703C248.82 59.1369 249.38 59.0203 250.033 59.0203C250.687 59.0203 251.247 59.1369 251.713 59.3703C252.18 59.6036 252.539 59.9209 252.791 60.3223C253.043 60.7143 253.169 61.1483 253.169 61.6243C253.169 62.0816 253.025 62.5109 252.735 62.9123C252.446 63.3043 252.035 63.5889 251.503 63.7663C252.082 63.9249 252.544 64.2423 252.889 64.7183C253.244 65.1943 253.421 65.7309 253.421 66.3283C253.421 66.8883 253.272 67.3829 252.973 67.8123C252.684 68.2323 252.283 68.5636 251.769 68.8063C251.256 69.0396 250.677 69.1563 250.033 69.1563ZM250.033 63.3463C250.631 63.3463 251.102 63.1969 251.447 62.8983C251.802 62.5903 251.979 62.1889 251.979 61.6943C251.979 61.1436 251.807 60.7283 251.461 60.4483C251.116 60.1683 250.64 60.0283 250.033 60.0283C249.427 60.0283 248.951 60.1683 248.605 60.4483C248.269 60.7283 248.101 61.1436 248.101 61.6943C248.101 62.1889 248.274 62.5903 248.619 62.8983C248.965 63.1969 249.436 63.3463 250.033 63.3463ZM250.033 68.1203C250.771 68.1203 251.321 67.9523 251.685 67.6163C252.059 67.2709 252.245 66.8183 252.245 66.2583C252.245 65.6236 252.045 65.1429 251.643 64.8163C251.242 64.4896 250.705 64.3263 250.033 64.3263C249.361 64.3263 248.825 64.4896 248.423 64.8163C248.022 65.1429 247.821 65.6236 247.821 66.2583C247.821 66.8183 248.003 67.2709 248.367 67.6163C248.741 67.9523 249.296 68.1203 250.033 68.1203Z" fill="black"/>
<path d="M283.774 68.9883L283.774 60.5043L282.192 60.8543L282.192 60.0423L284.166 59.1883H284.964L284.964 68.9883H283.774ZM290.855 69.1563C289.987 69.1563 289.236 68.9463 288.601 68.5263C287.976 68.0969 287.495 67.5043 287.159 66.7483C286.823 65.9829 286.655 65.0963 286.655 64.0883C286.655 63.0803 286.823 62.1983 287.159 61.4423C287.495 60.6769 287.976 60.0843 288.601 59.6643C289.236 59.2349 289.987 59.0203 290.855 59.0203C291.723 59.0203 292.47 59.2349 293.095 59.6643C293.72 60.0843 294.201 60.6769 294.537 61.4423C294.873 62.1983 295.041 63.0803 295.041 64.0883C295.041 65.0963 294.873 65.9829 294.537 66.7483C294.201 67.5043 293.72 68.0969 293.095 68.5263C292.47 68.9463 291.723 69.1563 290.855 69.1563ZM290.855 68.1203C291.424 68.1203 291.933 67.9616 292.381 67.6443C292.838 67.3176 293.193 66.8556 293.445 66.2583C293.706 65.6516 293.837 64.9283 293.837 64.0883C293.837 63.2483 293.706 62.5296 293.445 61.9323C293.193 61.3349 292.838 60.8776 292.381 60.5603C291.933 60.2336 291.424 60.0703 290.855 60.0703C290.276 60.0703 289.763 60.2336 289.315 60.5603C288.867 60.8776 288.512 61.3349 288.251 61.9323C287.99 62.5296 287.859 63.2483 287.859 64.0883C287.859 64.9283 287.99 65.6516 288.251 66.2583C288.512 66.8556 288.867 67.3176 289.315 67.6443C289.763 67.9616 290.276 68.1203 290.855 68.1203Z" fill="black"/>
<path d="M131.928 86.2554L131.928 78.0435" stroke="black" stroke-width="0.5"/>
<path d="M171.13 86.2554L171.13 78.0435" stroke="black" stroke-width="0.5"/>
<path d="M210.333 86.2554L210.333 78.0435" stroke="black" stroke-width="0.5"/>
<path d="M249.536 86.2554L249.536 78.0435" stroke="black" stroke-width="0.5"/>
<path d="M288.738 86.2554L288.738 78.0435" stroke="black" stroke-width="0.5"/>
<path d="M88.3843 168.914L92.7251 168.914" stroke="black" stroke-width="0.5"/>
<path d="M88.3843 251.573L92.7251 251.573" stroke="black" stroke-width="0.5"/>
<path d="M88.3843 334.232L92.7251 334.232" stroke="black" stroke-width="0.5"/>
<path d="M88.3843 416.892L92.7251 416.892" stroke="black" stroke-width="0.5"/>
<path d="M88.3843 499.551L92.7251 499.551" stroke="black" stroke-width="0.5"/>
<path d="M214.366 128.116L274.065 128.116" stroke="black" stroke-width="0.5"/>
<path d="M172.156 210.244L235.605 210.244" stroke="black" stroke-width="0.5"/>
<path d="M131.623 292.902L161.008 292.902" stroke="black" stroke-width="0.5"/>
<path d="M190.923 374.584L232.86 374.584" stroke="black" stroke-width="0.5"/>
<path d="M170.563 459.631L231.4 459.631" stroke="black" stroke-width="0.5"/>
<circle cx="214.366" cy="128.115" r="5" fill="white" stroke="#F24E1E" stroke-width="2"/>
<circle cx="251.307" cy="128.128" r="5" fill="white" stroke="black" stroke-width="2"/>
<path d="M251.307 134.128V122.105" stroke="#F24E1E" stroke-width="2"/>
<rect x="262.044" y="128.115" width="8" height="8" transform="rotate(-45 262.044 128.115)" fill="white" stroke="#F24E1E" stroke-width="2"/>
<circle cx="172.156" cy="210.244" r="5" fill="white" stroke="#F24E1E" stroke-width="2"/>
<rect x="228.534" y="210.244" width="9" height="9" transform="rotate(-45 228.534 210.244)" fill="#F24E1E"/>
<rect x="222.513" y="210.244" width="8" height="8" transform="rotate(-45 222.513 210.244)" fill="white" stroke="#F24E1E" stroke-width="2"/>
<circle cx="213.294" cy="210.244" r="5" fill="white" stroke="black" stroke-width="2"/>
<path d="M213.294 216.244V204.222" stroke="#F24E1E" stroke-width="2"/>
<circle cx="131.623" cy="292.902" r="5" fill="white" stroke="#F24E1E" stroke-width="2"/>
<rect x="145.12" y="292.902" width="9" height="9" transform="rotate(-45 145.12 292.902)" fill="#F24E1E"/>
<circle cx="155.827" cy="292.902" r="5" fill="white" stroke="black" stroke-width="2"/>
<path d="M155.827 298.902V286.88" stroke="#F24E1E" stroke-width="2"/>
<rect x="154.772" y="292.902" width="8" height="8" transform="rotate(-45 154.772 292.902)" fill="white" stroke="#F24E1E" stroke-width="2"/>
<circle cx="190.923" cy="374.595" r="5" fill="white" stroke="black" stroke-width="2"/>
<path d="M190.923 380.595V368.572" stroke="#F24E1E" stroke-width="2"/>
<circle cx="213.294" cy="374.595" r="5" fill="white" stroke="#F24E1E" stroke-width="2"/>
<rect x="223.734" y="374.938" width="8" height="8" transform="rotate(-45 223.734 374.938)" fill="white" stroke="#F24E1E" stroke-width="2"/>
<circle cx="170.552" cy="459.642" r="5" fill="white" stroke="black" stroke-width="2"/>
<path d="M170.552 465.642V453.619" stroke="#F24E1E" stroke-width="2"/>
<rect x="182.199" y="459.631" width="8" height="8" transform="rotate(-45 182.199 459.631)" fill="white" stroke="#F24E1E" stroke-width="2"/>
<circle cx="231.294" cy="459.642" r="5" fill="white" stroke="#F24E1E" stroke-width="2"/>
<path d="M92.7251 499.551L92.7251 86.2554L289.34 86.2554" stroke="black" stroke-width="0.5"/>
</svg>
