<svg width="335" height="592" viewBox="0 0 335 592" fill="none" xmlns="http://www.w3.org/2000/svg">
<rect x="0.5" y="0.5" width="334" height="549" fill="white" stroke="black"/>
<rect y="550" width="335" height="42" fill="black"/>
<path d="M8.88657 576V566.2H15.2146V567.642H10.6786V570.386H14.3466V571.8H10.6786V576H8.88657ZM19.5184 576.168C18.8464 576.168 18.2397 576.014 17.6984 575.706C17.1664 575.398 16.7417 574.973 16.4244 574.432C16.1164 573.881 15.9624 573.247 15.9624 572.528C15.9624 571.809 16.121 571.179 16.4384 570.638C16.7557 570.087 17.1804 569.658 17.7124 569.35C18.2537 569.042 18.8604 568.888 19.5324 568.888C20.195 568.888 20.7924 569.042 21.3244 569.35C21.8657 569.658 22.2904 570.087 22.5984 570.638C22.9157 571.179 23.0744 571.809 23.0744 572.528C23.0744 573.247 22.9157 573.881 22.5984 574.432C22.2904 574.973 21.8657 575.398 21.3244 575.706C20.783 576.014 20.181 576.168 19.5184 576.168ZM19.5184 574.614C19.985 574.614 20.391 574.441 20.7364 574.096C21.0817 573.741 21.2544 573.219 21.2544 572.528C21.2544 571.837 21.0817 571.319 20.7364 570.974C20.391 570.619 19.9897 570.442 19.5324 570.442C19.0564 570.442 18.6457 570.619 18.3004 570.974C17.9644 571.319 17.7964 571.837 17.7964 572.528C17.7964 573.219 17.9644 573.741 18.3004 574.096C18.6457 574.441 19.0517 574.614 19.5184 574.614ZM24.6766 576V569.056H26.2586L26.3986 570.232C26.6133 569.821 26.9213 569.495 27.3226 569.252C27.7333 569.009 28.2139 568.888 28.7646 568.888C29.6233 568.888 30.2906 569.159 30.7666 569.7C31.2426 570.241 31.4806 571.035 31.4806 572.08V576H29.6886V572.248C29.6886 571.651 29.5673 571.193 29.3246 570.876C29.0819 570.559 28.7039 570.4 28.1906 570.4C27.6866 570.4 27.2713 570.577 26.9446 570.932C26.6273 571.287 26.4686 571.781 26.4686 572.416V576H24.6766ZM36.2882 576C35.5602 576 34.9768 575.823 34.5382 575.468C34.0995 575.113 33.8802 574.483 33.8802 573.578V570.554H32.6902V569.056H33.8802L34.0902 567.194H35.6722V569.056H37.5482V570.554H35.6722V573.592C35.6722 573.928 35.7422 574.161 35.8822 574.292C36.0315 574.413 36.2835 574.474 36.6382 574.474H37.5062V576H36.2882ZM42.283 576.168C41.583 576.168 40.9624 576.019 40.421 575.72C39.8797 575.421 39.455 575.001 39.147 574.46C38.839 573.919 38.685 573.293 38.685 572.584C38.685 571.865 38.8344 571.226 39.133 570.666C39.441 570.106 39.861 569.672 40.393 569.364C40.9344 569.047 41.569 568.888 42.297 568.888C42.9784 568.888 43.5804 569.037 44.103 569.336C44.6257 569.635 45.0317 570.045 45.321 570.568C45.6197 571.081 45.769 571.655 45.769 572.29C45.769 572.393 45.7644 572.5 45.755 572.612C45.755 572.724 45.7504 572.841 45.741 572.962H40.463C40.5004 573.503 40.687 573.928 41.023 574.236C41.3684 574.544 41.7837 574.698 42.269 574.698C42.633 574.698 42.9364 574.619 43.179 574.46C43.431 574.292 43.6177 574.077 43.739 573.816H45.559C45.4284 574.255 45.209 574.656 44.901 575.02C44.6024 575.375 44.229 575.655 43.781 575.86C43.3424 576.065 42.843 576.168 42.283 576.168ZM42.297 570.344C41.8584 570.344 41.471 570.47 41.135 570.722C40.799 570.965 40.5844 571.338 40.491 571.842H43.949C43.921 571.385 43.753 571.021 43.445 570.75C43.137 570.479 42.7544 570.344 42.297 570.344ZM51.1073 576V566.2H57.1693V567.166H52.2833V570.582H56.7493V571.534H52.2833V575.034H57.1693V576H51.1073ZM61.4736 576.168C60.6523 576.168 59.999 575.921 59.5136 575.426C59.0283 574.922 58.7856 574.152 58.7856 573.116V569.056H59.9616V572.99C59.9616 574.437 60.5543 575.16 61.7396 575.16C62.3463 575.16 62.8456 574.945 63.2376 574.516C63.639 574.077 63.8396 573.457 63.8396 572.654V569.056H65.0156V576H63.9516L63.8676 574.754C63.653 575.193 63.331 575.538 62.9016 575.79C62.4816 576.042 62.0056 576.168 61.4736 576.168ZM66.9514 576V569.056H68.0154L68.1134 570.386C68.328 569.929 68.6547 569.565 69.0934 569.294C69.532 569.023 70.0734 568.888 70.7174 568.888V570.12H70.3954C69.9847 570.12 69.6067 570.195 69.2614 570.344C68.916 570.484 68.6407 570.727 68.4354 571.072C68.23 571.417 68.1274 571.893 68.1274 572.5V576H66.9514ZM74.9415 576.168C74.2882 576.168 73.7002 576.019 73.1775 575.72C72.6549 575.421 72.2395 575.001 71.9315 574.46C71.6329 573.909 71.4835 573.265 71.4835 572.528C71.4835 571.791 71.6375 571.151 71.9455 570.61C72.2535 570.059 72.6689 569.635 73.1915 569.336C73.7235 569.037 74.3162 568.888 74.9695 568.888C75.6229 568.888 76.2109 569.037 76.7335 569.336C77.2562 569.635 77.6669 570.059 77.9655 570.61C78.2735 571.151 78.4275 571.791 78.4275 572.528C78.4275 573.265 78.2735 573.909 77.9655 574.46C77.6575 575.001 77.2375 575.421 76.7055 575.72C76.1829 576.019 75.5949 576.168 74.9415 576.168ZM74.9415 575.16C75.3429 575.16 75.7162 575.062 76.0615 574.866C76.4069 574.67 76.6869 574.376 76.9015 573.984C77.1162 573.592 77.2235 573.107 77.2235 572.528C77.2235 571.949 77.1162 571.464 76.9015 571.072C76.6962 570.68 76.4209 570.386 76.0755 570.19C75.7302 569.994 75.3615 569.896 74.9695 569.896C74.5682 569.896 74.1949 569.994 73.8495 570.19C73.5042 570.386 73.2242 570.68 73.0095 571.072C72.7949 571.464 72.6875 571.949 72.6875 572.528C72.6875 573.107 72.7949 573.592 73.0095 573.984C73.2242 574.376 73.4995 574.67 73.8355 574.866C74.1809 575.062 74.5495 575.16 74.9415 575.16ZM82.7227 576.168C81.892 576.168 81.2013 575.958 80.6507 575.538C80.1 575.118 79.778 574.549 79.6847 573.83H80.8887C80.9633 574.194 81.1547 574.511 81.4627 574.782C81.78 575.043 82.2047 575.174 82.7367 575.174C83.2313 575.174 83.5953 575.071 83.8287 574.866C84.062 574.651 84.1787 574.399 84.1787 574.11C84.1787 573.69 84.0247 573.41 83.7167 573.27C83.418 573.13 82.9933 573.004 82.4427 572.892C82.0693 572.817 81.696 572.71 81.3227 572.57C80.9493 572.43 80.6367 572.234 80.3847 571.982C80.1327 571.721 80.0067 571.38 80.0067 570.96C80.0067 570.353 80.2307 569.859 80.6787 569.476C81.136 569.084 81.752 568.888 82.5267 568.888C83.264 568.888 83.866 569.075 84.3327 569.448C84.8087 569.812 85.084 570.335 85.1587 571.016H83.9967C83.95 570.661 83.796 570.386 83.5347 570.19C83.2827 569.985 82.942 569.882 82.5127 569.882C82.0927 569.882 81.766 569.971 81.5327 570.148C81.3087 570.325 81.1967 570.559 81.1967 570.848C81.1967 571.128 81.3413 571.347 81.6307 571.506C81.9293 571.665 82.3307 571.8 82.8347 571.912C83.264 572.005 83.67 572.122 84.0527 572.262C84.4447 572.393 84.762 572.593 85.0047 572.864C85.2567 573.125 85.3827 573.508 85.3827 574.012C85.392 574.637 85.154 575.155 84.6687 575.566C84.1927 575.967 83.544 576.168 82.7227 576.168ZM89.4922 576C88.8576 576 88.3582 575.846 87.9942 575.538C87.6302 575.23 87.4482 574.675 87.4482 573.872V570.05H86.2442V569.056H87.4482L87.6022 567.39H88.6242V569.056H90.6682V570.05H88.6242V573.872C88.6242 574.311 88.7129 574.609 88.8902 574.768C89.0676 574.917 89.3802 574.992 89.8282 574.992H90.5562V576H89.4922ZM94.4723 576.168C93.8936 576.168 93.413 576.07 93.0303 575.874C92.6476 575.678 92.363 575.417 92.1763 575.09C91.9896 574.763 91.8963 574.409 91.8963 574.026C91.8963 573.317 92.167 572.771 92.7083 572.388C93.2496 572.005 93.987 571.814 94.9203 571.814H96.7963V571.73C96.7963 571.123 96.6376 570.666 96.3203 570.358C96.003 570.041 95.5783 569.882 95.0463 569.882C94.589 569.882 94.1923 569.999 93.8563 570.232C93.5296 570.456 93.3243 570.787 93.2403 571.226H92.0363C92.083 570.722 92.251 570.297 92.5403 569.952C92.839 569.607 93.2076 569.345 93.6463 569.168C94.085 568.981 94.5516 568.888 95.0463 568.888C96.017 568.888 96.745 569.149 97.2303 569.672C97.725 570.185 97.9723 570.871 97.9723 571.73V576H96.9223L96.8523 574.754C96.6563 575.146 96.367 575.482 95.9843 575.762C95.611 576.033 95.107 576.168 94.4723 576.168ZM94.6543 575.174C95.1023 575.174 95.485 575.057 95.8023 574.824C96.129 574.591 96.3763 574.287 96.5443 573.914C96.7123 573.541 96.7963 573.149 96.7963 572.738V572.724H95.0183C94.3276 572.724 93.8376 572.845 93.5483 573.088C93.2683 573.321 93.1283 573.615 93.1283 573.97C93.1283 574.334 93.259 574.628 93.5203 574.852C93.791 575.067 94.169 575.174 94.6543 575.174ZM102.289 576C101.654 576 101.155 575.846 100.791 575.538C100.427 575.23 100.245 574.675 100.245 573.872V570.05H99.0411V569.056H100.245L100.399 567.39H101.421V569.056H103.465V570.05H101.421V573.872C101.421 574.311 101.51 574.609 101.687 574.768C101.864 574.917 102.177 574.992 102.625 574.992H103.353V576H102.289Z" fill="white"/>
<path d="M81.4756 24V499.438" stroke="black" stroke-opacity="0.5" stroke-width="0.5"/>
<path d="M116.787 24V499.438" stroke="black" stroke-opacity="0.5" stroke-width="0.5"/>
<path d="M152.099 24V499.438" stroke="black" stroke-opacity="0.5" stroke-width="0.5"/>
<path d="M187.41 24V499.438" stroke="black" stroke-opacity="0.5" stroke-width="0.5"/>
<path d="M222.722 24V499.438" stroke="black" stroke-opacity="0.5" stroke-width="0.5"/>
<path d="M258.033 24V499.438" stroke="black" stroke-opacity="0.5" stroke-width="0.5"/>
<path d="M293.344 24V499.438" stroke="black" stroke-opacity="0.5" stroke-width="0.5"/>
<path d="M46.1641 24V499.438" stroke="black"/>
<path d="M45.7227 395.679L81.3323 328.598L116.299 289.596L152.611 242.525L187.578 207.559L223.218 176.626L257.512 170.574L275.668 162.505L293.673 165.934L314.72 163.14" stroke="#F24E1E" stroke-width="2" stroke-linecap="round" stroke-linejoin="round"/>
<path d="M46.4199 406.041L311 406.041" stroke="black" stroke-opacity="0.5" stroke-width="0.5"/>
<path d="M46.4199 312.644L311 312.644" stroke="black" stroke-opacity="0.5" stroke-width="0.5"/>
<path d="M46.4199 219.246L311 219.246" stroke="black" stroke-opacity="0.5" stroke-width="0.5"/>
<path d="M46.4199 125.849L311 125.849" stroke="black" stroke-opacity="0.5" stroke-width="0.5"/>
<path d="M46.1641 499.438L311 499.438" stroke="black"/>
<path d="M33.3063 522V521.351C33.8269 520.94 34.3183 520.526 34.7803 520.108C35.2496 519.683 35.6639 519.265 36.0233 518.854C36.3899 518.443 36.6759 518.04 36.8813 517.644C37.0939 517.248 37.2003 516.867 37.2003 516.5C37.2003 516.229 37.1526 515.976 37.0573 515.741C36.9693 515.506 36.8226 515.319 36.6173 515.18C36.4119 515.033 36.1333 514.96 35.7813 514.96C35.4439 514.96 35.1616 515.037 34.9343 515.191C34.7069 515.338 34.5346 515.536 34.4173 515.785C34.3073 516.034 34.2523 516.302 34.2523 516.588H33.3613C33.3613 516.082 33.4676 515.649 33.6803 515.29C33.8929 514.923 34.1826 514.645 34.5493 514.454C34.9159 514.263 35.3303 514.168 35.7923 514.168C36.4743 514.168 37.0316 514.362 37.4643 514.751C37.9043 515.132 38.1243 515.704 38.1243 516.467C38.1243 516.922 38.0106 517.373 37.7833 517.82C37.5559 518.26 37.2663 518.689 36.9143 519.107C36.5623 519.518 36.1846 519.903 35.7813 520.262C35.3853 520.621 35.0149 520.944 34.6703 521.23H38.3883V522H33.3063ZM42.6178 522.132C41.9358 522.132 41.3454 521.967 40.8468 521.637C40.3554 521.3 39.9778 520.834 39.7138 520.24C39.4498 519.639 39.3178 518.942 39.3178 518.15C39.3178 517.358 39.4498 516.665 39.7138 516.071C39.9778 515.47 40.3554 515.004 40.8468 514.674C41.3454 514.337 41.9358 514.168 42.6178 514.168C43.2998 514.168 43.8864 514.337 44.3778 514.674C44.8691 515.004 45.2468 515.47 45.5108 516.071C45.7748 516.665 45.9068 517.358 45.9068 518.15C45.9068 518.942 45.7748 519.639 45.5108 520.24C45.2468 520.834 44.8691 521.3 44.3778 521.637C43.8864 521.967 43.2998 522.132 42.6178 522.132ZM42.6178 521.318C43.0651 521.318 43.4648 521.193 43.8168 520.944C44.1761 520.687 44.4548 520.324 44.6528 519.855C44.8581 519.378 44.9608 518.81 44.9608 518.15C44.9608 517.49 44.8581 516.925 44.6528 516.456C44.4548 515.987 44.1761 515.627 43.8168 515.378C43.4648 515.121 43.0651 514.993 42.6178 514.993C42.1631 514.993 41.7598 515.121 41.4078 515.378C41.0558 515.627 40.7771 515.987 40.5718 516.456C40.3664 516.925 40.2638 517.49 40.2638 518.15C40.2638 518.81 40.3664 519.378 40.5718 519.855C40.7771 520.324 41.0558 520.687 41.4078 520.944C41.7598 521.193 42.1631 521.318 42.6178 521.318ZM50.2447 522.132C49.5627 522.132 48.9724 521.967 48.4737 521.637C47.9824 521.3 47.6047 520.834 47.3407 520.24C47.0767 519.639 46.9447 518.942 46.9447 518.15C46.9447 517.358 47.0767 516.665 47.3407 516.071C47.6047 515.47 47.9824 515.004 48.4737 514.674C48.9724 514.337 49.5627 514.168 50.2447 514.168C50.9267 514.168 51.5134 514.337 52.0047 514.674C52.4961 515.004 52.8737 515.47 53.1377 516.071C53.4017 516.665 53.5337 517.358 53.5337 518.15C53.5337 518.942 53.4017 519.639 53.1377 520.24C52.8737 520.834 52.4961 521.3 52.0047 521.637C51.5134 521.967 50.9267 522.132 50.2447 522.132ZM50.2447 521.318C50.6921 521.318 51.0917 521.193 51.4437 520.944C51.8031 520.687 52.0817 520.324 52.2797 519.855C52.4851 519.378 52.5877 518.81 52.5877 518.15C52.5877 517.49 52.4851 516.925 52.2797 516.456C52.0817 515.987 51.8031 515.627 51.4437 515.378C51.0917 515.121 50.6921 514.993 50.2447 514.993C49.7901 514.993 49.3867 515.121 49.0347 515.378C48.6827 515.627 48.4041 515.987 48.1987 516.456C47.9934 516.925 47.8907 517.49 47.8907 518.15C47.8907 518.81 47.9934 519.378 48.1987 519.855C48.4041 520.324 48.6827 520.687 49.0347 520.944C49.3867 521.193 49.7901 521.318 50.2447 521.318ZM58.3557 522V520.35H54.4507V519.635L58.1907 514.3H59.2687V519.536H60.4127V520.35H59.2687V522H58.3557ZM55.4737 519.536H58.3997V515.323L55.4737 519.536Z" fill="black"/>
<path d="M35.3541 498.57C34.6721 498.57 34.0818 498.405 33.5831 498.075C33.0918 497.737 32.7141 497.272 32.4501 496.678C32.1861 496.076 32.0541 495.38 32.0541 494.588C32.0541 493.796 32.1861 493.103 32.4501 492.509C32.7141 491.907 33.0918 491.442 33.5831 491.112C34.0818 490.774 34.6721 490.606 35.3541 490.606C36.0361 490.606 36.6228 490.774 37.1141 491.112C37.6054 491.442 37.9831 491.907 38.2471 492.509C38.5111 493.103 38.6431 493.796 38.6431 494.588C38.6431 495.38 38.5111 496.076 38.2471 496.678C37.9831 497.272 37.6054 497.737 37.1141 498.075C36.6228 498.405 36.0361 498.57 35.3541 498.57ZM35.3541 497.756C35.8014 497.756 36.2011 497.631 36.5531 497.382C36.9124 497.125 37.1911 496.762 37.3891 496.293C37.5944 495.816 37.6971 495.248 37.6971 494.588C37.6971 493.928 37.5944 493.363 37.3891 492.894C37.1911 492.424 36.9124 492.065 36.5531 491.816C36.2011 491.559 35.8014 491.431 35.3541 491.431C34.8994 491.431 34.4961 491.559 34.1441 491.816C33.7921 492.065 33.5134 492.424 33.3081 492.894C33.1028 493.363 33.0001 493.928 33.0001 494.588C33.0001 495.248 33.1028 495.816 33.3081 496.293C33.5134 496.762 33.7921 497.125 34.1441 497.382C34.4961 497.631 34.8994 497.756 35.3541 497.756Z" fill="black"/>
<path d="M35.8607 405.173C35.3327 405.173 34.8744 405.077 34.4857 404.887C34.097 404.696 33.7854 404.436 33.5507 404.106C33.3234 403.768 33.184 403.387 33.1327 402.962H34.0347C34.1227 403.387 34.328 403.732 34.6507 403.996C34.9734 404.252 35.3804 404.381 35.8717 404.381C36.2384 404.381 36.5537 404.296 36.8177 404.128C37.0817 403.952 37.2834 403.717 37.4227 403.424C37.5694 403.13 37.6427 402.804 37.6427 402.445C37.6427 401.873 37.4814 401.411 37.1587 401.059C36.836 400.707 36.418 400.531 35.9047 400.531C35.4794 400.531 35.1164 400.626 34.8157 400.817C34.515 401.007 34.295 401.257 34.1557 401.565H33.2757L33.9357 397.341H37.9727V398.144H34.6507L34.1997 400.487C34.3757 400.274 34.6177 400.098 34.9257 399.959C35.241 399.819 35.6004 399.75 36.0037 399.75C36.5097 399.75 36.9497 399.867 37.3237 400.102C37.705 400.336 38.002 400.655 38.2147 401.059C38.4274 401.462 38.5337 401.92 38.5337 402.434C38.5337 402.925 38.4274 403.38 38.2147 403.798C38.0094 404.216 37.705 404.549 37.3017 404.799C36.9057 405.048 36.4254 405.173 35.8607 405.173Z" fill="black"/>
<path d="M29.7908 311.644V304.978L28.5478 305.253V304.615L30.0988 303.944H30.7258V311.644H29.7908ZM35.3541 311.776C34.6721 311.776 34.0818 311.611 33.5831 311.281C33.0918 310.943 32.7141 310.478 32.4501 309.884C32.1861 309.282 32.0541 308.586 32.0541 307.794C32.0541 307.002 32.1861 306.309 32.4501 305.715C32.7141 305.113 33.0918 304.648 33.5831 304.318C34.0818 303.98 34.6721 303.812 35.3541 303.812C36.0361 303.812 36.6228 303.98 37.1141 304.318C37.6054 304.648 37.9831 305.113 38.2471 305.715C38.5111 306.309 38.6431 307.002 38.6431 307.794C38.6431 308.586 38.5111 309.282 38.2471 309.884C37.9831 310.478 37.6054 310.943 37.1141 311.281C36.6228 311.611 36.0361 311.776 35.3541 311.776ZM35.3541 310.962C35.8014 310.962 36.2011 310.837 36.5531 310.588C36.9124 310.331 37.1911 309.968 37.3891 309.499C37.5944 309.022 37.6971 308.454 37.6971 307.794C37.6971 307.134 37.5944 306.569 37.3891 306.1C37.1911 305.63 36.9124 305.271 36.5531 305.022C36.2011 304.765 35.8014 304.637 35.3541 304.637C34.8994 304.637 34.4961 304.765 34.1441 305.022C33.7921 305.271 33.5134 305.63 33.3081 306.1C33.1028 306.569 33.0001 307.134 33.0001 307.794C33.0001 308.454 33.1028 309.022 33.3081 309.499C33.5134 309.968 33.7921 310.331 34.1441 310.588C34.4961 310.837 34.8994 310.962 35.3541 310.962Z" fill="black"/>
<path d="M30.6824 218.247V211.581L29.4394 211.856V211.218L30.9904 210.547H31.6174V218.247H30.6824ZM35.8607 218.379C35.3327 218.379 34.8744 218.283 34.4857 218.093C34.097 217.902 33.7854 217.642 33.5507 217.312C33.3234 216.974 33.184 216.593 33.1327 216.168H34.0347C34.1227 216.593 34.328 216.938 34.6507 217.202C34.9734 217.458 35.3804 217.587 35.8717 217.587C36.2384 217.587 36.5537 217.502 36.8177 217.334C37.0817 217.158 37.2834 216.923 37.4227 216.63C37.5694 216.336 37.6427 216.01 37.6427 215.651C37.6427 215.079 37.4814 214.617 37.1587 214.265C36.836 213.913 36.418 213.737 35.9047 213.737C35.4794 213.737 35.1164 213.832 34.8157 214.023C34.515 214.213 34.295 214.463 34.1557 214.771H33.2757L33.9357 210.547H37.9727V211.35H34.6507L34.1997 213.693C34.3757 213.48 34.6177 213.304 34.9257 213.165C35.241 213.025 35.6004 212.956 36.0037 212.956C36.5097 212.956 36.9497 213.073 37.3237 213.308C37.705 213.542 38.002 213.861 38.2147 214.265C38.4274 214.668 38.5337 215.126 38.5337 215.64C38.5337 216.131 38.4274 216.586 38.2147 217.004C38.0094 217.422 37.705 217.755 37.3017 218.005C36.9057 218.254 36.4254 218.379 35.8607 218.379Z" fill="black"/>
<path d="M14.3935 254.803C14.0415 254.803 13.7225 254.726 13.4365 254.572C13.1505 254.411 12.9232 254.183 12.7545 253.89C12.5859 253.597 12.5015 253.248 12.5015 252.845C12.5015 252.442 12.5859 252.093 12.7545 251.8C12.9232 251.507 13.1505 251.283 13.4365 251.129C13.7225 250.968 14.0452 250.887 14.4045 250.887C14.7565 250.887 15.0719 250.968 15.3505 251.129C15.6365 251.283 15.8639 251.507 16.0325 251.8C16.2012 252.093 16.2855 252.442 16.2855 252.845C16.2855 253.248 16.2012 253.597 16.0325 253.89C15.8639 254.183 15.6365 254.411 15.3505 254.572C15.0645 254.726 14.7455 254.803 14.3935 254.803ZM13.9755 258.719L18.3205 251.019H19.6955L15.3505 258.719H13.9755ZM14.3935 253.824C14.6062 253.824 14.7895 253.743 14.9435 253.582C15.0975 253.413 15.1745 253.168 15.1745 252.845C15.1745 252.522 15.0975 252.277 14.9435 252.108C14.7969 251.939 14.6135 251.855 14.3935 251.855C14.1735 251.855 13.9865 251.939 13.8325 252.108C13.6859 252.277 13.6125 252.522 13.6125 252.845C13.6125 253.168 13.6859 253.413 13.8325 253.582C13.9865 253.743 14.1735 253.824 14.3935 253.824ZM19.3215 258.851C18.9695 258.851 18.6505 258.774 18.3645 258.62C18.0785 258.459 17.8512 258.231 17.6825 257.938C17.5139 257.645 17.4295 257.296 17.4295 256.893C17.4295 256.49 17.5139 256.145 17.6825 255.859C17.8512 255.566 18.0785 255.342 18.3645 255.188C18.6505 255.027 18.9732 254.946 19.3325 254.946C19.6845 254.946 19.9999 255.027 20.2785 255.188C20.5645 255.342 20.7919 255.566 20.9605 255.859C21.1292 256.145 21.2135 256.49 21.2135 256.893C21.2135 257.296 21.1292 257.645 20.9605 257.938C20.7919 258.231 20.5645 258.459 20.2785 258.62C19.9999 258.774 19.6809 258.851 19.3215 258.851ZM19.3215 257.872C19.5415 257.872 19.7249 257.791 19.8715 257.63C20.0255 257.461 20.1025 257.216 20.1025 256.893C20.1025 256.57 20.0255 256.325 19.8715 256.156C19.7249 255.987 19.5415 255.903 19.3215 255.903C19.1015 255.903 18.9145 255.987 18.7605 256.156C18.6139 256.325 18.5405 256.57 18.5405 256.893C18.5405 257.216 18.6139 257.461 18.7605 257.63C18.9145 257.791 19.1015 257.872 19.3215 257.872Z" fill="black"/>
<path d="M26.0426 124.85V124.201C26.5633 123.79 27.0546 123.376 27.5166 122.958C27.9859 122.532 28.4003 122.114 28.7596 121.704C29.1263 121.293 29.4123 120.89 29.6176 120.494C29.8303 120.098 29.9366 119.716 29.9366 119.35C29.9366 119.078 29.8889 118.825 29.7936 118.591C29.7056 118.356 29.5589 118.169 29.3536 118.03C29.1483 117.883 28.8696 117.81 28.5176 117.81C28.1803 117.81 27.8979 117.887 27.6706 118.041C27.4433 118.187 27.2709 118.385 27.1536 118.635C27.0436 118.884 26.9886 119.152 26.9886 119.438H26.0976C26.0976 118.932 26.2039 118.499 26.4166 118.14C26.6293 117.773 26.9189 117.494 27.2856 117.304C27.6523 117.113 28.0666 117.018 28.5286 117.018C29.2106 117.018 29.7679 117.212 30.2006 117.601C30.6406 117.982 30.8606 118.554 30.8606 119.317C30.8606 119.771 30.7469 120.222 30.5196 120.67C30.2923 121.11 30.0026 121.539 29.6506 121.957C29.2986 122.367 28.9209 122.752 28.5176 123.112C28.1216 123.471 27.7513 123.794 27.4066 124.08H31.1246V124.85H26.0426ZM35.3541 124.982C34.6721 124.982 34.0818 124.817 33.5831 124.487C33.0918 124.149 32.7141 123.684 32.4501 123.09C32.1861 122.488 32.0541 121.792 32.0541 121C32.0541 120.208 32.1861 119.515 32.4501 118.921C32.7141 118.319 33.0918 117.854 33.5831 117.524C34.0818 117.186 34.6721 117.018 35.3541 117.018C36.0361 117.018 36.6228 117.186 37.1141 117.524C37.6054 117.854 37.9831 118.319 38.2471 118.921C38.5111 119.515 38.6431 120.208 38.6431 121C38.6431 121.792 38.5111 122.488 38.2471 123.09C37.9831 123.684 37.6054 124.149 37.1141 124.487C36.6228 124.817 36.0361 124.982 35.3541 124.982ZM35.3541 124.168C35.8014 124.168 36.2011 124.043 36.5531 123.794C36.9124 123.537 37.1911 123.174 37.3891 122.705C37.5944 122.228 37.6971 121.66 37.6971 121C37.6971 120.34 37.5944 119.775 37.3891 119.306C37.1911 118.836 36.9124 118.477 36.5531 118.228C36.2011 117.971 35.8014 117.843 35.3541 117.843C34.8994 117.843 34.4961 117.971 34.1441 118.228C33.7921 118.477 33.5134 118.836 33.3081 119.306C33.1028 119.775 33.0001 120.34 33.0001 121C33.0001 121.66 33.1028 122.228 33.3081 122.705C33.5134 123.174 33.7921 123.537 34.1441 123.794C34.4961 124.043 34.8994 124.168 35.3541 124.168Z" fill="black"/>
<path d="M26.8268 31.4526V30.8036C27.3475 30.393 27.8388 29.9786 28.3008 29.5606C28.7701 29.1353 29.1845 28.7173 29.5438 28.3066C29.9105 27.896 30.1965 27.4926 30.4018 27.0966C30.6145 26.7006 30.7208 26.3193 30.7208 25.9526C30.7208 25.6813 30.6731 25.4283 30.5778 25.1936C30.4898 24.959 30.3431 24.772 30.1378 24.6326C29.9325 24.486 29.6538 24.4126 29.3018 24.4126C28.9645 24.4126 28.6821 24.4896 28.4548 24.6436C28.2275 24.7903 28.0551 24.9883 27.9378 25.2376C27.8278 25.487 27.7728 25.7546 27.7728 26.0406H26.8818C26.8818 25.5346 26.9881 25.102 27.2008 24.7426C27.4135 24.376 27.7031 24.0973 28.0698 23.9066C28.4365 23.716 28.8508 23.6206 29.3128 23.6206C29.9948 23.6206 30.5521 23.815 30.9848 24.2036C31.4248 24.585 31.6448 25.157 31.6448 25.9196C31.6448 26.3743 31.5311 26.8253 31.3038 27.2726C31.0765 27.7126 30.7868 28.1416 30.4348 28.5596C30.0828 28.9703 29.7051 29.3553 29.3018 29.7146C28.9058 30.074 28.5355 30.3966 28.1908 30.6826H31.9088V31.4526H26.8268ZM35.8607 31.5846C35.3327 31.5846 34.8744 31.4893 34.4857 31.2986C34.097 31.108 33.7854 30.8476 33.5507 30.5176C33.3234 30.1803 33.184 29.799 33.1327 29.3736H34.0347C34.1227 29.799 34.328 30.1436 34.6507 30.4076C34.9734 30.6643 35.3804 30.7926 35.8717 30.7926C36.2384 30.7926 36.5537 30.7083 36.8177 30.5396C37.0817 30.3636 37.2834 30.129 37.4227 29.8356C37.5694 29.5423 37.6427 29.216 37.6427 28.8566C37.6427 28.2846 37.4814 27.8226 37.1587 27.4706C36.836 27.1186 36.418 26.9426 35.9047 26.9426C35.4794 26.9426 35.1164 27.038 34.8157 27.2286C34.515 27.4193 34.295 27.6686 34.1557 27.9766H33.2757L33.9357 23.7526H37.9727V24.5556H34.6507L34.1997 26.8986C34.3757 26.686 34.6177 26.51 34.9257 26.3706C35.241 26.2313 35.6004 26.1616 36.0037 26.1616C36.5097 26.1616 36.9497 26.279 37.3237 26.5136C37.705 26.7483 38.002 27.0673 38.2147 27.4706C38.4274 27.874 38.5337 28.3323 38.5337 28.8456C38.5337 29.337 38.4274 29.7916 38.2147 30.2096C38.0094 30.6276 37.705 30.9613 37.3017 31.2106C36.9057 31.46 36.4254 31.5846 35.8607 31.5846Z" fill="black"/>
<path d="M103.902 522V521.351C104.423 520.94 104.914 520.526 105.376 520.108C105.846 519.683 106.26 519.265 106.619 518.854C106.986 518.443 107.272 518.04 107.477 517.644C107.69 517.248 107.796 516.867 107.796 516.5C107.796 516.229 107.749 515.976 107.653 515.741C107.565 515.506 107.419 515.319 107.213 515.18C107.008 515.033 106.729 514.96 106.377 514.96C106.04 514.96 105.758 515.037 105.53 515.191C105.303 515.338 105.131 515.536 105.013 515.785C104.903 516.034 104.848 516.302 104.848 516.588H103.957C103.957 516.082 104.064 515.649 104.276 515.29C104.489 514.923 104.779 514.645 105.145 514.454C105.512 514.263 105.926 514.168 106.388 514.168C107.07 514.168 107.628 514.362 108.06 514.751C108.5 515.132 108.72 515.704 108.72 516.467C108.72 516.922 108.607 517.373 108.379 517.82C108.152 518.26 107.862 518.689 107.51 519.107C107.158 519.518 106.781 519.903 106.377 520.262C105.981 520.621 105.611 520.944 105.266 521.23H108.984V522H103.902ZM113.214 522.132C112.532 522.132 111.942 521.967 111.443 521.637C110.952 521.3 110.574 520.834 110.31 520.24C110.046 519.639 109.914 518.942 109.914 518.15C109.914 517.358 110.046 516.665 110.31 516.071C110.574 515.47 110.952 515.004 111.443 514.674C111.942 514.337 112.532 514.168 113.214 514.168C113.896 514.168 114.483 514.337 114.974 514.674C115.465 515.004 115.843 515.47 116.107 516.071C116.371 516.665 116.503 517.358 116.503 518.15C116.503 518.942 116.371 519.639 116.107 520.24C115.843 520.834 115.465 521.3 114.974 521.637C114.483 521.967 113.896 522.132 113.214 522.132ZM113.214 521.318C113.661 521.318 114.061 521.193 114.413 520.944C114.772 520.687 115.051 520.324 115.249 519.855C115.454 519.378 115.557 518.81 115.557 518.15C115.557 517.49 115.454 516.925 115.249 516.456C115.051 515.987 114.772 515.627 114.413 515.378C114.061 515.121 113.661 514.993 113.214 514.993C112.759 514.993 112.356 515.121 112.004 515.378C111.652 515.627 111.373 515.987 111.168 516.456C110.963 516.925 110.86 517.49 110.86 518.15C110.86 518.81 110.963 519.378 111.168 519.855C111.373 520.324 111.652 520.687 112.004 520.944C112.356 521.193 112.759 521.318 113.214 521.318ZM120.841 522.132C120.159 522.132 119.569 521.967 119.07 521.637C118.579 521.3 118.201 520.834 117.937 520.24C117.673 519.639 117.541 518.942 117.541 518.15C117.541 517.358 117.673 516.665 117.937 516.071C118.201 515.47 118.579 515.004 119.07 514.674C119.569 514.337 120.159 514.168 120.841 514.168C121.523 514.168 122.11 514.337 122.601 514.674C123.092 515.004 123.47 515.47 123.734 516.071C123.998 516.665 124.13 517.358 124.13 518.15C124.13 518.942 123.998 519.639 123.734 520.24C123.47 520.834 123.092 521.3 122.601 521.637C122.11 521.967 121.523 522.132 120.841 522.132ZM120.841 521.318C121.288 521.318 121.688 521.193 122.04 520.944C122.399 520.687 122.678 520.324 122.876 519.855C123.081 519.378 123.184 518.81 123.184 518.15C123.184 517.49 123.081 516.925 122.876 516.456C122.678 515.987 122.399 515.627 122.04 515.378C121.688 515.121 121.288 514.993 120.841 514.993C120.386 514.993 119.983 515.121 119.631 515.378C119.279 515.627 119 515.987 118.795 516.456C118.59 516.925 118.487 517.49 118.487 518.15C118.487 518.81 118.59 519.378 118.795 519.855C119 520.324 119.279 520.687 119.631 520.944C119.983 521.193 120.386 521.318 120.841 521.318ZM128.006 522.132C127.5 522.132 127.045 522.04 126.642 521.857C126.239 521.666 125.92 521.406 125.685 521.076C125.458 520.739 125.344 520.35 125.344 519.91C125.344 519.441 125.48 519.019 125.751 518.645C126.03 518.271 126.396 518.022 126.851 517.897C126.433 517.758 126.11 517.534 125.883 517.226C125.656 516.918 125.542 516.581 125.542 516.214C125.542 515.84 125.641 515.499 125.839 515.191C126.037 514.876 126.319 514.626 126.686 514.443C127.053 514.26 127.493 514.168 128.006 514.168C128.519 514.168 128.959 514.26 129.326 514.443C129.693 514.626 129.975 514.876 130.173 515.191C130.371 515.499 130.47 515.84 130.47 516.214C130.47 516.573 130.356 516.911 130.129 517.226C129.902 517.534 129.579 517.758 129.161 517.897C129.616 518.022 129.979 518.271 130.25 518.645C130.529 519.019 130.668 519.441 130.668 519.91C130.668 520.35 130.551 520.739 130.316 521.076C130.089 521.406 129.773 521.666 129.37 521.857C128.967 522.04 128.512 522.132 128.006 522.132ZM128.006 517.567C128.475 517.567 128.846 517.45 129.117 517.215C129.396 516.973 129.535 516.658 129.535 516.269C129.535 515.836 129.399 515.51 129.128 515.29C128.857 515.07 128.483 514.96 128.006 514.96C127.529 514.96 127.155 515.07 126.884 515.29C126.62 515.51 126.488 515.836 126.488 516.269C126.488 516.658 126.624 516.973 126.895 517.215C127.166 517.45 127.537 517.567 128.006 517.567ZM128.006 521.318C128.585 521.318 129.018 521.186 129.304 520.922C129.597 520.651 129.744 520.295 129.744 519.855C129.744 519.356 129.586 518.979 129.271 518.722C128.956 518.465 128.534 518.337 128.006 518.337C127.478 518.337 127.056 518.465 126.741 518.722C126.426 518.979 126.268 519.356 126.268 519.855C126.268 520.295 126.411 520.651 126.697 520.922C126.99 521.186 127.427 521.318 128.006 521.318Z" fill="black"/>
<path d="M176.389 522V521.351C176.909 520.94 177.401 520.526 177.863 520.108C178.332 519.683 178.746 519.265 179.106 518.854C179.472 518.443 179.758 518.04 179.964 517.644C180.176 517.248 180.283 516.867 180.283 516.5C180.283 516.229 180.235 515.976 180.14 515.741C180.052 515.506 179.905 515.319 179.7 515.18C179.494 515.033 179.216 514.96 178.864 514.96C178.526 514.96 178.244 515.037 178.017 515.191C177.789 515.338 177.617 515.536 177.5 515.785C177.39 516.034 177.335 516.302 177.335 516.588H176.444C176.444 516.082 176.55 515.649 176.763 515.29C176.975 514.923 177.265 514.645 177.632 514.454C177.998 514.263 178.413 514.168 178.875 514.168C179.557 514.168 180.114 514.362 180.547 514.751C180.987 515.132 181.207 515.704 181.207 516.467C181.207 516.922 181.093 517.373 180.866 517.82C180.638 518.26 180.349 518.689 179.997 519.107C179.645 519.518 179.267 519.903 178.864 520.262C178.468 520.621 178.097 520.944 177.753 521.23H181.471V522H176.389ZM185.7 522.132C185.018 522.132 184.428 521.967 183.929 521.637C183.438 521.3 183.06 520.834 182.796 520.24C182.532 519.639 182.4 518.942 182.4 518.15C182.4 517.358 182.532 516.665 182.796 516.071C183.06 515.47 183.438 515.004 183.929 514.674C184.428 514.337 185.018 514.168 185.7 514.168C186.382 514.168 186.969 514.337 187.46 514.674C187.952 515.004 188.329 515.47 188.593 516.071C188.857 516.665 188.989 517.358 188.989 518.15C188.989 518.942 188.857 519.639 188.593 520.24C188.329 520.834 187.952 521.3 187.46 521.637C186.969 521.967 186.382 522.132 185.7 522.132ZM185.7 521.318C186.148 521.318 186.547 521.193 186.899 520.944C187.259 520.687 187.537 520.324 187.735 519.855C187.941 519.378 188.043 518.81 188.043 518.15C188.043 517.49 187.941 516.925 187.735 516.456C187.537 515.987 187.259 515.627 186.899 515.378C186.547 515.121 186.148 514.993 185.7 514.993C185.246 514.993 184.842 515.121 184.49 515.378C184.138 515.627 183.86 515.987 183.654 516.456C183.449 516.925 183.346 517.49 183.346 518.15C183.346 518.81 183.449 519.378 183.654 519.855C183.86 520.324 184.138 520.687 184.49 520.944C184.842 521.193 185.246 521.318 185.7 521.318ZM191.083 522V515.334L189.84 515.609V514.971L191.391 514.3H192.018V522H191.083ZM193.523 522V521.351C194.043 520.94 194.535 520.526 194.997 520.108C195.466 519.683 195.88 519.265 196.24 518.854C196.606 518.443 196.892 518.04 197.098 517.644C197.31 517.248 197.417 516.867 197.417 516.5C197.417 516.229 197.369 515.976 197.274 515.741C197.186 515.506 197.039 515.319 196.834 515.18C196.628 515.033 196.35 514.96 195.998 514.96C195.66 514.96 195.378 515.037 195.151 515.191C194.923 515.338 194.751 515.536 194.634 515.785C194.524 516.034 194.469 516.302 194.469 516.588H193.578C193.578 516.082 193.684 515.649 193.897 515.29C194.109 514.923 194.399 514.645 194.766 514.454C195.132 514.263 195.547 514.168 196.009 514.168C196.691 514.168 197.248 514.362 197.681 514.751C198.121 515.132 198.341 515.704 198.341 516.467C198.341 516.922 198.227 517.373 198 517.82C197.772 518.26 197.483 518.689 197.131 519.107C196.779 519.518 196.401 519.903 195.998 520.262C195.602 520.621 195.231 520.944 194.887 521.23H198.605V522H193.523Z" fill="black"/>
<path d="M247.195 522V521.351C247.716 520.94 248.207 520.526 248.669 520.108C249.138 519.683 249.553 519.265 249.912 518.854C250.279 518.443 250.565 518.04 250.77 517.644C250.983 517.248 251.089 516.867 251.089 516.5C251.089 516.229 251.041 515.976 250.946 515.741C250.858 515.506 250.711 515.319 250.506 515.18C250.301 515.033 250.022 514.96 249.67 514.96C249.333 514.96 249.05 515.037 248.823 515.191C248.596 515.338 248.423 515.536 248.306 515.785C248.196 516.034 248.141 516.302 248.141 516.588H247.25C247.25 516.082 247.356 515.649 247.569 515.29C247.782 514.923 248.071 514.645 248.438 514.454C248.805 514.263 249.219 514.168 249.681 514.168C250.363 514.168 250.92 514.362 251.353 514.751C251.793 515.132 252.013 515.704 252.013 516.467C252.013 516.922 251.899 517.373 251.672 517.82C251.445 518.26 251.155 518.689 250.803 519.107C250.451 519.518 250.073 519.903 249.67 520.262C249.274 520.621 248.904 520.944 248.559 521.23H252.277V522H247.195ZM256.506 522.132C255.824 522.132 255.234 521.967 254.735 521.637C254.244 521.3 253.866 520.834 253.602 520.24C253.338 519.639 253.206 518.942 253.206 518.15C253.206 517.358 253.338 516.665 253.602 516.071C253.866 515.47 254.244 515.004 254.735 514.674C255.234 514.337 255.824 514.168 256.506 514.168C257.188 514.168 257.775 514.337 258.266 514.674C258.758 515.004 259.135 515.47 259.399 516.071C259.663 516.665 259.795 517.358 259.795 518.15C259.795 518.942 259.663 519.639 259.399 520.24C259.135 520.834 258.758 521.3 258.266 521.637C257.775 521.967 257.188 522.132 256.506 522.132ZM256.506 521.318C256.954 521.318 257.353 521.193 257.705 520.944C258.065 520.687 258.343 520.324 258.541 519.855C258.747 519.378 258.849 518.81 258.849 518.15C258.849 517.49 258.747 516.925 258.541 516.456C258.343 515.987 258.065 515.627 257.705 515.378C257.353 515.121 256.954 514.993 256.506 514.993C256.052 514.993 255.648 515.121 255.296 515.378C254.944 515.627 254.666 515.987 254.46 516.456C254.255 516.925 254.152 517.49 254.152 518.15C254.152 518.81 254.255 519.378 254.46 519.855C254.666 520.324 254.944 520.687 255.296 520.944C255.648 521.193 256.052 521.318 256.506 521.318ZM261.889 522V515.334L260.646 515.609V514.971L262.197 514.3H262.824V522H261.889ZM267.222 522.132C266.664 522.132 266.195 522.029 265.814 521.824C265.432 521.611 265.124 521.329 264.89 520.977C264.662 520.625 264.494 520.233 264.384 519.8C264.281 519.36 264.23 518.913 264.23 518.458C264.23 517.607 264.347 516.863 264.582 516.225C264.816 515.58 265.154 515.077 265.594 514.718C266.041 514.351 266.58 514.168 267.211 514.168C267.695 514.168 268.109 514.263 268.454 514.454C268.798 514.645 269.07 514.901 269.268 515.224C269.473 515.539 269.601 515.891 269.653 516.28H268.795C268.714 515.862 268.534 515.539 268.256 515.312C267.977 515.085 267.625 514.971 267.2 514.971C266.62 514.971 266.133 515.246 265.737 515.796C265.348 516.339 265.139 517.189 265.11 518.348C265.286 518.003 265.564 517.706 265.946 517.457C266.334 517.2 266.8 517.072 267.343 517.072C267.783 517.072 268.193 517.175 268.575 517.38C268.963 517.585 269.279 517.875 269.521 518.249C269.763 518.616 269.884 519.048 269.884 519.547C269.884 519.98 269.777 520.394 269.565 520.79C269.352 521.186 269.044 521.509 268.641 521.758C268.245 522.007 267.772 522.132 267.222 522.132ZM267.156 521.318C267.5 521.318 267.808 521.245 268.08 521.098C268.351 520.951 268.564 520.75 268.718 520.493C268.872 520.229 268.949 519.928 268.949 519.591C268.949 519.07 268.776 518.656 268.432 518.348C268.094 518.033 267.669 517.875 267.156 517.875C266.811 517.875 266.503 517.956 266.232 518.117C265.96 518.271 265.744 518.48 265.583 518.744C265.429 519.008 265.352 519.294 265.352 519.602C265.352 519.932 265.429 520.229 265.583 520.493C265.744 520.75 265.96 520.951 266.232 521.098C266.503 521.245 266.811 521.318 267.156 521.318Z" fill="black"/>
<path d="M46.4033 317.006L81.5227 303.305L116.686 256.135L152.706 225.26L187.869 198.673L223.032 182.378L258.196 172.944L294.216 159.222L314.799 148.073" stroke="black" stroke-width="2" stroke-linecap="round" stroke-linejoin="round"/>
<path d="M269 132.422C269 131.318 269.895 130.422 271 130.422H297C298.105 130.422 299 131.318 299 132.422V149.422C299 150.527 298.105 151.422 297 151.422H271C269.895 151.422 269 150.527 269 149.422V132.422Z" fill="white" stroke="black" stroke-width="0.5"/>
<path d="M275.517 178.853C275.517 177.748 276.413 176.853 277.517 176.853H318.517C319.622 176.853 320.517 177.748 320.517 178.853V195.853C320.517 196.957 319.622 197.853 318.517 197.853H277.517C276.413 197.853 275.517 196.957 275.517 195.853V178.853Z" fill="white" stroke="#F24E1E" stroke-width="0.5"/>
<path d="M277.825 144.922V137.222H282.852V138.355H279.233V140.467H282.522V141.567H279.233V143.789H282.852V144.922H277.825ZM287.154 145.054C286.589 145.054 286.08 144.944 285.625 144.724C285.17 144.497 284.807 144.156 284.536 143.701C284.272 143.246 284.14 142.671 284.14 141.974V137.222H285.548V141.985C285.548 142.586 285.691 143.034 285.977 143.327C286.27 143.62 286.674 143.767 287.187 143.767C287.693 143.767 288.093 143.62 288.386 143.327C288.679 143.034 288.826 142.586 288.826 141.985V137.222H290.234V141.974C290.234 142.671 290.095 143.246 289.816 143.701C289.537 144.156 289.163 144.497 288.694 144.724C288.232 144.944 287.719 145.054 287.154 145.054Z" fill="black"/>
<path d="M285.762 191.353V183.653H287.17V191.353H285.762ZM291.06 191.353C290.488 191.353 290.03 191.213 289.685 190.935C289.34 190.656 289.168 190.161 289.168 189.45V187.074H288.233V185.897H289.168L289.333 184.434H290.576V185.897H292.05V187.074H290.576V189.461C290.576 189.725 290.631 189.908 290.741 190.011C290.858 190.106 291.056 190.154 291.335 190.154H292.017V191.353H291.06ZM295.14 191.485C294.671 191.485 294.286 191.411 293.985 191.265C293.684 191.111 293.461 190.909 293.314 190.66C293.167 190.41 293.094 190.135 293.094 189.835C293.094 189.329 293.292 188.918 293.688 188.603C294.084 188.287 294.678 188.13 295.47 188.13H296.856V187.998C296.856 187.624 296.75 187.349 296.537 187.173C296.324 186.997 296.06 186.909 295.745 186.909C295.459 186.909 295.21 186.978 294.997 187.118C294.784 187.25 294.652 187.448 294.601 187.712H293.226C293.263 187.316 293.395 186.971 293.622 186.678C293.857 186.384 294.157 186.161 294.524 186.007C294.891 185.845 295.301 185.765 295.756 185.765C296.533 185.765 297.146 185.959 297.593 186.348C298.04 186.736 298.264 187.286 298.264 187.998V191.353H297.065L296.933 190.473C296.772 190.766 296.544 191.008 296.251 191.199C295.965 191.389 295.595 191.485 295.14 191.485ZM295.459 190.385C295.862 190.385 296.174 190.253 296.394 189.989C296.621 189.725 296.764 189.398 296.823 189.01H295.624C295.25 189.01 294.982 189.079 294.821 189.219C294.66 189.351 294.579 189.516 294.579 189.714C294.579 189.926 294.66 190.091 294.821 190.209C294.982 190.326 295.195 190.385 295.459 190.385ZM299.608 191.353V183.433H301.016V191.353H299.608ZM303.213 185.05C302.957 185.05 302.744 184.973 302.575 184.819C302.414 184.665 302.333 184.47 302.333 184.236C302.333 184.001 302.414 183.81 302.575 183.664C302.744 183.51 302.957 183.433 303.213 183.433C303.47 183.433 303.679 183.51 303.84 183.664C304.009 183.81 304.093 184.001 304.093 184.236C304.093 184.47 304.009 184.665 303.84 184.819C303.679 184.973 303.47 185.05 303.213 185.05ZM302.509 191.353V185.897H303.917V191.353H302.509ZM307.268 191.485C306.799 191.485 306.414 191.411 306.113 191.265C305.812 191.111 305.589 190.909 305.442 190.66C305.295 190.41 305.222 190.135 305.222 189.835C305.222 189.329 305.42 188.918 305.816 188.603C306.212 188.287 306.806 188.13 307.598 188.13H308.984V187.998C308.984 187.624 308.878 187.349 308.665 187.173C308.452 186.997 308.188 186.909 307.873 186.909C307.587 186.909 307.338 186.978 307.125 187.118C306.912 187.25 306.78 187.448 306.729 187.712H305.354C305.391 187.316 305.523 186.971 305.75 186.678C305.985 186.384 306.285 186.161 306.652 186.007C307.019 185.845 307.429 185.765 307.884 185.765C308.661 185.765 309.274 185.959 309.721 186.348C310.168 186.736 310.392 187.286 310.392 187.998V191.353H309.193L309.061 190.473C308.9 190.766 308.672 191.008 308.379 191.199C308.093 191.389 307.723 191.485 307.268 191.485ZM307.587 190.385C307.99 190.385 308.302 190.253 308.522 189.989C308.749 189.725 308.892 189.398 308.951 189.01H307.752C307.378 189.01 307.11 189.079 306.949 189.219C306.788 189.351 306.707 189.516 306.707 189.714C306.707 189.926 306.788 190.091 306.949 190.209C307.11 190.326 307.323 190.385 307.587 190.385Z" fill="#F24E1E"/>
</svg>
