<svg width="335" height="591" viewBox="0 0 335 591" fill="none" xmlns="http://www.w3.org/2000/svg">
<rect x="0.900879" y="0.5" width="333.599" height="549" fill="white" stroke="black"/>
<rect y="548.551" width="335" height="42" fill="black"/>
<path d="M8.88657 574.551V564.751H15.2146V566.193H10.6786V568.937H14.3466V570.351H10.6786V574.551H8.88657ZM19.5184 574.719C18.8464 574.719 18.2397 574.565 17.6984 574.257C17.1664 573.949 16.7417 573.524 16.4244 572.983C16.1164 572.432 15.9624 571.797 15.9624 571.079C15.9624 570.36 16.121 569.73 16.4384 569.189C16.7557 568.638 17.1804 568.209 17.7124 567.901C18.2537 567.593 18.8604 567.439 19.5324 567.439C20.195 567.439 20.7924 567.593 21.3244 567.901C21.8657 568.209 22.2904 568.638 22.5984 569.189C22.9157 569.73 23.0744 570.36 23.0744 571.079C23.0744 571.797 22.9157 572.432 22.5984 572.983C22.2904 573.524 21.8657 573.949 21.3244 574.257C20.783 574.565 20.181 574.719 19.5184 574.719ZM19.5184 573.165C19.985 573.165 20.391 572.992 20.7364 572.647C21.0817 572.292 21.2544 571.769 21.2544 571.079C21.2544 570.388 21.0817 569.87 20.7364 569.525C20.391 569.17 19.9897 568.993 19.5324 568.993C19.0564 568.993 18.6457 569.17 18.3004 569.525C17.9644 569.87 17.7964 570.388 17.7964 571.079C17.7964 571.769 17.9644 572.292 18.3004 572.647C18.6457 572.992 19.0517 573.165 19.5184 573.165ZM24.6766 574.551V567.607H26.2586L26.3986 568.783C26.6133 568.372 26.9213 568.045 27.3226 567.803C27.7333 567.56 28.2139 567.439 28.7646 567.439C29.6233 567.439 30.2906 567.709 30.7666 568.251C31.2426 568.792 31.4806 569.585 31.4806 570.631V574.551H29.6886V570.799C29.6886 570.201 29.5673 569.744 29.3246 569.427C29.0819 569.109 28.7039 568.951 28.1906 568.951C27.6866 568.951 27.2713 569.128 26.9446 569.483C26.6273 569.837 26.4686 570.332 26.4686 570.967V574.551H24.6766ZM36.2882 574.551C35.5602 574.551 34.9768 574.373 34.5382 574.019C34.0995 573.664 33.8802 573.034 33.8802 572.129V569.105H32.6902V567.607H33.8802L34.0902 565.745H35.6722V567.607H37.5482V569.105H35.6722V572.143C35.6722 572.479 35.7422 572.712 35.8822 572.843C36.0315 572.964 36.2835 573.025 36.6382 573.025H37.5062V574.551H36.2882ZM42.283 574.719C41.583 574.719 40.9624 574.569 40.421 574.271C39.8797 573.972 39.455 573.552 39.147 573.011C38.839 572.469 38.685 571.844 38.685 571.135C38.685 570.416 38.8344 569.777 39.133 569.217C39.441 568.657 39.861 568.223 40.393 567.915C40.9344 567.597 41.569 567.439 42.297 567.439C42.9784 567.439 43.5804 567.588 44.103 567.887C44.6257 568.185 45.0317 568.596 45.321 569.119C45.6197 569.632 45.769 570.206 45.769 570.841C45.769 570.943 45.7644 571.051 45.755 571.163C45.755 571.275 45.7504 571.391 45.741 571.513H40.463C40.5004 572.054 40.687 572.479 41.023 572.787C41.3684 573.095 41.7837 573.249 42.269 573.249C42.633 573.249 42.9364 573.169 43.179 573.011C43.431 572.843 43.6177 572.628 43.739 572.367H45.559C45.4284 572.805 45.209 573.207 44.901 573.571C44.6024 573.925 44.229 574.205 43.781 574.411C43.3424 574.616 42.843 574.719 42.283 574.719ZM42.297 568.895C41.8584 568.895 41.471 569.021 41.135 569.273C40.799 569.515 40.5844 569.889 40.491 570.393H43.949C43.921 569.935 43.753 569.571 43.445 569.301C43.137 569.03 42.7544 568.895 42.297 568.895ZM51.1073 574.551V564.751H57.1693V565.717H52.2833V569.133H56.7493V570.085H52.2833V573.585H57.1693V574.551H51.1073ZM61.4736 574.719C60.6523 574.719 59.999 574.471 59.5136 573.977C59.0283 573.473 58.7856 572.703 58.7856 571.667V567.607H59.9616V571.541C59.9616 572.987 60.5543 573.711 61.7396 573.711C62.3463 573.711 62.8456 573.496 63.2376 573.067C63.639 572.628 63.8396 572.007 63.8396 571.205V567.607H65.0156V574.551H63.9516L63.8676 573.305C63.653 573.743 63.331 574.089 62.9016 574.341C62.4816 574.593 62.0056 574.719 61.4736 574.719ZM66.9514 574.551V567.607H68.0154L68.1134 568.937C68.328 568.479 68.6547 568.115 69.0934 567.845C69.532 567.574 70.0734 567.439 70.7174 567.439V568.671H70.3954C69.9847 568.671 69.6067 568.745 69.2614 568.895C68.916 569.035 68.6407 569.277 68.4354 569.623C68.23 569.968 68.1274 570.444 68.1274 571.051V574.551H66.9514ZM74.9415 574.719C74.2882 574.719 73.7002 574.569 73.1775 574.271C72.6549 573.972 72.2395 573.552 71.9315 573.011C71.6329 572.46 71.4835 571.816 71.4835 571.079C71.4835 570.341 71.6375 569.702 71.9455 569.161C72.2535 568.61 72.6689 568.185 73.1915 567.887C73.7235 567.588 74.3162 567.439 74.9695 567.439C75.6229 567.439 76.2109 567.588 76.7335 567.887C77.2562 568.185 77.6669 568.61 77.9655 569.161C78.2735 569.702 78.4275 570.341 78.4275 571.079C78.4275 571.816 78.2735 572.46 77.9655 573.011C77.6575 573.552 77.2375 573.972 76.7055 574.271C76.1829 574.569 75.5949 574.719 74.9415 574.719ZM74.9415 573.711C75.3429 573.711 75.7162 573.613 76.0615 573.417C76.4069 573.221 76.6869 572.927 76.9015 572.535C77.1162 572.143 77.2235 571.657 77.2235 571.079C77.2235 570.5 77.1162 570.015 76.9015 569.623C76.6962 569.231 76.4209 568.937 76.0755 568.741C75.7302 568.545 75.3615 568.447 74.9695 568.447C74.5682 568.447 74.1949 568.545 73.8495 568.741C73.5042 568.937 73.2242 569.231 73.0095 569.623C72.7949 570.015 72.6875 570.5 72.6875 571.079C72.6875 571.657 72.7949 572.143 73.0095 572.535C73.2242 572.927 73.4995 573.221 73.8355 573.417C74.1809 573.613 74.5495 573.711 74.9415 573.711ZM82.7227 574.719C81.892 574.719 81.2013 574.509 80.6507 574.089C80.1 573.669 79.778 573.099 79.6847 572.381H80.8887C80.9633 572.745 81.1547 573.062 81.4627 573.333C81.78 573.594 82.2047 573.725 82.7367 573.725C83.2313 573.725 83.5953 573.622 83.8287 573.417C84.062 573.202 84.1787 572.95 84.1787 572.661C84.1787 572.241 84.0247 571.961 83.7167 571.821C83.418 571.681 82.9933 571.555 82.4427 571.443C82.0693 571.368 81.696 571.261 81.3227 571.121C80.9493 570.981 80.6367 570.785 80.3847 570.533C80.1327 570.271 80.0067 569.931 80.0067 569.511C80.0067 568.904 80.2307 568.409 80.6787 568.027C81.136 567.635 81.752 567.439 82.5267 567.439C83.264 567.439 83.866 567.625 84.3327 567.999C84.8087 568.363 85.084 568.885 85.1587 569.567H83.9967C83.95 569.212 83.796 568.937 83.5347 568.741C83.2827 568.535 82.942 568.433 82.5127 568.433C82.0927 568.433 81.766 568.521 81.5327 568.699C81.3087 568.876 81.1967 569.109 81.1967 569.399C81.1967 569.679 81.3413 569.898 81.6307 570.057C81.9293 570.215 82.3307 570.351 82.8347 570.463C83.264 570.556 83.67 570.673 84.0527 570.813C84.4447 570.943 84.762 571.144 85.0047 571.415C85.2567 571.676 85.3827 572.059 85.3827 572.563C85.392 573.188 85.154 573.706 84.6687 574.117C84.1927 574.518 83.544 574.719 82.7227 574.719ZM89.4922 574.551C88.8576 574.551 88.3582 574.397 87.9942 574.089C87.6302 573.781 87.4482 573.225 87.4482 572.423V568.601H86.2442V567.607H87.4482L87.6022 565.941H88.6242V567.607H90.6682V568.601H88.6242V572.423C88.6242 572.861 88.7129 573.16 88.8902 573.319C89.0676 573.468 89.3802 573.543 89.8282 573.543H90.5562V574.551H89.4922ZM94.4723 574.719C93.8936 574.719 93.413 574.621 93.0303 574.425C92.6476 574.229 92.363 573.967 92.1763 573.641C91.9896 573.314 91.8963 572.959 91.8963 572.577C91.8963 571.867 92.167 571.321 92.7083 570.939C93.2496 570.556 93.987 570.365 94.9203 570.365H96.7963V570.281C96.7963 569.674 96.6376 569.217 96.3203 568.909C96.003 568.591 95.5783 568.433 95.0463 568.433C94.589 568.433 94.1923 568.549 93.8563 568.783C93.5296 569.007 93.3243 569.338 93.2403 569.777H92.0363C92.083 569.273 92.251 568.848 92.5403 568.503C92.839 568.157 93.2076 567.896 93.6463 567.719C94.085 567.532 94.5516 567.439 95.0463 567.439C96.017 567.439 96.745 567.7 97.2303 568.223C97.725 568.736 97.9723 569.422 97.9723 570.281V574.551H96.9223L96.8523 573.305C96.6563 573.697 96.367 574.033 95.9843 574.313C95.611 574.583 95.107 574.719 94.4723 574.719ZM94.6543 573.725C95.1023 573.725 95.485 573.608 95.8023 573.375C96.129 573.141 96.3763 572.838 96.5443 572.465C96.7123 572.091 96.7963 571.699 96.7963 571.289V571.275H95.0183C94.3276 571.275 93.8376 571.396 93.5483 571.639C93.2683 571.872 93.1283 572.166 93.1283 572.521C93.1283 572.885 93.259 573.179 93.5203 573.403C93.791 573.617 94.169 573.725 94.6543 573.725ZM102.289 574.551C101.654 574.551 101.155 574.397 100.791 574.089C100.427 573.781 100.245 573.225 100.245 572.423V568.601H99.0411V567.607H100.245L100.399 565.941H101.421V567.607H103.465V568.601H101.421V572.423C101.421 572.861 101.51 573.16 101.687 573.319C101.864 573.468 102.177 573.543 102.625 573.543H103.353V574.551H102.289Z" fill="white"/>
<circle r="2.5" transform="matrix(1 8.74228e-08 8.74228e-08 -1 74.3652 353.385)" fill="#F24E1E" stroke="white"/>
<path d="M74.5115 353.285L56.7178 353.285L56.7178 422.978" stroke="black" stroke-width="0.5" stroke-linecap="round" stroke-linejoin="round"/>
<path d="M169.174 156.979C188.781 157.258 208.009 162.417 225.121 171.993C242.233 181.568 256.689 195.256 267.183 211.821C277.676 228.386 283.877 247.305 285.223 266.867C286.569 286.43 283.019 306.019 274.894 323.866C266.768 341.712 254.324 357.252 238.685 369.081C223.046 380.91 204.705 388.655 185.321 391.616C165.937 394.578 146.121 392.662 127.663 386.042C109.206 379.422 92.6888 368.307 79.6055 353.701L122.853 316.054C129.633 323.422 138.133 328.998 147.592 332.284C157.051 335.57 167.177 336.463 177.065 334.884C186.954 333.306 196.298 329.304 204.264 323.237C212.23 317.169 218.571 309.224 222.72 300.111C226.87 290.997 228.699 280.998 228.045 271.006C227.391 261.014 224.274 251.338 218.972 242.843C213.67 234.349 206.348 227.298 197.659 222.321C188.97 217.343 179.184 214.594 169.174 214.318V156.979Z" fill="#F24E1E"/>
<mask id="path-7-inside-1_2590_8965" fill="white">
<path d="M77.5312 351.322L121.24 314.229L77.5312 351.322Z"/>
</mask>
<path d="M80.7665 355.134L124.475 318.041L118.004 310.416L74.296 347.51L80.7665 355.134ZM118.004 310.416L74.296 347.51L80.7665 355.134L124.475 318.041L118.004 310.416Z" fill="black" mask="url(#path-7-inside-1_2590_8965)"/>
<path d="M77.3652 351.358L121.118 314.315" stroke="black"/>
<path d="M75.5211 348.888C64.3668 335.009 56.4982 318.785 52.5049 301.433C48.5115 284.08 48.4969 266.049 52.4623 248.69L108.174 262.251C106.312 270.935 106.38 279.921 108.371 288.576C110.363 297.231 114.231 305.343 119.701 312.34L75.5211 348.888Z" fill="black"/>
<path d="M53.2539 245.438C56.7566 231.887 62.6423 219.067 70.6359 207.578L117.234 240.988C113.509 246.498 110.716 252.583 108.965 258.999L53.2539 245.438Z" fill="black"/>
<path d="M72.5859 204.857C82.6453 191.239 95.5173 179.946 110.328 171.743C125.138 163.54 141.541 158.62 158.421 157.317L162.021 214.542C153.625 215.304 145.479 217.807 138.103 221.892C130.727 225.976 124.284 231.554 119.184 238.268L72.5859 204.857Z" fill="black"/>
<path d="M161.762 157.107C163.116 157.041 164.471 156.999 165.827 156.979V214.318C165.672 214.322 165.517 214.327 165.362 214.332L161.762 157.107Z" fill="black"/>
<path d="M200.743 286.038C200.743 284.934 201.638 284.038 202.743 284.038H274.579V305.306H202.743C201.638 305.306 200.743 304.411 200.743 303.306V286.038Z" fill="white" stroke="black" stroke-width="0.5"/>
<path d="M205.082 292.672V287.772H206.881C207.273 287.772 207.595 287.84 207.847 287.975C208.104 288.106 208.295 288.286 208.421 288.514C208.547 288.738 208.61 288.988 208.61 289.263C208.61 289.562 208.531 289.835 208.372 290.082C208.218 290.33 207.975 290.509 207.644 290.621L208.659 292.672H207.63L206.72 290.74H205.978V292.672H205.082ZM205.978 290.082H206.825C207.124 290.082 207.343 290.01 207.483 289.865C207.623 289.721 207.693 289.529 207.693 289.291C207.693 289.058 207.623 288.871 207.483 288.731C207.348 288.591 207.126 288.521 206.818 288.521H205.978V290.082ZM210.143 292.672V287.772H211.039V292.672H210.143ZM214.362 292.756C214.003 292.756 213.685 292.696 213.41 292.574C213.135 292.448 212.918 292.271 212.759 292.042C212.6 291.809 212.519 291.527 212.514 291.195H213.459C213.468 291.424 213.55 291.618 213.704 291.776C213.863 291.93 214.08 292.007 214.355 292.007C214.593 292.007 214.782 291.951 214.922 291.839C215.062 291.723 215.132 291.569 215.132 291.377C215.132 291.177 215.069 291.02 214.943 290.908C214.822 290.796 214.658 290.705 214.453 290.635C214.248 290.565 214.028 290.491 213.795 290.411C213.417 290.281 213.128 290.113 212.927 289.907C212.731 289.702 212.633 289.429 212.633 289.088C212.628 288.799 212.696 288.552 212.836 288.346C212.981 288.136 213.177 287.975 213.424 287.863C213.671 287.747 213.956 287.688 214.278 287.688C214.605 287.688 214.892 287.747 215.139 287.863C215.391 287.98 215.587 288.143 215.727 288.353C215.872 288.563 215.949 288.813 215.958 289.102H214.999C214.994 288.93 214.927 288.778 214.796 288.647C214.67 288.512 214.493 288.444 214.264 288.444C214.068 288.44 213.902 288.489 213.767 288.591C213.636 288.689 213.571 288.834 213.571 289.025C213.571 289.189 213.622 289.319 213.725 289.417C213.828 289.511 213.968 289.59 214.145 289.655C214.322 289.721 214.525 289.791 214.754 289.865C214.997 289.949 215.218 290.047 215.419 290.159C215.62 290.271 215.781 290.421 215.902 290.607C216.023 290.789 216.084 291.025 216.084 291.314C216.084 291.571 216.019 291.809 215.888 292.028C215.757 292.248 215.564 292.425 215.307 292.56C215.05 292.691 214.735 292.756 214.362 292.756ZM219.785 292.756C219.29 292.756 218.865 292.651 218.511 292.441C218.156 292.227 217.883 291.93 217.692 291.552C217.5 291.17 217.405 290.729 217.405 290.229C217.405 289.73 217.5 289.289 217.692 288.906C217.883 288.524 218.156 288.225 218.511 288.01C218.865 287.796 219.29 287.688 219.785 287.688C220.373 287.688 220.853 287.835 221.227 288.129C221.605 288.419 221.84 288.827 221.934 289.354H220.947C220.886 289.088 220.755 288.881 220.555 288.731C220.359 288.577 220.097 288.5 219.771 288.5C219.318 288.5 218.963 288.654 218.707 288.962C218.45 289.27 218.322 289.693 218.322 290.229C218.322 290.766 218.45 291.188 218.707 291.496C218.963 291.8 219.318 291.951 219.771 291.951C220.097 291.951 220.359 291.881 220.555 291.741C220.755 291.597 220.886 291.398 220.947 291.146H221.934C221.84 291.65 221.605 292.045 221.227 292.329C220.853 292.614 220.373 292.756 219.785 292.756ZM223.05 292.672L224.842 287.772H225.85L227.642 292.672H226.69L226.298 291.538H224.387L223.988 292.672H223.05ZM224.632 290.838H226.053L225.339 288.801L224.632 290.838ZM228.974 292.672V287.772H229.87V291.972H232.04V292.672H228.974ZM233.529 292.672V287.772H235.202C235.776 287.772 236.247 287.875 236.616 288.08C236.989 288.281 237.265 288.566 237.442 288.934C237.624 289.298 237.715 289.728 237.715 290.222C237.715 290.717 237.624 291.149 237.442 291.517C237.265 291.881 236.989 292.166 236.616 292.371C236.247 292.572 235.776 292.672 235.202 292.672H233.529ZM234.425 291.902H235.16C235.571 291.902 235.895 291.837 236.133 291.706C236.371 291.571 236.541 291.38 236.644 291.132C236.747 290.88 236.798 290.577 236.798 290.222C236.798 289.872 236.747 289.571 236.644 289.319C236.541 289.067 236.371 288.874 236.133 288.738C235.895 288.603 235.571 288.535 235.16 288.535H234.425V291.902ZM238.576 292.672L240.368 287.772H241.376L243.168 292.672H242.216L241.824 291.538H239.913L239.514 292.672H238.576ZM240.158 290.838H241.579L240.865 288.801L240.158 290.838ZM244.499 292.672V287.772H245.563L247.124 290.88L248.664 287.772H249.728V292.672H248.832V289.291L247.467 291.972H246.76L245.395 289.291V292.672H244.499ZM251.379 292.672V287.772H254.578V288.493H252.275V289.837H254.368V290.537H252.275V291.951H254.578V292.672H251.379ZM256.126 292.672V287.772H257.022L259.325 291.223V287.772H260.221V292.672H259.325L257.022 289.228V292.672H256.126ZM263.012 292.672V288.493H261.584V287.772H265.343V288.493H263.908V292.672H263.012ZM268.825 292.756C268.335 292.756 267.906 292.649 267.537 292.434C267.173 292.22 266.886 291.923 266.676 291.545C266.471 291.163 266.368 290.722 266.368 290.222C266.368 289.723 266.471 289.284 266.676 288.906C266.886 288.524 267.173 288.225 267.537 288.01C267.906 287.796 268.335 287.688 268.825 287.688C269.31 287.688 269.737 287.796 270.106 288.01C270.475 288.225 270.762 288.524 270.967 288.906C271.172 289.284 271.275 289.723 271.275 290.222C271.275 290.722 271.172 291.163 270.967 291.545C270.762 291.923 270.475 292.22 270.106 292.434C269.737 292.649 269.31 292.756 268.825 292.756ZM268.825 291.951C269.292 291.951 269.663 291.797 269.938 291.489C270.218 291.181 270.358 290.759 270.358 290.222C270.358 289.686 270.218 289.263 269.938 288.955C269.663 288.647 269.292 288.493 268.825 288.493C268.358 288.493 267.985 288.647 267.705 288.955C267.425 289.263 267.285 289.686 267.285 290.222C267.285 290.759 267.425 291.181 267.705 291.489C267.985 291.797 268.358 291.951 268.825 291.951ZM205.082 301.672V296.772H205.978V301.672H205.082ZM207.628 301.672V296.772H208.524L210.827 300.223V296.772H211.723V301.672H210.827L208.524 298.228V301.672H207.628ZM214.794 301.672L213.002 296.772H213.961L215.347 300.755L216.74 296.772H217.685L215.893 301.672H214.794ZM218.967 301.672V296.772H222.166V297.493H219.863V298.837H221.956V299.537H219.863V300.951H222.166V301.672H218.967ZM223.714 301.672V296.772H225.513C225.905 296.772 226.227 296.84 226.479 296.975C226.736 297.106 226.927 297.286 227.053 297.514C227.179 297.738 227.242 297.988 227.242 298.263C227.242 298.562 227.163 298.835 227.004 299.082C226.85 299.33 226.607 299.509 226.276 299.621L227.291 301.672H226.262L225.352 299.74H224.61V301.672H223.714ZM224.61 299.082H225.457C225.756 299.082 225.975 299.01 226.115 298.865C226.255 298.721 226.325 298.529 226.325 298.291C226.325 298.058 226.255 297.871 226.115 297.731C225.98 297.591 225.758 297.521 225.45 297.521H224.61V299.082ZM228.775 301.672V296.772H229.671L231.974 300.223V296.772H232.87V301.672H231.974L229.671 298.228V301.672H228.775ZM234.205 301.672L235.997 296.772H237.005L238.797 301.672H237.845L237.453 300.538H235.542L235.143 301.672H234.205ZM235.787 299.838H237.208L236.494 297.801L235.787 299.838ZM240.128 301.672V296.772H241.024V300.972H243.194V301.672H240.128ZM244.684 301.672V296.772H247.883V297.493H245.58V298.837H247.673V299.537H245.58V300.951H247.883V301.672H244.684Z" fill="black"/>
<path d="M274.579 284.038H306.954C308.059 284.038 308.954 284.934 308.954 286.038V303.306C308.954 304.411 308.059 305.306 306.954 305.306H274.579V284.038Z" fill="#F24E1E" stroke="black" stroke-width="0.5"/>
<path d="M280.086 298.292C279.56 298.292 279.116 298.196 278.756 298.002C278.396 297.809 278.106 297.549 277.886 297.222C277.666 296.896 277.506 296.532 277.406 296.132C277.313 295.732 277.266 295.322 277.266 294.902C277.266 294.122 277.376 293.446 277.596 292.872C277.816 292.292 278.133 291.846 278.546 291.532C278.96 291.212 279.46 291.052 280.046 291.052C280.526 291.052 280.933 291.149 281.266 291.342C281.606 291.529 281.87 291.776 282.056 292.082C282.243 292.389 282.353 292.719 282.386 293.072H281.196C281.136 292.766 281.006 292.529 280.806 292.362C280.606 292.196 280.35 292.112 280.036 292.112C279.59 292.112 279.23 292.319 278.956 292.732C278.683 293.139 278.536 293.762 278.516 294.602C278.676 294.329 278.916 294.102 279.236 293.922C279.556 293.742 279.913 293.652 280.306 293.652C280.693 293.652 281.056 293.746 281.396 293.932C281.736 294.119 282.01 294.382 282.216 294.722C282.43 295.062 282.536 295.462 282.536 295.922C282.536 296.342 282.433 296.732 282.226 297.092C282.026 297.452 281.74 297.742 281.366 297.962C281 298.182 280.573 298.292 280.086 298.292ZM280.016 297.192C280.39 297.192 280.696 297.079 280.936 296.852C281.183 296.619 281.306 296.326 281.306 295.972C281.306 295.599 281.183 295.299 280.936 295.072C280.69 294.846 280.376 294.732 279.996 294.732C279.75 294.732 279.526 294.789 279.326 294.902C279.133 295.009 278.98 295.156 278.866 295.342C278.753 295.522 278.696 295.726 278.696 295.952C278.696 296.312 278.82 296.609 279.066 296.842C279.32 297.076 279.636 297.192 280.016 297.192ZM286.084 298.292C285.624 298.292 285.207 298.212 284.834 298.052C284.461 297.886 284.161 297.632 283.934 297.292C283.707 296.952 283.587 296.526 283.574 296.012H284.834C284.841 296.352 284.951 296.639 285.164 296.872C285.384 297.099 285.691 297.212 286.084 297.212C286.457 297.212 286.744 297.109 286.944 296.902C287.144 296.696 287.244 296.436 287.244 296.122C287.244 295.756 287.111 295.479 286.844 295.292C286.584 295.099 286.247 295.002 285.834 295.002H285.314V293.952H285.844C286.184 293.952 286.467 293.872 286.694 293.712C286.921 293.552 287.034 293.316 287.034 293.002C287.034 292.742 286.947 292.536 286.774 292.382C286.607 292.222 286.374 292.142 286.074 292.142C285.747 292.142 285.491 292.239 285.304 292.432C285.124 292.626 285.024 292.862 285.004 293.142H283.754C283.781 292.496 284.004 291.986 284.424 291.612C284.851 291.239 285.401 291.052 286.074 291.052C286.554 291.052 286.957 291.139 287.284 291.312C287.617 291.479 287.867 291.702 288.034 291.982C288.207 292.262 288.294 292.572 288.294 292.912C288.294 293.306 288.184 293.639 287.964 293.912C287.751 294.179 287.484 294.359 287.164 294.452C287.557 294.532 287.877 294.726 288.124 295.032C288.371 295.332 288.494 295.712 288.494 296.172C288.494 296.559 288.401 296.912 288.214 297.232C288.027 297.552 287.754 297.809 287.394 298.002C287.041 298.196 286.604 298.292 286.084 298.292ZM289.211 299.332L289.781 296.842H291.021L290.051 299.332H289.211ZM294.696 298.292C294.169 298.292 293.726 298.196 293.366 298.002C293.006 297.809 292.716 297.549 292.496 297.222C292.276 296.896 292.116 296.532 292.016 296.132C291.922 295.732 291.876 295.322 291.876 294.902C291.876 294.122 291.986 293.446 292.206 292.872C292.426 292.292 292.742 291.846 293.156 291.532C293.569 291.212 294.069 291.052 294.656 291.052C295.136 291.052 295.542 291.149 295.876 291.342C296.216 291.529 296.479 291.776 296.666 292.082C296.852 292.389 296.962 292.719 296.996 293.072H295.806C295.746 292.766 295.616 292.529 295.416 292.362C295.216 292.196 294.959 292.112 294.646 292.112C294.199 292.112 293.839 292.319 293.566 292.732C293.292 293.139 293.146 293.762 293.126 294.602C293.286 294.329 293.526 294.102 293.846 293.922C294.166 293.742 294.522 293.652 294.916 293.652C295.302 293.652 295.666 293.746 296.006 293.932C296.346 294.119 296.619 294.382 296.826 294.722C297.039 295.062 297.146 295.462 297.146 295.922C297.146 296.342 297.042 296.732 296.836 297.092C296.636 297.452 296.349 297.742 295.976 297.962C295.609 298.182 295.182 298.292 294.696 298.292ZM294.626 297.192C294.999 297.192 295.306 297.079 295.546 296.852C295.792 296.619 295.916 296.326 295.916 295.972C295.916 295.599 295.792 295.299 295.546 295.072C295.299 294.846 294.986 294.732 294.606 294.732C294.359 294.732 294.136 294.789 293.936 294.902C293.742 295.009 293.589 295.156 293.476 295.342C293.362 295.522 293.306 295.726 293.306 295.952C293.306 296.312 293.429 296.609 293.676 296.842C293.929 297.076 294.246 297.192 294.626 297.192ZM299.756 294.612C299.436 294.612 299.146 294.542 298.886 294.402C298.626 294.256 298.419 294.049 298.266 293.782C298.112 293.516 298.036 293.199 298.036 292.832C298.036 292.466 298.112 292.149 298.266 291.882C298.419 291.616 298.626 291.412 298.886 291.272C299.146 291.126 299.439 291.052 299.766 291.052C300.086 291.052 300.372 291.126 300.626 291.272C300.886 291.412 301.092 291.616 301.246 291.882C301.399 292.149 301.476 292.466 301.476 292.832C301.476 293.199 301.399 293.516 301.246 293.782C301.092 294.049 300.886 294.256 300.626 294.402C300.366 294.542 300.076 294.612 299.756 294.612ZM299.376 298.172L303.326 291.172H304.576L300.626 298.172H299.376ZM299.756 293.722C299.949 293.722 300.116 293.649 300.256 293.502C300.396 293.349 300.466 293.126 300.466 292.832C300.466 292.539 300.396 292.316 300.256 292.162C300.122 292.009 299.956 291.932 299.756 291.932C299.556 291.932 299.386 292.009 299.246 292.162C299.112 292.316 299.046 292.539 299.046 292.832C299.046 293.126 299.112 293.349 299.246 293.502C299.386 293.649 299.556 293.722 299.756 293.722ZM304.236 298.292C303.916 298.292 303.626 298.222 303.366 298.082C303.106 297.936 302.899 297.729 302.746 297.462C302.592 297.196 302.516 296.879 302.516 296.512C302.516 296.146 302.592 295.832 302.746 295.572C302.899 295.306 303.106 295.102 303.366 294.962C303.626 294.816 303.919 294.742 304.246 294.742C304.566 294.742 304.852 294.816 305.106 294.962C305.366 295.102 305.572 295.306 305.726 295.572C305.879 295.832 305.956 296.146 305.956 296.512C305.956 296.879 305.879 297.196 305.726 297.462C305.572 297.729 305.366 297.936 305.106 298.082C304.852 298.222 304.562 298.292 304.236 298.292ZM304.236 297.402C304.436 297.402 304.602 297.329 304.736 297.182C304.876 297.029 304.946 296.806 304.946 296.512C304.946 296.219 304.876 295.996 304.736 295.842C304.602 295.689 304.436 295.612 304.236 295.612C304.036 295.612 303.866 295.689 303.726 295.842C303.592 295.996 303.526 296.219 303.526 296.512C303.526 296.806 303.592 297.029 303.726 297.182C303.866 297.329 304.036 297.402 304.236 297.402Z" fill="white"/>
<path d="M41.249 425.004C41.249 423.899 42.1445 423.004 43.249 423.004H122.859V444.272H43.249C42.1445 444.272 41.249 443.377 41.249 442.272V425.004Z" fill="white" stroke="black" stroke-width="0.5"/>
<path d="M45.5883 431.638V426.738H47.3873C47.7793 426.738 48.1013 426.806 48.3533 426.941C48.61 427.072 48.8013 427.252 48.9273 427.48C49.0533 427.704 49.1163 427.954 49.1163 428.229C49.1163 428.528 49.037 428.801 48.8783 429.048C48.7243 429.296 48.4816 429.475 48.1503 429.587L49.1653 431.638H48.1363L47.2263 429.706H46.4843V431.638H45.5883ZM46.4843 429.048H47.3313C47.63 429.048 47.8493 428.976 47.9893 428.831C48.1293 428.687 48.1993 428.495 48.1993 428.257C48.1993 428.024 48.1293 427.837 47.9893 427.697C47.854 427.557 47.6323 427.487 47.3243 427.487H46.4843V429.048ZM50.3346 431.638L52.1266 426.738H53.1346L54.9266 431.638H53.9746L53.5826 430.504H51.6716L51.2726 431.638H50.3346ZM51.9166 429.804H53.3376L52.6236 427.767L51.9166 429.804ZM56.2578 431.638V426.738H59.4218V427.459H57.1538V428.831H58.9878V429.538H57.1538V431.638H56.2578ZM60.8133 431.638V426.738H63.9773V427.459H61.7093V428.831H63.5433V429.538H61.7093V431.638H60.8133ZM65.3688 431.638V426.738H67.1678C67.5598 426.738 67.8818 426.806 68.1338 426.941C68.3904 427.072 68.5818 427.252 68.7078 427.48C68.8338 427.704 68.8968 427.954 68.8968 428.229C68.8968 428.528 68.8174 428.801 68.6588 429.048C68.5048 429.296 68.2621 429.475 67.9308 429.587L68.9458 431.638H67.9168L67.0068 429.706H66.2648V431.638H65.3688ZM66.2648 429.048H67.1118C67.4104 429.048 67.6298 428.976 67.7698 428.831C67.9098 428.687 67.9798 428.495 67.9798 428.257C67.9798 428.024 67.9098 427.837 67.7698 427.697C67.6344 427.557 67.4128 427.487 67.1048 427.487H66.2648V429.048ZM70.4301 431.638V426.738H73.6291V427.459H71.3261V428.803H73.4191V429.503H71.3261V430.917H73.6291V431.638H70.4301ZM76.85 431.722C76.4906 431.722 76.1733 431.662 75.898 431.54C75.6226 431.414 75.4056 431.237 75.247 431.008C75.0883 430.775 75.0066 430.493 75.002 430.161H75.947C75.9563 430.39 76.038 430.584 76.192 430.742C76.3506 430.896 76.5676 430.973 76.843 430.973C77.081 430.973 77.27 430.917 77.41 430.805C77.55 430.689 77.62 430.535 77.62 430.343C77.62 430.143 77.557 429.986 77.431 429.874C77.3096 429.762 77.1463 429.671 76.941 429.601C76.7356 429.531 76.5163 429.457 76.283 429.377C75.905 429.247 75.6156 429.079 75.415 428.873C75.219 428.668 75.121 428.395 75.121 428.054C75.1163 427.765 75.184 427.518 75.324 427.312C75.4686 427.102 75.6646 426.941 75.912 426.829C76.1593 426.713 76.444 426.654 76.766 426.654C77.0926 426.654 77.3796 426.713 77.627 426.829C77.879 426.946 78.075 427.109 78.215 427.319C78.3596 427.529 78.4366 427.779 78.446 428.068H77.487C77.4823 427.896 77.4146 427.744 77.284 427.613C77.158 427.478 76.9806 427.41 76.752 427.41C76.556 427.406 76.3903 427.455 76.255 427.557C76.1243 427.655 76.059 427.8 76.059 427.991C76.059 428.155 76.1103 428.285 76.213 428.383C76.3156 428.477 76.4556 428.556 76.633 428.621C76.8103 428.687 77.0133 428.757 77.242 428.831C77.4846 428.915 77.7063 429.013 77.907 429.125C78.1076 429.237 78.2686 429.387 78.39 429.573C78.5113 429.755 78.572 429.991 78.572 430.28C78.572 430.537 78.5066 430.775 78.376 430.994C78.2453 431.214 78.0516 431.391 77.795 431.526C77.5383 431.657 77.2233 431.722 76.85 431.722ZM82.2727 431.722C81.7781 431.722 81.3534 431.617 80.9987 431.407C80.6441 431.193 80.3711 430.896 80.1797 430.518C79.9884 430.136 79.8927 429.695 79.8927 429.195C79.8927 428.696 79.9884 428.255 80.1797 427.872C80.3711 427.49 80.6441 427.191 80.9987 426.976C81.3534 426.762 81.7781 426.654 82.2727 426.654C82.8607 426.654 83.3414 426.801 83.7147 427.095C84.0927 427.385 84.3284 427.793 84.4217 428.32H83.4347C83.3741 428.054 83.2434 427.847 83.0427 427.697C82.8467 427.543 82.5854 427.466 82.2587 427.466C81.8061 427.466 81.4514 427.62 81.1947 427.928C80.9381 428.236 80.8097 428.659 80.8097 429.195C80.8097 429.732 80.9381 430.154 81.1947 430.462C81.4514 430.766 81.8061 430.917 82.2587 430.917C82.5854 430.917 82.8467 430.847 83.0427 430.707C83.2434 430.563 83.3741 430.364 83.4347 430.112H84.4217C84.3284 430.616 84.0927 431.011 83.7147 431.295C83.3414 431.58 82.8607 431.722 82.2727 431.722ZM85.5383 431.638L87.3303 426.738H88.3383L90.1303 431.638H89.1783L88.7863 430.504H86.8753L86.4763 431.638H85.5383ZM87.1203 429.804H88.5413L87.8273 427.767L87.1203 429.804ZM91.4615 431.638V426.738H92.5255L94.0865 429.846L95.6265 426.738H96.6905V431.638H95.7945V428.257L94.4295 430.938H93.7225L92.3575 428.257V431.638H91.4615ZM98.3412 431.638V426.738H101.54V427.459H99.2372V428.803H101.33V429.503H99.2372V430.917H101.54V431.638H98.3412ZM103.088 431.638V426.738H103.984L106.287 430.189V426.738H107.183V431.638H106.287L103.984 428.194V431.638H103.088ZM109.974 431.638V427.459H108.546V426.738H112.305V427.459H110.87V431.638H109.974ZM115.787 431.722C115.297 431.722 114.868 431.615 114.499 431.4C114.135 431.186 113.848 430.889 113.638 430.511C113.433 430.129 113.33 429.688 113.33 429.188C113.33 428.689 113.433 428.25 113.638 427.872C113.848 427.49 114.135 427.191 114.499 426.976C114.868 426.762 115.297 426.654 115.787 426.654C116.272 426.654 116.699 426.762 117.068 426.976C117.437 427.191 117.724 427.49 117.929 427.872C118.134 428.25 118.237 428.689 118.237 429.188C118.237 429.688 118.134 430.129 117.929 430.511C117.724 430.889 117.437 431.186 117.068 431.4C116.699 431.615 116.272 431.722 115.787 431.722ZM115.787 430.917C116.254 430.917 116.625 430.763 116.9 430.455C117.18 430.147 117.32 429.725 117.32 429.188C117.32 428.652 117.18 428.229 116.9 427.921C116.625 427.613 116.254 427.459 115.787 427.459C115.32 427.459 114.947 427.613 114.667 427.921C114.387 428.229 114.247 428.652 114.247 429.188C114.247 429.725 114.387 430.147 114.667 430.455C114.947 430.763 115.32 430.917 115.787 430.917ZM45.5883 440.638V435.738H48.7873V436.459H46.4843V437.803H48.5773V438.503H46.4843V439.917H48.7873V440.638H45.5883ZM52.0082 440.722C51.6488 440.722 51.3315 440.662 51.0562 440.54C50.7808 440.414 50.5638 440.237 50.4052 440.008C50.2465 439.775 50.1648 439.493 50.1602 439.161H51.1052C51.1145 439.39 51.1962 439.584 51.3502 439.742C51.5088 439.896 51.7258 439.973 52.0012 439.973C52.2392 439.973 52.4282 439.917 52.5682 439.805C52.7082 439.689 52.7782 439.535 52.7782 439.343C52.7782 439.143 52.7152 438.986 52.5892 438.874C52.4678 438.762 52.3045 438.671 52.0992 438.601C51.8938 438.531 51.6745 438.457 51.4412 438.377C51.0632 438.247 50.7738 438.079 50.5732 437.873C50.3772 437.668 50.2792 437.395 50.2792 437.054C50.2745 436.765 50.3422 436.518 50.4822 436.312C50.6268 436.102 50.8228 435.941 51.0702 435.829C51.3175 435.713 51.6022 435.654 51.9242 435.654C52.2508 435.654 52.5378 435.713 52.7852 435.829C53.0372 435.946 53.2332 436.109 53.3732 436.319C53.5178 436.529 53.5948 436.779 53.6042 437.068H52.6452C52.6405 436.896 52.5728 436.744 52.4422 436.613C52.3162 436.478 52.1388 436.41 51.9102 436.41C51.7142 436.406 51.5485 436.455 51.4132 436.557C51.2825 436.655 51.2172 436.8 51.2172 436.991C51.2172 437.155 51.2685 437.285 51.3712 437.383C51.4738 437.477 51.6138 437.556 51.7912 437.621C51.9685 437.687 52.1715 437.757 52.4002 437.831C52.6428 437.915 52.8645 438.013 53.0652 438.125C53.2658 438.237 53.4268 438.387 53.5482 438.573C53.6695 438.755 53.7302 438.991 53.7302 439.28C53.7302 439.537 53.6648 439.775 53.5342 439.994C53.4035 440.214 53.2098 440.391 52.9532 440.526C52.6965 440.657 52.3815 440.722 52.0082 440.722ZM56.2914 440.638V436.459H54.8634V435.738H58.6224V436.459H57.1874V440.638H56.2914ZM59.9862 440.638V435.738H60.8822V440.638H59.9862ZM63.9529 440.638L62.1609 435.738H63.1199L64.5059 439.721L65.8989 435.738H66.8439L65.0519 440.638H63.9529ZM70.2583 440.722C69.7683 440.722 69.339 440.615 68.9703 440.4C68.6063 440.186 68.3193 439.889 68.1093 439.511C67.904 439.129 67.8013 438.688 67.8013 438.188C67.8013 437.689 67.904 437.25 68.1093 436.872C68.3193 436.49 68.6063 436.191 68.9703 435.976C69.339 435.762 69.7683 435.654 70.2583 435.654C70.7437 435.654 71.1707 435.762 71.5393 435.976C71.908 436.191 72.195 436.49 72.4003 436.872C72.6057 437.25 72.7083 437.689 72.7083 438.188C72.7083 438.688 72.6057 439.129 72.4003 439.511C72.195 439.889 71.908 440.186 71.5393 440.4C71.1707 440.615 70.7437 440.722 70.2583 440.722ZM70.2583 439.917C70.725 439.917 71.096 439.763 71.3713 439.455C71.6513 439.147 71.7913 438.725 71.7913 438.188C71.7913 437.652 71.6513 437.229 71.3713 436.921C71.096 436.613 70.725 436.459 70.2583 436.459C69.7917 436.459 69.4183 436.613 69.1383 436.921C68.8583 437.229 68.7183 437.652 68.7183 438.188C68.7183 438.725 68.8583 439.147 69.1383 439.455C69.4183 439.763 69.7917 439.917 70.2583 439.917Z" fill="black"/>
<path d="M122.858 423.004H155.234C156.339 423.004 157.234 423.899 157.234 425.004V442.272C157.234 443.377 156.339 444.272 155.234 444.272H122.858V423.004Z" fill="#F24E1E" stroke="black" stroke-width="0.5"/>
<path d="M131.36 437.258C130.713 437.258 130.16 437.108 129.7 436.808C129.24 436.502 128.883 436.078 128.63 435.538C128.383 434.992 128.26 434.358 128.26 433.638C128.26 432.925 128.383 432.295 128.63 431.748C128.883 431.202 129.24 430.778 129.7 430.478C130.16 430.172 130.713 430.018 131.36 430.018C132.007 430.018 132.56 430.172 133.02 430.478C133.48 430.778 133.833 431.202 134.08 431.748C134.333 432.295 134.46 432.925 134.46 433.638C134.46 434.358 134.333 434.992 134.08 435.538C133.833 436.078 133.48 436.502 133.02 436.808C132.56 437.108 132.007 437.258 131.36 437.258ZM131.36 436.108C131.887 436.108 132.317 435.888 132.65 435.448C132.983 435.008 133.15 434.405 133.15 433.638C133.15 432.872 132.983 432.268 132.65 431.828C132.317 431.388 131.887 431.168 131.36 431.168C130.827 431.168 130.393 431.388 130.06 431.828C129.733 432.268 129.57 432.872 129.57 433.638C129.57 434.405 129.733 435.008 130.06 435.448C130.393 435.888 130.827 436.108 131.36 436.108ZM134.747 438.298L135.317 435.808H136.557L135.587 438.298H134.747ZM140.801 437.138V435.838H137.351V434.818L140.631 430.138H142.081V434.728H143.001V435.838H142.081V437.138H140.801ZM138.721 434.728H140.881V431.548L138.721 434.728ZM145.281 433.578C144.961 433.578 144.671 433.508 144.411 433.368C144.151 433.222 143.945 433.015 143.791 432.748C143.638 432.482 143.561 432.165 143.561 431.798C143.561 431.432 143.638 431.115 143.791 430.848C143.945 430.582 144.151 430.378 144.411 430.238C144.671 430.092 144.965 430.018 145.291 430.018C145.611 430.018 145.898 430.092 146.151 430.238C146.411 430.378 146.618 430.582 146.771 430.848C146.925 431.115 147.001 431.432 147.001 431.798C147.001 432.165 146.925 432.482 146.771 432.748C146.618 433.015 146.411 433.222 146.151 433.368C145.891 433.508 145.601 433.578 145.281 433.578ZM144.901 437.138L148.851 430.138H150.101L146.151 437.138H144.901ZM145.281 432.688C145.475 432.688 145.641 432.615 145.781 432.468C145.921 432.315 145.991 432.092 145.991 431.798C145.991 431.505 145.921 431.282 145.781 431.128C145.648 430.975 145.481 430.898 145.281 430.898C145.081 430.898 144.911 430.975 144.771 431.128C144.638 431.282 144.571 431.505 144.571 431.798C144.571 432.092 144.638 432.315 144.771 432.468C144.911 432.615 145.081 432.688 145.281 432.688ZM149.761 437.258C149.441 437.258 149.151 437.188 148.891 437.048C148.631 436.902 148.425 436.695 148.271 436.428C148.118 436.162 148.041 435.845 148.041 435.478C148.041 435.112 148.118 434.798 148.271 434.538C148.425 434.272 148.631 434.068 148.891 433.928C149.151 433.782 149.445 433.708 149.771 433.708C150.091 433.708 150.378 433.782 150.631 433.928C150.891 434.068 151.098 434.272 151.251 434.538C151.405 434.798 151.481 435.112 151.481 435.478C151.481 435.845 151.405 436.162 151.251 436.428C151.098 436.695 150.891 436.902 150.631 437.048C150.378 437.188 150.088 437.258 149.761 437.258ZM149.761 436.368C149.961 436.368 150.128 436.295 150.261 436.148C150.401 435.995 150.471 435.772 150.471 435.478C150.471 435.185 150.401 434.962 150.261 434.808C150.128 434.655 149.961 434.578 149.761 434.578C149.561 434.578 149.391 434.655 149.251 434.808C149.118 434.962 149.051 435.185 149.051 435.478C149.051 435.772 149.118 435.995 149.251 436.148C149.391 436.295 149.561 436.368 149.761 436.368Z" fill="white"/>
<path d="M23.8066 97.5796C23.8066 96.475 24.7021 95.5796 25.8066 95.5796H90.8409V116.848H25.8066C24.7021 116.848 23.8066 115.952 23.8066 114.848V97.5796Z" fill="white" stroke="black" stroke-width="0.5"/>
<path d="M27.8309 104.214L29.6229 99.3139H30.6309L32.4229 104.214H31.4709L31.0789 103.08H29.1679L28.7689 104.214H27.8309ZM29.4129 102.38H30.8339L30.1199 100.343L29.4129 102.38ZM35.6929 104.298C35.1982 104.298 34.7735 104.193 34.4189 103.983C34.0642 103.768 33.7912 103.472 33.5999 103.094C33.4085 102.711 33.3129 102.27 33.3129 101.771C33.3129 101.272 33.4085 100.831 33.5999 100.448C33.7912 100.065 34.0642 99.7665 34.4189 99.5519C34.7735 99.3372 35.1982 99.2299 35.6929 99.2299C36.2809 99.2299 36.7615 99.3769 37.1349 99.6709C37.5129 99.9602 37.7485 100.369 37.8419 100.896H36.8549C36.7942 100.63 36.6635 100.422 36.4629 100.273C36.2669 100.119 36.0055 100.042 35.6789 100.042C35.2262 100.042 34.8715 100.196 34.6149 100.504C34.3582 100.812 34.2299 101.234 34.2299 101.771C34.2299 102.308 34.3582 102.73 34.6149 103.038C34.8715 103.341 35.2262 103.493 35.6789 103.493C36.0055 103.493 36.2669 103.423 36.4629 103.283C36.6635 103.138 36.7942 102.94 36.8549 102.688H37.8419C37.7485 103.192 37.5129 103.586 37.1349 103.871C36.7615 104.156 36.2809 104.298 35.6929 104.298ZM41.631 104.298C41.141 104.298 40.7117 104.191 40.343 103.976C39.979 103.761 39.692 103.465 39.482 103.087C39.2767 102.704 39.174 102.263 39.174 101.764C39.174 101.265 39.2767 100.826 39.482 100.448C39.692 100.065 39.979 99.7665 40.343 99.5519C40.7117 99.3372 41.141 99.2299 41.631 99.2299C42.1163 99.2299 42.5433 99.3372 42.912 99.5519C43.2807 99.7665 43.5677 100.065 43.773 100.448C43.9783 100.826 44.081 101.265 44.081 101.764C44.081 102.231 43.99 102.648 43.808 103.017C43.626 103.381 43.374 103.67 43.052 103.885L44.186 105.103H43.073L42.303 104.221C42.0883 104.272 41.8643 104.298 41.631 104.298ZM41.631 103.493C42.0977 103.493 42.4687 103.339 42.744 103.031C43.024 102.723 43.164 102.301 43.164 101.764C43.164 101.227 43.024 100.805 42.744 100.497C42.4687 100.189 42.0977 100.035 41.631 100.035C41.1643 100.035 40.791 100.189 40.511 100.497C40.231 100.805 40.091 101.227 40.091 101.764C40.091 102.301 40.231 102.723 40.511 103.031C40.791 103.339 41.1643 103.493 41.631 103.493ZM47.4416 104.298C47.0823 104.298 46.7579 104.228 46.4686 104.088C46.1793 103.943 45.9483 103.726 45.7756 103.437C45.6076 103.148 45.5236 102.781 45.5236 102.338V99.3139H46.4196V102.345C46.4196 102.728 46.5106 103.012 46.6926 103.199C46.8793 103.386 47.1359 103.479 47.4626 103.479C47.7846 103.479 48.0389 103.386 48.2256 103.199C48.4123 103.012 48.5056 102.728 48.5056 102.345V99.3139H49.4016V102.338C49.4016 102.781 49.3129 103.148 49.1356 103.437C48.9583 103.726 48.7203 103.943 48.4216 104.088C48.1276 104.228 47.8009 104.298 47.4416 104.298ZM50.4893 104.214L52.2813 99.3139H53.2893L55.0813 104.214H54.1293L53.7373 103.08H51.8263L51.4273 104.214H50.4893ZM52.0713 102.38H53.4923L52.7783 100.343L52.0713 102.38ZM60.9995 104.298C60.5048 104.298 60.0802 104.193 59.7255 103.983C59.3708 103.768 59.0978 103.472 58.9065 103.094C58.7152 102.711 58.6195 102.27 58.6195 101.771C58.6195 101.272 58.7152 100.831 58.9065 100.448C59.0978 100.065 59.3708 99.7665 59.7255 99.5519C60.0802 99.3372 60.5048 99.2299 60.9995 99.2299C61.5875 99.2299 62.0682 99.3769 62.4415 99.6709C62.8195 99.9602 63.0552 100.369 63.1485 100.896H62.1615C62.1008 100.63 61.9702 100.422 61.7695 100.273C61.5735 100.119 61.3122 100.042 60.9855 100.042C60.5328 100.042 60.1782 100.196 59.9215 100.504C59.6648 100.812 59.5365 101.234 59.5365 101.771C59.5365 102.308 59.6648 102.73 59.9215 103.038C60.1782 103.341 60.5328 103.493 60.9855 103.493C61.3122 103.493 61.5735 103.423 61.7695 103.283C61.9702 103.138 62.1008 102.94 62.1615 102.688H63.1485C63.0552 103.192 62.8195 103.586 62.4415 103.871C62.0682 104.156 61.5875 104.298 60.9995 104.298ZM64.2651 104.214L66.0571 99.3139H67.0651L68.8571 104.214H67.9051L67.5131 103.08H65.6021L65.2031 104.214H64.2651ZM65.8471 102.38H67.2681L66.5541 100.343L65.8471 102.38ZM70.1883 104.214V99.3139H71.0843V103.514H73.2543V104.214H70.1883ZM74.7438 104.214V99.3139H76.4168C76.9908 99.3139 77.4621 99.4165 77.8308 99.6219C78.2041 99.8225 78.4794 100.107 78.6568 100.476C78.8388 100.84 78.9298 101.269 78.9298 101.764C78.9298 102.259 78.8388 102.69 78.6568 103.059C78.4794 103.423 78.2041 103.708 77.8308 103.913C77.4621 104.114 76.9908 104.214 76.4168 104.214H74.7438ZM75.6398 103.444H76.3748C76.7854 103.444 77.1098 103.379 77.3478 103.248C77.5858 103.113 77.7561 102.921 77.8588 102.674C77.9614 102.422 78.0128 102.119 78.0128 101.764C78.0128 101.414 77.9614 101.113 77.8588 100.861C77.7561 100.609 77.5858 100.415 77.3478 100.28C77.1098 100.145 76.7854 100.077 76.3748 100.077H75.6398V103.444ZM79.7909 104.214L81.5829 99.3139H82.5909L84.3829 104.214H83.4309L83.0389 103.08H81.1279L80.7289 104.214H79.7909ZM81.3729 102.38H82.7939L82.0799 100.343L81.3729 102.38ZM29.8189 113.298C29.4596 113.298 29.1423 113.237 28.8669 113.116C28.5916 112.99 28.3746 112.813 28.2159 112.584C28.0573 112.351 27.9756 112.068 27.9709 111.737H28.9159C28.9253 111.966 29.0069 112.159 29.1609 112.318C29.3196 112.472 29.5366 112.549 29.8119 112.549C30.0499 112.549 30.2389 112.493 30.3789 112.381C30.5189 112.264 30.5889 112.11 30.5889 111.919C30.5889 111.718 30.5259 111.562 30.3999 111.45C30.2786 111.338 30.1153 111.247 29.9099 111.177C29.7046 111.107 29.4853 111.032 29.2519 110.953C28.8739 110.822 28.5846 110.654 28.3839 110.449C28.1879 110.244 28.0899 109.971 28.0899 109.63C28.0853 109.341 28.1529 109.093 28.2929 108.888C28.4376 108.678 28.6336 108.517 28.8809 108.405C29.1283 108.288 29.4129 108.23 29.7349 108.23C30.0616 108.23 30.3486 108.288 30.5959 108.405C30.8479 108.522 31.0439 108.685 31.1839 108.895C31.3286 109.105 31.4056 109.355 31.4149 109.644H30.4559C30.4513 109.471 30.3836 109.32 30.2529 109.189C30.1269 109.054 29.9496 108.986 29.7209 108.986C29.5249 108.981 29.3593 109.03 29.2239 109.133C29.0933 109.231 29.0279 109.376 29.0279 109.567C29.0279 109.73 29.0793 109.861 29.1819 109.959C29.2846 110.052 29.4246 110.132 29.6019 110.197C29.7793 110.262 29.9823 110.332 30.2109 110.407C30.4536 110.491 30.6753 110.589 30.8759 110.701C31.0766 110.813 31.2376 110.962 31.3589 111.149C31.4803 111.331 31.5409 111.567 31.5409 111.856C31.5409 112.113 31.4756 112.351 31.3449 112.57C31.2143 112.789 31.0206 112.967 30.7639 113.102C30.5073 113.233 30.1923 113.298 29.8189 113.298ZM32.7077 113.214L34.4997 108.314H35.5077L37.2997 113.214H36.3477L35.9557 112.08H34.0447L33.6457 113.214H32.7077ZM34.2897 111.38H35.7107L34.9967 109.343L34.2897 111.38ZM38.6309 113.214V108.314H39.5269L41.8299 111.765V108.314H42.7259V113.214H41.8299L39.5269 109.77V113.214H38.6309ZM44.3758 113.214V108.314H45.2718V113.214H44.3758ZM48.0625 113.214V109.035H46.6345V108.314H50.3935V109.035H48.9585V113.214H48.0625ZM50.9227 113.214L52.7147 108.314H53.7227L55.5147 113.214H54.5627L54.1707 112.08H52.2597L51.8607 113.214H50.9227ZM52.5047 111.38H53.9257L53.2117 109.343L52.5047 111.38ZM56.8459 113.214V108.314H58.6449C59.0369 108.314 59.3589 108.382 59.6109 108.517C59.8676 108.648 60.0589 108.827 60.1849 109.056C60.3109 109.28 60.3739 109.53 60.3739 109.805C60.3739 110.104 60.2946 110.377 60.1359 110.624C59.9819 110.871 59.7393 111.051 59.4079 111.163L60.4229 113.214H59.3939L58.4839 111.282H57.7419V113.214H56.8459ZM57.7419 110.624H58.5889C58.8876 110.624 59.1069 110.552 59.2469 110.407C59.3869 110.262 59.4569 110.071 59.4569 109.833C59.4569 109.6 59.3869 109.413 59.2469 109.273C59.1116 109.133 58.8899 109.063 58.5819 109.063H57.7419V110.624ZM61.9073 113.214V108.314H62.8033V113.214H61.9073ZM64.138 113.214L65.93 108.314H66.938L68.73 113.214H67.778L67.386 112.08H65.475L65.076 113.214H64.138ZM65.72 111.38H67.141L66.427 109.343L65.72 111.38Z" fill="black"/>
<path d="M90.8408 95.5796H123.217C124.321 95.5796 125.217 96.475 125.217 97.5796V114.848C125.217 115.952 124.321 116.848 123.217 116.848H90.8408V95.5796Z" fill="#F24E1E" stroke="black" stroke-width="0.5"/>
<path d="M95.6796 109.714V104.174L94.5296 104.444V103.464L96.2196 102.714H97.0096V109.714H95.6796ZM101.567 109.714V108.414H98.1169V107.394L101.397 102.714H102.847V107.304H103.767V108.414H102.847V109.714H101.567ZM99.4869 107.304H101.647V104.124L99.4869 107.304ZM104.233 110.874L104.803 108.384H106.043L105.073 110.874H104.233ZM109.558 109.834C109.078 109.834 108.644 109.751 108.258 109.584C107.871 109.411 107.561 109.167 107.328 108.854C107.101 108.541 106.988 108.177 106.988 107.764C106.988 107.337 107.098 106.964 107.318 106.644C107.544 106.324 107.841 106.094 108.208 105.954C107.888 105.814 107.634 105.614 107.448 105.354C107.261 105.087 107.168 104.791 107.168 104.464C107.168 104.131 107.258 103.824 107.438 103.544C107.618 103.257 107.884 103.027 108.238 102.854C108.598 102.681 109.038 102.594 109.558 102.594C110.078 102.594 110.514 102.681 110.868 102.854C111.221 103.027 111.488 103.257 111.668 103.544C111.848 103.824 111.938 104.131 111.938 104.464C111.938 104.784 111.841 105.081 111.648 105.354C111.461 105.621 111.211 105.821 110.898 105.954C111.271 106.094 111.568 106.324 111.788 106.644C112.008 106.964 112.118 107.337 112.118 107.764C112.118 108.177 112.004 108.541 111.778 108.854C111.551 109.167 111.241 109.411 110.848 109.584C110.461 109.751 110.031 109.834 109.558 109.834ZM109.558 105.574C109.904 105.574 110.178 105.484 110.378 105.304C110.578 105.124 110.678 104.894 110.678 104.614C110.678 104.307 110.578 104.067 110.378 103.894C110.184 103.721 109.911 103.634 109.558 103.634C109.198 103.634 108.921 103.721 108.728 103.894C108.534 104.067 108.438 104.307 108.438 104.614C108.438 104.901 108.534 105.134 108.728 105.314C108.928 105.487 109.204 105.574 109.558 105.574ZM109.558 108.764C109.984 108.764 110.308 108.661 110.528 108.454C110.748 108.241 110.858 107.974 110.858 107.654C110.858 107.301 110.741 107.024 110.508 106.824C110.281 106.624 109.964 106.524 109.558 106.524C109.151 106.524 108.828 106.624 108.588 106.824C108.354 107.024 108.238 107.301 108.238 107.654C108.238 107.974 108.348 108.241 108.568 108.454C108.794 108.661 109.124 108.764 109.558 108.764ZM114.817 106.154C114.497 106.154 114.207 106.084 113.947 105.944C113.687 105.797 113.48 105.591 113.327 105.324C113.173 105.057 113.097 104.741 113.097 104.374C113.097 104.007 113.173 103.691 113.327 103.424C113.48 103.157 113.687 102.954 113.947 102.814C114.207 102.667 114.5 102.594 114.827 102.594C115.147 102.594 115.433 102.667 115.687 102.814C115.947 102.954 116.153 103.157 116.307 103.424C116.46 103.691 116.537 104.007 116.537 104.374C116.537 104.741 116.46 105.057 116.307 105.324C116.153 105.591 115.947 105.797 115.687 105.944C115.427 106.084 115.137 106.154 114.817 106.154ZM114.437 109.714L118.387 102.714H119.637L115.687 109.714H114.437ZM114.817 105.264C115.01 105.264 115.177 105.191 115.317 105.044C115.457 104.891 115.527 104.667 115.527 104.374C115.527 104.081 115.457 103.857 115.317 103.704C115.183 103.551 115.017 103.474 114.817 103.474C114.617 103.474 114.447 103.551 114.307 103.704C114.173 103.857 114.107 104.081 114.107 104.374C114.107 104.667 114.173 104.891 114.307 105.044C114.447 105.191 114.617 105.264 114.817 105.264ZM119.297 109.834C118.977 109.834 118.687 109.764 118.427 109.624C118.167 109.477 117.96 109.271 117.807 109.004C117.653 108.737 117.577 108.421 117.577 108.054C117.577 107.687 117.653 107.374 117.807 107.114C117.96 106.847 118.167 106.644 118.427 106.504C118.687 106.357 118.98 106.284 119.307 106.284C119.627 106.284 119.913 106.357 120.167 106.504C120.427 106.644 120.633 106.847 120.787 107.114C120.94 107.374 121.017 107.687 121.017 108.054C121.017 108.421 120.94 108.737 120.787 109.004C120.633 109.271 120.427 109.477 120.167 109.624C119.913 109.764 119.623 109.834 119.297 109.834ZM119.297 108.944C119.497 108.944 119.663 108.871 119.797 108.724C119.937 108.571 120.007 108.347 120.007 108.054C120.007 107.761 119.937 107.537 119.797 107.384C119.663 107.231 119.497 107.154 119.297 107.154C119.097 107.154 118.927 107.231 118.787 107.384C118.653 107.537 118.587 107.761 118.587 108.054C118.587 108.347 118.653 108.571 118.787 108.724C118.927 108.871 119.097 108.944 119.297 108.944Z" fill="white"/>
<path d="M139.289 97.5796C139.289 96.475 140.184 95.5796 141.289 95.5796H206.323V116.848H141.289C140.184 116.848 139.289 115.952 139.289 114.848V97.5796Z" fill="white" stroke="black" stroke-width="0.5"/>
<path d="M143.628 104.214V99.3139H144.524V104.214H143.628ZM146.174 104.214V99.3139H147.07V103.514H149.24V104.214H146.174ZM150.73 104.214V99.3139H151.626V103.514H153.796V104.214H150.73ZM156.963 104.298C156.604 104.298 156.279 104.228 155.99 104.088C155.701 103.943 155.47 103.726 155.297 103.437C155.129 103.148 155.045 102.781 155.045 102.338V99.3139H155.941V102.345C155.941 102.728 156.032 103.012 156.214 103.199C156.401 103.386 156.657 103.479 156.984 103.479C157.306 103.479 157.56 103.386 157.747 103.199C157.934 103.012 158.027 102.728 158.027 102.345V99.3139H158.923V102.338C158.923 102.781 158.834 103.148 158.657 103.437C158.48 103.726 158.242 103.943 157.943 104.088C157.649 104.228 157.322 104.298 156.963 104.298ZM160.538 104.214V99.3139H161.602L163.163 102.422L164.703 99.3139H165.767V104.214H164.871V100.833L163.506 103.514H162.799L161.434 100.833V104.214H160.538ZM167.417 104.214V99.3139H168.313V104.214H167.417ZM169.963 104.214V99.3139H170.859L173.162 102.765V99.3139H174.058V104.214H173.162L170.859 100.77V104.214H169.963ZM175.393 104.214L177.185 99.3139H178.193L179.985 104.214H179.033L178.641 103.08H176.73L176.331 104.214H175.393ZM176.975 102.38H178.396L177.682 100.343L176.975 102.38ZM181.169 104.214V103.528L183.423 100.063H181.19V99.3139H184.459V99.9999L182.191 103.465H184.473V104.214H181.169ZM185.981 104.214V99.3139H186.877V104.214H185.981ZM190.823 104.298C190.333 104.298 189.903 104.191 189.535 103.976C189.171 103.761 188.884 103.465 188.674 103.087C188.468 102.704 188.366 102.263 188.366 101.764C188.366 101.265 188.468 100.826 188.674 100.448C188.884 100.065 189.171 99.7665 189.535 99.5519C189.903 99.3372 190.333 99.2299 190.823 99.2299C191.308 99.2299 191.735 99.3372 192.104 99.5519C192.472 99.7665 192.759 100.065 192.965 100.448C193.17 100.826 193.273 101.265 193.273 101.764C193.273 102.263 193.17 102.704 192.965 103.087C192.759 103.465 192.472 103.761 192.104 103.976C191.735 104.191 191.308 104.298 190.823 104.298ZM190.823 103.493C191.289 103.493 191.66 103.339 191.936 103.031C192.216 102.723 192.356 102.301 192.356 101.764C192.356 101.227 192.216 100.805 191.936 100.497C191.66 100.189 191.289 100.035 190.823 100.035C190.356 100.035 189.983 100.189 189.703 100.497C189.423 100.805 189.283 101.227 189.283 101.764C189.283 102.301 189.423 102.723 189.703 103.031C189.983 103.339 190.356 103.493 190.823 103.493ZM194.764 104.214V99.3139H195.66L197.963 102.765V99.3139H198.859V104.214H197.963L195.66 100.77V104.214H194.764ZM200.509 104.214V99.3139H203.708V100.035H201.405V101.379H203.498V102.079H201.405V103.493H203.708V104.214H200.509ZM143.628 113.214V108.314H146.827V109.035H144.524V110.379H146.617V111.079H144.524V112.493H146.827V113.214H143.628ZM150.428 113.214L152.22 108.314H153.228L155.02 113.214H154.068L153.676 112.08H151.765L151.366 113.214H150.428ZM152.01 111.38H153.431L152.717 109.343L152.01 111.38ZM156.351 113.214V108.314H157.247V112.514H159.417V113.214H156.351ZM161.234 113.214V109.035H159.806V108.314H163.565V109.035H162.13V113.214H161.234ZM164.929 113.214V108.314H166.728C167.12 108.314 167.442 108.382 167.694 108.517C167.951 108.648 168.142 108.827 168.268 109.056C168.394 109.28 168.457 109.53 168.457 109.805C168.457 110.104 168.378 110.377 168.219 110.624C168.065 110.871 167.822 111.051 167.491 111.163L168.506 113.214H167.477L166.567 111.282H165.825V113.214H164.929ZM165.825 110.624H166.672C166.971 110.624 167.19 110.552 167.33 110.407C167.47 110.262 167.54 110.071 167.54 109.833C167.54 109.6 167.47 109.413 167.33 109.273C167.195 109.133 166.973 109.063 166.665 109.063H165.825V110.624ZM169.99 113.214V108.314H170.886V113.214H169.99ZM174.589 113.214L176.381 108.314H177.389L179.181 113.214H178.229L177.837 112.08H175.926L175.527 113.214H174.589ZM176.171 111.38H177.592L176.878 109.343L176.171 111.38ZM180.512 113.214V108.314H182.325C182.717 108.314 183.042 108.379 183.298 108.51C183.555 108.641 183.746 108.82 183.872 109.049C183.998 109.278 184.061 109.534 184.061 109.819C184.061 110.09 184.001 110.339 183.879 110.568C183.758 110.792 183.569 110.974 183.312 111.114C183.056 111.249 182.727 111.317 182.325 111.317H181.408V113.214H180.512ZM181.408 110.589H182.269C182.582 110.589 182.806 110.521 182.941 110.386C183.081 110.246 183.151 110.057 183.151 109.819C183.151 109.576 183.081 109.387 182.941 109.252C182.806 109.112 182.582 109.042 182.269 109.042H181.408V110.589ZM185.464 113.214V108.314H187.277C187.669 108.314 187.994 108.379 188.25 108.51C188.507 108.641 188.698 108.82 188.824 109.049C188.95 109.278 189.013 109.534 189.013 109.819C189.013 110.09 188.953 110.339 188.831 110.568C188.71 110.792 188.521 110.974 188.264 111.114C188.008 111.249 187.679 111.317 187.277 111.317H186.36V113.214H185.464ZM186.36 110.589H187.221C187.534 110.589 187.758 110.521 187.893 110.386C188.033 110.246 188.103 110.057 188.103 109.819C188.103 109.576 188.033 109.387 187.893 109.252C187.758 109.112 187.534 109.042 187.221 109.042H186.36V110.589ZM190.288 113.263C190.125 113.263 189.989 113.212 189.882 113.109C189.779 113.006 189.728 112.883 189.728 112.738C189.728 112.589 189.779 112.463 189.882 112.36C189.989 112.257 190.125 112.206 190.288 112.206C190.451 112.206 190.584 112.257 190.687 112.36C190.794 112.463 190.848 112.589 190.848 112.738C190.848 112.883 190.794 113.006 190.687 113.109C190.584 113.212 190.451 113.263 190.288 113.263Z" fill="black"/>
<path d="M206.323 95.5796H238.699C239.804 95.5796 240.699 96.475 240.699 97.5796V114.848C240.699 115.952 239.804 116.848 238.699 116.848H206.323V95.5796Z" fill="#F24E1E" stroke="black" stroke-width="0.5"/>
<path d="M211.162 109.714V104.174L210.012 104.444V103.464L211.702 102.714H212.492V109.714H211.162ZM217.049 109.714V108.414H213.599V107.394L216.879 102.714H218.329V107.304H219.249V108.414H218.329V109.714H217.049ZM214.969 107.304H217.129V104.124L214.969 107.304ZM219.716 110.874L220.286 108.384H221.526L220.556 110.874H219.716ZM225.04 109.834C224.56 109.834 224.127 109.751 223.74 109.584C223.353 109.411 223.043 109.167 222.81 108.854C222.583 108.541 222.47 108.177 222.47 107.764C222.47 107.337 222.58 106.964 222.8 106.644C223.027 106.324 223.323 106.094 223.69 105.954C223.37 105.814 223.117 105.614 222.93 105.354C222.743 105.087 222.65 104.791 222.65 104.464C222.65 104.131 222.74 103.824 222.92 103.544C223.1 103.257 223.367 103.027 223.72 102.854C224.08 102.681 224.52 102.594 225.04 102.594C225.56 102.594 225.997 102.681 226.35 102.854C226.703 103.027 226.97 103.257 227.15 103.544C227.33 103.824 227.42 104.131 227.42 104.464C227.42 104.784 227.323 105.081 227.13 105.354C226.943 105.621 226.693 105.821 226.38 105.954C226.753 106.094 227.05 106.324 227.27 106.644C227.49 106.964 227.6 107.337 227.6 107.764C227.6 108.177 227.487 108.541 227.26 108.854C227.033 109.167 226.723 109.411 226.33 109.584C225.943 109.751 225.513 109.834 225.04 109.834ZM225.04 105.574C225.387 105.574 225.66 105.484 225.86 105.304C226.06 105.124 226.16 104.894 226.16 104.614C226.16 104.307 226.06 104.067 225.86 103.894C225.667 103.721 225.393 103.634 225.04 103.634C224.68 103.634 224.403 103.721 224.21 103.894C224.017 104.067 223.92 104.307 223.92 104.614C223.92 104.901 224.017 105.134 224.21 105.314C224.41 105.487 224.687 105.574 225.04 105.574ZM225.04 108.764C225.467 108.764 225.79 108.661 226.01 108.454C226.23 108.241 226.34 107.974 226.34 107.654C226.34 107.301 226.223 107.024 225.99 106.824C225.763 106.624 225.447 106.524 225.04 106.524C224.633 106.524 224.31 106.624 224.07 106.824C223.837 107.024 223.72 107.301 223.72 107.654C223.72 107.974 223.83 108.241 224.05 108.454C224.277 108.661 224.607 108.764 225.04 108.764ZM230.299 106.154C229.979 106.154 229.689 106.084 229.429 105.944C229.169 105.797 228.962 105.591 228.809 105.324C228.656 105.057 228.579 104.741 228.579 104.374C228.579 104.007 228.656 103.691 228.809 103.424C228.962 103.157 229.169 102.954 229.429 102.814C229.689 102.667 229.982 102.594 230.309 102.594C230.629 102.594 230.916 102.667 231.169 102.814C231.429 102.954 231.636 103.157 231.789 103.424C231.942 103.691 232.019 104.007 232.019 104.374C232.019 104.741 231.942 105.057 231.789 105.324C231.636 105.591 231.429 105.797 231.169 105.944C230.909 106.084 230.619 106.154 230.299 106.154ZM229.919 109.714L233.869 102.714H235.119L231.169 109.714H229.919ZM230.299 105.264C230.492 105.264 230.659 105.191 230.799 105.044C230.939 104.891 231.009 104.667 231.009 104.374C231.009 104.081 230.939 103.857 230.799 103.704C230.666 103.551 230.499 103.474 230.299 103.474C230.099 103.474 229.929 103.551 229.789 103.704C229.656 103.857 229.589 104.081 229.589 104.374C229.589 104.667 229.656 104.891 229.789 105.044C229.929 105.191 230.099 105.264 230.299 105.264ZM234.779 109.834C234.459 109.834 234.169 109.764 233.909 109.624C233.649 109.477 233.442 109.271 233.289 109.004C233.136 108.737 233.059 108.421 233.059 108.054C233.059 107.687 233.136 107.374 233.289 107.114C233.442 106.847 233.649 106.644 233.909 106.504C234.169 106.357 234.462 106.284 234.789 106.284C235.109 106.284 235.396 106.357 235.649 106.504C235.909 106.644 236.116 106.847 236.269 107.114C236.422 107.374 236.499 107.687 236.499 108.054C236.499 108.421 236.422 108.737 236.269 109.004C236.116 109.271 235.909 109.477 235.649 109.624C235.396 109.764 235.106 109.834 234.779 109.834ZM234.779 108.944C234.979 108.944 235.146 108.871 235.279 108.724C235.419 108.571 235.489 108.347 235.489 108.054C235.489 107.761 235.419 107.537 235.279 107.384C235.146 107.231 234.979 107.154 234.779 107.154C234.579 107.154 234.409 107.231 234.269 107.384C234.136 107.537 234.069 107.761 234.069 108.054C234.069 108.347 234.136 108.571 234.269 108.724C234.409 108.871 234.579 108.944 234.779 108.944Z" fill="white"/>
<path d="M53.2539 130.146C53.2539 129.041 54.1493 128.146 55.2539 128.146H101.757V143.146H55.2539C54.1493 143.146 53.2539 142.251 53.2539 141.146V130.146Z" fill="white" stroke="black" stroke-width="0.5"/>
<path d="M59.8122 138.23C59.3175 138.23 58.8929 138.125 58.5382 137.915C58.1835 137.7 57.9105 137.404 57.7192 137.026C57.5279 136.643 57.4322 136.202 57.4322 135.703C57.4322 135.204 57.5279 134.763 57.7192 134.38C57.9105 133.997 58.1835 133.699 58.5382 133.484C58.8929 133.269 59.3175 133.162 59.8122 133.162C60.4002 133.162 60.8809 133.309 61.2542 133.603C61.6322 133.892 61.8679 134.301 61.9612 134.828H60.9742C60.9135 134.562 60.7829 134.354 60.5822 134.205C60.3862 134.051 60.1249 133.974 59.7982 133.974C59.3455 133.974 58.9909 134.128 58.7342 134.436C58.4775 134.744 58.3492 135.166 58.3492 135.703C58.3492 136.24 58.4775 136.662 58.7342 136.97C58.9909 137.273 59.3455 137.425 59.7982 137.425C60.1249 137.425 60.3862 137.355 60.5822 137.215C60.7829 137.07 60.9135 136.872 60.9742 136.62H61.9612C61.8679 137.124 61.6322 137.518 61.2542 137.803C60.8809 138.088 60.4002 138.23 59.8122 138.23ZM65.3443 138.23C64.985 138.23 64.6607 138.16 64.3713 138.02C64.082 137.875 63.851 137.658 63.6783 137.369C63.5103 137.08 63.4263 136.713 63.4263 136.27V133.246H64.3223V136.277C64.3223 136.66 64.4133 136.944 64.5953 137.131C64.782 137.318 65.0387 137.411 65.3653 137.411C65.6873 137.411 65.9417 137.318 66.1283 137.131C66.315 136.944 66.4083 136.66 66.4083 136.277V133.246H67.3043V136.27C67.3043 136.713 67.2157 137.08 67.0383 137.369C66.861 137.658 66.623 137.875 66.3243 138.02C66.0303 138.16 65.7037 138.23 65.3443 138.23ZM71.138 138.23C70.6433 138.23 70.2186 138.125 69.864 137.915C69.5093 137.7 69.2363 137.404 69.045 137.026C68.8536 136.643 68.758 136.202 68.758 135.703C68.758 135.204 68.8536 134.763 69.045 134.38C69.2363 133.997 69.5093 133.699 69.864 133.484C70.2186 133.269 70.6433 133.162 71.138 133.162C71.726 133.162 72.2066 133.309 72.58 133.603C72.958 133.892 73.1936 134.301 73.287 134.828H72.3C72.2393 134.562 72.1086 134.354 71.908 134.205C71.712 134.051 71.4506 133.974 71.124 133.974C70.6713 133.974 70.3166 134.128 70.06 134.436C69.8033 134.744 69.675 135.166 69.675 135.703C69.675 136.24 69.8033 136.662 70.06 136.97C70.3166 137.273 70.6713 137.425 71.124 137.425C71.4506 137.425 71.712 137.355 71.908 137.215C72.1086 137.07 72.2393 136.872 72.3 136.62H73.287C73.1936 137.124 72.958 137.518 72.58 137.803C72.2066 138.088 71.726 138.23 71.138 138.23ZM74.7801 138.146V133.246H75.6761V138.146H74.7801ZM77.3258 138.146V133.246H78.2218L80.5248 136.697V133.246H81.4208V138.146H80.5248L78.2218 134.702V138.146H77.3258ZM82.7557 138.146L84.5477 133.246H85.5557L87.3477 138.146H86.3957L86.0037 137.012H84.0927L83.6937 138.146H82.7557ZM84.3377 136.312H85.7587L85.0447 134.275L84.3377 136.312ZM88.6789 138.146V133.246H90.4779C90.8699 133.246 91.1919 133.314 91.4439 133.449C91.7006 133.58 91.8919 133.759 92.0179 133.988C92.1439 134.212 92.2069 134.462 92.2069 134.737C92.2069 135.036 92.1276 135.309 91.9689 135.556C91.8149 135.803 91.5723 135.983 91.2409 136.095L92.2559 138.146H91.2269L90.3169 136.214H89.5749V138.146H88.6789ZM89.5749 135.556H90.4219C90.7206 135.556 90.9399 135.484 91.0799 135.339C91.2199 135.194 91.2899 135.003 91.2899 134.765C91.2899 134.532 91.2199 134.345 91.0799 134.205C90.9446 134.065 90.7229 133.995 90.4149 133.995H89.5749V135.556ZM93.7403 138.146V133.246H96.9393V133.967H94.6363V135.311H96.7293V136.011H94.6363V137.425H96.9393V138.146H93.7403Z" fill="black"/>
<path d="M101.756 128.146H124.904C126.009 128.146 126.904 129.041 126.904 130.146V141.146C126.904 142.251 126.009 143.146 124.904 143.146H101.756V128.146Z" fill="#F24E1E" stroke="black" stroke-width="0.5"/>
<path d="M107.23 139.483C106.703 139.483 106.26 139.387 105.9 139.193C105.54 139 105.25 138.74 105.03 138.413C104.81 138.087 104.65 137.723 104.55 137.323C104.457 136.923 104.41 136.513 104.41 136.093C104.41 135.313 104.52 134.637 104.74 134.063C104.96 133.483 105.277 133.037 105.69 132.723C106.103 132.403 106.603 132.243 107.19 132.243C107.67 132.243 108.077 132.34 108.41 132.533C108.75 132.72 109.013 132.967 109.2 133.273C109.387 133.58 109.497 133.91 109.53 134.263H108.34C108.28 133.957 108.15 133.72 107.95 133.553C107.75 133.387 107.493 133.303 107.18 133.303C106.733 133.303 106.373 133.51 106.1 133.923C105.827 134.33 105.68 134.953 105.66 135.793C105.82 135.52 106.06 135.293 106.38 135.113C106.7 134.933 107.057 134.843 107.45 134.843C107.837 134.843 108.2 134.937 108.54 135.123C108.88 135.31 109.153 135.573 109.36 135.913C109.573 136.253 109.68 136.653 109.68 137.113C109.68 137.533 109.577 137.923 109.37 138.283C109.17 138.643 108.883 138.933 108.51 139.153C108.143 139.373 107.717 139.483 107.23 139.483ZM107.16 138.383C107.533 138.383 107.84 138.27 108.08 138.043C108.327 137.81 108.45 137.517 108.45 137.163C108.45 136.79 108.327 136.49 108.08 136.263C107.833 136.037 107.52 135.923 107.14 135.923C106.893 135.923 106.67 135.98 106.47 136.093C106.277 136.2 106.123 136.347 106.01 136.533C105.897 136.713 105.84 136.917 105.84 137.143C105.84 137.503 105.963 137.8 106.21 138.033C106.463 138.267 106.78 138.383 107.16 138.383ZM110.398 140.523L110.968 138.033H112.208L111.238 140.523H110.398ZM114.012 139.363V133.823L112.862 134.093V133.113L114.552 132.363H115.342V139.363H114.012ZM118.14 135.803C117.82 135.803 117.53 135.733 117.27 135.593C117.01 135.447 116.803 135.24 116.65 134.973C116.496 134.707 116.42 134.39 116.42 134.023C116.42 133.657 116.496 133.34 116.65 133.073C116.803 132.807 117.01 132.603 117.27 132.463C117.53 132.317 117.823 132.243 118.15 132.243C118.47 132.243 118.756 132.317 119.01 132.463C119.27 132.603 119.476 132.807 119.63 133.073C119.783 133.34 119.86 133.657 119.86 134.023C119.86 134.39 119.783 134.707 119.63 134.973C119.476 135.24 119.27 135.447 119.01 135.593C118.75 135.733 118.46 135.803 118.14 135.803ZM117.76 139.363L121.71 132.363H122.96L119.01 139.363H117.76ZM118.14 134.913C118.333 134.913 118.5 134.84 118.64 134.693C118.78 134.54 118.85 134.317 118.85 134.023C118.85 133.73 118.78 133.507 118.64 133.353C118.506 133.2 118.34 133.123 118.14 133.123C117.94 133.123 117.77 133.2 117.63 133.353C117.496 133.507 117.43 133.73 117.43 134.023C117.43 134.317 117.496 134.54 117.63 134.693C117.77 134.84 117.94 134.913 118.14 134.913ZM122.62 139.483C122.3 139.483 122.01 139.413 121.75 139.273C121.49 139.127 121.283 138.92 121.13 138.653C120.976 138.387 120.9 138.07 120.9 137.703C120.9 137.337 120.976 137.023 121.13 136.763C121.283 136.497 121.49 136.293 121.75 136.153C122.01 136.007 122.303 135.933 122.63 135.933C122.95 135.933 123.236 136.007 123.49 136.153C123.75 136.293 123.956 136.497 124.11 136.763C124.263 137.023 124.34 137.337 124.34 137.703C124.34 138.07 124.263 138.387 124.11 138.653C123.956 138.92 123.75 139.127 123.49 139.273C123.236 139.413 122.946 139.483 122.62 139.483ZM122.62 138.593C122.82 138.593 122.986 138.52 123.12 138.373C123.26 138.22 123.33 137.997 123.33 137.703C123.33 137.41 123.26 137.187 123.12 137.033C122.986 136.88 122.82 136.803 122.62 136.803C122.42 136.803 122.25 136.88 122.11 137.033C121.976 137.187 121.91 137.41 121.91 137.703C121.91 137.997 121.976 138.22 122.11 138.373C122.25 138.52 122.42 138.593 122.62 138.593Z" fill="white"/>
<path d="M181.362 130.146C181.362 129.041 182.258 128.146 183.362 128.146H214.023V143.146H183.362C182.258 143.146 181.362 142.251 181.362 141.146V130.146Z" fill="white" stroke="black" stroke-width="0.5"/>
<path d="M185.387 138.146L187.179 133.246H188.187L189.979 138.146H189.027L188.635 137.012H186.724L186.325 138.146H185.387ZM186.969 136.312H188.39L187.676 134.275L186.969 136.312ZM191.31 138.146V133.246H192.206V137.446H194.376V138.146H191.31ZM196.193 138.146V133.967H194.765V133.246H198.524V133.967H197.089V138.146H196.193ZM199.888 138.146V133.246H201.687C202.079 133.246 202.401 133.314 202.653 133.449C202.909 133.58 203.101 133.759 203.227 133.988C203.353 134.212 203.416 134.462 203.416 134.737C203.416 135.036 203.336 135.309 203.178 135.556C203.024 135.803 202.781 135.983 202.45 136.095L203.465 138.146H202.436L201.526 136.214H200.784V138.146H199.888ZM200.784 135.556H201.631C201.929 135.556 202.149 135.484 202.289 135.339C202.429 135.194 202.499 135.003 202.499 134.765C202.499 134.532 202.429 134.345 202.289 134.205C202.153 134.065 201.932 133.995 201.624 133.995H200.784V135.556ZM207.245 138.23C206.755 138.23 206.326 138.123 205.957 137.908C205.593 137.693 205.306 137.397 205.096 137.019C204.891 136.636 204.788 136.195 204.788 135.696C204.788 135.197 204.891 134.758 205.096 134.38C205.306 133.997 205.593 133.699 205.957 133.484C206.326 133.269 206.755 133.162 207.245 133.162C207.73 133.162 208.157 133.269 208.526 133.484C208.895 133.699 209.182 133.997 209.387 134.38C209.592 134.758 209.695 135.197 209.695 135.696C209.695 136.195 209.592 136.636 209.387 137.019C209.182 137.397 208.895 137.693 208.526 137.908C208.157 138.123 207.73 138.23 207.245 138.23ZM207.245 137.425C207.712 137.425 208.083 137.271 208.358 136.963C208.638 136.655 208.778 136.233 208.778 135.696C208.778 135.159 208.638 134.737 208.358 134.429C208.083 134.121 207.712 133.967 207.245 133.967C206.778 133.967 206.405 134.121 206.125 134.429C205.845 134.737 205.705 135.159 205.705 135.696C205.705 136.233 205.845 136.655 206.125 136.963C206.405 137.271 206.778 137.425 207.245 137.425Z" fill="black"/>
<path d="M214.023 128.146H237.171C238.275 128.146 239.171 129.041 239.171 130.146V141.146C239.171 142.251 238.275 143.146 237.171 143.146H214.023V128.146Z" fill="#F24E1E" stroke="black" stroke-width="0.5"/>
<path d="M221.953 139.363V133.823L220.803 134.093V133.113L222.493 132.363H223.283V139.363H221.953ZM226.08 135.803C225.76 135.803 225.47 135.733 225.21 135.593C224.95 135.447 224.743 135.24 224.59 134.973C224.437 134.707 224.36 134.39 224.36 134.023C224.36 133.657 224.437 133.34 224.59 133.073C224.743 132.807 224.95 132.603 225.21 132.463C225.47 132.317 225.763 132.243 226.09 132.243C226.41 132.243 226.697 132.317 226.95 132.463C227.21 132.603 227.417 132.807 227.57 133.073C227.723 133.34 227.8 133.657 227.8 134.023C227.8 134.39 227.723 134.707 227.57 134.973C227.417 135.24 227.21 135.447 226.95 135.593C226.69 135.733 226.4 135.803 226.08 135.803ZM225.7 139.363L229.65 132.363H230.9L226.95 139.363H225.7ZM226.08 134.913C226.273 134.913 226.44 134.84 226.58 134.693C226.72 134.54 226.79 134.317 226.79 134.023C226.79 133.73 226.72 133.507 226.58 133.353C226.447 133.2 226.28 133.123 226.08 133.123C225.88 133.123 225.71 133.2 225.57 133.353C225.437 133.507 225.37 133.73 225.37 134.023C225.37 134.317 225.437 134.54 225.57 134.693C225.71 134.84 225.88 134.913 226.08 134.913ZM230.56 139.483C230.24 139.483 229.95 139.413 229.69 139.273C229.43 139.127 229.223 138.92 229.07 138.653C228.917 138.387 228.84 138.07 228.84 137.703C228.84 137.337 228.917 137.023 229.07 136.763C229.223 136.497 229.43 136.293 229.69 136.153C229.95 136.007 230.243 135.933 230.57 135.933C230.89 135.933 231.177 136.007 231.43 136.153C231.69 136.293 231.897 136.497 232.05 136.763C232.203 137.023 232.28 137.337 232.28 137.703C232.28 138.07 232.203 138.387 232.05 138.653C231.897 138.92 231.69 139.127 231.43 139.273C231.177 139.413 230.887 139.483 230.56 139.483ZM230.56 138.593C230.76 138.593 230.927 138.52 231.06 138.373C231.2 138.22 231.27 137.997 231.27 137.703C231.27 137.41 231.2 137.187 231.06 137.033C230.927 136.88 230.76 136.803 230.56 136.803C230.36 136.803 230.19 136.88 230.05 137.033C229.917 137.187 229.85 137.41 229.85 137.703C229.85 137.997 229.917 138.22 230.05 138.373C230.19 138.52 230.36 138.593 230.56 138.593Z" fill="white"/>
<circle r="2.5" transform="matrix(1 8.74228e-08 8.74228e-08 -1 54.4087 271.975)" fill="#F24E1E" stroke="white"/>
<circle r="2.5" transform="matrix(1 8.74228e-08 8.74228e-08 -1 71.4258 217.333)" fill="#F24E1E" stroke="white"/>
<circle r="2.5" transform="matrix(1 8.74228e-08 8.74228e-08 -1 153.012 166.732)" fill="#F24E1E" stroke="white"/>
<circle r="2.5" transform="matrix(1 8.74228e-08 8.74228e-08 -1 163.794 158.712)" fill="#F24E1E" stroke="white"/>
<path d="M54.4023 272.243H42.209V116.644" stroke="black" stroke-width="0.5"/>
<path d="M59.2192 143.271V217.357H71.3159" stroke="black" stroke-width="0.5"/>
<path d="M152.938 166.726V116.981" stroke="black" stroke-width="0.5"/>
<path d="M163.756 158.828V137.922H181.057" stroke="black" stroke-width="0.5"/>
</svg>
