<svg width="121" height="37" viewBox="0 0 121 37" fill="none" xmlns="http://www.w3.org/2000/svg">
<path d="M16.1215 24.7607C15.8356 25.0827 15.0492 25.19 14.7989 25.5478C14.4772 26.0845 13.6908 27.301 13.0831 27.8735C11.1171 29.7699 6.89902 30.7001 4.78999 28.9111C4.64701 28.9111 4.7185 28.9827 4.89723 29.5194C5.04022 30.4855 5.82663 32.7754 5.54066 33.3479C5.75514 33.9919 5.93387 33.7772 6.29133 34.135C6.54156 34.3855 6.64879 35.0295 6.93476 35.1727C7.25648 35.1369 7.5782 35.1369 7.86417 35.1011C7.93566 35.28 7.9714 35.4589 8.0429 35.6378C8.4361 35.6378 8.86506 35.5662 9.25827 35.5662C9.47274 35.602 10.1877 35.9598 10.3664 36.0314C10.8311 35.9956 11.2601 35.9598 11.7248 35.924C12.7614 36.2103 13.6551 35.7451 14.5487 35.1727C15.0492 34.8506 15.5853 34.8864 16.0143 34.5286C16.6577 33.9919 17.5156 32.9185 17.9088 32.2029C18.874 30.4139 18.5523 26.1203 17.6229 25.0827C17.3012 24.6891 16.8722 24.6891 16.1215 24.7607ZM24.3074 23.5799C23.5925 24.1524 23.2708 24.0093 22.8418 24.868C22.8061 24.868 22.9133 25.0111 22.8418 25.0111C23.3065 25.8698 24.3074 26.2276 25.0581 26.8359C25.2726 27.0148 25.916 28.0882 26.202 28.1955C26.5237 28.5891 26.7739 29.6983 26.9884 29.6983C27.2386 30.0203 26.9526 30.7359 27.2029 31.0222C27.2386 32.3103 27.0241 32.4176 26.8097 32.6681C26.8097 32.7754 26.9526 32.9901 26.9526 33.0974C27.0241 33.169 27.5246 33.5268 27.7748 33.491C28.4897 33.5268 31.3852 35.7809 31.6354 36.2103C33.7087 36.3534 33.5657 35.7094 34.9955 35.1011C35.3887 34.9222 35.6747 35.1011 35.9607 34.8149C36.2467 34.5286 36.2467 33.9919 36.4969 33.7415C36.4969 28.5533 29.4906 23.723 24.3074 23.5799ZM29.9553 12.7028C27.3816 13.1321 25.8088 13.9551 24.8079 14.6349C24.1287 15.1 23.95 15.422 23.807 15.6367C23.664 15.8514 23.5567 16.2808 23.6282 16.7459C23.6997 17.211 23.8785 17.712 24.3074 17.9624C27.4888 17.712 32.9937 17.4973 34.0661 20.1808C34.1376 20.5386 34.2091 20.7891 34.2091 20.8606C35.2458 20.5744 34.4951 20.6817 36.0322 20.9322C36.3896 21.0037 37.2475 20.7891 37.8195 20.6459C38.0697 20.5744 38.2484 20.3597 38.2484 20.3597C38.2484 20.3597 38.1769 20.1092 38.2127 19.9661C38.2127 19.9661 38.7489 20.0019 38.9991 19.823C40.4647 19.5725 39.6783 18.8927 40.3932 18.1056C39.9285 13.0963 34.8168 11.9514 29.9553 12.7028ZM10.2949 21.8625C10.8668 21.7193 11.832 21.612 12.3324 21.3615C13.1546 20.968 15.9071 19.0001 15.0134 17.4257C14.7274 14.0982 10.7239 16.9248 9.00804 15.7441C7.25648 15.5294 5.32618 12.2376 4.78999 10.8422C4.57551 10.3055 4.68275 10.4844 4.39678 10.055C4.39678 10.0192 4.21805 10.1981 4.21805 10.1624C3.71761 10.7706 3.82484 11.2716 3.71761 12.7028C3.46738 12.7028 3.2529 12.667 3.03843 12.667C3.00268 13.2037 2.93119 13.4899 2.68097 13.7404C2.64522 13.8119 2.57373 13.9193 2.53798 13.9908C2.10903 13.8477 2.3235 14.0624 2.14477 13.7046C0.607685 13.8477 0.714924 15.4578 0 16.3523C0.0357462 19.3579 5.96962 23.0074 10.2949 21.8625ZM21.8052 5.54673C21.9482 4.40177 21.7337 2.75588 22.6631 1.96872C22.9133 0.752198 24.8079 1.03844 24.5219 0.287057C24.3432 -0.178085 23.4495 0.0365961 23.092 0.143936C22.8418 0.215497 20.2324 1.03844 19.2315 1.14578C18.8025 1.03844 18.3736 0.895319 17.9446 0.787978C16.3003 1.00266 15.3709 2.32652 14.4772 3.36415C13.7265 4.22287 12.6899 6.3339 13.5121 7.62198C13.4763 7.90822 13.4406 8.15868 13.3691 8.44492L15.2279 11.1642C15.8713 11.6294 15.9428 11.9514 16.6577 12.4165C16.8007 12.6312 16.9437 12.8459 17.0867 13.0606C17.6586 13.4184 19.3029 13.4184 19.5889 13.1679C22.2699 13.4184 21.9482 7.97978 22.8061 6.83482C22.6631 6.3339 22.1984 5.83297 21.8052 5.54673Z" fill="white"/>
<path d="M86.0402 19.3938C84.7176 18.8929 83.8955 18.5351 83.8955 17.8195C83.8955 16.3882 85.2181 16.2093 85.7543 16.2093C86.6837 16.2093 87.6846 16.424 88.5782 16.8176L89.1144 17.068L89.5076 13.7046L89.1859 13.5973C88.0778 13.2395 86.8624 13.0605 85.5398 13.0605C84.4674 13.0605 82.9661 13.2395 81.7507 14.1698C80.5711 15.0285 79.9634 16.3166 79.9634 17.9984C79.9634 21.0755 82.2511 21.9701 84.1099 22.6857C85.5398 23.2582 86.3977 23.616 86.3977 24.5105C86.3977 25.584 85.0751 25.9776 84.2172 25.9776C83.2163 25.9776 82.1439 25.6913 81.1073 25.1188L80.5353 24.7968L80.1421 28.4823L80.8213 28.6612C82.0724 28.9832 82.8588 29.1621 84.3602 29.1621C88.0778 29.1621 90.3298 27.3373 90.3298 24.2601C90.3298 21.0398 87.8633 20.1095 86.0402 19.3938Z" fill="white"/>
<path d="M98.8377 13.0244C94.0477 13.0244 91.188 16.0299 91.188 21.0392C91.188 26.12 94.0477 29.1255 98.8377 29.1255C103.556 29.1255 106.487 26.0126 106.487 21.0392C106.487 16.0657 103.556 13.0244 98.8377 13.0244ZM98.8377 25.9053C96.121 25.9053 95.1558 23.3649 95.1558 21.0034C95.1558 18.785 96.121 16.2088 98.8377 16.2088C101.554 16.2088 102.52 18.785 102.52 21.0034C102.52 23.3649 101.554 25.9053 98.8377 25.9053Z" fill="white"/>
<path d="M117.283 13.2744V22.9707L112.493 13.5249L112.35 13.2744H108.024V28.8386H111.742V19.1423L116.675 28.8386H121V13.2744H117.283Z" fill="white"/>
<path d="M51.4024 12.9887C49.2933 12.9887 44.3604 13.8116 44.3604 21.1822C44.3604 26.1198 46.8626 29.0538 51.2236 29.018C54.6195 29.018 56.7285 28.1235 58.2299 27.0143C58.0869 26.7639 56.8 24.474 56.6213 24.2235C55.7276 24.9391 54.2263 25.6189 52.2603 25.6189C50.2942 25.6189 48.7929 24.3308 48.7929 22.2556V22.0052C48.7929 22.0052 56.5856 22.0409 58.2299 22.0052C58.2299 21.6831 58.2299 20.7529 58.2299 20.7529C58.2656 15.4932 56.0136 12.9529 51.4024 12.9887ZM53.9046 19.3575L48.7929 19.3932L48.8286 19.1786C48.8644 18.2841 49.1861 16.2088 51.4738 16.1731C53.7973 16.1731 53.9046 18.1409 53.9403 19.1428V19.3575H53.9046Z" fill="white"/>
<path d="M78.7481 13.1675H74.6016V28.8396H78.7481V13.1675Z" fill="white"/>
<path d="M64.6285 13.2744H60.3032V28.6956H64.6285C70.3837 28.6956 73.2791 26.0121 73.2791 20.9671C73.2791 15.9579 70.3479 13.2744 64.6285 13.2744ZM65.1647 25.5827H63.9851V16.3873H65.1647C67.9529 16.3873 69.4543 18.8203 69.4543 21.0029C69.4543 23.1497 67.9529 25.5827 65.1647 25.5827Z" fill="white"/>
</svg>
