<svg width="613" height="816" viewBox="0 0 613 816" fill="none" xmlns="http://www.w3.org/2000/svg">
<circle cx="102" cy="102" r="101" stroke="white" stroke-width="2"/>
<circle cx="102" cy="102" r="50" fill="white"/>
<circle cx="102" cy="306" r="101.5" stroke="white"/>
<circle cx="102" cy="510" r="101.5" stroke="white"/>
<circle cx="102" cy="714" r="101.5" stroke="white"/>
<path d="M408.5 102C408.5 158.055 362.835 203.5 306.5 203.5C250.165 203.5 204.5 158.055 204.5 102C204.5 45.9454 250.165 0.5 306.5 0.5C362.835 0.5 408.5 45.9454 408.5 102Z" stroke="white"/>
<path d="M408.5 306C408.5 362.055 362.835 407.5 306.5 407.5C250.165 407.5 204.5 362.055 204.5 306C204.5 249.945 250.165 204.5 306.5 204.5C362.835 204.5 408.5 249.945 408.5 306Z" stroke="white"/>
<path d="M408.5 510C408.5 566.055 362.835 611.5 306.5 611.5C250.165 611.5 204.5 566.055 204.5 510C204.5 453.945 250.165 408.5 306.5 408.5C362.835 408.5 408.5 453.945 408.5 510Z" stroke="white"/>
<path d="M408.5 714C408.5 770.055 362.835 815.5 306.5 815.5C250.165 815.5 204.5 770.055 204.5 714C204.5 657.945 250.165 612.5 306.5 612.5C362.835 612.5 408.5 657.945 408.5 714Z" stroke="white"/>
<circle cx="511" cy="102" r="101.5" stroke="white"/>
<circle cx="511" cy="306" r="101.5" stroke="white"/>
<circle cx="511" cy="510" r="101.5" stroke="white"/>
<circle cx="511" cy="714" r="101.5" stroke="white"/>
</svg>
