<svg width="336" height="592" viewBox="0 0 336 592" fill="none" xmlns="http://www.w3.org/2000/svg">
<rect x="1" y="0.5" width="334" height="549" fill="white" stroke="black"/>
<rect x="0.5" y="550" width="335" height="42" fill="black"/>
<path d="M9.38657 576V566.2H15.7146V567.642H11.1786V570.386H14.8466V571.8H11.1786V576H9.38657ZM20.0184 576.168C19.3464 576.168 18.7397 576.014 18.1984 575.706C17.6664 575.398 17.2417 574.973 16.9244 574.432C16.6164 573.881 16.4624 573.247 16.4624 572.528C16.4624 571.809 16.621 571.179 16.9384 570.638C17.2557 570.087 17.6804 569.658 18.2124 569.35C18.7537 569.042 19.3604 568.888 20.0324 568.888C20.695 568.888 21.2924 569.042 21.8244 569.35C22.3657 569.658 22.7904 570.087 23.0984 570.638C23.4157 571.179 23.5744 571.809 23.5744 572.528C23.5744 573.247 23.4157 573.881 23.0984 574.432C22.7904 574.973 22.3657 575.398 21.8244 575.706C21.283 576.014 20.681 576.168 20.0184 576.168ZM20.0184 574.614C20.485 574.614 20.891 574.441 21.2364 574.096C21.5817 573.741 21.7544 573.219 21.7544 572.528C21.7544 571.837 21.5817 571.319 21.2364 570.974C20.891 570.619 20.4897 570.442 20.0324 570.442C19.5564 570.442 19.1457 570.619 18.8004 570.974C18.4644 571.319 18.2964 571.837 18.2964 572.528C18.2964 573.219 18.4644 573.741 18.8004 574.096C19.1457 574.441 19.5517 574.614 20.0184 574.614ZM25.1766 576V569.056H26.7586L26.8986 570.232C27.1133 569.821 27.4213 569.495 27.8226 569.252C28.2333 569.009 28.7139 568.888 29.2646 568.888C30.1233 568.888 30.7906 569.159 31.2666 569.7C31.7426 570.241 31.9806 571.035 31.9806 572.08V576H30.1886V572.248C30.1886 571.651 30.0673 571.193 29.8246 570.876C29.5819 570.559 29.2039 570.4 28.6906 570.4C28.1866 570.4 27.7713 570.577 27.4446 570.932C27.1273 571.287 26.9686 571.781 26.9686 572.416V576H25.1766ZM36.7882 576C36.0602 576 35.4768 575.823 35.0382 575.468C34.5995 575.113 34.3802 574.483 34.3802 573.578V570.554H33.1902V569.056H34.3802L34.5902 567.194H36.1722V569.056H38.0482V570.554H36.1722V573.592C36.1722 573.928 36.2422 574.161 36.3822 574.292C36.5315 574.413 36.7835 574.474 37.1382 574.474H38.0062V576H36.7882ZM42.783 576.168C42.083 576.168 41.4624 576.019 40.921 575.72C40.3797 575.421 39.955 575.001 39.647 574.46C39.339 573.919 39.185 573.293 39.185 572.584C39.185 571.865 39.3344 571.226 39.633 570.666C39.941 570.106 40.361 569.672 40.893 569.364C41.4344 569.047 42.069 568.888 42.797 568.888C43.4784 568.888 44.0804 569.037 44.603 569.336C45.1257 569.635 45.5317 570.045 45.821 570.568C46.1197 571.081 46.269 571.655 46.269 572.29C46.269 572.393 46.2644 572.5 46.255 572.612C46.255 572.724 46.2504 572.841 46.241 572.962H40.963C41.0004 573.503 41.187 573.928 41.523 574.236C41.8684 574.544 42.2837 574.698 42.769 574.698C43.133 574.698 43.4364 574.619 43.679 574.46C43.931 574.292 44.1177 574.077 44.239 573.816H46.059C45.9284 574.255 45.709 574.656 45.401 575.02C45.1024 575.375 44.729 575.655 44.281 575.86C43.8424 576.065 43.343 576.168 42.783 576.168ZM42.797 570.344C42.3584 570.344 41.971 570.47 41.635 570.722C41.299 570.965 41.0844 571.338 40.991 571.842H44.449C44.421 571.385 44.253 571.021 43.945 570.75C43.637 570.479 43.2544 570.344 42.797 570.344ZM51.6073 576V566.2H52.7833V570.526H57.8653V566.2H59.0413V576H57.8653V571.492H52.7833V576H51.6073ZM64.1612 576.168C63.4986 576.168 62.9106 576.019 62.3972 575.72C61.8839 575.412 61.4779 574.987 61.1792 574.446C60.8899 573.905 60.7452 573.265 60.7452 572.528C60.7452 571.8 60.8899 571.165 61.1792 570.624C61.4686 570.073 61.8699 569.649 62.3832 569.35C62.9059 569.042 63.5079 568.888 64.1892 568.888C64.8612 568.888 65.4399 569.042 65.9252 569.35C66.4199 569.649 66.7979 570.045 67.0592 570.54C67.3206 571.035 67.4512 571.567 67.4512 572.136C67.4512 572.239 67.4466 572.341 67.4372 572.444C67.4372 572.547 67.4372 572.663 67.4372 572.794H61.9072C61.9352 573.326 62.0566 573.769 62.2712 574.124C62.4952 574.469 62.7706 574.731 63.0972 574.908C63.4332 575.085 63.7879 575.174 64.1612 575.174C64.6466 575.174 65.0526 575.062 65.3792 574.838C65.7059 574.614 65.9439 574.311 66.0932 573.928H67.2552C67.0686 574.572 66.7092 575.109 66.1772 575.538C65.6546 575.958 64.9826 576.168 64.1612 576.168ZM64.1612 569.882C63.6012 569.882 63.1019 570.055 62.6632 570.4C62.2339 570.736 61.9866 571.231 61.9212 571.884H66.2892C66.2612 571.259 66.0466 570.769 65.6452 570.414C65.2439 570.059 64.7492 569.882 64.1612 569.882ZM71.3199 576.168C70.7413 576.168 70.2606 576.07 69.8779 575.874C69.4953 575.678 69.2106 575.417 69.0239 575.09C68.8373 574.763 68.7439 574.409 68.7439 574.026C68.7439 573.317 69.0146 572.771 69.5559 572.388C70.0973 572.005 70.8346 571.814 71.7679 571.814H73.6439V571.73C73.6439 571.123 73.4853 570.666 73.1679 570.358C72.8506 570.041 72.4259 569.882 71.8939 569.882C71.4366 569.882 71.0399 569.999 70.7039 570.232C70.3773 570.456 70.1719 570.787 70.0879 571.226H68.8839C68.9306 570.722 69.0986 570.297 69.3879 569.952C69.6866 569.607 70.0553 569.345 70.4939 569.168C70.9326 568.981 71.3993 568.888 71.8939 568.888C72.8646 568.888 73.5926 569.149 74.0779 569.672C74.5726 570.185 74.8199 570.871 74.8199 571.73V576H73.7699L73.6999 574.754C73.5039 575.146 73.2146 575.482 72.8319 575.762C72.4586 576.033 71.9546 576.168 71.3199 576.168ZM71.5019 575.174C71.9499 575.174 72.3326 575.057 72.6499 574.824C72.9766 574.591 73.2239 574.287 73.3919 573.914C73.5599 573.541 73.6439 573.149 73.6439 572.738V572.724H71.8659C71.1753 572.724 70.6853 572.845 70.3959 573.088C70.1159 573.321 69.9759 573.615 69.9759 573.97C69.9759 574.334 70.1066 574.628 70.3679 574.852C70.6386 575.067 71.0166 575.174 71.5019 575.174ZM76.5842 576V565.92H77.7602V576H76.5842ZM82.4317 576C81.797 576 81.2977 575.846 80.9337 575.538C80.5697 575.23 80.3877 574.675 80.3877 573.872V570.05H79.1837V569.056H80.3877L80.5417 567.39H81.5637V569.056H83.6077V570.05H81.5637V573.872C81.5637 574.311 81.6523 574.609 81.8297 574.768C82.007 574.917 82.3197 574.992 82.7677 574.992H83.4957V576H82.4317ZM85.1017 576V565.92H86.2777V570.246C86.5111 569.817 86.8424 569.485 87.2717 569.252C87.7011 569.009 88.1677 568.888 88.6717 568.888C89.4744 568.888 90.1184 569.14 90.6037 569.644C91.0891 570.139 91.3317 570.904 91.3317 571.94V576H90.1697V572.066C90.1697 570.619 89.5864 569.896 88.4197 569.896C87.8131 569.896 87.3044 570.115 86.8937 570.554C86.4831 570.983 86.2777 571.599 86.2777 572.402V576H85.1017ZM101.187 576.168C100.225 576.168 99.3945 575.958 98.6945 575.538C98.0039 575.109 97.4672 574.516 97.0845 573.76C96.7019 572.995 96.5105 572.108 96.5105 571.1C96.5105 570.101 96.7019 569.224 97.0845 568.468C97.4672 567.703 98.0039 567.105 98.6945 566.676C99.3945 566.247 100.225 566.032 101.187 566.032C102.307 566.032 103.217 566.303 103.917 566.844C104.626 567.376 105.079 568.123 105.275 569.084H103.973C103.823 568.477 103.515 567.992 103.049 567.628C102.591 567.255 101.971 567.068 101.187 567.068C100.487 567.068 99.8752 567.231 99.3525 567.558C98.8299 567.875 98.4239 568.337 98.1345 568.944C97.8545 569.541 97.7145 570.26 97.7145 571.1C97.7145 571.94 97.8545 572.663 98.1345 573.27C98.4239 573.867 98.8299 574.329 99.3525 574.656C99.8752 574.973 100.487 575.132 101.187 575.132C101.971 575.132 102.591 574.955 103.049 574.6C103.515 574.236 103.823 573.755 103.973 573.158H105.275C105.079 574.101 104.626 574.838 103.917 575.37C103.217 575.902 102.307 576.168 101.187 576.168ZM109.205 576.168C108.626 576.168 108.145 576.07 107.763 575.874C107.38 575.678 107.095 575.417 106.909 575.09C106.722 574.763 106.629 574.409 106.629 574.026C106.629 573.317 106.899 572.771 107.441 572.388C107.982 572.005 108.719 571.814 109.653 571.814H111.529V571.73C111.529 571.123 111.37 570.666 111.053 570.358C110.735 570.041 110.311 569.882 109.779 569.882C109.321 569.882 108.925 569.999 108.589 570.232C108.262 570.456 108.057 570.787 107.973 571.226H106.769C106.815 570.722 106.983 570.297 107.273 569.952C107.571 569.607 107.94 569.345 108.379 569.168C108.817 568.981 109.284 568.888 109.779 568.888C110.749 568.888 111.477 569.149 111.963 569.672C112.457 570.185 112.705 570.871 112.705 571.73V576H111.655L111.585 574.754C111.389 575.146 111.099 575.482 110.717 575.762C110.343 576.033 109.839 576.168 109.205 576.168ZM109.387 575.174C109.835 575.174 110.217 575.057 110.535 574.824C110.861 574.591 111.109 574.287 111.277 573.914C111.445 573.541 111.529 573.149 111.529 572.738V572.724H109.751C109.06 572.724 108.57 572.845 108.281 573.088C108.001 573.321 107.861 573.615 107.861 573.97C107.861 574.334 107.991 574.628 108.253 574.852C108.523 575.067 108.901 575.174 109.387 575.174ZM114.469 576V569.056H115.533L115.631 570.386C115.846 569.929 116.172 569.565 116.611 569.294C117.05 569.023 117.591 568.888 118.235 568.888V570.12H117.913C117.502 570.12 117.124 570.195 116.779 570.344C116.434 570.484 116.158 570.727 115.953 571.072C115.748 571.417 115.645 571.893 115.645 572.5V576H114.469ZM122.417 576.168C121.754 576.168 121.166 576.019 120.653 575.72C120.14 575.412 119.734 574.987 119.435 574.446C119.146 573.905 119.001 573.265 119.001 572.528C119.001 571.8 119.146 571.165 119.435 570.624C119.724 570.073 120.126 569.649 120.639 569.35C121.162 569.042 121.764 568.888 122.445 568.888C123.117 568.888 123.696 569.042 124.181 569.35C124.676 569.649 125.054 570.045 125.315 570.54C125.576 571.035 125.707 571.567 125.707 572.136C125.707 572.239 125.702 572.341 125.693 572.444C125.693 572.547 125.693 572.663 125.693 572.794H120.163C120.191 573.326 120.312 573.769 120.527 574.124C120.751 574.469 121.026 574.731 121.353 574.908C121.689 575.085 122.044 575.174 122.417 575.174C122.902 575.174 123.308 575.062 123.635 574.838C123.962 574.614 124.2 574.311 124.349 573.928H125.511C125.324 574.572 124.965 575.109 124.433 575.538C123.91 575.958 123.238 576.168 122.417 576.168ZM122.417 569.882C121.857 569.882 121.358 570.055 120.919 570.4C120.49 570.736 120.242 571.231 120.177 571.884H124.545C124.517 571.259 124.302 570.769 123.901 570.414C123.5 570.059 123.005 569.882 122.417 569.882ZM133.057 576.014L130.369 566.2H131.629L133.743 574.614L136.151 566.2H137.453L139.791 574.614L141.933 566.2H143.193L140.449 576H139.105L136.767 567.908L134.373 576L133.057 576.014ZM145.22 567.516C144.987 567.516 144.791 567.441 144.632 567.292C144.483 567.133 144.408 566.937 144.408 566.704C144.408 566.48 144.483 566.293 144.632 566.144C144.791 565.995 144.987 565.92 145.22 565.92C145.444 565.92 145.635 565.995 145.794 566.144C145.953 566.293 146.032 566.48 146.032 566.704C146.032 566.937 145.953 567.133 145.794 567.292C145.635 567.441 145.444 567.516 145.22 567.516ZM144.632 576V569.056H145.808V576H144.632ZM150.6 576C149.965 576 149.466 575.846 149.102 575.538C148.738 575.23 148.556 574.675 148.556 573.872V570.05H147.352V569.056H148.556L148.71 567.39H149.732V569.056H151.776V570.05H149.732V573.872C149.732 574.311 149.82 574.609 149.998 574.768C150.175 574.917 150.488 574.992 150.936 574.992H151.664V576H150.6ZM153.27 576V565.92H154.446V570.246C154.679 569.817 155.01 569.485 155.44 569.252C155.869 569.009 156.336 568.888 156.84 568.888C157.642 568.888 158.286 569.14 158.772 569.644C159.257 570.139 159.5 570.904 159.5 571.94V576H158.338V572.066C158.338 570.619 157.754 569.896 156.588 569.896C155.981 569.896 155.472 570.115 155.062 570.554C154.651 570.983 154.446 571.599 154.446 572.402V576H153.27ZM164.445 576.168C163.792 576.168 163.204 576.019 162.681 575.72C162.159 575.421 161.743 575.001 161.435 574.46C161.137 573.909 160.987 573.265 160.987 572.528C160.987 571.791 161.141 571.151 161.449 570.61C161.757 570.059 162.173 569.635 162.695 569.336C163.227 569.037 163.82 568.888 164.473 568.888C165.127 568.888 165.715 569.037 166.237 569.336C166.76 569.635 167.171 570.059 167.469 570.61C167.777 571.151 167.931 571.791 167.931 572.528C167.931 573.265 167.777 573.909 167.469 574.46C167.161 575.001 166.741 575.421 166.209 575.72C165.687 576.019 165.099 576.168 164.445 576.168ZM164.445 575.16C164.847 575.16 165.22 575.062 165.565 574.866C165.911 574.67 166.191 574.376 166.405 573.984C166.62 573.592 166.727 573.107 166.727 572.528C166.727 571.949 166.62 571.464 166.405 571.072C166.2 570.68 165.925 570.386 165.579 570.19C165.234 569.994 164.865 569.896 164.473 569.896C164.072 569.896 163.699 569.994 163.353 570.19C163.008 570.386 162.728 570.68 162.513 571.072C162.299 571.464 162.191 571.949 162.191 572.528C162.191 573.107 162.299 573.592 162.513 573.984C162.728 574.376 163.003 574.67 163.339 574.866C163.685 575.062 164.053 575.16 164.445 575.16ZM172.101 576.168C171.279 576.168 170.626 575.921 170.141 575.426C169.655 574.922 169.413 574.152 169.413 573.116V569.056H170.589V572.99C170.589 574.437 171.181 575.16 172.367 575.16C172.973 575.16 173.473 574.945 173.865 574.516C174.266 574.077 174.467 573.457 174.467 572.654V569.056H175.643V576H174.579L174.495 574.754C174.28 575.193 173.958 575.538 173.529 575.79C173.109 576.042 172.633 576.168 172.101 576.168ZM180.322 576C179.688 576 179.188 575.846 178.824 575.538C178.46 575.23 178.278 574.675 178.278 573.872V570.05H177.074V569.056H178.278L178.432 567.39H179.454V569.056H181.498V570.05H179.454V573.872C179.454 574.311 179.543 574.609 179.72 574.768C179.898 574.917 180.21 574.992 180.658 574.992H181.386V576H180.322ZM186.767 576V566.2H187.943V570.526H193.025V566.2H194.201V576H193.025V571.492H187.943V576H186.767ZM198.509 576.168C197.931 576.168 197.45 576.07 197.067 575.874C196.685 575.678 196.4 575.417 196.213 575.09C196.027 574.763 195.933 574.409 195.933 574.026C195.933 573.317 196.204 572.771 196.745 572.388C197.287 572.005 198.024 571.814 198.957 571.814H200.833V571.73C200.833 571.123 200.675 570.666 200.357 570.358C200.04 570.041 199.615 569.882 199.083 569.882C198.626 569.882 198.229 569.999 197.893 570.232C197.567 570.456 197.361 570.787 197.277 571.226H196.073C196.12 570.722 196.288 570.297 196.577 569.952C196.876 569.607 197.245 569.345 197.683 569.168C198.122 568.981 198.589 568.888 199.083 568.888C200.054 568.888 200.782 569.149 201.267 569.672C201.762 570.185 202.009 570.871 202.009 571.73V576H200.959L200.889 574.754C200.693 575.146 200.404 575.482 200.021 575.762C199.648 576.033 199.144 576.168 198.509 576.168ZM198.691 575.174C199.139 575.174 199.522 575.057 199.839 574.824C200.166 574.591 200.413 574.287 200.581 573.914C200.749 573.541 200.833 573.149 200.833 572.738V572.724H199.055C198.365 572.724 197.875 572.845 197.585 573.088C197.305 573.321 197.165 573.615 197.165 573.97C197.165 574.334 197.296 574.628 197.557 574.852C197.828 575.067 198.206 575.174 198.691 575.174ZM203.774 576V569.056H204.838L204.936 570.386C205.15 569.929 205.477 569.565 205.916 569.294C206.354 569.023 206.896 568.888 207.54 568.888V570.12H207.218C206.807 570.12 206.429 570.195 206.084 570.344C205.738 570.484 205.463 570.727 205.258 571.072C205.052 571.417 204.95 571.893 204.95 572.5V576H203.774ZM208.86 576V569.056H209.924L210.008 570.064C210.232 569.691 210.53 569.401 210.904 569.196C211.277 568.991 211.697 568.888 212.164 568.888C212.714 568.888 213.186 569 213.578 569.224C213.979 569.448 214.287 569.789 214.502 570.246C214.744 569.826 215.076 569.495 215.496 569.252C215.925 569.009 216.387 568.888 216.882 568.888C217.712 568.888 218.375 569.14 218.87 569.644C219.364 570.139 219.612 570.904 219.612 571.94V576H218.45V572.066C218.45 571.347 218.305 570.806 218.016 570.442C217.726 570.078 217.311 569.896 216.77 569.896C216.21 569.896 215.743 570.115 215.37 570.554C215.006 570.983 214.824 571.599 214.824 572.402V576H213.648V572.066C213.648 571.347 213.503 570.806 213.214 570.442C212.924 570.078 212.509 569.896 211.968 569.896C211.417 569.896 210.955 570.115 210.582 570.554C210.218 570.983 210.036 571.599 210.036 572.402V576H208.86Z" fill="white"/>
<rect x="25.5" y="25" width="176.371" height="281.788" fill="#F24E1E" stroke="white" stroke-width="2"/>
<path d="M64.3189 170.395V163.231H61.8709V161.995H68.3149V163.231H65.8549V170.395H64.3189ZM71.0511 170.539C70.3071 170.539 69.7311 170.307 69.3231 169.843C68.9231 169.379 68.7231 168.699 68.7231 167.803V164.443H70.2471V167.659C70.2471 168.171 70.3511 168.563 70.5591 168.835C70.7671 169.107 71.0951 169.243 71.5431 169.243C71.9671 169.243 72.3151 169.091 72.5871 168.787C72.8671 168.483 73.0071 168.059 73.0071 167.515V164.443H74.5431V170.395H73.1871L73.0671 169.387C72.8831 169.739 72.6151 170.019 72.2631 170.227C71.9191 170.435 71.5151 170.539 71.0511 170.539ZM78.7718 170.395C78.1478 170.395 77.6478 170.243 77.2718 169.939C76.8958 169.635 76.7078 169.095 76.7078 168.319V165.727H75.6878V164.443H76.7078L76.8878 162.847H78.2438V164.443H79.8518V165.727H78.2438V168.331C78.2438 168.619 78.3038 168.819 78.4238 168.931C78.5518 169.035 78.7678 169.087 79.0718 169.087H79.8158V170.395H78.7718ZM83.8226 170.395C83.1986 170.395 82.6986 170.243 82.3226 169.939C81.9466 169.635 81.7586 169.095 81.7586 168.319V165.727H80.7386V164.443H81.7586L81.9386 162.847H83.2946V164.443H84.9026V165.727H83.2946V168.331C83.2946 168.619 83.3546 168.819 83.4746 168.931C83.6026 169.035 83.8186 169.087 84.1226 169.087H84.8666V170.395H83.8226ZM87.0494 163.519C86.7694 163.519 86.5374 163.435 86.3534 163.267C86.1774 163.099 86.0894 162.887 86.0894 162.631C86.0894 162.375 86.1774 162.167 86.3534 162.007C86.5374 161.839 86.7694 161.755 87.0494 161.755C87.3294 161.755 87.5574 161.839 87.7334 162.007C87.9174 162.167 88.0094 162.375 88.0094 162.631C88.0094 162.887 87.9174 163.099 87.7334 163.267C87.5574 163.435 87.3294 163.519 87.0494 163.519ZM86.2814 170.395V164.443H87.8174V170.395H86.2814ZM94.8 168.619C94.512 168.619 94.244 168.587 93.996 168.523L93.552 168.967C93.688 169.039 93.872 169.099 94.104 169.147C94.336 169.195 94.712 169.243 95.232 169.291C96.024 169.363 96.6 169.551 96.96 169.855C97.32 170.159 97.5 170.579 97.5 171.115C97.5 171.467 97.404 171.799 97.212 172.111C97.02 172.431 96.724 172.687 96.324 172.879C95.924 173.079 95.412 173.179 94.788 173.179C93.94 173.179 93.256 173.019 92.736 172.699C92.216 172.387 91.956 171.915 91.956 171.283C91.956 170.747 92.216 170.283 92.736 169.891C92.576 169.819 92.436 169.743 92.316 169.663C92.204 169.583 92.104 169.499 92.016 169.411V169.135L93.06 168.031C92.596 167.623 92.364 167.099 92.364 166.459C92.364 166.059 92.46 165.695 92.652 165.367C92.852 165.039 93.132 164.779 93.492 164.587C93.852 164.395 94.288 164.299 94.8 164.299C95.136 164.299 95.448 164.347 95.736 164.443H97.992V165.379L96.972 165.451C97.132 165.755 97.212 166.091 97.212 166.459C97.212 166.859 97.116 167.223 96.924 167.551C96.732 167.879 96.452 168.139 96.084 168.331C95.724 168.523 95.296 168.619 94.8 168.619ZM94.8 167.443C95.112 167.443 95.368 167.359 95.568 167.191C95.776 167.023 95.88 166.783 95.88 166.471C95.88 166.159 95.776 165.919 95.568 165.751C95.368 165.583 95.112 165.499 94.8 165.499C94.472 165.499 94.208 165.583 94.008 165.751C93.808 165.919 93.708 166.159 93.708 166.471C93.708 166.783 93.808 167.023 94.008 167.191C94.208 167.359 94.472 167.443 94.8 167.443ZM93.36 171.127C93.36 171.423 93.496 171.643 93.768 171.787C94.048 171.939 94.388 172.015 94.788 172.015C95.172 172.015 95.484 171.935 95.724 171.775C95.964 171.623 96.084 171.415 96.084 171.151C96.084 170.935 96.004 170.755 95.844 170.611C95.692 170.467 95.384 170.379 94.92 170.347C94.592 170.323 94.288 170.287 94.008 170.239C93.776 170.367 93.608 170.507 93.504 170.659C93.408 170.811 93.36 170.967 93.36 171.127ZM99.112 170.395V161.755H100.648V170.395H99.112ZM103.046 163.519C102.766 163.519 102.534 163.435 102.35 163.267C102.174 163.099 102.086 162.887 102.086 162.631C102.086 162.375 102.174 162.167 102.35 162.007C102.534 161.839 102.766 161.755 103.046 161.755C103.326 161.755 103.554 161.839 103.73 162.007C103.914 162.167 104.006 162.375 104.006 162.631C104.006 162.887 103.914 163.099 103.73 163.267C103.554 163.435 103.326 163.519 103.046 163.519ZM102.278 170.395V164.443H103.814V170.395H102.278ZM110.328 170.539C109.816 170.539 109.396 170.459 109.068 170.299C108.74 170.131 108.496 169.911 108.336 169.639C108.176 169.367 108.096 169.067 108.096 168.739C108.096 168.187 108.312 167.739 108.744 167.395C109.176 167.051 109.824 166.879 110.688 166.879H112.2V166.735C112.2 166.327 112.084 166.027 111.852 165.835C111.62 165.643 111.332 165.547 110.988 165.547C110.676 165.547 110.404 165.623 110.172 165.775C109.94 165.919 109.796 166.135 109.74 166.423H108.24C108.28 165.991 108.424 165.615 108.672 165.295C108.928 164.975 109.256 164.731 109.656 164.563C110.056 164.387 110.504 164.299 111 164.299C111.848 164.299 112.516 164.511 113.004 164.935C113.492 165.359 113.736 165.959 113.736 166.735V170.395H112.428L112.284 169.435C112.108 169.755 111.86 170.019 111.54 170.227C111.228 170.435 110.824 170.539 110.328 170.539ZM110.676 169.339C111.116 169.339 111.456 169.195 111.696 168.907C111.944 168.619 112.1 168.263 112.164 167.839H110.856C110.448 167.839 110.156 167.915 109.98 168.067C109.804 168.211 109.716 168.391 109.716 168.607C109.716 168.839 109.804 169.019 109.98 169.147C110.156 169.275 110.388 169.339 110.676 169.339ZM115.202 170.395V161.755H116.738V170.395H115.202ZM120.959 170.395C120.335 170.395 119.835 170.243 119.459 169.939C119.083 169.635 118.895 169.095 118.895 168.319V165.727H117.875V164.443H118.895L119.075 162.847H120.431V164.443H122.039V165.727H120.431V168.331C120.431 168.619 120.491 168.819 120.611 168.931C120.739 169.035 120.955 169.087 121.259 169.087H122.003V170.395H120.959ZM123.358 170.395V164.443H124.726L124.87 165.559C125.086 165.175 125.378 164.871 125.746 164.647C126.122 164.415 126.562 164.299 127.066 164.299V165.919H126.634C126.298 165.919 125.998 165.971 125.734 166.075C125.47 166.179 125.262 166.359 125.11 166.615C124.966 166.871 124.894 167.227 124.894 167.683V170.395H123.358ZM128.944 163.519C128.664 163.519 128.432 163.435 128.248 163.267C128.072 163.099 127.984 162.887 127.984 162.631C127.984 162.375 128.072 162.167 128.248 162.007C128.432 161.839 128.664 161.755 128.944 161.755C129.224 161.755 129.452 161.839 129.628 162.007C129.812 162.167 129.904 162.375 129.904 162.631C129.904 162.887 129.812 163.099 129.628 163.267C129.452 163.435 129.224 163.519 128.944 163.519ZM128.176 170.395V164.443H129.712V170.395H128.176ZM134.175 173.035V164.443H135.543L135.711 165.295C135.903 165.031 136.155 164.799 136.467 164.599C136.787 164.399 137.199 164.299 137.703 164.299C138.263 164.299 138.763 164.435 139.203 164.707C139.643 164.979 139.991 165.351 140.247 165.823C140.503 166.295 140.631 166.831 140.631 167.431C140.631 168.031 140.503 168.567 140.247 169.039C139.991 169.503 139.643 169.871 139.203 170.143C138.763 170.407 138.263 170.539 137.703 170.539C137.255 170.539 136.863 170.455 136.527 170.287C136.191 170.119 135.919 169.883 135.711 169.579V173.035H134.175ZM137.379 169.195C137.867 169.195 138.271 169.031 138.591 168.703C138.911 168.375 139.071 167.951 139.071 167.431C139.071 166.911 138.911 166.483 138.591 166.147C138.271 165.811 137.867 165.643 137.379 165.643C136.883 165.643 136.475 165.811 136.155 166.147C135.843 166.475 135.687 166.899 135.687 167.419C135.687 167.939 135.843 168.367 136.155 168.703C136.475 169.031 136.883 169.195 137.379 169.195ZM144.055 170.539C143.543 170.539 143.123 170.459 142.795 170.299C142.467 170.131 142.223 169.911 142.063 169.639C141.903 169.367 141.823 169.067 141.823 168.739C141.823 168.187 142.039 167.739 142.471 167.395C142.903 167.051 143.551 166.879 144.415 166.879H145.927V166.735C145.927 166.327 145.811 166.027 145.579 165.835C145.347 165.643 145.059 165.547 144.715 165.547C144.403 165.547 144.131 165.623 143.899 165.775C143.667 165.919 143.523 166.135 143.467 166.423H141.967C142.007 165.991 142.151 165.615 142.399 165.295C142.655 164.975 142.983 164.731 143.383 164.563C143.783 164.387 144.231 164.299 144.727 164.299C145.575 164.299 146.243 164.511 146.731 164.935C147.219 165.359 147.463 165.959 147.463 166.735V170.395H146.155L146.011 169.435C145.835 169.755 145.587 170.019 145.267 170.227C144.955 170.435 144.551 170.539 144.055 170.539ZM144.403 169.339C144.843 169.339 145.183 169.195 145.423 168.907C145.671 168.619 145.827 168.263 145.891 167.839H144.583C144.175 167.839 143.883 167.915 143.707 168.067C143.531 168.211 143.443 168.391 143.443 168.607C143.443 168.839 143.531 169.019 143.707 169.147C143.883 169.275 144.115 169.339 144.403 169.339ZM151.82 170.539C151.22 170.539 150.688 170.411 150.224 170.155C149.76 169.899 149.396 169.539 149.132 169.075C148.868 168.611 148.736 168.075 148.736 167.467C148.736 166.851 148.864 166.303 149.12 165.823C149.384 165.343 149.744 164.971 150.2 164.707C150.664 164.435 151.208 164.299 151.832 164.299C152.416 164.299 152.932 164.427 153.38 164.683C153.828 164.939 154.176 165.291 154.424 165.739C154.68 166.179 154.808 166.671 154.808 167.215C154.808 167.303 154.804 167.395 154.796 167.491C154.796 167.587 154.792 167.687 154.784 167.791H150.26C150.292 168.255 150.452 168.619 150.74 168.883C151.036 169.147 151.392 169.279 151.808 169.279C152.12 169.279 152.38 169.211 152.588 169.075C152.804 168.931 152.964 168.747 153.068 168.523H154.628C154.516 168.899 154.328 169.243 154.064 169.555C153.808 169.859 153.488 170.099 153.104 170.275C152.728 170.451 152.3 170.539 151.82 170.539ZM151.832 165.547C151.456 165.547 151.124 165.655 150.836 165.871C150.548 166.079 150.364 166.399 150.284 166.831H153.248C153.224 166.439 153.08 166.127 152.816 165.895C152.552 165.663 152.224 165.547 151.832 165.547ZM158.56 170.539C158.032 170.539 157.568 170.455 157.168 170.287C156.768 170.111 156.448 169.871 156.208 169.567C155.968 169.263 155.824 168.911 155.776 168.511H157.324C157.372 168.743 157.5 168.943 157.708 169.111C157.924 169.271 158.2 169.351 158.536 169.351C158.872 169.351 159.116 169.283 159.268 169.147C159.428 169.011 159.508 168.855 159.508 168.679C159.508 168.423 159.396 168.251 159.172 168.163C158.948 168.067 158.636 167.975 158.236 167.887C157.98 167.831 157.72 167.763 157.456 167.683C157.192 167.603 156.948 167.503 156.724 167.383C156.508 167.255 156.332 167.095 156.196 166.903C156.06 166.703 155.992 166.459 155.992 166.171C155.992 165.643 156.2 165.199 156.616 164.839C157.04 164.479 157.632 164.299 158.392 164.299C159.096 164.299 159.656 164.463 160.072 164.791C160.496 165.119 160.748 165.571 160.828 166.147H159.376C159.288 165.707 158.956 165.487 158.38 165.487C158.092 165.487 157.868 165.543 157.708 165.655C157.556 165.767 157.48 165.907 157.48 166.075C157.48 166.251 157.596 166.391 157.828 166.495C158.06 166.599 158.368 166.695 158.752 166.783C159.168 166.879 159.548 166.987 159.892 167.107C160.244 167.219 160.524 167.391 160.732 167.623C160.94 167.847 161.044 168.171 161.044 168.595C161.052 168.963 160.956 169.295 160.756 169.591C160.556 169.887 160.268 170.119 159.892 170.287C159.516 170.455 159.072 170.539 158.56 170.539ZM163.233 163.519C162.953 163.519 162.721 163.435 162.537 163.267C162.361 163.099 162.273 162.887 162.273 162.631C162.273 162.375 162.361 162.167 162.537 162.007C162.721 161.839 162.953 161.755 163.233 161.755C163.513 161.755 163.741 161.839 163.917 162.007C164.101 162.167 164.193 162.375 164.193 162.631C164.193 162.887 164.101 163.099 163.917 163.267C163.741 163.435 163.513 163.519 163.233 163.519ZM162.465 170.395V164.443H164.001V170.395H162.465Z" fill="white"/>
<rect x="203.871" y="25" width="106.629" height="222.884" fill="#F24E1E" stroke="white" stroke-width="2"/>
<rect x="25.5" y="308.788" width="176.371" height="216.212" fill="#F24E1E" stroke="white" stroke-width="2"/>
<rect x="203.871" y="249.885" width="60.5954" height="275.116" fill="#F24E1E" stroke="white" stroke-width="2"/>
<rect x="266.466" y="249.885" width="44.0336" height="152.042" fill="#F24E1E" stroke="white" stroke-width="2"/>
<rect x="266.466" y="403.926" width="44.0336" height="121.073" fill="#F24E1E" stroke="white" stroke-width="2"/>
<path d="M248.669 141.086C247.821 141.086 247.093 140.906 246.485 140.546C245.877 140.178 245.409 139.67 245.081 139.022C244.753 138.366 244.589 137.61 244.589 136.754C244.589 135.898 244.753 135.142 245.081 134.486C245.409 133.83 245.877 133.318 246.485 132.95C247.093 132.582 247.821 132.398 248.669 132.398C249.677 132.398 250.501 132.65 251.141 133.154C251.789 133.65 252.193 134.35 252.353 135.254H250.661C250.557 134.798 250.333 134.442 249.989 134.186C249.653 133.922 249.205 133.79 248.645 133.79C247.869 133.79 247.261 134.054 246.821 134.582C246.381 135.11 246.161 135.834 246.161 136.754C246.161 137.674 246.381 138.398 246.821 138.926C247.261 139.446 247.869 139.706 248.645 139.706C249.205 139.706 249.653 139.586 249.989 139.346C250.333 139.098 250.557 138.758 250.661 138.326H252.353C252.193 139.19 251.789 139.866 251.141 140.354C250.501 140.842 249.677 141.086 248.669 141.086ZM254.504 134.066C254.224 134.066 253.992 133.982 253.808 133.814C253.632 133.646 253.544 133.434 253.544 133.178C253.544 132.922 253.632 132.714 253.808 132.554C253.992 132.386 254.224 132.302 254.504 132.302C254.784 132.302 255.012 132.386 255.188 132.554C255.372 132.714 255.464 132.922 255.464 133.178C255.464 133.434 255.372 133.646 255.188 133.814C255.012 133.982 254.784 134.066 254.504 134.066ZM253.736 140.942V134.99H255.272V140.942H253.736ZM256.876 140.942V134.99H258.232L258.352 135.998C258.536 135.646 258.8 135.366 259.144 135.158C259.496 134.95 259.908 134.846 260.38 134.846C261.116 134.846 261.688 135.078 262.096 135.542C262.504 136.006 262.708 136.686 262.708 137.582V140.942H261.172V137.726C261.172 137.214 261.068 136.822 260.86 136.55C260.652 136.278 260.328 136.142 259.888 136.142C259.456 136.142 259.1 136.294 258.82 136.598C258.548 136.902 258.412 137.326 258.412 137.87V140.942H256.876ZM266.228 141.086C265.716 141.086 265.296 141.006 264.968 140.846C264.64 140.678 264.396 140.458 264.236 140.186C264.076 139.914 263.996 139.614 263.996 139.286C263.996 138.734 264.212 138.286 264.644 137.942C265.076 137.598 265.724 137.426 266.588 137.426H268.1V137.282C268.1 136.874 267.984 136.574 267.752 136.382C267.52 136.19 267.232 136.094 266.888 136.094C266.576 136.094 266.304 136.17 266.072 136.322C265.84 136.466 265.696 136.682 265.64 136.97H264.14C264.18 136.538 264.324 136.162 264.572 135.842C264.828 135.522 265.156 135.278 265.556 135.11C265.956 134.934 266.404 134.846 266.9 134.846C267.748 134.846 268.416 135.058 268.904 135.482C269.392 135.906 269.636 136.506 269.636 137.282V140.942H268.328L268.184 139.982C268.008 140.302 267.76 140.566 267.44 140.774C267.128 140.982 266.724 141.086 266.228 141.086ZM266.576 139.886C267.016 139.886 267.356 139.742 267.596 139.454C267.844 139.166 268 138.81 268.064 138.386H266.756C266.348 138.386 266.056 138.462 265.88 138.614C265.704 138.758 265.616 138.938 265.616 139.154C265.616 139.386 265.704 139.566 265.88 139.694C266.056 139.822 266.288 139.886 266.576 139.886Z" fill="white"/>
<path d="M110.077 421.539C109.461 421.539 108.905 421.419 108.409 421.179C107.913 420.931 107.517 420.559 107.221 420.063C106.933 419.567 106.789 418.939 106.789 418.179V412.995H108.325V418.191C108.325 418.847 108.481 419.335 108.793 419.655C109.113 419.975 109.553 420.135 110.113 420.135C110.665 420.135 111.101 419.975 111.421 419.655C111.741 419.335 111.901 418.847 111.901 418.191V412.995H113.437V418.179C113.437 418.939 113.285 419.567 112.981 420.063C112.677 420.559 112.269 420.931 111.757 421.179C111.253 421.419 110.693 421.539 110.077 421.539ZM117.873 421.539C117.257 421.539 116.713 421.435 116.241 421.227C115.769 421.011 115.397 420.707 115.125 420.315C114.853 419.915 114.713 419.431 114.705 418.863H116.325C116.341 419.255 116.481 419.587 116.745 419.859C117.017 420.123 117.389 420.255 117.861 420.255C118.269 420.255 118.593 420.159 118.833 419.967C119.073 419.767 119.193 419.503 119.193 419.175C119.193 418.831 119.085 418.563 118.869 418.371C118.661 418.179 118.381 418.023 118.029 417.903C117.677 417.783 117.301 417.655 116.901 417.519C116.253 417.295 115.757 417.007 115.413 416.655C115.077 416.303 114.909 415.835 114.909 415.251C114.901 414.755 115.017 414.331 115.257 413.979C115.505 413.619 115.841 413.343 116.265 413.151C116.689 412.951 117.177 412.851 117.729 412.851C118.289 412.851 118.781 412.951 119.205 413.151C119.637 413.351 119.973 413.631 120.213 413.991C120.461 414.351 120.593 414.779 120.609 415.275H118.965C118.957 414.979 118.841 414.719 118.617 414.495C118.401 414.263 118.097 414.147 117.705 414.147C117.369 414.139 117.085 414.223 116.853 414.399C116.629 414.567 116.517 414.815 116.517 415.143C116.517 415.423 116.605 415.647 116.781 415.815C116.957 415.975 117.197 416.111 117.501 416.223C117.805 416.335 118.153 416.455 118.545 416.583C118.961 416.727 119.341 416.895 119.685 417.087C120.029 417.279 120.305 417.535 120.513 417.855C120.721 418.167 120.825 418.571 120.825 419.067C120.825 419.507 120.713 419.915 120.489 420.291C120.265 420.667 119.933 420.971 119.493 421.203C119.053 421.427 118.513 421.539 117.873 421.539Z" fill="white"/>
<path d="M227.432 391.942V383.542H232.916V384.778H228.968V387.082H232.556V388.282H228.968V390.706H232.916V391.942H227.432ZM237.609 392.086C236.993 392.086 236.437 391.966 235.941 391.726C235.445 391.478 235.049 391.106 234.753 390.61C234.465 390.114 234.321 389.486 234.321 388.726V383.542H235.857V388.738C235.857 389.394 236.013 389.882 236.325 390.202C236.645 390.522 237.085 390.682 237.645 390.682C238.197 390.682 238.633 390.522 238.953 390.202C239.273 389.882 239.433 389.394 239.433 388.738V383.542H240.969V388.726C240.969 389.486 240.817 390.114 240.513 390.61C240.209 391.106 239.801 391.478 239.289 391.726C238.785 391.966 238.225 392.086 237.609 392.086Z" fill="white"/>
<path d="M293.127 351.675C293.127 352.467 292.947 353.159 292.587 353.751C292.227 354.343 291.727 354.803 291.087 355.131C290.439 355.459 289.687 355.623 288.831 355.623C287.967 355.623 287.207 355.455 286.551 355.119C285.887 354.775 285.371 354.291 285.003 353.667C284.627 353.035 284.439 352.287 284.439 351.423C284.439 350.439 284.675 349.623 285.147 348.975C285.619 348.327 286.271 347.907 287.103 347.715L287.103 349.431C286.711 349.559 286.407 349.791 286.191 350.127C285.967 350.463 285.855 350.895 285.855 351.423C285.855 352.263 286.123 352.911 286.659 353.367C287.187 353.823 287.915 354.051 288.843 354.051C289.771 354.051 290.491 353.827 291.003 353.379C291.507 352.923 291.759 352.307 291.759 351.531C291.759 350.771 291.555 350.199 291.147 349.815C290.731 349.423 290.187 349.187 289.515 349.107L289.515 351.231L288.363 351.231L288.363 347.559L292.983 347.559L292.983 348.975L291.879 349.095C292.279 349.367 292.587 349.707 292.803 350.115C293.019 350.523 293.127 351.043 293.127 351.675ZM292.983 346.066L284.583 346.066L284.583 344.53L292.983 344.53L292.983 346.066ZM292.983 343.442L284.583 340.37L284.583 338.642L292.983 335.57L292.983 337.202L291.039 337.874L291.039 341.15L292.983 341.834L292.983 343.442ZM289.839 340.73L289.839 338.294L286.347 339.518L289.839 340.73ZM292.983 334.488L284.583 334.488L284.583 331.38C284.583 330.708 284.695 330.152 284.919 329.712C285.143 329.272 285.451 328.944 285.843 328.728C286.235 328.512 286.675 328.404 287.163 328.404C287.627 328.404 288.055 328.508 288.447 328.716C288.831 328.924 289.143 329.248 289.383 329.688C289.615 330.128 289.731 330.692 289.731 331.38L289.731 332.952L292.983 332.952L292.983 334.488ZM288.483 332.952L288.483 331.476C288.483 330.94 288.367 330.556 288.135 330.324C287.895 330.084 287.571 329.964 287.163 329.964C286.747 329.964 286.423 330.084 286.191 330.324C285.951 330.556 285.831 330.94 285.831 331.476L285.831 332.952L288.483 332.952ZM292.983 327.199L284.583 327.199L284.583 324.091C284.583 323.419 284.695 322.863 284.919 322.423C285.143 321.983 285.451 321.655 285.843 321.439C286.235 321.223 286.675 321.115 287.163 321.115C287.627 321.115 288.055 321.219 288.447 321.427C288.831 321.635 289.143 321.959 289.383 322.399C289.615 322.839 289.731 323.403 289.731 324.091L289.731 325.663L292.983 325.663L292.983 327.199ZM288.483 325.663L288.483 324.187C288.483 323.651 288.367 323.267 288.135 323.035C287.895 322.795 287.571 322.675 287.163 322.675C286.747 322.675 286.423 322.795 286.191 323.035C285.951 323.267 285.831 323.651 285.831 324.187L285.831 325.663L288.483 325.663ZM293.127 315.974C293.127 316.814 292.943 317.55 292.575 318.182C292.207 318.806 291.699 319.298 291.051 319.658C290.395 320.01 289.639 320.186 288.783 320.186C287.927 320.186 287.175 320.01 286.527 319.658C285.871 319.298 285.359 318.806 284.991 318.182C284.623 317.55 284.439 316.814 284.439 315.974C284.439 315.142 284.623 314.41 284.991 313.778C285.359 313.146 285.871 312.654 286.527 312.302C287.175 311.95 287.927 311.774 288.783 311.774C289.639 311.774 290.395 311.95 291.051 312.302C291.699 312.654 292.207 313.146 292.575 313.778C292.943 314.41 293.127 315.142 293.127 315.974ZM291.747 315.974C291.747 315.174 291.483 314.538 290.955 314.066C290.427 313.586 289.703 313.346 288.783 313.346C287.863 313.346 287.139 313.586 286.611 314.066C286.083 314.538 285.819 315.174 285.819 315.974C285.819 316.774 286.083 317.414 286.611 317.894C287.139 318.374 287.863 318.614 288.783 318.614C289.703 318.614 290.427 318.374 290.955 317.894C291.483 317.414 291.747 316.774 291.747 315.974ZM292.983 310.417L284.583 310.417L284.583 308.881L290.499 304.933L284.583 304.933L284.583 303.397L292.983 303.397L292.983 304.933L287.079 308.881L292.983 308.881L292.983 310.417ZM292.983 301.769L284.583 301.769L284.583 296.285L285.819 296.285L285.819 300.233L288.123 300.233L288.123 296.645L289.323 296.645L289.323 300.233L291.747 300.233L291.747 296.285L292.983 296.285L292.983 301.769Z" fill="white"/>
<path d="M292.983 484.918L284.583 484.918L284.583 481.834C284.583 481.162 284.699 480.61 284.931 480.178C285.155 479.738 285.463 479.41 285.855 479.194C286.239 478.978 286.667 478.87 287.139 478.87C287.651 478.87 288.119 479.006 288.543 479.278C288.967 479.542 289.275 479.958 289.467 480.526L292.983 478.786L292.983 480.55L289.671 482.11L289.671 483.382L292.983 483.382L292.983 484.918ZM288.543 483.382L288.543 481.93C288.543 481.418 288.419 481.042 288.171 480.802C287.923 480.562 287.595 480.442 287.187 480.442C286.787 480.442 286.467 480.562 286.227 480.802C285.987 481.034 285.867 481.414 285.867 481.942L285.867 483.382L288.543 483.382ZM293.127 474.202C293.127 474.818 293.007 475.374 292.767 475.87C292.519 476.366 292.147 476.762 291.651 477.058C291.155 477.346 290.527 477.49 289.767 477.49L284.583 477.49L284.583 475.954L289.779 475.954C290.435 475.954 290.923 475.798 291.243 475.486C291.563 475.166 291.723 474.726 291.723 474.166C291.723 473.614 291.563 473.178 291.243 472.858C290.923 472.538 290.435 472.378 289.779 472.378L284.583 472.378L284.583 470.842L289.767 470.842C290.527 470.842 291.155 470.994 291.651 471.298C292.147 471.602 292.519 472.01 292.767 472.522C293.007 473.026 293.127 473.586 293.127 474.202ZM293.127 466.406C293.127 467.022 293.023 467.566 292.815 468.038C292.599 468.51 292.295 468.882 291.903 469.154C291.503 469.426 291.019 469.566 290.451 469.574L290.451 467.954C290.843 467.938 291.175 467.798 291.447 467.534C291.711 467.262 291.843 466.89 291.843 466.418C291.843 466.01 291.747 465.686 291.555 465.446C291.355 465.206 291.091 465.086 290.763 465.086C290.419 465.086 290.151 465.194 289.959 465.41C289.767 465.618 289.611 465.898 289.491 466.25C289.371 466.602 289.243 466.978 289.107 467.378C288.883 468.026 288.595 468.522 288.243 468.866C287.891 469.202 287.423 469.37 286.839 469.37C286.343 469.378 285.919 469.262 285.567 469.022C285.207 468.774 284.931 468.438 284.739 468.014C284.539 467.59 284.439 467.102 284.439 466.55C284.439 465.99 284.539 465.498 284.739 465.074C284.939 464.642 285.219 464.306 285.579 464.066C285.939 463.818 286.367 463.686 286.863 463.67L286.863 465.314C286.567 465.322 286.307 465.438 286.083 465.662C285.851 465.878 285.735 466.182 285.735 466.574C285.727 466.91 285.811 467.194 285.987 467.426C286.155 467.65 286.403 467.762 286.731 467.762C287.011 467.762 287.235 467.674 287.403 467.498C287.563 467.322 287.699 467.082 287.811 466.778C287.923 466.474 288.043 466.126 288.171 465.734C288.315 465.318 288.483 464.938 288.675 464.594C288.867 464.25 289.123 463.974 289.443 463.766C289.755 463.558 290.159 463.454 290.655 463.454C291.095 463.454 291.503 463.566 291.879 463.79C292.255 464.014 292.559 464.346 292.791 464.786C293.015 465.226 293.127 465.766 293.127 466.406ZM293.127 459.246C293.127 459.862 293.023 460.406 292.815 460.878C292.599 461.35 292.295 461.722 291.903 461.994C291.503 462.266 291.019 462.406 290.451 462.414L290.451 460.794C290.843 460.778 291.175 460.638 291.447 460.374C291.711 460.102 291.843 459.73 291.843 459.258C291.843 458.85 291.747 458.526 291.555 458.286C291.355 458.046 291.091 457.926 290.763 457.926C290.419 457.926 290.151 458.034 289.959 458.25C289.767 458.458 289.611 458.738 289.491 459.09C289.371 459.442 289.243 459.818 289.107 460.218C288.883 460.866 288.595 461.362 288.243 461.706C287.891 462.042 287.423 462.21 286.839 462.21C286.343 462.218 285.919 462.102 285.567 461.862C285.207 461.614 284.931 461.278 284.739 460.854C284.539 460.43 284.439 459.942 284.439 459.39C284.439 458.83 284.539 458.338 284.739 457.914C284.939 457.482 285.219 457.146 285.579 456.906C285.939 456.658 286.367 456.526 286.863 456.51L286.863 458.154C286.567 458.162 286.307 458.278 286.083 458.502C285.851 458.718 285.735 459.022 285.735 459.414C285.727 459.75 285.811 460.034 285.987 460.266C286.155 460.49 286.403 460.602 286.731 460.602C287.011 460.602 287.235 460.514 287.403 460.338C287.563 460.162 287.699 459.922 287.811 459.618C287.923 459.314 288.043 458.966 288.171 458.574C288.315 458.158 288.483 457.778 288.675 457.434C288.867 457.09 289.123 456.814 289.443 456.606C289.755 456.398 290.159 456.294 290.655 456.294C291.095 456.294 291.503 456.406 291.879 456.63C292.255 456.854 292.559 457.186 292.791 457.626C293.015 458.066 293.127 458.606 293.127 459.246ZM292.983 454.954L284.583 454.954L284.583 453.418L292.983 453.418L292.983 454.954ZM292.983 452.329L284.583 449.257L284.583 447.529L292.983 444.457L292.983 446.089L291.039 446.761L291.039 450.037L292.983 450.721L292.983 452.329ZM289.839 449.617L289.839 447.181L286.347 448.405L289.839 449.617Z" fill="white"/>
</svg>
