<svg width="18" height="15" viewBox="0 0 18 15" fill="none" xmlns="http://www.w3.org/2000/svg">
<path d="M17.218 2.64792C16.5731 2.93167 15.8892 3.11802 15.189 3.20081C15.9271 2.76172 16.4795 2.07067 16.7433 1.25645C16.0506 1.6665 15.2912 1.95386 14.4997 2.10931C13.968 1.54346 13.2633 1.16819 12.4951 1.04183C11.7269 0.915478 10.9383 1.04512 10.2518 1.4106C9.56532 1.77608 9.01945 2.35692 8.69907 3.06283C8.37869 3.76874 8.30174 4.56016 8.48019 5.31406C7.07551 5.24403 5.70133 4.88093 4.44687 4.24833C3.19242 3.61573 2.08573 2.72778 1.19866 1.64213C0.884672 2.17859 0.719668 2.78843 0.72055 3.40919C0.72055 4.62757 1.34396 5.70394 2.29174 6.33414C1.73085 6.31657 1.1823 6.1659 0.69183 5.89468V5.93837C0.691999 6.74981 0.97428 7.53622 1.49081 8.16427C2.00734 8.79232 2.72633 9.22335 3.52588 9.38428C3.00521 9.52463 2.45925 9.54532 1.92935 9.44477C2.15478 10.1432 2.59416 10.7541 3.18596 11.1918C3.77776 11.6295 4.49236 11.8721 5.22969 11.8857C4.49688 12.4582 3.65781 12.8814 2.76046 13.1311C1.86311 13.3809 0.925081 13.4522 0 13.3411C1.61486 14.3741 3.49471 14.9225 5.41469 14.9207C11.9132 14.9207 15.4669 9.56577 15.4669 4.92166C15.4669 4.77041 15.4627 4.61749 15.4559 4.46792C16.1476 3.97063 16.7446 3.35459 17.2189 2.64876L17.218 2.64792Z" fill="black"/>
</svg>
